<svg id="圖層_1" data-name="圖層 1" xmlns="http://www.w3.org/2000/svg" viewBox="0 0 1510.8 255.4"><defs><style>.cls-1{fill:#e60012;}</style></defs><title>logo2</title><path class="cls-1" d="M192.1,72.3h0a3,3,0,0,0-2.9,2.8v96.7h0a.8.8,0,0,1-.5.7l-27.7,16-1.2.3a2.8,2.8,0,0,1-2.8-2.7v-4.5h0l-2-56.4a1,1,0,0,0-.9-.8.9.9,0,0,0-.8.8l-3,60.1h0l-2-56.3a.9.9,0,0,0-.8-.8.8.8,0,0,0-.8.9l-3,60h0l-2-56.2a.9.9,0,0,0-.9-.8.9.9,0,0,0-.8.8h0l-3,60.1h0l-2-56.3a.9.9,0,0,0-.8-.8.8.8,0,0,0-.8.8l-3,59.4-2-55.5h0a.8.8,0,0,0-.8-.9.9.9,0,0,0-.8.8l-3,60.1v77.5h0a2.9,2.9,0,0,1-2.9,2.9,3,3,0,0,1-1.6-.5,97.1,97.1,0,0,1,36-176,3.1,3.1,0,0,0,1.7-2.5V75.4h0a2.9,2.9,0,0,0-2.9-2.9h-.4a129,129,0,0,0,.1,255h.3a2.8,2.8,0,0,0,2.9-2.8V229.8h0a.8.8,0,0,1,.4-.7h0l27.7-16,1.2-.3a3,3,0,0,1,2.9,2.9h0v2.4h-.1l2.1,56.4a.8.8,0,0,0,.8.8.9.9,0,0,0,.8-.8l3-60.1,2,56.3a.8.8,0,0,0,.8.7.7.7,0,0,0,.8-.8l3-60h0l2.1,56.2a.8.8,0,0,0,.8.8.9.9,0,0,0,.8-.8h0l3-60.1,2,56.2a.9.9,0,0,0,.8.9.8.8,0,0,0,.8-.8l3-59.4,2,55.5h0a.8.8,0,0,0,.8.9.9.9,0,0,0,.8-.8l3-60.1V121.1a2.9,2.9,0,0,1,2.9-2.8,2.7,2.7,0,0,1,1.5.5,97.1,97.1,0,0,1-35.2,176.6,3,3,0,0,0-2.4,2.8v.2h0v26.5a2.9,2.9,0,0,0,2.9,2.8h.1a129,129,0,0,0-.1-255.4" transform="translate(-44.6 -72.3)"/><path class="cls-1" d="M1124.6,174.8l7.4-3.7a84.3,84.3,0,0,1,8,3.7Zm-13.5-31.5a117.9,117.9,0,0,1,19-1c6,0,10.7.1,14.3.3-2.3,1.7-6.3,4.5-13,9.5l-5-2.5a95.6,95.6,0,0,1-12.8-5.6,11.7,11.7,0,0,0-2.5-.7M1223,288a72.7,72.7,0,0,0,14.7-17.1c1.7-2.9,2-5.1,1-6.7s-3.2-2.5-6.7-2.3c-6.2.1-16.6-.2-30.8-.8-30.7-.8-48.5-1.2-53.6-1.2v-9l24.1.5c7,0,11.1-1.7,12.4-5.1a11,11,0,0,0,.6-3.3,7.4,7.4,0,0,0-2.1-5.2c-1.7-1.5-7.2-3.3-34.5-3.6a84.6,84.6,0,0,1,.5-10.4c6.3.2,11.4,1,14.7,2.4,6.3,2.5,11.2,2.3,14.6-.7A21.7,21.7,0,0,0,1185,215c.8-3.6-.2-6.4-2.8-8.3s-14.2-2.3-32.4-1.9a23.6,23.6,0,0,0-3.1-7.8,12.8,12.8,0,0,0-5.8-4.9h27.2c21.3,0,22-.2,22.4-.3h.3l2.3-1.8c3.5-4.8,3.1-9-.9-12.6-1.6-1.5-6.4-3.3-27.2-2.7-1.2-2.2-4.8-6-16.8-13.1l7.7-5.7c3.3-3,4.4-5.9,4.4-8.4a8.7,8.7,0,0,0-.9-3.6l4,.4c8.1,1.2,13.7.6,17-1.6,6.6-4.5,10.1-8.4,10.8-11.9a3.9,3.9,0,0,0-.7-3.3c-1.6-1.9-5.2-2.7-11.4-2.7h-36.9c.3-1.1.7-2.3.7-2.3a6.8,6.8,0,0,0,1.4-4.1,8.5,8.5,0,0,0-1-4c-1.8-3.3-5.3-5.3-10.4-6.2a14,14,0,0,0-10.9,2.9c-1.4,1.1-2,3.2-2,6.4a45.8,45.8,0,0,0,.8,7.4h-8.6c-14.6-1-24.6-.8-30.5.4s-11.5,5-14.6,9.8-2.3,9.1.2,13,10.7,4.7,22.2.5a87.1,87.1,0,0,1,10.6-3.2h-.2c-3.6,2.2-5.4,4.9-5.4,8v.5c.2,3.9,2.5,6.3,6.5,7.1a73,73,0,0,1,11.8,3l-17.2,10c-11.2-1.4-19.6-1.3-25,.3a15.9,15.9,0,0,0-9.2,6.7c-1.1,1.7-2.4,6.3-1.6,25.6s-2,33.5-5.9,39.3c-6.2,5.9-14.7,12-25.1,17.9-7.2,4.3-9.6,9.4-7.1,15.3,1.6,3.8,4.1,6.2,7.5,6.9,5.8,1,13.8-1.9,24.5-8.9,12.9-10.1,20.9-22.8,23.8-37.9,1.6-9.5,2.4-21.3,2.4-35.2,0-8.4,3.7-9.7,6.5-10h.4c1.3-.6,9.3-1.4,45.5-1.8-3.5,1.2-7.2,4.2-7.2,11.5v1.4h-12.9a5.3,5.3,0,0,0-1.8-2.4,25.6,25.6,0,0,0-11.7-6.5c-3-.3-5.2.2-6.7,1.6s-2.3,3.4-2.4,6.2c1,6.2.3,13-2.1,20.5-2.2,3.6-1.1,6.1.3,7.5s5.8,1.3,9.7-2.6,14.4-5.3,29.7-5.8a102.4,102.4,0,0,1,.6,10.5c-20-.8-31.6.5-35.5,3.9s-4.2,7-2.4,10.8,8.2,5.9,17.2,4.2a184.3,184.3,0,0,1,20.2-1.6V260l-28.2.2c-15.2.5-26.3,3.2-32.9,8-4,3.6-6,7.2-6,10.5a9.9,9.9,0,0,0,1.4,4.9q5.1,7.3,18.9,3.6a207.8,207.8,0,0,1,97.2-6.7,106.1,106.1,0,0,1,27.5,8.8c6.8,3,12.7,2.5,17.8-1.3m276.2-67.1-.2.2-10.9.2-1.9-.2h0a18.8,18.8,0,0,1-.8-4.4c0,.1.2-3.8.3-4.9a23.4,23.4,0,0,0,2.7-.4c8.4-.7,10.9.5,11.5,1s.2,1.8-.7,8.5m-64.7-7.5v.7a48.3,48.3,0,0,1-.7,7,.3.3,0,0,0-.1.2h-11a18.4,18.4,0,0,1-.9-4c.1.2.3-4.1.3-4.5l2.3-.3c8.1,0,9.8.8,10.1.9v.2M1377,197.7c-3.1,5.8-7,9.6-12.1,11.8l-1.7.9c0-7-.3-26-.3-31.6a10.4,10.4,0,0,0,5.4-1.8c2-1.2,3.7-1.5,5.1-1s4,3.6,5.6,8.1a19.5,19.5,0,0,1,.6,4.7,16.4,16.4,0,0,1-2.6,8.9m-14.2-51.3a39.2,39.2,0,0,1,1.7-10.6c4.7-.2,8.4.2,11,1.4s2.2.6,2.4.8c-.1,3.2-1.8,7.5-5.3,12.9a34.2,34.2,0,0,1-7.4,8.2,29.1,29.1,0,0,0-2.4,2.7Zm178,113.7c-8,.4-19.7-2.7-35.1-9.2l-4-4.8c-.1-1-.2-2.1-.3-3.8a22.3,22.3,0,0,0,10.9-1.1c3.9-1.4,6.1-4.9,6.7-10.4,1-9.8,2.3-16.8,3.7-20.7.8-2.4.7-5.2-.2-8.8a10.5,10.5,0,0,0-5.5-7.4c-.5-.2-13.8-.7-13.8-.7l-27.7-.5a11.4,11.4,0,0,0-9.5,4.6c-1.2,1.3-2.4,4.5.3,23.2.4,7.7,1,12.9,1.9,15.3a9.2,9.2,0,0,0,3.8,5.8c1.8,1.1,4.2,1.2,7.6.4l1.4-.3c-.1,6.9-3.6,12.9-11,17.9l-11.4,5.4a11.3,11.3,0,0,0-5,6.2c-1.6-3.2-5.7-9-16.9-21.8l-1.9-1.2a14.8,14.8,0,0,0,1.2-4.7c0-.4-.2-.9-.2-1.3a21.2,21.2,0,0,0,11.2-1c3.9-1.4,6.1-4.9,6.6-10.4,1.1-9.4,2.3-16.1,3.7-19.8a15.1,15.1,0,0,0-.1-8.7,10.8,10.8,0,0,0-5.6-7.5c-.5-.2-13.8-.7-13.8-.7l-25.8-.5a11.3,11.3,0,0,0-9.5,4.6.4.4,0,0,0-.1.3,36,36,0,0,0,.6-9.4c-.1-7.7-4.3-16.1-12.2-24.9-1.1-1.1-3.5-3.5,1.4-9.5,8.1-5.5,12.6-11.3,13.2-17.2.5-4.1-1-8.1-4.4-11.8s-10.6-6.4-19.2-6.5a42.9,42.9,0,0,1-15-3.2,39.7,39.7,0,0,0-17.7-1.1,18,18,0,0,0-11.2,5.6c-2.9,2.6-4.4,5.5-4.4,8.5a9.7,9.7,0,0,0,.3,2.3c.5,2.2,2.4,4,5.1,5.6,1,4.8,1.4,16,1.4,33.9,0,20.3-.6,49.1-1.8,86-.1,1.1-.1,2.2-.1,3.3,0,6.4,1.1,12,3.5,16.7s6.3,8.9,10.2,9.1,6.9-2.4,9.1-6.8a33.2,33.2,0,0,0,3-14.5c0-.4-.6-28.8-.8-40.4,4.1,1.4,9.5.5,11.7.1,9.5-2.4,16.7-7.2,21.4-14.2a21.2,21.2,0,0,0,4.7-7.6c-.3,3.2,0,8.6,1.5,18.4.5,7.5,1.1,12.5,1.9,14.9a9.8,9.8,0,0,0,3.9,5.8c1.5.9,3.4,1,5.9.6-1.5,6-4.4,10.9-9.5,14.5l-4,2.1a69.5,69.5,0,0,1-12.8,5.3,10.4,10.4,0,0,0-6.7,10.2c0,2.6,1,6.4,6.4,9.4s12.3,4,18.1.7a56.4,56.4,0,0,0,18.8-17.3c2.4,1.1,7.4,3.7,17.5,10a12.3,12.3,0,0,0,7.6,2.6,4.5,4.5,0,0,0,3.8-1.6c.1,0,.1-.2.2-.2.8,2,2.4,4.1,5.9,5.7,5.8,3.1,11.6,2.9,16.9-.6a48.5,48.5,0,0,0,17.1-18c5.6,2.2,12,8,19.3,18,6.1,7.2,15.9,5.6,29.5-4.5.1,0,5.3-5.7,5.3-5.7,2.3-3.5,2.9-6.3,1.7-8.6s-4.1-3.8-8.7-4.1m14.6-90.5c-.2-1.8-1.5-3.3-3.8-4.3a337.5,337.5,0,0,1-55.8-26.9c-12.3-7.5-21.2-11.8-27.6-13.6-1.6-4.9-3.1-7.5-5-8.2-4.2-.9-9.2,2.5-17,11.3s-22.6,14.9-40.1,21.2c-5.4,1.7-8.9,5.1-10.4,9.9s-.7,9,5.4,13.8c2.5,2.3,7.8,2.5,16.4.4a21.6,21.6,0,0,0,5.1-1.9c-3.4,4.1-2.8,8-1.5,10.6,2.5,4.9,8.5,6.5,17.8,4.8s24.7-2,47.2-1.6c7.3,0,11.5-1.8,13-5.6s-.1-7.8-1.7-9.5c-3.3-2.9-9.7-4.2-19.5-3.9h.1l-34.3-.2a47.6,47.6,0,0,0-14.4,1.6,157.2,157.2,0,0,0,19.4-15.7,57.9,57.9,0,0,1,13-9.5c10.4.4,22.6,9.5,36.3,27.3s31.4,20.8,53.9,5.8c1-.7,3.5-2.7,3.5-5.3v-.5M526.7,198.5l6.5-.6,13.5-.5,3.2,3.2-.5,4.3-3.3,5.4H530.5l-3.8-1.1-1-5.4Zm-26.8,11.2-6.5,1.1c-2.7.5-9.7,0-9.7,0l-8.1-.5-.5-7,2.2-4.8,9.1-1.7,9.2-1.5,4.3,3.2,2.1,6.4Zm-18.3-42.4,7,1.1,10.7,1.1,1.6,5.9-2.1,3.8h-7.5l-9.7.5-6.5-2.1-.5-8.1Zm78.5,92.5,5.4-7.1-1.6-9.1-8.1-2.1L545,239.9l-17.7-.6-.6-8.1h20l12.9,1.7,10.2,2.6,10.2,3.3,10.8,3.8,9.6-1.1,8.1-4.3,7-8.1,2.7-9.2-2.2-9.6H576.2l-5.3-2.2v-5.3l4.3-3.8,8-1.1,5.4-2.6,2.2-4.9,1.1-5.3-1.1-5.4H577.9l-1.7-3.8-3.7-5.3-8.1-3.8-8.6,2.7-3.8,9.7-25.3-.6-.5-10.7,5.4.5,9.1-.5,9.7-1.1,6.5-3.8,2.7-5.4-1.7-5.9L559,149l3.8-2.6,4.8-7.1H573l14.5-1,6-6,2.7-8.5-8.1-4.3-17.2-2.7.5-10.2.5-7-7.5-6.5H554.2l-5.4,8.6-3.2,15.1-15.6.5-8.6.6-7,9.1,1.1,6.4,8.6,3.8,16.6-1c1.7,0,6,3.1,6,3.1l1.6,7.6-3.8,3.7-14.5.6-10.2-1.1-8.6-3.7-4.9,3.7-29-1.1.5-3.7,3.8-4.3,4.3-4.8h7l5.3-1.7,3.8-5.4,1.6-5.9-6.4-5.3-7.6-.6-6.9-3.2-1.1-7.5-3.8-6.5-5.4-5.4-8.1-.5-5.8,5.9-.6,13.4-5.9,1.1s-8.1.6-9.7,1.1-7,5.3-7,5.3l-3.2,5.4,1.1,7.6,7.5,4.3h8.6l9.2-1.1,2.1,2.7,5.4,4.3,4.8,2.2s-1,3.7-2.7,4.2-4.8,4.9-4.8,4.9l1,11.3-6.4-.6-7,3.3-3.2,9.1-8.6,2.7-6.5,15.5,7,4.3h13.5l-1.6,8.6-16.2,1.6-14,3.2s-8.6,3.3-11.8,10.3,0,9.6,0,9.6l9.2,9.2,14.5,2.7,9.1-9.1,15.1-4.3s26.9-4.9,28.5-4.9,14,1.6,14,1.6l1,7.6-7.5,1.6H469.8c-1.7,0-8.7,6.5-8.7,6.5l-.5,10.1,8.1,3.9h32.2l1.1,28.4.6,8.6,1,5.9,6,2.2h6.9l5.4-6.5,2.2-6.9.5-10.8-.5-11.8,1.6-10.8,5.9-.5s9.1,1.6,11.3,1.6,8.6,1.6,8.6,1.6Zm264-76.8-.6,6.2-4.5,7.3-4.5,4.6-5.7.5-7.4-1.1-3.4-9-1.7-9.1,6.2-.6,6.8-.6h10.3Zm16.4,39,13.1.6,9.6-1.2,7.4-3.3.5,7.8-1.7,10.3-7.9-4-36.2-1.1-1.2-9.7,5.1-1.1Zm5.7-29.5,5.7-6.7,7.9.5,9.6,1.7,1.2,7.4-.6,7.4-6.2.5L849,202.2l-6.2-2.8Zm-49.9,39.1-9.6,2.3c-1.7.6-16.4,1.1-16.4,1.1l-11.3.6-2.2-4v-7.9l.5-3.9,14.7,1.1h24.3Zm-41.8-28.8-.6-6.9.6-3.9.5-4.5,9.7-1.7,6.2,4,6.2,8.4-6.2,1.2-7.9.5-6.2,3.4Zm163.7-74.3H902.3l-34.5-1.1-38.6-1.7v-13s-8.5-9.7-14.7-10.3-17.6,0-17.6,0l-3.9,5.8-.7,15.8s-66.2-4.5-72.4-2.3-17,13.6-17,13.6l2.3,11.4,5.1,6.2,8.5,5.7,6.8-3.4s9-6.3,11.3-5.7,21.6-2.2,21.6-2.2l14.6-2.9h16.4l7.4,2.9,1.7,11.3-4,4.5-6.2-1.1a21.2,21.2,0,0,0-4.5-2.8,45.3,45.3,0,0,0-5.7-1.2l-10.7,6.2-7.9,2.9-8.5-2.9-9.1-1.1-9.1,4-5.1,6.3.6,36.1,7.4,68.1,5.7,5.6,7.9-2.8,6.2-3.4.6-25.5,39,.6,2.3,19.8,1.1,12.5,3.4,11.3s5.1-.5,6.8-.5,8.5-2.3,8.5-2.3l2.8-9.1,2.3-11.3,1.1-20.4,36.3-1.2,8.5-6.2.6,11.4s-1.7,11.3-1.1,14.1-1.7,13-1.7,13,3.9,7.4,5.6,7.4,14.8-4.5,14.8-4.5l4.5-13,3.9-19.3,6.9-73.6-9.1-9.7-13.1-.6H856.4l-11.3-6.2H836L823,162l-.6-6.2,5.7-10.2,15.8.5,21,5.7s18.2,5.1,21,5.7,9.6,1.7,12.5,1.1,9-5.7,9-5.7l14.2-18.7Z" transform="translate(-44.6 -72.3)"/></svg>