<?xml version="1.0" encoding="utf-8"?>
<svg version="1.1" xmlns:xlink="http://www.w3.org/1999/xlink" width="11px" height="16px" xmlns="http://www.w3.org/2000/svg">
  <g transform="matrix(1 0 0 1 -629 -493 )">
    <path d="M 11 8  C 9.69571428571429 8  8.64285714285714 6.928  8.64285714285714 5.6  L 8.64285714285714 1.6  L 9.42857142857143 1.6  C 9.86071428571429 1.6  10.2142857142857 1.24  10.2142857142857 0.8  C 10.2142857142857 0.36  9.86071428571429 0  9.42857142857143 0  L 1.57142857142857 0  C 1.13928571428571 0  0.785714285714286 0.36  0.785714285714286 0.8  C 0.785714285714286 1.24  1.13928571428571 1.6  1.57142857142857 1.6  L 2.35714285714286 1.6  L 2.35714285714286 5.6  C 2.35714285714286 6.928  1.30428571428571 8  0 8  L 0 9.6  L 4.69071428571428 9.6  L 4.69071428571428 15.2  L 5.47642857142857 16  L 6.26214285714286 15.2  L 6.26214285714286 9.6  L 11 9.6  L 11 8  Z " fill-rule="nonzero" fill="#327ec7" stroke="none" transform="matrix(1 0 0 1 629 493 )" />
  </g>
</svg>