<?xml version="1.0" encoding="utf-8"?>
<svg version="1.1" xmlns:xlink="http://www.w3.org/1999/xlink" width="12px" height="12px" viewBox="1053 259.5  12 12" xmlns="http://www.w3.org/2000/svg">
  <path d="M 1059 259.5  C 1062.36 259.5  1065 262.14  1065 265.5  C 1065 268.86  1062.36 271.5  1059 271.5  C 1055.64 271.5  1053 268.86  1053 265.5  C 1053 262.14  1055.64 259.5  1059 259.5  Z " fill-rule="nonzero" fill="#ffffff" stroke="none" />
  <path d="M 1059 260  C 1062.08 260  1064.5 262.42  1064.5 265.5  C 1064.5 268.58  1062.08 271  1059 271  C 1055.92 271  1053.5 268.58  1053.5 265.5  C 1053.5 262.42  1055.92 260  1059 260  Z " stroke-width="1" stroke="#333333" fill="none" />
  <path d="M 1059 268.5  C 1057.32 268.5  1056 267.18  1056 265.5  C 1056 263.82  1057.32 262.5  1059 262.5  C 1060.68 262.5  1062 263.82  1062 265.5  C 1062 267.18  1060.68 268.5  1059 268.5  " fill-rule="nonzero" fill="#333333" stroke="none" />
</svg>