<?xml version="1.0" encoding="utf-8"?>
<svg version="1.1" xmlns:xlink="http://www.w3.org/1999/xlink" width="12px" height="12px" viewBox="1000 259.5  12 12" xmlns="http://www.w3.org/2000/svg">
  <path d="M 1006 259.5  C 1009.36 259.5  1012 262.14  1012 265.5  C 1012 268.86  1009.36 271.5  1006 271.5  C 1002.64 271.5  1000 268.86  1000 265.5  C 1000 262.14  1002.64 259.5  1006 259.5  Z " fill-rule="nonzero" fill="#ffffff" stroke="none" />
  <path d="M 1006 260  C 1009.08 260  1011.5 262.42  1011.5 265.5  C 1011.5 268.58  1009.08 271  1006 271  C 1002.92 271  1000.5 268.58  1000.5 265.5  C 1000.5 262.42  1002.92 260  1006 260  Z " stroke-width="1" stroke="#333333" fill="none" />
  <path d="M 1006 268.5  C 1004.32 268.5  1003 267.18  1003 265.5  C 1003 263.82  1004.32 262.5  1006 262.5  C 1007.68 262.5  1009 263.82  1009 265.5  C 1009 267.18  1007.68 268.5  1006 268.5  " fill-rule="nonzero" fill="#333333" stroke="none" />
</svg>