<?xml version="1.0" encoding="utf-8"?>
<svg version="1.1" xmlns:xlink="http://www.w3.org/1999/xlink" width="1040px" height="34px" xmlns="http://www.w3.org/2000/svg">
  <g transform="matrix(1 0 0 1 -10 -48 )">
    <path d="M 11 52  A 3 3 0 0 1 14 49 L 1046 49  A 3 3 0 0 1 1049 52 L 1049 78  A 3 3 0 0 1 1046 81 L 14 81  A 3 3 0 0 1 11 78 L 11 52  Z " fill-rule="nonzero" fill="#f7f7f7" stroke="none" />
    <path d="M 10.5 52  A 3.5 3.5 0 0 1 14 48.5 L 1046 48.5  A 3.5 3.5 0 0 1 1049.5 52 L 1049.5 78  A 3.5 3.5 0 0 1 1046 81.5 L 14 81.5  A 3.5 3.5 0 0 1 10.5 78 L 10.5 52  Z " stroke-width="1" stroke="#aaaaaa" fill="none" stroke-opacity="0.596078431372549" />
  </g>
</svg>