<?xml version="1.0" encoding="utf-8"?>
<svg version="1.1" xmlns:xlink="http://www.w3.org/1999/xlink" width="19px" height="19px" xmlns="http://www.w3.org/2000/svg">
  <g transform="matrix(1 0 0 1 -176 -211 )">
    <path d="M 13.1243489583333 8.85677083333333  C 13.3470052083333 9.01345486111111  13.4583333333333 9.22786458333333  13.4583333333333 9.5  C 13.4583333333333 9.77213541666667  13.3470052083333 9.98654513888889  13.1243489583333 10.1432291666667  L 7.58268229166667 14.1015625  C 7.32703993055556 14.2912326388889  7.05490451388889 14.3118489583333  6.76627604166667 14.1634114583333  C 6.47764756944444 14.0232204861111  6.33333333333333 13.7881944444444  6.33333333333333 13.4583333333333  L 6.33333333333333 5.54166666666667  C 6.33333333333333 5.21180555555555  6.47764756944444 4.97677951388889  6.76627604166667 4.83658854166667  C 7.05490451388889 4.68815104166667  7.32703993055556 4.70876736111111  7.58268229166667 4.8984375  L 13.1243489583333 8.85677083333333  Z M 15.7220052083333 15.7220052083333  C 15.7962239583333 15.6477864583333  15.8333333333333 15.5529513888889  15.8333333333333 15.4375  L 15.8333333333333 3.5625  C 15.8333333333333 3.44704861111111  15.7962239583333 3.35221354166667  15.7220052083333 3.27799479166667  C 15.6477864583333 3.20377604166667  15.5529513888889 3.16666666666667  15.4375 3.16666666666667  L 3.5625 3.16666666666667  C 3.44704861111111 3.16666666666667  3.35221354166667 3.20377604166667  3.27799479166667 3.27799479166667  C 3.20377604166667 3.35221354166667  3.16666666666667 3.44704861111111  3.16666666666667 3.5625  L 3.16666666666667 15.4375  C 3.16666666666667 15.5529513888889  3.20377604166667 15.6477864583333  3.27799479166667 15.7220052083333  C 3.35221354166667 15.7962239583333  3.44704861111111 15.8333333333333  3.5625 15.8333333333333  L 15.4375 15.8333333333333  C 15.5529513888889 15.8333333333333  15.6477864583333 15.7962239583333  15.7220052083333 15.7220052083333  Z M 17.9547526041667 1.04524739583333  C 18.6515842013889 1.74207899305555  19 2.58116319444444  19 3.5625  L 19 15.4375  C 19 16.4188368055556  18.6515842013889 17.2579210069444  17.9547526041667 17.9547526041667  C 17.2579210069444 18.6515842013889  16.4188368055556 19  15.4375 19  L 3.5625 19  C 2.58116319444444 19  1.74207899305556 18.6515842013889  1.04524739583333 17.9547526041667  C 0.348415798611111 17.2579210069444  0 16.4188368055556  0 15.4375  L 0 3.5625  C 0 2.58116319444444  0.348415798611111 1.74207899305555  1.04524739583333 1.04524739583333  C 1.74207899305556 0.34841579861111  2.58116319444444 0  3.5625 0  L 15.4375 0  C 16.4188368055556 0  17.2579210069444 0.34841579861111  17.9547526041667 1.04524739583333  Z " fill-rule="nonzero" fill="#686963" stroke="none" fill-opacity="0.901960784313726" transform="matrix(1 0 0 1 176 211 )" />
  </g>
</svg>