<?xml version="1.0" encoding="utf-8"?>
<svg version="1.1" xmlns:xlink="http://www.w3.org/1999/xlink" width="1086px" height="378px" xmlns="http://www.w3.org/2000/svg">
  <defs>
    <filter x="153px" y="483px" width="1086px" height="378px" filterUnits="userSpaceOnUse" id="filter381">
      <feOffset dx="3" dy="3" in="SourceAlpha" result="shadowOffsetInner" />
      <feGaussianBlur stdDeviation="2.5" in="shadowOffsetInner" result="shadowGaussian" />
      <feComposite in2="shadowGaussian" operator="atop" in="SourceAlpha" result="shadowComposite" />
      <feColorMatrix type="matrix" values="0 0 0 0 0  0 0 0 0 0  0 0 0 0 0  0 0 0 0.101960784313725 0  " in="shadowComposite" />
    </filter>
    <g id="widget382">
      <path d="M 156 490  A 4 4 0 0 1 160 486 L 1226 486  A 4 4 0 0 1 1230 490 L 1230 848  A 4 4 0 0 1 1226 852 L 160 852  A 4 4 0 0 1 156 848 L 156 490  Z " fill-rule="nonzero" fill="#ffffff" stroke="none" />
      <path d="M 155.5 490  A 4.5 4.5 0 0 1 160 485.5 L 1226 485.5  A 4.5 4.5 0 0 1 1230.5 490 L 1230.5 848  A 4.5 4.5 0 0 1 1226 852.5 L 160 852.5  A 4.5 4.5 0 0 1 155.5 848 L 155.5 490  Z " stroke-width="1" stroke="#aaaaaa" fill="none" stroke-opacity="0.501960784313725" />
    </g>
  </defs>
  <g transform="matrix(1 0 0 1 -153 -483 )">
    <use xlink:href="#widget382" filter="url(#filter381)" />
    <use xlink:href="#widget382" />
  </g>
</svg>