<?xml version="1.0" encoding="utf-8"?>
<svg version="1.1" xmlns:xlink="http://www.w3.org/1999/xlink" width="12px" height="12px" viewBox="298 -707.5  12 12" xmlns="http://www.w3.org/2000/svg">
  <path d="M 304 -707.5  C 307.36 -707.5  310 -704.86  310 -701.5  C 310 -698.14  307.36 -695.5  304 -695.5  C 300.64 -695.5  298 -698.14  298 -701.5  C 298 -704.86  300.64 -707.5  304 -707.5  Z " fill-rule="nonzero" fill="#f0f0f0" stroke="none" />
  <path d="M 304 -707  C 307.08 -707  309.5 -704.58  309.5 -701.5  C 309.5 -698.42  307.08 -696  304 -696  C 300.92 -696  298.5 -698.42  298.5 -701.5  C 298.5 -704.58  300.92 -707  304 -707  Z " stroke-width="1" stroke="#333333" fill="none" />
  <path d="M 304 -698.5  C 302.32 -698.5  301 -699.82  301 -701.5  C 301 -703.18  302.32 -704.5  304 -704.5  C 305.68 -704.5  307 -703.18  307 -701.5  C 307 -699.82  305.68 -698.5  304 -698.5  " fill-rule="nonzero" fill="#333333" stroke="none" />
</svg>