<?xml version="1.0" encoding="utf-8"?>
<svg version="1.1" xmlns:xlink="http://www.w3.org/1999/xlink" width="22px" height="18px" xmlns="http://www.w3.org/2000/svg">
  <g transform="matrix(1 0 0 1 -1251 -130 )">
    <path d="M 22 4.5  C 22 3.2625  21.01 2.25  19.8 2.25  L 11 2.25  L 8.8 0  L 2.2 0  C 0.99 0  0.0109999999999998 1.0125  0 2.25  L 0 15.75  C 0 16.9875  0.99 18  2.2 18  L 19.8 18  C 21.01 18  22 16.9875  22 15.75  L 22 4.5  Z M 13.2 11.25  L 13.2 13.5  L 4.4 13.5  L 4.4 11.25  L 13.2 11.25  Z M 17.6 7  L 17.6 9  L 4.4 9  L 4.4 7  L 17.6 7  Z " fill-rule="nonzero" fill="#026d93" stroke="none" transform="matrix(1 0 0 1 1251 130 )" />
  </g>
</svg>