<?xml version="1.0" encoding="utf-8"?>
<svg version="1.1" xmlns:xlink="http://www.w3.org/1999/xlink" width="12px" height="12px" viewBox="171 452  12 12" xmlns="http://www.w3.org/2000/svg">
  <path d="M 171.5 454  A 1.5 1.5 0 0 1 173 452.5 L 181 452.5  A 1.5 1.5 0 0 1 182.5 454 L 182.5 462  A 1.5 1.5 0 0 1 181 463.5 L 173 463.5  A 1.5 1.5 0 0 1 171.5 462 L 171.5 454  Z " fill-rule="nonzero" fill="#f0f0f0" stroke="none" />
  <path d="M 171.5 454  A 1.5 1.5 0 0 1 173 452.5 L 181 452.5  A 1.5 1.5 0 0 1 182.5 454 L 182.5 462  A 1.5 1.5 0 0 1 181 463.5 L 173 463.5  A 1.5 1.5 0 0 1 171.5 462 L 171.5 454  Z " stroke-width="1" stroke="#797979" fill="none" />
</svg>