<?xml version="1.0" encoding="utf-8"?>
<svg version="1.1" xmlns:xlink="http://www.w3.org/1999/xlink" width="15px" height="15px" xmlns="http://www.w3.org/2000/svg">
  <g transform="matrix(1 0 0 1 -194 -475 )">
    <path d="M 14.4852941176471 7.5  C 14.4852941176471 3.64411764705882  11.3558823529412 0.514705882352941  7.5 0.514705882352941  C 3.64411764705882 0.514705882352941  0.514705882352941 3.64411764705882  0.514705882352941 7.5  C 0.514705882352941 11.3558823529412  3.64411764705882 14.4852941176471  7.5 14.4852941176471  C 11.3558823529412 14.4852941176471  14.4852941176471 11.3558823529412  14.4852941176471 7.5  Z M 10.9926470588235 6.80147058823529  L 10.9926470588235 8.1985294117647  L 8.1985294117647 8.1985294117647  L 8.1985294117647 10.9926470588235  L 6.80147058823529 10.9926470588235  L 6.80147058823529 8.1985294117647  L 4.00735294117647 8.1985294117647  L 4.00735294117647 6.80147058823529  L 6.80147058823529 6.80147058823529  L 6.80147058823529 4.00735294117647  L 8.1985294117647 4.00735294117647  L 8.1985294117647 6.80147058823529  L 10.9926470588235 6.80147058823529  Z " fill-rule="nonzero" fill="#026d9b" stroke="none" transform="matrix(1 0 0 1 194 475 )" />
  </g>
</svg>