<?xml version="1.0" encoding="utf-8"?>
<!-- Generator: Adobe Illustrator 26.0.1, SVG Export Plug-In . SVG Version: 6.00 Build 0)  -->
<svg version="1.1" id="圖層_1" xmlns="http://www.w3.org/2000/svg" xmlns:xlink="http://www.w3.org/1999/xlink" x="0px" y="0px"
	 viewBox="0 0 1510.8 255.4" style="enable-background:new 0 0 1510.8 255.4;" xml:space="preserve">
<style type="text/css">
	.st0{fill:#FFFFFF;}
</style>
<path class="st0" d="M147.5,0L147.5,0c-1.5,0-2.8,1.3-2.9,2.8v96.7l0,0c0,0.3-0.2,0.6-0.5,0.7l-27.7,16l-1.2,0.3
	c-1.5,0-2.7-1.2-2.8-2.7v-4.5l0,0l-2-56.4c-0.1-0.4-0.5-0.8-0.9-0.8c-0.4,0-0.8,0.4-0.8,0.8l-3,60.1l0,0l-2-56.3
	c0-0.4-0.4-0.8-0.8-0.8c-0.4,0-0.8,0.4-0.8,0.8c0,0,0,0.1,0,0.1l-3,60l0,0l-2-56.2c-0.1-0.5-0.4-0.8-0.9-0.8c-0.4,0-0.8,0.4-0.8,0.8
	l0,0l-3,60.1l0,0l-2-56.3c0-0.4-0.4-0.8-0.8-0.8c-0.4,0-0.8,0.4-0.8,0.8l0,0l-3,59.4l-2-55.5l0,0c0.1-0.4-0.3-0.8-0.7-0.9
	c0,0-0.1,0-0.1,0c-0.4,0-0.8,0.4-0.8,0.8l-3,60.1v77.5l0,0c0,1.6-1.3,2.9-2.9,2.9c-0.6,0-1.1-0.2-1.6-0.5
	C30.2,178.3,18.3,118,48.2,73.5c14.5-21.5,37-36.4,62.5-41.3c1-0.5,1.6-1.4,1.7-2.5V3.1l0,0c0-1.6-1.3-2.9-2.9-2.9h-0.4
	C38.7,11.1-9.6,76.9,1.3,147.4c8.6,55.6,52.3,99.3,107.9,107.8h0.3c1.5,0.1,2.8-1.2,2.9-2.7c0,0,0-0.1,0-0.1v-94.9l0,0
	c0-0.3,0.2-0.6,0.4-0.7l0,0l27.7-16l1.2-0.3c1.6,0.1,2.8,1.3,2.9,2.9l0,0v2.4h-0.1l2.1,56.4c0,0.4,0.4,0.8,0.8,0.8
	c0.4,0,0.8-0.4,0.8-0.8l3-60.1l2,56.3c0.1,0.4,0.4,0.7,0.8,0.7c0.4,0.1,0.7-0.2,0.8-0.6c0-0.1,0-0.1,0-0.2l3-60l0,0l2.1,56.2
	c0,0.4,0.4,0.8,0.8,0.8c0.4,0,0.8-0.4,0.8-0.8l0,0l3-60.1l2,56.2c0,0.5,0.3,0.8,0.8,0.9c0.4,0,0.8-0.4,0.8-0.8l3-59.4l2,55.5l0,0
	c-0.1,0.4,0.3,0.8,0.7,0.9c0,0,0.1,0,0.1,0c0.4,0,0.8-0.4,0.8-0.8l3-60.1v-78c0.1-1.6,1.3-2.8,2.9-2.8c0.5,0,1.1,0.2,1.5,0.5
	c44.8,29.4,57.4,89.6,27.9,134.4c-14.5,22-37.2,37.3-63.1,42.2c-1.3,0.3-2.3,1.4-2.4,2.8v0.2l0,0v26.5c0.1,1.6,1.3,2.8,2.9,2.8h0.1
	c70.5-10.1,119.5-75.5,109.4-146C248.7,52.7,204.1,8.1,147.5,0"/>
<path class="st0" d="M1080,102.5l7.4-3.7c2.7,1.1,5.4,2.3,8,3.7H1080z M1066.5,71c6.3-0.8,12.7-1.2,19-1c6,0,10.7,0.1,14.3,0.3
	c-2.3,1.7-6.3,4.5-13,9.5l-5-2.5c-4.4-1.6-8.7-3.4-12.8-5.6C1068.2,71.4,1067.4,71.1,1066.5,71 M1178.4,215.7
	c5.8-4.9,10.7-10.7,14.7-17.1c1.7-2.9,2-5.1,1-6.7s-3.2-2.5-6.7-2.3c-6.2,0.1-16.6-0.2-30.8-0.8c-30.7-0.8-48.5-1.2-53.6-1.2v-9
	l24.1,0.5c7,0,11.1-1.7,12.4-5.1c0.4-1.1,0.6-2.2,0.6-3.3c0-1.9-0.7-3.8-2.1-5.2c-1.7-1.5-7.2-3.3-34.5-3.6c0-3.5,0.1-6.9,0.5-10.4
	c6.3,0.2,11.4,1,14.7,2.4c6.3,2.5,11.2,2.3,14.6-0.7c3.4-2.7,5.8-6.4,7.1-10.5c0.8-3.6-0.2-6.4-2.8-8.3s-14.2-2.3-32.4-1.9
	c-0.6-2.8-1.6-5.4-3.1-7.8c-1.4-2.2-3.4-3.9-5.8-4.9h27.2c21.3,0,22-0.2,22.4-0.3h0.3l2.3-1.8c3.5-4.8,3.1-9-0.9-12.6
	c-1.6-1.5-6.4-3.3-27.2-2.7c-1.2-2.2-4.8-6-16.8-13.1l7.7-5.7c3.3-3,4.4-5.9,4.4-8.4c0-1.3-0.3-2.5-0.9-3.6l4,0.4
	c8.1,1.2,13.7,0.6,17-1.6c6.6-4.5,10.1-8.4,10.8-11.9c0.3-1.1,0-2.4-0.7-3.3c-1.6-1.9-5.2-2.7-11.4-2.7h-36.9
	c0.3-1.1,0.7-2.3,0.7-2.3c0.9-1.2,1.4-2.6,1.4-4.1c0-1.4-0.3-2.8-1-4c-1.8-3.3-5.3-5.3-10.4-6.2c-3.9-0.6-7.8,0.4-10.9,2.9
	c-1.4,1.1-2,3.2-2,6.4c0.1,2.5,0.3,5,0.8,7.4h-8.6c-14.6-1-24.6-0.8-30.5,0.4s-11.5,5-14.6,9.8s-2.3,9.1,0.2,13s10.7,4.7,22.2,0.5
	c3.5-1.3,7-2.4,10.6-3.2h-0.2c-3.6,2.2-5.4,4.9-5.4,8v0.5c0.2,3.9,2.5,6.3,6.5,7.1c4,0.7,8,1.7,11.8,3l-17.2,10
	c-11.2-1.4-19.6-1.3-25,0.3c-3.8,1-7.1,3.4-9.2,6.7c-1.1,1.7-2.4,6.3-1.6,25.6s-2,33.5-5.9,39.3c-6.2,5.9-14.7,12-25.1,17.9
	c-7.2,4.3-9.6,9.4-7.1,15.3c1.6,3.8,4.1,6.2,7.5,6.9c5.8,1,13.8-1.9,24.5-8.9c12.9-10.1,20.9-22.8,23.8-37.9
	c1.6-9.5,2.4-21.3,2.4-35.2c0-8.4,3.7-9.7,6.5-10h0.4c1.3-0.6,9.3-1.4,45.5-1.8c-3.5,1.2-7.2,4.2-7.2,11.5v1.4h-12.9
	c-0.4-1-1-1.8-1.8-2.4c-3.3-3.2-7.3-5.4-11.7-6.5c-3-0.3-5.2,0.2-6.7,1.6s-2.3,3.4-2.4,6.2c1,6.2,0.3,13-2.1,20.5
	c-2.2,3.6-1.1,6.1,0.3,7.5s5.8,1.3,9.7-2.6s14.4-5.3,29.7-5.8c0.4,3.5,0.6,7,0.6,10.5c-20-0.8-31.6,0.5-35.5,3.9s-4.2,7-2.4,10.8
	s8.2,5.9,17.2,4.2c6.7-0.9,13.4-1.4,20.2-1.6v8.6l-28.2,0.2c-15.2,0.5-26.3,3.2-32.9,8c-4,3.6-6,7.2-6,10.5c0,1.7,0.5,3.4,1.4,4.9
	c3.4,4.9,9.7,6.1,18.9,3.6c31.4-9.9,64.7-12.2,97.2-6.7c9.5,1.7,18.8,4.6,27.5,8.8C1167.4,220,1173.3,219.5,1178.4,215.7
	 M1454.6,148.6l-0.2,0.2l-10.9,0.2l-1.9-0.2l0,0c-0.4-1.4-0.7-2.9-0.8-4.4c0,0.1,0.2-3.8,0.3-4.9c0.9-0.1,1.8-0.2,2.7-0.4
	c8.4-0.7,10.9,0.5,11.5,1S1455.5,141.9,1454.6,148.6 M1389.9,141.1v0.7c-0.1,2.3-0.3,4.7-0.7,7c-0.1,0.1-0.1,0.1-0.1,0.2h-11
	c-0.4-1.3-0.8-2.6-0.9-4c0.1,0.2,0.3-4.1,0.3-4.5l2.3-0.3C1387.9,140.2,1389.6,141,1389.9,141.1l0,0.2 M1332.4,125.4
	c-3.1,5.8-7,9.6-12.1,11.8l-1.7,0.9c0-7-0.3-26-0.3-31.6c1.9-0.1,3.8-0.7,5.4-1.8c2-1.2,3.7-1.5,5.1-1s4,3.6,5.6,8.1
	c0.4,1.5,0.6,3.1,0.6,4.7C1335,119.7,1334.1,122.7,1332.4,125.4 M1318.2,74.1c0.1-3.6,0.6-7.2,1.7-10.6c4.7-0.2,8.4,0.2,11,1.4
	s2.2,0.6,2.4,0.8c-0.1,3.2-1.8,7.5-5.3,12.9c-2,3.1-4.5,5.9-7.4,8.2c-0.9,0.8-1.7,1.8-2.4,2.7L1318.2,74.1z M1496.2,187.8
	c-8,0.4-19.7-2.7-35.1-9.2l-4-4.8c-0.1-1-0.2-2.1-0.3-3.8c3.7,0.5,7.4,0.2,10.9-1.1c3.9-1.4,6.1-4.9,6.7-10.4
	c1-9.8,2.3-16.8,3.7-20.7c0.8-2.4,0.7-5.2-0.2-8.8c-0.6-3.2-2.6-5.9-5.5-7.4c-0.5-0.2-13.8-0.7-13.8-0.7l-27.7-0.5
	c-3.7-0.1-7.3,1.6-9.5,4.6c-1.2,1.3-2.4,4.5,0.3,23.2c0.4,7.7,1,12.9,1.9,15.3c0.5,2.4,1.8,4.4,3.8,5.8c1.8,1.1,4.2,1.2,7.6,0.4
	l1.4-0.3c-0.1,6.9-3.6,12.9-11,17.9l-11.4,5.4c-2.4,1.4-4.1,3.6-5,6.2c-1.6-3.2-5.7-9-16.9-21.8l-1.9-1.2c0.7-1.5,1.1-3.1,1.2-4.7
	c0-0.4-0.2-0.9-0.2-1.3c3.8,0.7,7.6,0.3,11.2-1c3.9-1.4,6.1-4.9,6.6-10.4c1.1-9.4,2.3-16.1,3.7-19.8c0.8-2.8,0.8-5.9-0.1-8.7
	c-0.6-3.2-2.7-6-5.6-7.5c-0.5-0.2-13.8-0.7-13.8-0.7l-25.8-0.5c-3.7-0.1-7.3,1.6-9.5,4.6c-0.1,0.1-0.1,0.2-0.1,0.3
	c0.6-3.1,0.8-6.3,0.6-9.4c-0.1-7.7-4.3-16.1-12.2-24.9c-1.1-1.1-3.5-3.5,1.4-9.5c8.1-5.5,12.6-11.3,13.2-17.2
	c0.5-4.1-1-8.1-4.4-11.8s-10.6-6.4-19.2-6.5c-5.2-0.2-10.2-1.2-15-3.2c-5.7-1.7-11.8-2.1-17.7-1.1c-4.3,0.5-8.3,2.5-11.2,5.6
	c-2.9,2.6-4.4,5.5-4.4,8.5c0,0.8,0.1,1.5,0.3,2.3c0.5,2.2,2.4,4,5.1,5.6c1,4.8,1.4,16,1.4,33.9c0,20.3-0.6,49.1-1.8,86
	c-0.1,1.1-0.1,2.2-0.1,3.3c0,6.4,1.1,12,3.5,16.7s6.3,8.9,10.2,9.1s6.9-2.4,9.1-6.8c2.1-4.5,3.1-9.5,3-14.5c0-0.4-0.6-28.8-0.8-40.4
	c4.1,1.4,9.5,0.5,11.7,0.1c9.5-2.4,16.7-7.2,21.4-14.2c2.1-2.2,3.7-4.8,4.7-7.6c-0.3,3.2,0,8.6,1.5,18.4c0.5,7.5,1.1,12.5,1.9,14.9
	c0.5,2.3,1.9,4.4,3.9,5.8c1.5,0.9,3.4,1,5.9,0.6c-1.5,6-4.4,10.9-9.5,14.5l-4,2.1c-4.1,2.2-8.4,4-12.8,5.3
	c-4.2,1.6-6.9,5.7-6.7,10.2c0,2.6,1,6.4,6.4,9.4s12.3,4,18.1,0.7c7.5-4.3,13.9-10.2,18.8-17.3c2.4,1.1,7.4,3.7,17.5,10
	c2.2,1.7,4.8,2.6,7.6,2.6c1.5,0.1,2.9-0.5,3.8-1.6c0.1,0,0.1-0.2,0.2-0.2c0.8,2,2.4,4.1,5.9,5.7c5.8,3.1,11.6,2.9,16.9-0.6
	c7.2-4.4,13.1-10.6,17.1-18c5.6,2.2,12,8,19.3,18c6.1,7.2,15.9,5.6,29.5-4.5c0.1,0,5.3-5.7,5.3-5.7c2.3-3.5,2.9-6.3,1.7-8.6
	S1500.8,188.1,1496.2,187.8 M1510.8,97.3c-0.2-1.8-1.5-3.3-3.8-4.3c-19.4-7.2-38.1-16.2-55.8-26.9c-12.3-7.5-21.2-11.8-27.6-13.6
	c-1.6-4.9-3.1-7.5-5-8.2c-4.2-0.9-9.2,2.5-17,11.3s-22.6,14.9-40.1,21.2c-5.4,1.7-8.9,5.1-10.4,9.9s-0.7,9,5.4,13.8
	c2.5,2.3,7.8,2.5,16.4,0.4c1.8-0.4,3.5-1.1,5.1-1.9c-3.4,4.1-2.8,8-1.5,10.6c2.5,4.9,8.5,6.5,17.8,4.8s24.7-2,47.2-1.6
	c7.3,0,11.5-1.8,13-5.6s-0.1-7.8-1.7-9.5c-3.3-2.9-9.7-4.2-19.5-3.9h0.1l-34.3-0.2c-4.9-0.2-9.7,0.3-14.4,1.6
	c6.9-4.7,13.4-10,19.4-15.7c3.9-3.8,8.2-7,13-9.5c10.4,0.4,22.6,9.5,36.3,27.3s31.4,20.8,53.9,5.8c1-0.7,3.5-2.7,3.5-5.3V97.3
	 M482.1,126.2l6.5-0.6l13.5-0.5l3.2,3.2l-0.5,4.3l-3.3,5.4h-15.6l-3.8-1.1l-1-5.4L482.1,126.2z M455.3,137.4l-6.5,1.1
	c-2.7,0.5-9.7,0-9.7,0L431,138l-0.5-7l2.2-4.8l9.1-1.7l9.2-1.5l4.3,3.2l2.1,6.4L455.3,137.4z M437,95l7,1.1l10.7,1.1l1.6,5.9
	l-2.1,3.8h-7.5l-9.7,0.5l-6.5-2.1l-0.5-8.1L437,95z M515.5,187.5l5.4-7.1l-1.6-9.1l-8.1-2.1l-10.8-1.6l-17.7-0.6l-0.6-8.1h20
	l12.9,1.7l10.2,2.6l10.2,3.3l10.8,3.8l9.6-1.1l8.1-4.3l7-8.1l2.7-9.2l-2.2-9.6h-39.8l-5.3-2.2v-5.3l4.3-3.8l8-1.1l5.4-2.6l2.2-4.9
	l1.1-5.3l-1.1-5.4h-12.9l-1.7-3.8l-3.7-5.3l-8.1-3.8l-8.6,2.7l-3.8,9.7l-25.3-0.6l-0.5-10.7l5.4,0.5l9.1-0.5l9.7-1.1l6.5-3.8
	l2.7-5.4l-1.7-5.9l1.1-2.7l3.8-2.6L523,67h5.4l14.5-1l6-6l2.7-8.5l-8.1-4.3l-17.2-2.7l0.5-10.2l0.5-7l-7.5-6.5h-10.2l-5.4,8.6
	L501,44.5L485.4,45l-8.6,0.6l-7,9.1l1.1,6.4l8.6,3.8l16.6-1c1.7,0,6,3.1,6,3.1l1.6,7.6l-3.8,3.7l-14.5,0.6l-10.2-1.1l-8.6-3.7
	l-4.9,3.7l-29-1.1l0.5-3.7l3.8-4.3l4.3-4.8h7l5.3-1.7l3.8-5.4l1.6-5.9l-6.4-5.3L445,45l-6.9-3.2l-1.1-7.5l-3.8-6.5l-5.4-5.4
	l-8.1-0.5l-5.8,5.9l-0.6,13.4l-5.9,1.1c0,0-8.1,0.6-9.7,1.1s-7,5.3-7,5.3l-3.2,5.4l1.1,7.6l7.5,4.3h8.6l9.2-1.1l2.1,2.7l5.4,4.3
	l4.8,2.2c0,0-1,3.7-2.7,4.2s-4.8,4.9-4.8,4.9l1,11.3l-6.4-0.6l-7,3.3l-3.2,9.1l-8.6,2.7l-6.5,15.5l7,4.3h13.5l-1.6,8.6l-16.2,1.6
	l-14,3.2c0,0-8.6,3.3-11.8,10.3s0,9.6,0,9.6l9.2,9.2l14.5,2.7l9.1-9.1l15.1-4.3c0,0,26.9-4.9,28.5-4.9s14,1.6,14,1.6l1,7.6l-7.5,1.6
	h-23.6c-1.7,0-8.7,6.5-8.7,6.5l-0.5,10.1l8.1,3.9h32.2l1.1,28.4l0.6,8.6l1,5.9l6,2.2h6.9l5.4-6.5l2.2-6.9l0.5-10.8l-0.5-11.8
	l1.6-10.8l5.9-0.5c0,0,9.1,1.6,11.3,1.6s8.6,1.6,8.6,1.6L515.5,187.5z M779.5,110.7l-0.6,6.2l-4.5,7.3l-4.5,4.6l-5.7,0.5l-7.4-1.1
	l-3.4-9l-1.7-9.1l6.2-0.6l6.8-0.6H775L779.5,110.7z M795.9,149.7l13.1,0.6l9.6-1.2l7.4-3.3l0.5,7.8l-1.7,10.3l-7.9-4l-36.2-1.1
	l-1.2-9.7l5.1-1.1L795.9,149.7z M801.6,120.2l5.7-6.7l7.9,0.5l9.6,1.7l1.2,7.4l-0.6,7.4l-6.2,0.5l-14.8-1.1l-6.2-2.8L801.6,120.2z
	 M751.7,159.3l-9.6,2.3c-1.7,0.6-16.4,1.1-16.4,1.1l-11.3,0.6l-2.2-4v-7.9l0.5-3.9l14.7,1.1h24.3V159.3z M709.9,130.5l-0.6-6.9
	l0.6-3.9l0.5-4.5l9.7-1.7l6.2,4l6.2,8.4l-6.2,1.2l-7.9,0.5l-6.2,3.4L709.9,130.5z M873.6,56.2h-15.9l-34.5-1.1l-38.6-1.7v-13
	c0,0-8.5-9.7-14.7-10.3s-17.6,0-17.6,0l-3.9,5.8l-0.7,15.8c0,0-66.2-4.5-72.4-2.3s-17,13.6-17,13.6l2.3,11.4l5.1,6.2l8.5,5.7
	l6.8-3.4c0,0,9-6.3,11.3-5.7s21.6-2.2,21.6-2.2l14.6-2.9h16.4l7.4,2.9l1.7,11.3l-4,4.5l-6.2-1.1c-1.4-1.1-2.9-2.1-4.5-2.8
	c-1.9-0.5-3.8-0.9-5.7-1.2l-10.7,6.2l-7.9,2.9l-8.5-2.9l-9.1-1.1l-9.1,4l-5.1,6.3l0.6,36.1l7.4,68.1l5.7,5.6l7.9-2.8l6.2-3.4
	l0.6-25.5l39,0.6l2.3,19.8l1.1,12.5l3.4,11.3c0,0,5.1-0.5,6.8-0.5s8.5-2.3,8.5-2.3l2.8-9.1l2.3-11.3l1.1-20.4l36.3-1.2l8.5-6.2
	l0.6,11.4c0,0-1.7,11.3-1.1,14.1s-1.7,13-1.7,13s3.9,7.4,5.6,7.4s14.8-4.5,14.8-4.5l4.5-13l3.9-19.3l6.9-73.6l-9.1-9.7L835,97.6
	h-23.2l-11.3-6.2h-9.1l-13-1.7l-0.6-6.2l5.7-10.2l15.8,0.5l21,5.7c0,0,18.2,5.1,21,5.7s9.6,1.7,12.5,1.1s9-5.7,9-5.7L877,61.9
	L873.6,56.2z"/>
</svg>
