<?xml version="1.0" encoding="utf-8"?>
<svg version="1.1" xmlns:xlink="http://www.w3.org/1999/xlink" width="12px" height="12px" viewBox="327 172.5  12 12" xmlns="http://www.w3.org/2000/svg">
  <path d="M 333 172.5  C 336.36 172.5  339 175.14  339 178.5  C 339 181.86  336.36 184.5  333 184.5  C 329.64 184.5  327 181.86  327 178.5  C 327 175.14  329.64 172.5  333 172.5  Z " fill-rule="nonzero" fill="#ffffff" stroke="none" />
  <path d="M 333 173  C 336.08 173  338.5 175.42  338.5 178.5  C 338.5 181.58  336.08 184  333 184  C 329.92 184  327.5 181.58  327.5 178.5  C 327.5 175.42  329.92 173  333 173  Z " stroke-width="1" stroke="#333333" fill="none" />
  <path d="M 333 181.5  C 331.32 181.5  330 180.18  330 178.5  C 330 176.82  331.32 175.5  333 175.5  C 334.68 175.5  336 176.82  336 178.5  C 336 180.18  334.68 181.5  333 181.5  " fill-rule="nonzero" fill="#333333" stroke="none" />
</svg>