<?xml version="1.0" encoding="utf-8"?>
<svg version="1.1" xmlns:xlink="http://www.w3.org/1999/xlink" width="12px" height="12px" viewBox="610 -201.5  12 12" xmlns="http://www.w3.org/2000/svg">
  <path d="M 616 -201.5  C 619.36 -201.5  622 -198.86  622 -195.5  C 622 -192.14  619.36 -189.5  616 -189.5  C 612.64 -189.5  610 -192.14  610 -195.5  C 610 -198.86  612.64 -201.5  616 -201.5  Z " fill-rule="nonzero" fill="#ffffff" stroke="none" />
  <path d="M 616 -201  C 619.08 -201  621.5 -198.58  621.5 -195.5  C 621.5 -192.42  619.08 -190  616 -190  C 612.92 -190  610.5 -192.42  610.5 -195.5  C 610.5 -198.58  612.92 -201  616 -201  Z " stroke-width="1" stroke="#333333" fill="none" />
  <path d="M 616 -192.5  C 614.32 -192.5  613 -193.82  613 -195.5  C 613 -197.18  614.32 -198.5  616 -198.5  C 617.68 -198.5  619 -197.18  619 -195.5  C 619 -193.82  617.68 -192.5  616 -192.5  " fill-rule="nonzero" fill="#333333" stroke="none" />
</svg>