<?xml version="1.0" encoding="utf-8"?>
<svg version="1.1" xmlns:xlink="http://www.w3.org/1999/xlink" width="12px" height="12px" viewBox="695 -177.5  12 12" xmlns="http://www.w3.org/2000/svg">
  <path d="M 701 -177.5  C 704.36 -177.5  707 -174.86  707 -171.5  C 707 -168.14  704.36 -165.5  701 -165.5  C 697.64 -165.5  695 -168.14  695 -171.5  C 695 -174.86  697.64 -177.5  701 -177.5  Z " fill-rule="nonzero" fill="#ffffff" stroke="none" />
  <path d="M 701 -177  C 704.08 -177  706.5 -174.58  706.5 -171.5  C 706.5 -168.42  704.08 -166  701 -166  C 697.92 -166  695.5 -168.42  695.5 -171.5  C 695.5 -174.58  697.92 -177  701 -177  Z " stroke-width="1" stroke="#333333" fill="none" />
  <path d="M 701 -168.5  C 699.32 -168.5  698 -169.82  698 -171.5  C 698 -173.18  699.32 -174.5  701 -174.5  C 702.68 -174.5  704 -173.18  704 -171.5  C 704 -169.82  702.68 -168.5  701 -168.5  " fill-rule="nonzero" fill="#333333" stroke="none" />
</svg>