<?xml version="1.0" encoding="utf-8"?>
<svg version="1.1" xmlns:xlink="http://www.w3.org/1999/xlink" width="12px" height="12px" viewBox="610 -227.5  12 12" xmlns="http://www.w3.org/2000/svg">
  <path d="M 616 -227.5  C 619.36 -227.5  622 -224.86  622 -221.5  C 622 -218.14  619.36 -215.5  616 -215.5  C 612.64 -215.5  610 -218.14  610 -221.5  C 610 -224.86  612.64 -227.5  616 -227.5  Z " fill-rule="nonzero" fill="#ffffff" stroke="none" />
  <path d="M 616 -227  C 619.08 -227  621.5 -224.58  621.5 -221.5  C 621.5 -218.42  619.08 -216  616 -216  C 612.92 -216  610.5 -218.42  610.5 -221.5  C 610.5 -224.58  612.92 -227  616 -227  Z " stroke-width="1" stroke="#333333" fill="none" />
  <path d="M 616 -218.5  C 614.32 -218.5  613 -219.82  613 -221.5  C 613 -223.18  614.32 -224.5  616 -224.5  C 617.68 -224.5  619 -223.18  619 -221.5  C 619 -219.82  617.68 -218.5  616 -218.5  " fill-rule="nonzero" fill="#333333" stroke="none" />
</svg>