<?xml version="1.0" encoding="utf-8"?>
<svg version="1.1" xmlns:xlink="http://www.w3.org/1999/xlink" width="12px" height="12px" viewBox="695 -201.5  12 12" xmlns="http://www.w3.org/2000/svg">
  <path d="M 701 -201.5  C 704.36 -201.5  707 -198.86  707 -195.5  C 707 -192.14  704.36 -189.5  701 -189.5  C 697.64 -189.5  695 -192.14  695 -195.5  C 695 -198.86  697.64 -201.5  701 -201.5  Z " fill-rule="nonzero" fill="#ffffff" stroke="none" />
  <path d="M 701 -201  C 704.08 -201  706.5 -198.58  706.5 -195.5  C 706.5 -192.42  704.08 -190  701 -190  C 697.92 -190  695.5 -192.42  695.5 -195.5  C 695.5 -198.58  697.92 -201  701 -201  Z " stroke-width="1" stroke="#333333" fill="none" />
  <path d="M 701 -192.5  C 699.32 -192.5  698 -193.82  698 -195.5  C 698 -197.18  699.32 -198.5  701 -198.5  C 702.68 -198.5  704 -197.18  704 -195.5  C 704 -193.82  702.68 -192.5  701 -192.5  " fill-rule="nonzero" fill="#333333" stroke="none" />
</svg>