<?xml version="1.0" encoding="utf-8"?>
<svg version="1.1" xmlns:xlink="http://www.w3.org/1999/xlink" width="12px" height="12px" viewBox="610 -177.5  12 12" xmlns="http://www.w3.org/2000/svg">
  <path d="M 616 -177.5  C 619.36 -177.5  622 -174.86  622 -171.5  C 622 -168.14  619.36 -165.5  616 -165.5  C 612.64 -165.5  610 -168.14  610 -171.5  C 610 -174.86  612.64 -177.5  616 -177.5  Z " fill-rule="nonzero" fill="#ffffff" stroke="none" />
  <path d="M 616 -177  C 619.08 -177  621.5 -174.58  621.5 -171.5  C 621.5 -168.42  619.08 -166  616 -166  C 612.92 -166  610.5 -168.42  610.5 -171.5  C 610.5 -174.58  612.92 -177  616 -177  Z " stroke-width="1" stroke="#333333" fill="none" />
  <path d="M 616 -168.5  C 614.32 -168.5  613 -169.82  613 -171.5  C 613 -173.18  614.32 -174.5  616 -174.5  C 617.68 -174.5  619 -173.18  619 -171.5  C 619 -169.82  617.68 -168.5  616 -168.5  " fill-rule="nonzero" fill="#333333" stroke="none" />
</svg>