<?xml version="1.0" encoding="utf-8"?>
<svg version="1.1" xmlns:xlink="http://www.w3.org/1999/xlink" width="14px" height="14px" xmlns="http://www.w3.org/2000/svg">
  <g transform="matrix(1 0 0 1 -10 -20 )">
    <path d="M 14 3.11111111111111  L 10.8888888888889 0  L 1.55555555555556 0  C 0.692222222222222 0  0 0.7  0 1.55555555555556  L 0 12.4444444444444  C 0 13.3  0.692222222222222 14  1.55555555555556 14  L 12.4444444444444 14  C 13.3 14  14 13.3  14 12.4444444444444  L 14 3.11111111111111  Z M 9.33333333333333 10.1111111111111  C 9.33333333333333 11.4022222222222  8.29111111111111 12.4444444444444  7 12.4444444444444  C 5.70888888888889 12.4444444444444  4.66666666666667 11.4022222222222  4.66666666666667 10.1111111111111  C 4.66666666666667 8.82  5.70888888888889 7.77777777777778  7 7.77777777777778  C 8.29111111111111 7.77777777777778  9.33333333333333 8.82  9.33333333333333 10.1111111111111  Z M 9.33333333333333 1.55555555555556  L 9.33333333333333 4.66666666666667  L 1.55555555555556 4.66666666666667  L 1.55555555555556 1.55555555555556  L 9.33333333333333 1.55555555555556  Z " fill-rule="nonzero" fill="#c988c1" stroke="none" transform="matrix(1 0 0 1 10 20 )" />
  </g>
</svg>