<?xml version="1.0" encoding="utf-8"?>
<svg version="1.1" xmlns:xlink="http://www.w3.org/1999/xlink" width="10px" height="10px" xmlns="http://www.w3.org/2000/svg">
  <g transform="matrix(1 0 0 1 -181 -394 )">
    <path d="M 6.90755208333333 4.66145833333333  C 7.02473958333333 4.74392361111111  7.08333333333333 4.85677083333333  7.08333333333333 5  C 7.08333333333333 5.14322916666667  7.02473958333333 5.25607638888889  6.90755208333333 5.33854166666667  L 3.99088541666667 7.421875  C 3.85633680555556 7.52170138888889  3.71310763888889 7.53255208333333  3.56119791666667 7.45442708333333  C 3.40928819444444 7.38064236111111  3.33333333333333 7.25694444444444  3.33333333333333 7.08333333333333  L 3.33333333333333 2.91666666666667  C 3.33333333333333 2.74305555555555  3.40928819444444 2.61935763888889  3.56119791666667 2.54557291666667  C 3.71310763888889 2.46744791666667  3.85633680555556 2.47829861111111  3.99088541666667 2.578125  L 6.90755208333333 4.66145833333333  Z M 8.27473958333333 8.27473958333333  C 8.31380208333333 8.23567708333333  8.33333333333333 8.18576388888889  8.33333333333333 8.125  L 8.33333333333333 1.875  C 8.33333333333333 1.81423611111111  8.31380208333333 1.76432291666667  8.27473958333333 1.72526041666667  C 8.23567708333333 1.68619791666667  8.18576388888889 1.66666666666667  8.125 1.66666666666667  L 1.875 1.66666666666667  C 1.81423611111111 1.66666666666667  1.76432291666667 1.68619791666667  1.72526041666667 1.72526041666667  C 1.68619791666667 1.76432291666667  1.66666666666667 1.81423611111111  1.66666666666667 1.875  L 1.66666666666667 8.125  C 1.66666666666667 8.18576388888889  1.68619791666667 8.23567708333333  1.72526041666667 8.27473958333333  C 1.76432291666667 8.31380208333333  1.81423611111111 8.33333333333333  1.875 8.33333333333333  L 8.125 8.33333333333333  C 8.18576388888889 8.33333333333333  8.23567708333333 8.31380208333333  8.27473958333333 8.27473958333333  Z M 9.44986979166667 0.550130208333334  C 9.81662326388889 0.916883680555555  10 1.35850694444444  10 1.875  L 10 8.125  C 10 8.64149305555556  9.81662326388889 9.08311631944444  9.44986979166667 9.44986979166667  C 9.08311631944444 9.81662326388889  8.64149305555556 10  8.125 10  L 1.875 10  C 1.35850694444444 10  0.916883680555556 9.81662326388889  0.550130208333333 9.44986979166667  C 0.183376736111111 9.08311631944444  0 8.64149305555556  0 8.125  L 0 1.875  C 0 1.35850694444444  0.183376736111111 0.916883680555555  0.550130208333333 0.550130208333334  C 0.916883680555556 0.18337673611111  1.35850694444444 0  1.875 0  L 8.125 0  C 8.64149305555556 0  9.08311631944444 0.18337673611111  9.44986979166667 0.550130208333334  Z " fill-rule="nonzero" fill="#027db4" stroke="none" transform="matrix(1 0 0 1 181 394 )" />
  </g>
</svg>