<?xml version="1.0" encoding="utf-8"?>
<svg version="1.1" xmlns:xlink="http://www.w3.org/1999/xlink" width="10px" height="13px" xmlns="http://www.w3.org/2000/svg">
  <g transform="matrix(1 0 0 1 -360 -425 )">
    <path d="M 3.33333333333333 7.15  L 3.33333333333333 5.85  L 2.22222222222222 5.85  L 2.22222222222222 7.15  L 3.33333333333333 7.15  Z M 5.55555555555556 7.15  L 5.55555555555556 5.85  L 4.44444444444444 5.85  L 4.44444444444444 7.15  L 5.55555555555556 7.15  Z M 7.77777777777778 7.15  L 7.77777777777778 5.85  L 6.66666666666667 5.85  L 6.66666666666667 7.15  L 7.77777777777778 7.15  Z M 10 2.6  C 10 1.885  9.5 1.3  8.88888888888889 1.3  L 8.33333333333333 1.3  L 8.33333333333333 0  L 7.22222222222222 0  L 7.22222222222222 1.3  L 2.77777777777778 1.3  L 2.77777777777778 0  L 1.66666666666667 0  L 1.66666666666667 1.3  L 1.11111111111111 1.3  C 0.494444444444444 1.3  0.00555555555555544 1.885  0.00555555555555544 2.6  L 0 11.7  C 0 12.415  0.494444444444445 13  1.11111111111111 13  L 8.88888888888889 13  C 9.5 13  10 12.415  10 11.7  L 10 2.6  Z M 8.88888888888889 4.55  L 8.88888888888889 11.7  L 1.11111111111111 11.7  L 1.11111111111111 4.55  L 8.88888888888889 4.55  Z " fill-rule="nonzero" fill="#aaaaaa" stroke="none" transform="matrix(1 0 0 1 360 425 )" />
  </g>
</svg>