<?xml version="1.0" encoding="utf-8"?>
<svg version="1.1" xmlns:xlink="http://www.w3.org/1999/xlink" width="15px" height="12px" xmlns="http://www.w3.org/2000/svg">
  <g transform="matrix(1 0 0 1 -11 -88 )">
    <path d="M 15 3  C 15 2.175  14.325 1.5  13.5 1.5  L 7.5 1.5  L 6 0  L 1.5 0  C 0.675 0  0.00749999999999984 0.675  0.00749999999999984 1.5  L 0 10.5  C 0 11.325  0.675 12  1.5 12  L 13.5 12  C 14.325 12  15 11.325  15 10.5  L 15 3  Z M 13.5 3  L 13.5 10.5  L 1.5 10.5  L 1.5 3  L 13.5 3  Z " fill-rule="nonzero" fill="#777777" stroke="none" transform="matrix(1 0 0 1 11 88 )" />
  </g>
</svg>