<?xml version="1.0" encoding="utf-8"?>
<svg version="1.1" xmlns:xlink="http://www.w3.org/1999/xlink" width="13px" height="14px" xmlns="http://www.w3.org/2000/svg">
  <g transform="matrix(1 0 0 1 -222 -51 )">
    <path d="M 4.33333333333333 7.7  L 4.33333333333333 6.3  L 2.88888888888889 6.3  L 2.88888888888889 7.7  L 4.33333333333333 7.7  Z M 7.22222222222222 7.7  L 7.22222222222222 6.3  L 5.77777777777778 6.3  L 5.77777777777778 7.7  L 7.22222222222222 7.7  Z M 10.1111111111111 7.7  L 10.1111111111111 6.3  L 8.66666666666667 6.3  L 8.66666666666667 7.7  L 10.1111111111111 7.7  Z M 13 2.8  C 13 2.03  12.35 1.4  11.5555555555556 1.4  L 10.8333333333333 1.4  L 10.8333333333333 0  L 9.38888888888889 0  L 9.38888888888889 1.4  L 3.61111111111111 1.4  L 3.61111111111111 0  L 2.16666666666667 0  L 2.16666666666667 1.4  L 1.44444444444444 1.4  C 0.642777777777778 1.4  0.00722222222222207 2.03  0.00722222222222207 2.8  L 0 12.6  C 0 13.37  0.642777777777778 14  1.44444444444444 14  L 11.5555555555556 14  C 12.35 14  13 13.37  13 12.6  L 13 2.8  Z M 11.5555555555556 5  L 11.5555555555556 12.6  L 1.44444444444444 12.6  L 1.44444444444444 5  L 11.5555555555556 5  Z " fill-rule="nonzero" fill="#aaaaaa" stroke="none" transform="matrix(1 0 0 1 222 51 )" />
  </g>
</svg>