<?xml version="1.0" encoding="utf-8"?>
<svg version="1.1" xmlns:xlink="http://www.w3.org/1999/xlink" width="20px" height="20px" xmlns="http://www.w3.org/2000/svg">
  <g transform="matrix(1 0 0 1 -1136 -92 )">
    <path d="M 18.59 1.78  L 20 3.18  L 8.59 14.6  L 4.35 10.36  L 5.76 8.95  L 8.59 11.78  L 18.59 1.78  Z M 19.4 6.61  L 17.79 8.22  C 17.92 8.79  18 9.39  18 10  C 18 14.42  14.42 18  10 18  C 5.58 18  2 14.42  2 10  C 2 5.58  5.58 2  10 2  C 11.58 2  13.04 2.46  14.28 3.25  L 15.72 1.81  C 14.1 0.67  12.13 0  10 0  C 4.48 0  0 4.48  0 10  C 0 15.52  4.48 20  10 20  C 15.52 20  20 15.52  20 10  C 20 8.81  19.78 7.67  19.4 6.61  Z " fill-rule="nonzero" fill="#aaaaaa" stroke="none" transform="matrix(1 0 0 1 1136 92 )" />
  </g>
</svg>