<?xml version="1.0" encoding="utf-8"?>
<svg version="1.1" xmlns:xlink="http://www.w3.org/1999/xlink" width="20px" height="20px" xmlns="http://www.w3.org/2000/svg">
  <g transform="matrix(1 0 0 1 -13 -10 )">
    <path d="M 19.9860847232936 10.0033558600656  C 19.9839071005597 4.9505593651043  16.265979219448 0.775844753100745  11.4287532530817 0.0777514386829798  L 11.4258497561031 0.0784801373410604  C 11.3053546314908 0.0784801373410604  11.2088133569519 0.174668360204431  11.2030063629947 0.29490363878375  L 11.2095392311966 7.80487200871015  C 11.2088133569519 7.80560070736823  11.2095392311966 7.80705810468432  11.2095392311966 7.8077868033424  C 11.2095392311966 7.83183385905821  11.1950217463035 7.85296612014183  11.1732455189639 7.86316790135468  L 9.02756125177026 9.10851390797257  C 8.99852628198415 9.12090178515951  8.96876543795338 9.1281887717401  8.93537522269936 9.1281887717401  C 8.8163318465763 9.1281887717401  8.72124232052678 9.03418664485091  8.71470945232491 8.91686616090391  L 8.71470945232491 8.5707342983272  L 8.71761294930352 8.56854820235311  L 8.56009823821386 4.18542577414553  C 8.5579206154799 4.15117693721688  8.53106326842775 4.12567248418499  8.49622130468441 4.12567248418499  C 8.46137934094108 4.12567248418499  8.43379611964427 4.15263433453304  8.43234437115497 4.18761187011978  L 8.20224223560003 8.85565547362727  L 8.04545339875502 4.48273482663247  C 8.04472752451037 4.4492146883619  8.01641842896891 4.42298153667192  7.98230233947023 4.42298153667192  C 7.94673450148224 4.42298153667192  7.91769953169613 4.45212948299415  7.91769953169613 4.48710701858088  L 7.68832327038584 9.15515062208837  L 7.68541977340723 9.15587932074646  L 7.52935681080688 4.78368737240974  C 7.52717918807292 4.74870983682308  7.50032184102077 4.72247668513303  7.46547987727743 4.72247668513303  C 7.42918616504479 4.72247668513303  7.40087706950333 4.75235333011334  7.40087706950333 4.78660216704199  L 7.1722266824377 9.45245967457538  L 7.17150080819305 9.45318837323346  L 7.0154378455927 5.08318252087084  C 7.0154378455927 5.04820498528418  6.98640287580658 5.01978573761996  6.9508350378186 5.01978573761996  C 6.91671894831991 5.01978573761996  6.88840985277845 5.0474762866261  6.8876839785338 5.08245382221276  L 6.66121121420213 9.69657372502414  L 6.50660000009108 5.38122027201572  C 6.50587412584643 5.34478533911297  6.47683915606032 5.31563739279067  6.44199719231698 5.31563739279067  C 6.4078811028183 5.31563739279067  6.38102375576615 5.34187054448065  6.37957200727684 5.37684808006738  L 6.1494698717219 10.045620382233  L 6.1494698717219 16.0726869830151  C 6.14874399747725 16.0748730789892  6.14874399747725 16.0785165722796  6.14874399747725 16.0785165722796  C 6.14874399747725 16.2031240428072  6.04857335171516 16.3029557589608  5.92590060436884 16.3029557589608  C 5.87944465271106 16.3029557589608  5.83806982076585 16.2876530871417  5.80177610853321 16.2636060314258  C 3.79691144480217 14.9089552260994  2.47799794226803 12.6099109599324  2.47799794226803 10.0011697640915  C 2.47799794226803 6.31759804761781  5.10638858215582 3.2505053958596  8.58260033979809 2.58884701434466  C 8.65809126124199 2.55459817741601  8.71035420685699 2.48099961295236  8.7147094523249 2.39501317130176  L 8.7147094523249 0.319679393157921  L 8.71398357808025 0.317493297183821  C 8.71398357808025 0.19288582665616  8.61308705807351 0.0923254118444483  8.49041431072719 0.0923254118444483  C 8.49041431072719 0.0923254118444483  8.47807444856809 0.0923254118444483  8.45920171820712 0.0930541105025288  C 3.67206107472189 0.835598043061647  0.00784788771454274 4.98845169532356  0.00784788771454274 10.0018984627496  C 0.00784788771454274 15.018260024808  3.67859394292376 19.1747571703601  8.47154158036622 19.9114715136548  L 8.49259193346115 19.9114715136548  C 8.61453880656282 19.9114715136548  8.7147094523249 19.8130971948172  8.71543532656956 19.6899471216057  L 8.7147094523249 12.3140593047616  L 8.7147094523249 12.3111445101294  C 8.7147094523249 12.2870974544136  8.72995281146261 12.266693891988  8.74737379333428 12.2564921107752  L 10.893058060528 11.0118748028154  C 10.9220930303141 10.9994869256284  10.9525797485895 10.9914712403898  10.9859699638435 10.9914712403898  C 11.1071909627005 10.9914712403898  11.2051839857287 11.0891168605693  11.2088133569519 11.2100808378067  L 11.2088133569519 11.2195539203614  C 11.2080874827073 11.2224687149936  11.2080874827073 11.2239261123098  11.2080874827073 11.2261122082839  L 11.2088133569519 11.4126590647463  L 11.2051839857287 11.4155738593785  L 11.3626986968183 15.7986962875861  C 11.3641504453076 15.8314877271986  11.3917336666044 15.8591782762047  11.4265756303478 15.8591782762047  C 11.4614175940911 15.8591782762047  11.4897266896326 15.8314877271986  11.4904525638772 15.7965101916119  L 11.7205546994322 11.1284665881043  L 11.8766176620325 15.5013872350991  C 11.8787952847665 15.5356360720278  11.9071043803079 15.5611405250598  11.940494595562 15.5611405250598  C 11.9760624335499 15.5611405250598  12.0043715290914 15.5327212773955  12.0043715290914 15.4977437418089  L 12.2344736646463 10.8304288369594  L 12.237377161625 10.8289714396432  L 12.3934401242253 15.2011633879799  C 12.3956177469593 15.2354122249087  12.4232009682561 15.2631027739148  12.4565911835101 15.2631027739148  C 12.4914331472534 15.2631027739148  12.5211939912842 15.2339548275926  12.5211939912842 15.1982485933478  L 12.7512961268391 10.5316623871564  L 12.9059073409502 14.9016682395189  C 12.9066332151948 14.9366457751056  12.9356681849809 14.9650650227698  12.9705101487243 14.9650650227698  C 13.004626238223 14.9650650227698  13.0343870822537 14.9373744737637  13.0343870822537 14.902396938177  L 13.2623115950747 10.2882770353657  L 13.4161969349411 14.603630488374  L 13.4169228091858 14.6058165843482  C 13.4169228091858 14.6407941199349  13.4452319047272 14.6706707649152  13.4807997427152 14.6706707649152  C 13.5149158322139 14.6706707649152  13.5432249277553 14.6437089145671  13.5446766762446 14.6087313789804  L 13.7740529375549 9.93923037815681  L 13.7740529375549 3.8684418578912  C 13.7805858057568 3.74893527797004  13.8785788287849 3.65493315108076  13.9983480791527 3.65493315108076  C 14.0426264080765 3.65493315108076  14.0840012400217 3.66950712424188  14.1181173295204 3.68991068666743  C 16.1643568251966 5.03873190272935  17.5166605429848 7.36255192327022  17.5166605429848 10.0040845587237  C 17.5166605429848 13.6927571658038  14.8773817894272 16.7649507081683  11.3917336666044 17.4200508017608  C 11.2879336496191 17.4382682682123  11.2080874827073 17.526440805837  11.2051839857287 17.6350169058874  L 11.2051839857287 17.6459473857582  C 11.2059098599733 17.6474047830744  11.2073616084626 17.6495908790485  11.2073616084626 17.6532343723388  L 11.2051839857287 17.6532343723388  L 11.2051839857287 19.707435889399  C 11.2095392311966 19.8276711679782  11.3068063799801 19.9245880894997  11.4280273788371 19.9245880894997  L 11.4425448637301 19.9245880894997  C 16.2739638361392 19.2221225831335  19.9860847232936 15.0488653684462  19.9860847232936 10.0033558600656  Z " fill-rule="nonzero" fill="#ffffff" stroke="none" transform="matrix(1 0 0 1 13 10 )" />
  </g>
</svg>