<?xml version="1.0" encoding="utf-8"?>
<svg version="1.1" xmlns:xlink="http://www.w3.org/1999/xlink" width="1040px" height="171px" xmlns="http://www.w3.org/2000/svg">
  <g transform="matrix(1 0 0 1 -10 -116 )">
    <path d="M 11 117  L 1046 117  A 3 3 0 0 1 1049 120 L 1049 283  A 3 3 0 0 1 1046 286 L 14 286  A 3 3 0 0 1 11 283 L 11 117  Z " fill-rule="nonzero" fill="#ffffff" stroke="none" />
    <path d="M 10.5 116.5  L 1046 116.5  A 3.5 3.5 0 0 1 1049.5 120 L 1049.5 283  A 3.5 3.5 0 0 1 1046 286.5 L 14 286.5  A 3.5 3.5 0 0 1 10.5 283 L 10.5 116.5  Z " stroke-width="1" stroke="#aaaaaa" fill="none" stroke-opacity="0.501960784313725" />
  </g>
</svg>