<?xml version="1.0" encoding="utf-8"?>
<svg version="1.1" xmlns:xlink="http://www.w3.org/1999/xlink" width="12px" height="12px" viewBox="704 138.5  12 12" xmlns="http://www.w3.org/2000/svg">
  <path d="M 710 138.5  C 713.36 138.5  716 141.14  716 144.5  C 716 147.86  713.36 150.5  710 150.5  C 706.64 150.5  704 147.86  704 144.5  C 704 141.14  706.64 138.5  710 138.5  Z " fill-rule="nonzero" fill="#ffffff" stroke="none" />
  <path d="M 710 139  C 713.08 139  715.5 141.42  715.5 144.5  C 715.5 147.58  713.08 150  710 150  C 706.92 150  704.5 147.58  704.5 144.5  C 704.5 141.42  706.92 139  710 139  Z " stroke-width="1" stroke="#333333" fill="none" />
  <path d="M 710 147.5  C 708.32 147.5  707 146.18  707 144.5  C 707 142.82  708.32 141.5  710 141.5  C 711.68 141.5  713 142.82  713 144.5  C 713 146.18  711.68 147.5  710 147.5  " fill-rule="nonzero" fill="#333333" stroke="none" />
</svg>