<?xml version="1.0" encoding="utf-8"?>
<svg version="1.1" xmlns:xlink="http://www.w3.org/1999/xlink" width="12px" height="12px" xmlns="http://www.w3.org/2000/svg">
  <g transform="matrix(1 0 0 1 -96 -15 )">
    <path d="M 12 6  C 12 7.794  11.208 9.402  9.96 10.5  L 11.4 10.5  L 11.4 11.7  L 7.8 11.7  L 7.8 8.1  L 9 8.1  L 9 9.738  C 10.098 8.856  10.8 7.512  10.8 6  C 10.8 3.558  8.964 1.536  6.6 1.242  L 6.6 0.0299999999999999  C 9.63 0.33  12 2.886  12 6  Z M 5.4 10.758  C 3.036 10.464  1.2 8.442  1.2 6  C 1.2 4.488  1.902 3.138  3 2.262  L 3 3.9  L 4.2 3.9  L 4.2 0.3  L 0.6 0.3  L 0.6 1.5  L 2.04 1.5  C 0.792 2.598  0 4.206  0 6  C 0 9.114  2.37 11.67  5.4 11.97  L 5.4 10.758  Z M 9.39 4.512  L 8.544 3.666  L 5.148 7.062  L 3.45 5.364  L 2.604 6.21  L 5.148 8.754  L 9.39 4.512  Z " fill-rule="nonzero" fill="#ffffff" stroke="none" transform="matrix(1 0 0 1 96 15 )" />
  </g>
</svg>