<?xml version="1.0" encoding="utf-8"?>
<svg version="1.1" xmlns:xlink="http://www.w3.org/1999/xlink" width="11px" height="11px" xmlns="http://www.w3.org/2000/svg">
  <g transform="matrix(1 0 0 1 -385 -7 )">
    <path d="M 11 2.44444444444444  L 8.55555555555556 0  L 1.22222222222222 0  C 0.543888888888889 0  0 0.55  0 1.22222222222222  L 0 9.77777777777778  C 0 10.45  0.543888888888889 11  1.22222222222222 11  L 9.77777777777778 11  C 10.45 11  11 10.45  11 9.77777777777778  L 11 2.44444444444444  Z M 7.33333333333333 7.94444444444444  C 7.33333333333333 8.95888888888889  6.51444444444444 9.77777777777778  5.5 9.77777777777778  C 4.48555555555556 9.77777777777778  3.66666666666667 8.95888888888889  3.66666666666667 7.94444444444444  C 3.66666666666667 6.93  4.48555555555556 6.11111111111111  5.5 6.11111111111111  C 6.51444444444444 6.11111111111111  7.33333333333333 6.93  7.33333333333333 7.94444444444444  Z M 7.33333333333333 1.22222222222222  L 7.33333333333333 3.66666666666667  L 1.22222222222222 3.66666666666667  L 1.22222222222222 1.22222222222222  L 7.33333333333333 1.22222222222222  Z " fill-rule="nonzero" fill="#ecd5e9" stroke="none" transform="matrix(1 0 0 1 385 7 )" />
  </g>
</svg>