<?xml version="1.0" encoding="utf-8"?>
<svg version="1.1" xmlns:xlink="http://www.w3.org/1999/xlink" width="20px" height="16px" xmlns="http://www.w3.org/2000/svg">
  <g transform="matrix(1 0 0 1 -219 -13 )">
    <path d="M 9 12  L 9 13  L 11 13  L 11 12  L 12 12  C 12.55 12  13 11.55  13 11  L 13 8  C 13 7.45  12.55 7  12 7  L 9 7  L 9 6  L 13 6  L 13 4  L 11 4  L 11 3  L 9 3  L 9 4  L 8 4  C 7.45 4  7 4.45  7 5  L 7 8  C 7 8.55  7.45 9  8 9  L 11 9  L 11 10  L 7 10  L 7 12  L 9 12  Z M 20 2  C 20 0.89  19.11 0  18 0  L 2 0  C 0.89 0  0.00999999999999979 0.89  0 2  L 0 14  C 0 15.11  0.89 16  2 16  L 18 16  C 19.11 16  20 15.11  20 14  L 20 2  Z M 18 2  L 18 14  L 2 14  L 2 2  L 18 2  Z " fill-rule="nonzero" fill="#e60012" stroke="none" transform="matrix(1 0 0 1 219 13 )" />
  </g>
</svg>