<?xml version="1.0" encoding="utf-8"?>
<svg version="1.1" xmlns:xlink="http://www.w3.org/1999/xlink" width="18px" height="18px" xmlns="http://www.w3.org/2000/svg">
  <g transform="matrix(1 0 0 1 -155 -185 )">
    <path d="M 2 2  L 16 2  L 16 16  L 2 16  L 2 2  Z M 18 0.9  C 18 0.4  17.5 0  17.1 0  L 0.9 0  C 0.4 0  0 0.4  0 0.9  L 0 17.1  C 0 17.5  0.4 18  0.9 18  L 17.1 18  C 17.5 18  18 17.5  18 17.1  L 18 0.9  Z M 8 6  L 8 4  L 14 4  L 14 6  L 8 6  Z M 8 10  L 8 8  L 14 8  L 14 10  L 8 10  Z M 8 14  L 8 12  L 14 12  L 14 14  L 8 14  Z M 4 6  L 4 4  L 6 4  L 6 6  L 4 6  Z M 4 10  L 4 8  L 6 8  L 6 10  L 4 10  Z M 4 14  L 4 12  L 6 12  L 6 14  L 4 14  Z " fill-rule="nonzero" fill="#327ec7" stroke="none" transform="matrix(1 0 0 1 155 185 )" />
  </g>
</svg>