<?xml version="1.0" encoding="utf-8"?>
<svg version="1.1" xmlns:xlink="http://www.w3.org/1999/xlink" width="20px" height="25px" xmlns="http://www.w3.org/2000/svg">
  <g transform="matrix(1 0 0 1 -8 -5 )">
    <path d="M 14.865 16.9102822580645  L 19 21.4264112903226  L 19 7.79569892473118  L 12.3333333333333 0.739247311827957  L 3 0.739247311827957  C 1.71666666666667 0.739247311827957  0.678333333333333 1.79771505376344  1 3.09139784946237  L 1 21.9086021505376  C 0.666666666666666 23.2022849462366  1.705 24.260752688172  2.98833333333333 24  L 17 24  C 17.525 24.260752688172  17.9916666666667 24.0843413978495  18.3883333333333 23.7903225806452  L 13.22 18.5803091397849  C 12.2866666666667 19.1918682795699  11.19 19.5564516129032  10 19.5564516129032  C 6.78 19.5564516129032  4.16666666666667 16.9220430107527  4.16666666666667 13.6760752688172  C 4.16666666666667 10.4301075268817  6.78 7.79569892473118  10 7.79569892473118  C 13.22 7.79569892473118  15.8333333333333 10.4301075268817  15.8333333333333 13.6760752688172  C 15.8333333333333 14.8756720430108  15.4716666666667 15.9811827956989  14.865 16.9102822580645  Z M 10 10.1478494623656  C 8.06333333333333 10.1478494623656  6.5 11.7237903225806  6.5 13.6760752688172  C 6.5 15.6283602150538  8.06333333333333 17.2043010752688  10 17.2043010752688  C 11.9366666666667 17.2043010752688  13.5 15.6283602150538  13.5 13.6760752688172  C 13.5 11.7237903225806  11.9366666666667 10.1478494623656  10 10.1478494623656  Z " fill-rule="nonzero" fill="#327ec7" stroke="none" transform="matrix(1 0 0 1 8 5 )" />
  </g>
</svg>