<?xml version="1.0" encoding="utf-8"?>
<svg version="1.1" xmlns:xlink="http://www.w3.org/1999/xlink" width="1053px" height="358px" xmlns="http://www.w3.org/2000/svg">
  <defs>
    <filter x="169px" y="440px" width="1053px" height="358px" filterUnits="userSpaceOnUse" id="filter139">
      <feOffset dx="3" dy="3" in="SourceAlpha" result="shadowOffsetInner" />
      <feGaussianBlur stdDeviation="2.5" in="shadowOffsetInner" result="shadowGaussian" />
      <feComposite in2="shadowGaussian" operator="atop" in="SourceAlpha" result="shadowComposite" />
      <feColorMatrix type="matrix" values="0 0 0 0 0  0 0 0 0 0  0 0 0 0 0  0 0 0 0.101960784313725 0  " in="shadowComposite" />
    </filter>
    <g id="widget140">
      <path d="M 172 447  A 4 4 0 0 1 176 443 L 1209 443  A 4 4 0 0 1 1213 447 L 1213 785  A 4 4 0 0 1 1209 789 L 176 789  A 4 4 0 0 1 172 785 L 172 447  Z " fill-rule="nonzero" fill="#ffffff" stroke="none" />
      <path d="M 171.5 447  A 4.5 4.5 0 0 1 176 442.5 L 1209 442.5  A 4.5 4.5 0 0 1 1213.5 447 L 1213.5 785  A 4.5 4.5 0 0 1 1209 789.5 L 176 789.5  A 4.5 4.5 0 0 1 171.5 785 L 171.5 447  Z " stroke-width="1" stroke="#aaaaaa" fill="none" stroke-opacity="0.501960784313725" />
    </g>
  </defs>
  <g transform="matrix(1 0 0 1 -169 -440 )">
    <use xlink:href="#widget140" filter="url(#filter139)" />
    <use xlink:href="#widget140" />
  </g>
</svg>