<?xml version="1.0" encoding="utf-8"?>
<svg version="1.1" xmlns:xlink="http://www.w3.org/1999/xlink" width="1071px" height="365px" xmlns="http://www.w3.org/2000/svg">
  <g transform="matrix(1 0 0 1 -156 -442 )">
    <path d="M 157 447  A 4 4 0 0 1 161 443 L 1222 443  A 4 4 0 0 1 1226 447 L 1226 802  A 4 4 0 0 1 1222 806 L 161 806  A 4 4 0 0 1 157 802 L 157 447  Z " fill-rule="nonzero" fill="#f2f2f2" stroke="none" fill-opacity="0" />
    <path d="M 156.5 447  A 4.5 4.5 0 0 1 161 442.5 L 1222 442.5  A 4.5 4.5 0 0 1 1226.5 447 L 1226.5 802  A 4.5 4.5 0 0 1 1222 806.5 L 161 806.5  A 4.5 4.5 0 0 1 156.5 802 L 156.5 447  Z " stroke-width="1" stroke="#aaaaaa" fill="none" stroke-opacity="0.501960784313725" />
  </g>
</svg>