<?xml version="1.0" encoding="utf-8"?>
<svg version="1.1" xmlns:xlink="http://www.w3.org/1999/xlink" width="1053px" height="258px" xmlns="http://www.w3.org/2000/svg">
  <defs>
    <filter x="169px" y="153px" width="1053px" height="258px" filterUnits="userSpaceOnUse" id="filter25">
      <feOffset dx="3" dy="3" in="SourceAlpha" result="shadowOffsetInner" />
      <feGaussianBlur stdDeviation="2.5" in="shadowOffsetInner" result="shadowGaussian" />
      <feComposite in2="shadowGaussian" operator="atop" in="SourceAlpha" result="shadowComposite" />
      <feColorMatrix type="matrix" values="0 0 0 0 0  0 0 0 0 0  0 0 0 0 0  0 0 0 0.101960784313725 0  " in="shadowComposite" />
    </filter>
    <g id="widget26">
      <path d="M 172 159  A 3 3 0 0 1 175 156 L 1210 156  A 3 3 0 0 1 1213 159 L 1213 399  A 3 3 0 0 1 1210 402 L 175 402  A 3 3 0 0 1 172 399 L 172 159  Z " fill-rule="nonzero" fill="#ffffff" stroke="none" />
      <path d="M 171.5 159  A 3.5 3.5 0 0 1 175 155.5 L 1210 155.5  A 3.5 3.5 0 0 1 1213.5 159 L 1213.5 399  A 3.5 3.5 0 0 1 1210 402.5 L 175 402.5  A 3.5 3.5 0 0 1 171.5 399 L 171.5 159  Z " stroke-width="1" stroke="#aaaaaa" fill="none" stroke-opacity="0.501960784313725" />
    </g>
  </defs>
  <g transform="matrix(1 0 0 1 -169 -153 )">
    <use xlink:href="#widget26" filter="url(#filter25)" />
    <use xlink:href="#widget26" />
  </g>
</svg>