<?xml version="1.0" encoding="utf-8"?>
<svg version="1.1" xmlns:xlink="http://www.w3.org/1999/xlink" width="12px" height="12px" viewBox="382 272.5  12 12" xmlns="http://www.w3.org/2000/svg">
  <path d="M 388 272.5  C 391.36 272.5  394 275.14  394 278.5  C 394 281.86  391.36 284.5  388 284.5  C 384.64 284.5  382 281.86  382 278.5  C 382 275.14  384.64 272.5  388 272.5  Z " fill-rule="nonzero" fill="#ffffff" stroke="none" />
  <path d="M 388 273  C 391.08 273  393.5 275.42  393.5 278.5  C 393.5 281.58  391.08 284  388 284  C 384.92 284  382.5 281.58  382.5 278.5  C 382.5 275.42  384.92 273  388 273  Z " stroke-width="1" stroke="#333333" fill="none" />
  <path d="M 388 281.5  C 386.32 281.5  385 280.18  385 278.5  C 385 276.82  386.32 275.5  388 275.5  C 389.68 275.5  391 276.82  391 278.5  C 391 280.18  389.68 281.5  388 281.5  " fill-rule="nonzero" fill="#333333" stroke="none" />
</svg>