<?xml version="1.0" encoding="utf-8"?>
<svg version="1.1" xmlns:xlink="http://www.w3.org/1999/xlink" width="12px" height="12px" viewBox="264 272.5  12 12" xmlns="http://www.w3.org/2000/svg">
  <path d="M 270 272.5  C 273.36 272.5  276 275.14  276 278.5  C 276 281.86  273.36 284.5  270 284.5  C 266.64 284.5  264 281.86  264 278.5  C 264 275.14  266.64 272.5  270 272.5  Z " fill-rule="nonzero" fill="#ffffff" stroke="none" />
  <path d="M 270 273  C 273.08 273  275.5 275.42  275.5 278.5  C 275.5 281.58  273.08 284  270 284  C 266.92 284  264.5 281.58  264.5 278.5  C 264.5 275.42  266.92 273  270 273  Z " stroke-width="1" stroke="#333333" fill="none" />
  <path d="M 270 281.5  C 268.32 281.5  267 280.18  267 278.5  C 267 276.82  268.32 275.5  270 275.5  C 271.68 275.5  273 276.82  273 278.5  C 273 280.18  271.68 281.5  270 281.5  " fill-rule="nonzero" fill="#333333" stroke="none" />
</svg>