<?xml version="1.0" encoding="utf-8"?>
<svg version="1.1" xmlns:xlink="http://www.w3.org/1999/xlink" width="12px" height="12px" viewBox="323 272.5  12 12" xmlns="http://www.w3.org/2000/svg">
  <path d="M 329 272.5  C 332.36 272.5  335 275.14  335 278.5  C 335 281.86  332.36 284.5  329 284.5  C 325.64 284.5  323 281.86  323 278.5  C 323 275.14  325.64 272.5  329 272.5  Z " fill-rule="nonzero" fill="#ffffff" stroke="none" />
  <path d="M 329 273  C 332.08 273  334.5 275.42  334.5 278.5  C 334.5 281.58  332.08 284  329 284  C 325.92 284  323.5 281.58  323.5 278.5  C 323.5 275.42  325.92 273  329 273  Z " stroke-width="1" stroke="#333333" fill="none" />
  <path d="M 329 281.5  C 327.32 281.5  326 280.18  326 278.5  C 326 276.82  327.32 275.5  329 275.5  C 330.68 275.5  332 276.82  332 278.5  C 332 280.18  330.68 281.5  329 281.5  " fill-rule="nonzero" fill="#333333" stroke="none" />
</svg>