<?xml version="1.0" encoding="utf-8"?>
<svg version="1.1" xmlns:xlink="http://www.w3.org/1999/xlink" width="12px" height="12px" viewBox="272 210.5  12 12" xmlns="http://www.w3.org/2000/svg">
  <path d="M 278 210.5  C 281.36 210.5  284 213.14  284 216.5  C 284 219.86  281.36 222.5  278 222.5  C 274.64 222.5  272 219.86  272 216.5  C 272 213.14  274.64 210.5  278 210.5  Z " fill-rule="nonzero" fill="#f0f0f0" stroke="none" />
  <path d="M 278 211  C 281.08 211  283.5 213.42  283.5 216.5  C 283.5 219.58  281.08 222  278 222  C 274.92 222  272.5 219.58  272.5 216.5  C 272.5 213.42  274.92 211  278 211  Z " stroke-width="1" stroke="#797979" fill="none" />
  <path d="M 278 219.5  C 276.32 219.5  275 218.18  275 216.5  C 275 214.82  276.32 213.5  278 213.5  C 279.68 213.5  281 214.82  281 216.5  C 281 218.18  279.68 219.5  278 219.5  " fill-rule="nonzero" fill="#797979" stroke="none" />
</svg>