<?xml version="1.0" encoding="utf-8"?>
<svg version="1.1" xmlns:xlink="http://www.w3.org/1999/xlink" width="12px" height="12px" viewBox="327 210.5  12 12" xmlns="http://www.w3.org/2000/svg">
  <path d="M 333 210.5  C 336.36 210.5  339 213.14  339 216.5  C 339 219.86  336.36 222.5  333 222.5  C 329.64 222.5  327 219.86  327 216.5  C 327 213.14  329.64 210.5  333 210.5  Z " fill-rule="nonzero" fill="#f0f0f0" stroke="none" />
  <path d="M 333 211  C 336.08 211  338.5 213.42  338.5 216.5  C 338.5 219.58  336.08 222  333 222  C 329.92 222  327.5 219.58  327.5 216.5  C 327.5 213.42  329.92 211  333 211  Z " stroke-width="1" stroke="#797979" fill="none" />
  <path d="M 333 219.5  C 331.32 219.5  330 218.18  330 216.5  C 330 214.82  331.32 213.5  333 213.5  C 334.68 213.5  336 214.82  336 216.5  C 336 218.18  334.68 219.5  333 219.5  " fill-rule="nonzero" fill="#797979" stroke="none" />
</svg>