<?xml version="1.0" encoding="utf-8"?>
<svg version="1.1" xmlns:xlink="http://www.w3.org/1999/xlink" width="12px" height="12px" viewBox="437 210.5  12 12" xmlns="http://www.w3.org/2000/svg">
  <path d="M 443 210.5  C 446.36 210.5  449 213.14  449 216.5  C 449 219.86  446.36 222.5  443 222.5  C 439.64 222.5  437 219.86  437 216.5  C 437 213.14  439.64 210.5  443 210.5  Z " fill-rule="nonzero" fill="#ffffff" stroke="none" />
  <path d="M 443 211  C 446.08 211  448.5 213.42  448.5 216.5  C 448.5 219.58  446.08 222  443 222  C 439.92 222  437.5 219.58  437.5 216.5  C 437.5 213.42  439.92 211  443 211  Z " stroke-width="1" stroke="#797979" fill="none" />
  <path d="M 443 219.5  C 441.32 219.5  440 218.18  440 216.5  C 440 214.82  441.32 213.5  443 213.5  C 444.68 213.5  446 214.82  446 216.5  C 446 218.18  444.68 219.5  443 219.5  " fill-rule="nonzero" fill="#797979" stroke="none" />
</svg>