<?xml version="1.0" encoding="utf-8"?>
<svg version="1.1" xmlns:xlink="http://www.w3.org/1999/xlink" width="12px" height="12px" viewBox="1347 -631  12 12" xmlns="http://www.w3.org/2000/svg">
  <path d="M 1347.5 -629  A 1.5 1.5 0 0 1 1349 -630.5 L 1357 -630.5  A 1.5 1.5 0 0 1 1358.5 -629 L 1358.5 -621  A 1.5 1.5 0 0 1 1357 -619.5 L 1349 -619.5  A 1.5 1.5 0 0 1 1347.5 -621 L 1347.5 -629  Z " fill-rule="nonzero" fill="#f0f0f0" stroke="none" />
  <path d="M 1347.5 -629  A 1.5 1.5 0 0 1 1349 -630.5 L 1357 -630.5  A 1.5 1.5 0 0 1 1358.5 -629 L 1358.5 -621  A 1.5 1.5 0 0 1 1357 -619.5 L 1349 -619.5  A 1.5 1.5 0 0 1 1347.5 -621 L 1347.5 -629  Z " stroke-width="1" stroke="#797979" fill="none" />
</svg>