<?xml version="1.0" encoding="utf-8"?>
<svg version="1.1" xmlns:xlink="http://www.w3.org/1999/xlink" width="9px" height="11px" xmlns="http://www.w3.org/2000/svg">
  <g transform="matrix(1 0 0 1 -171 -334 )">
    <path d="M 1.92857142857143 3.66666666666667  L 7.07142857142857 3.66666666666667  L 7.07142857142857 9.77777777777778  L 1.92857142857143 9.77777777777778  L 1.92857142857143 3.66666666666667  Z M 6.75 0.611111111111111  L 6.10714285714286 0  L 2.89285714285714 0  L 2.25 0.611111111111111  L 0 0.611111111111111  L 0 1.83333333333333  L 9 1.83333333333333  L 9 0.611111111111111  L 6.75 0.611111111111111  Z M 8.35714285714286 9.77777777777778  L 8.35714285714286 2.44444444444444  L 0.642857142857143 2.44444444444444  L 0.642857142857143 9.77777777777778  C 0.642857142857143 10.45  1.22142857142857 11  1.92857142857143 11  L 7.07142857142857 11  C 7.77857142857143 11  8.35714285714286 10.45  8.35714285714286 9.77777777777778  Z " fill-rule="nonzero" fill="#e60012" stroke="none" transform="matrix(1 0 0 1 171 334 )" />
  </g>
</svg>