<?xml version="1.0" encoding="utf-8"?>
<svg version="1.1" xmlns:xlink="http://www.w3.org/1999/xlink" width="1040px" height="34px" xmlns="http://www.w3.org/2000/svg">
  <g transform="matrix(1 0 0 1 -175 -174 )">
    <path d="M 176 178  A 3 3 0 0 1 179 175 L 1211 175  A 3 3 0 0 1 1214 178 L 1214 204  A 3 3 0 0 1 1211 207 L 179 207  A 3 3 0 0 1 176 204 L 176 178  Z " fill-rule="nonzero" fill="#f7f7f7" stroke="none" />
    <path d="M 175.5 178  A 3.5 3.5 0 0 1 179 174.5 L 1211 174.5  A 3.5 3.5 0 0 1 1214.5 178 L 1214.5 204  A 3.5 3.5 0 0 1 1211 207.5 L 179 207.5  A 3.5 3.5 0 0 1 175.5 204 L 175.5 178  Z " stroke-width="1" stroke="#aaaaaa" fill="none" stroke-opacity="0.596078431372549" />
  </g>
</svg>