<?xml version="1.0" encoding="utf-8"?>
<svg version="1.1" xmlns:xlink="http://www.w3.org/1999/xlink" width="14px" height="8px" xmlns="http://www.w3.org/2000/svg">
  <g transform="matrix(1 0 0 1 -177 -174 )">
    <path d="M 0 3.2  L 0 4.8  L 1.55555555555556 4.8  L 1.55555555555556 3.2  L 0 3.2  Z M 0 6.4  L 0 8  L 1.55555555555556 8  L 1.55555555555556 6.4  L 0 6.4  Z M 0 0  L 0 1.6  L 1.55555555555556 1.6  L 1.55555555555556 0  L 0 0  Z M 3.11111111111111 3.2  L 3.11111111111111 4.8  L 14 4.8  L 14 3.2  L 3.11111111111111 3.2  Z M 3.11111111111111 6.4  L 3.11111111111111 8  L 14 8  L 14 6.4  L 3.11111111111111 6.4  Z M 14 0  L 3.11111111111111 0  L 3.11111111111111 1.6  L 14 1.6  L 14 0  Z " fill-rule="nonzero" fill="#036eb7" stroke="none" transform="matrix(1 0 0 1 177 174 )" />
  </g>
</svg>