<?xml version="1.0" encoding="utf-8"?>
<svg version="1.1" xmlns:xlink="http://www.w3.org/1999/xlink" width="11px" height="11px" xmlns="http://www.w3.org/2000/svg">
  <g transform="matrix(1 0 0 1 0 -8 )">
    <path d="M 11 5.5  C 11 2.464  8.536 0  5.5 0  C 2.464 0  0 2.464  0 5.5  C 0 8.536  2.464 11  5.5 11  C 8.536 11  11 8.536  11 5.5  Z M 8.195 7.0345  C 8.2995 7.139  8.2995 7.315  8.195 7.4195  L 7.425 8.1895  C 7.315 8.2995  7.1445 8.2995  7.0345 8.1895  L 5.159 6.314  C 4.488 6.5505  3.707 6.4075  3.168 5.8685  C 2.5575 5.258  2.453 4.334  2.8435 3.6135  L 4.136 4.906  L 4.9115 4.1305  L 3.619 2.8435  C 4.345 2.453  5.2635 2.5575  5.874 3.168  C 6.413 3.707  6.556 4.488  6.3195 5.159  L 8.195 7.0345  Z " fill-rule="nonzero" fill="#88a2aa" stroke="none" transform="matrix(1 0 0 1 0 8 )" />
  </g>
</svg>