<?xml version="1.0" encoding="utf-8"?>
<svg version="1.1" xmlns:xlink="http://www.w3.org/1999/xlink" width="12px" height="12px" viewBox="618 229.5  12 12" xmlns="http://www.w3.org/2000/svg">
  <path d="M 624 229.5  C 627.36 229.5  630 232.14  630 235.5  C 630 238.86  627.36 241.5  624 241.5  C 620.64 241.5  618 238.86  618 235.5  C 618 232.14  620.64 229.5  624 229.5  Z " fill-rule="nonzero" fill="#ffffff" stroke="none" />
  <path d="M 624 230  C 627.08 230  629.5 232.42  629.5 235.5  C 629.5 238.58  627.08 241  624 241  C 620.92 241  618.5 238.58  618.5 235.5  C 618.5 232.42  620.92 230  624 230  Z " stroke-width="1" stroke="#333333" fill="none" />
  <path d="M 624 238.5  C 622.32 238.5  621 237.18  621 235.5  C 621 233.82  622.32 232.5  624 232.5  C 625.68 232.5  627 233.82  627 235.5  C 627 237.18  625.68 238.5  624 238.5  " fill-rule="nonzero" fill="#333333" stroke="none" />
</svg>