<?xml version="1.0" encoding="utf-8"?>
<svg version="1.1" xmlns:xlink="http://www.w3.org/1999/xlink" width="12px" height="12px" viewBox="730 229.5  12 12" xmlns="http://www.w3.org/2000/svg">
  <path d="M 736 229.5  C 739.36 229.5  742 232.14  742 235.5  C 742 238.86  739.36 241.5  736 241.5  C 732.64 241.5  730 238.86  730 235.5  C 730 232.14  732.64 229.5  736 229.5  Z " fill-rule="nonzero" fill="#ffffff" stroke="none" />
  <path d="M 736 230  C 739.08 230  741.5 232.42  741.5 235.5  C 741.5 238.58  739.08 241  736 241  C 732.92 241  730.5 238.58  730.5 235.5  C 730.5 232.42  732.92 230  736 230  Z " stroke-width="1" stroke="#333333" fill="none" />
  <path d="M 736 238.5  C 734.32 238.5  733 237.18  733 235.5  C 733 233.82  734.32 232.5  736 232.5  C 737.68 232.5  739 233.82  739 235.5  C 739 237.18  737.68 238.5  736 238.5  " fill-rule="nonzero" fill="#333333" stroke="none" />
</svg>