<?xml version="1.0" encoding="utf-8"?>
<svg version="1.1" xmlns:xlink="http://www.w3.org/1999/xlink" width="14px" height="14px" xmlns="http://www.w3.org/2000/svg">
  <g transform="matrix(1 0 0 1 -7 -14 )">
    <path d="M 13.405 8.764  L 11.998 7.658  C 12.026 7.448  12.04 7.231  12.04 7  C 12.04 6.776  12.026 6.552  11.991 6.342  L 13.412 5.236  C 13.538 5.138  13.573 4.949  13.496 4.809  L 12.152 2.485  C 12.068 2.331  11.893 2.282  11.739 2.331  L 10.066 3.003  C 9.716 2.737  9.345 2.513  8.932 2.345  L 8.68 0.567  C 8.652 0.399  8.512 0.28  8.344 0.28  L 5.656 0.28  C 5.488 0.28  5.355 0.399  5.327 0.567  L 5.075 2.345  C 4.662 2.513  4.284 2.744  3.941 3.003  L 2.268 2.331  C 2.114 2.275  1.939 2.331  1.855 2.485  L 0.518 4.809  C 0.434 4.956  0.462 5.138  0.602 5.236  L 2.023 6.342  C 1.988 6.552  1.96 6.783  1.96 7  C 1.96 7.217  1.974 7.448  2.009 7.658  L 0.588 8.764  C 0.462 8.862  0.427 9.051  0.504 9.191  L 1.848 11.515  C 1.932 11.669  2.107 11.718  2.261 11.669  L 3.934 10.997  C 4.284 11.263  4.655 11.487  5.068 11.655  L 5.32 13.433  C 5.355 13.601  5.488 13.72  5.656 13.72  L 8.344 13.72  C 8.512 13.72  8.652 13.601  8.673 13.433  L 8.925 11.655  C 9.338 11.487  9.716 11.263  10.059 10.997  L 11.732 11.669  C 11.886 11.725  12.061 11.669  12.145 11.515  L 13.489 9.191  C 13.573 9.037  13.538 8.862  13.405 8.764  Z M 9.52 7  C 9.52 8.386  8.386 9.52  7 9.52  C 5.614 9.52  4.48 8.386  4.48 7  C 4.48 5.614  5.614 4.48  7 4.48  C 8.386 4.48  9.52 5.614  9.52 7  Z " fill-rule="nonzero" fill="#036eb7" stroke="none" transform="matrix(1 0 0 1 7 14 )" />
  </g>
</svg>