<?xml version="1.0" encoding="utf-8"?>
<svg version="1.1" xmlns:xlink="http://www.w3.org/1999/xlink" width="12px" height="10px" xmlns="http://www.w3.org/2000/svg">
  <g transform="matrix(1 0 0 1 -167 -16 )">
    <path d="M 12 8.75  L 12 1.25  C 12 0.5625  11.46 0  10.8 0  L 1.2 0  C 0.54 0  0 0.5625  0 1.25  L 0 8.75  C 0 9.4375  0.54 10  1.2 10  L 10.8 10  C 11.46 10  12 9.4375  12 8.75  Z M 1.2 1.25  L 10.8 1.25  L 6 4.375  L 1.2 1.25  Z M 10.8 2.5  L 10.8 8.75  L 1.2 8.75  L 1.2 2.5  L 6 5.625  L 10.8 2.5  Z " fill-rule="nonzero" fill="#ffffff" stroke="none" transform="matrix(1 0 0 1 167 16 )" />
  </g>
</svg>