<?xml version="1.0" encoding="utf-8"?>
<svg version="1.1" xmlns:xlink="http://www.w3.org/1999/xlink" width="12px" height="12px" viewBox="382 210.5  12 12" xmlns="http://www.w3.org/2000/svg">
  <path d="M 388 210.5  C 391.36 210.5  394 213.14  394 216.5  C 394 219.86  391.36 222.5  388 222.5  C 384.64 222.5  382 219.86  382 216.5  C 382 213.14  384.64 210.5  388 210.5  Z " fill-rule="nonzero" fill="#f0f0f0" stroke="none" />
  <path d="M 388 211  C 391.08 211  393.5 213.42  393.5 216.5  C 393.5 219.58  391.08 222  388 222  C 384.92 222  382.5 219.58  382.5 216.5  C 382.5 213.42  384.92 211  388 211  Z " stroke-width="1" stroke="#797979" fill="none" />
  <path d="M 388 219.5  C 386.32 219.5  385 218.18  385 216.5  C 385 214.82  386.32 213.5  388 213.5  C 389.68 213.5  391 214.82  391 216.5  C 391 218.18  389.68 219.5  388 219.5  " fill-rule="nonzero" fill="#797979" stroke="none" />
</svg>