<?xml version="1.0" encoding="utf-8"?>
<svg version="1.1" xmlns:xlink="http://www.w3.org/1999/xlink" width="12px" height="12px" viewBox="326 207.5  12 12" xmlns="http://www.w3.org/2000/svg">
  <path d="M 332 207.5  C 335.36 207.5  338 210.14  338 213.5  C 338 216.86  335.36 219.5  332 219.5  C 328.64 219.5  326 216.86  326 213.5  C 326 210.14  328.64 207.5  332 207.5  Z " fill-rule="nonzero" fill="#f0f0f0" stroke="none" />
  <path d="M 332 208  C 335.08 208  337.5 210.42  337.5 213.5  C 337.5 216.58  335.08 219  332 219  C 328.92 219  326.5 216.58  326.5 213.5  C 326.5 210.42  328.92 208  332 208  Z " stroke-width="1" stroke="#333333" fill="none" />
  <path d="M 332 216.5  C 330.32 216.5  329 215.18  329 213.5  C 329 211.82  330.32 210.5  332 210.5  C 333.68 210.5  335 211.82  335 213.5  C 335 215.18  333.68 216.5  332 216.5  " fill-rule="nonzero" fill="#333333" stroke="none" />
</svg>