<?xml version="1.0" encoding="utf-8"?>
<svg version="1.1" xmlns:xlink="http://www.w3.org/1999/xlink" width="12px" height="12px" viewBox="267 207.5  12 12" xmlns="http://www.w3.org/2000/svg">
  <path d="M 273 207.5  C 276.36 207.5  279 210.14  279 213.5  C 279 216.86  276.36 219.5  273 219.5  C 269.64 219.5  267 216.86  267 213.5  C 267 210.14  269.64 207.5  273 207.5  Z " fill-rule="nonzero" fill="#f0f0f0" stroke="none" />
  <path d="M 273 208  C 276.08 208  278.5 210.42  278.5 213.5  C 278.5 216.58  276.08 219  273 219  C 269.92 219  267.5 216.58  267.5 213.5  C 267.5 210.42  269.92 208  273 208  Z " stroke-width="1" stroke="#333333" fill="none" />
  <path d="M 273 216.5  C 271.32 216.5  270 215.18  270 213.5  C 270 211.82  271.32 210.5  273 210.5  C 274.68 210.5  276 211.82  276 213.5  C 276 215.18  274.68 216.5  273 216.5  " fill-rule="nonzero" fill="#333333" stroke="none" />
</svg>