<?xml version="1.0" encoding="utf-8"?>
<svg version="1.1" xmlns:xlink="http://www.w3.org/1999/xlink" width="12px" height="12px" viewBox="267 223.5  12 12" xmlns="http://www.w3.org/2000/svg">
  <path d="M 273 223.5  C 276.36 223.5  279 226.14  279 229.5  C 279 232.86  276.36 235.5  273 235.5  C 269.64 235.5  267 232.86  267 229.5  C 267 226.14  269.64 223.5  273 223.5  Z " fill-rule="nonzero" fill="#ffffff" stroke="none" />
  <path d="M 273 224  C 276.08 224  278.5 226.42  278.5 229.5  C 278.5 232.58  276.08 235  273 235  C 269.92 235  267.5 232.58  267.5 229.5  C 267.5 226.42  269.92 224  273 224  Z " stroke-width="1" stroke="#797979" fill="none" />
  <path d="M 273 232.5  C 271.32 232.5  270 231.18  270 229.5  C 270 227.82  271.32 226.5  273 226.5  C 274.68 226.5  276 227.82  276 229.5  C 276 231.18  274.68 232.5  273 232.5  " fill-rule="nonzero" fill="#797979" stroke="none" />
</svg>