<?xml version="1.0" encoding="utf-8"?>
<svg version="1.1" xmlns:xlink="http://www.w3.org/1999/xlink" width="12px" height="12px" viewBox="383 223.5  12 12" xmlns="http://www.w3.org/2000/svg">
  <path d="M 389 223.5  C 392.36 223.5  395 226.14  395 229.5  C 395 232.86  392.36 235.5  389 235.5  C 385.64 235.5  383 232.86  383 229.5  C 383 226.14  385.64 223.5  389 223.5  Z " fill-rule="nonzero" fill="#ffffff" stroke="none" />
  <path d="M 389 224  C 392.08 224  394.5 226.42  394.5 229.5  C 394.5 232.58  392.08 235  389 235  C 385.92 235  383.5 232.58  383.5 229.5  C 383.5 226.42  385.92 224  389 224  Z " stroke-width="1" stroke="#797979" fill="none" />
  <path d="M 389 232.5  C 387.32 232.5  386 231.18  386 229.5  C 386 227.82  387.32 226.5  389 226.5  C 390.68 226.5  392 227.82  392 229.5  C 392 231.18  390.68 232.5  389 232.5  " fill-rule="nonzero" fill="#797979" stroke="none" />
</svg>