<?xml version="1.0" encoding="utf-8"?>
<svg version="1.1" xmlns:xlink="http://www.w3.org/1999/xlink" width="12px" height="12px" viewBox="711 223.5  12 12" xmlns="http://www.w3.org/2000/svg">
  <path d="M 717 223.5  C 720.36 223.5  723 226.14  723 229.5  C 723 232.86  720.36 235.5  717 235.5  C 713.64 235.5  711 232.86  711 229.5  C 711 226.14  713.64 223.5  717 223.5  Z " fill-rule="nonzero" fill="#ffffff" stroke="none" />
  <path d="M 717 224  C 720.08 224  722.5 226.42  722.5 229.5  C 722.5 232.58  720.08 235  717 235  C 713.92 235  711.5 232.58  711.5 229.5  C 711.5 226.42  713.92 224  717 224  Z " stroke-width="1" stroke="#797979" fill="none" />
  <path d="M 717 232.5  C 715.32 232.5  714 231.18  714 229.5  C 714 227.82  715.32 226.5  717 226.5  C 718.68 226.5  720 227.82  720 229.5  C 720 231.18  718.68 232.5  717 232.5  " fill-rule="nonzero" fill="#797979" stroke="none" />
</svg>