<?xml version="1.0" encoding="utf-8"?>
<svg version="1.1" xmlns:xlink="http://www.w3.org/1999/xlink" width="12px" height="12px" viewBox="162 84.5  12 12" xmlns="http://www.w3.org/2000/svg">
  <path d="M 168 84.5  C 171.36 84.5  174 87.14  174 90.5  C 174 93.86  171.36 96.5  168 96.5  C 164.64 96.5  162 93.86  162 90.5  C 162 87.14  164.64 84.5  168 84.5  Z " fill-rule="nonzero" fill="#f0f0f0" stroke="none" />
  <path d="M 168 85  C 171.08 85  173.5 87.42  173.5 90.5  C 173.5 93.58  171.08 96  168 96  C 164.92 96  162.5 93.58  162.5 90.5  C 162.5 87.42  164.92 85  168 85  Z " stroke-width="1" stroke="#797979" fill="none" />
  <path d="M 168 93.5  C 166.32 93.5  165 92.18  165 90.5  C 165 88.82  166.32 87.5  168 87.5  C 169.68 87.5  171 88.82  171 90.5  C 171 92.18  169.68 93.5  168 93.5  " fill-rule="nonzero" fill="#797979" stroke="none" />
</svg>