<?xml version="1.0" encoding="utf-8"?>
<svg version="1.1" xmlns:xlink="http://www.w3.org/1999/xlink" width="12px" height="12px" xmlns="http://www.w3.org/2000/svg">
  <g transform="matrix(1 0 0 1 -97 -15 )">
    <path d="M 12 2.66666666666667  L 9.33333333333333 0  L 1.33333333333333 0  C 0.593333333333333 0  0 0.6  0 1.33333333333333  L 0 10.6666666666667  C 0 11.4  0.593333333333333 12  1.33333333333333 12  L 10.6666666666667 12  C 11.4 12  12 11.4  12 10.6666666666667  L 12 2.66666666666667  Z M 10.6666666666667 3.22  L 10.6666666666667 10.6666666666667  L 1.33333333333333 10.6666666666667  L 1.33333333333333 1.33333333333333  L 8.78 1.33333333333333  L 10.6666666666667 3.22  Z M 8 8  C 8 6.89333333333333  7.10666666666667 6  6 6  C 4.89333333333333 6  4 6.89333333333333  4 8  C 4 9.10666666666667  4.89333333333333 10  6 10  C 7.10666666666667 10  8 9.10666666666667  8 8  Z M 2 4.66666666666667  L 2 2  L 8 2  L 8 4.66666666666667  L 2 4.66666666666667  Z " fill-rule="nonzero" fill="#ffffff" stroke="none" transform="matrix(1 0 0 1 97 15 )" />
  </g>
</svg>