<?xml version="1.0" encoding="utf-8"?>
<svg version="1.1" xmlns:xlink="http://www.w3.org/1999/xlink" width="12px" height="12px" viewBox="171 502  12 12" xmlns="http://www.w3.org/2000/svg">
  <path d="M 171.5 504  A 1.5 1.5 0 0 1 173 502.5 L 181 502.5  A 1.5 1.5 0 0 1 182.5 504 L 182.5 512  A 1.5 1.5 0 0 1 181 513.5 L 173 513.5  A 1.5 1.5 0 0 1 171.5 512 L 171.5 504  Z " fill-rule="nonzero" fill="#ffffff" stroke="none" />
  <path d="M 171.5 504  A 1.5 1.5 0 0 1 173 502.5 L 181 502.5  A 1.5 1.5 0 0 1 182.5 504 L 182.5 512  A 1.5 1.5 0 0 1 181 513.5 L 173 513.5  A 1.5 1.5 0 0 1 171.5 512 L 171.5 504  Z " stroke-width="1" stroke="#797979" fill="none" />
  <path d="M 173.571428571429 508  L 176.142857142857 510.571428571429  " stroke-width="2.57142857142857" stroke="#797979" fill="none" />
  <path d="M 176.142857142857 510.571428571429  L 180.428571428571 504.571428571429  " stroke-width="2.57142857142857" stroke="#797979" fill="none" />
</svg>