<?xml version="1.0" encoding="utf-8"?>
<svg version="1.1" xmlns:xlink="http://www.w3.org/1999/xlink" width="12px" height="12px" viewBox="171 527  12 12" xmlns="http://www.w3.org/2000/svg">
  <path d="M 171.5 529  A 1.5 1.5 0 0 1 173 527.5 L 181 527.5  A 1.5 1.5 0 0 1 182.5 529 L 182.5 537  A 1.5 1.5 0 0 1 181 538.5 L 173 538.5  A 1.5 1.5 0 0 1 171.5 537 L 171.5 529  Z " fill-rule="nonzero" fill="#ffffff" stroke="none" />
  <path d="M 171.5 529  A 1.5 1.5 0 0 1 173 527.5 L 181 527.5  A 1.5 1.5 0 0 1 182.5 529 L 182.5 537  A 1.5 1.5 0 0 1 181 538.5 L 173 538.5  A 1.5 1.5 0 0 1 171.5 537 L 171.5 529  Z " stroke-width="1" stroke="#797979" fill="none" />
  <path d="M 173.571428571429 533  L 176.142857142857 535.571428571429  " stroke-width="2.57142857142857" stroke="#797979" fill="none" />
  <path d="M 176.142857142857 535.571428571429  L 180.428571428571 529.571428571429  " stroke-width="2.57142857142857" stroke="#797979" fill="none" />
</svg>