<?xml version="1.0" encoding="utf-8"?>
<svg version="1.1" xmlns:xlink="http://www.w3.org/1999/xlink" width="12px" height="12px" viewBox="171 477  12 12" xmlns="http://www.w3.org/2000/svg">
  <path d="M 171.5 479  A 1.5 1.5 0 0 1 173 477.5 L 181 477.5  A 1.5 1.5 0 0 1 182.5 479 L 182.5 487  A 1.5 1.5 0 0 1 181 488.5 L 173 488.5  A 1.5 1.5 0 0 1 171.5 487 L 171.5 479  Z " fill-rule="nonzero" fill="#f0f0f0" stroke="none" />
  <path d="M 171.5 479  A 1.5 1.5 0 0 1 173 477.5 L 181 477.5  A 1.5 1.5 0 0 1 182.5 479 L 182.5 487  A 1.5 1.5 0 0 1 181 488.5 L 173 488.5  A 1.5 1.5 0 0 1 171.5 487 L 171.5 479  Z " stroke-width="1" stroke="#797979" fill="none" />
  <path d="M 173.571428571429 483  L 176.142857142857 485.571428571429  " stroke-width="2.57142857142857" stroke="#797979" fill="none" />
  <path d="M 176.142857142857 485.571428571429  L 180.428571428571 479.571428571429  " stroke-width="2.57142857142857" stroke="#797979" fill="none" />
</svg>