<?xml version="1.0" encoding="utf-8"?>
<svg version="1.1" xmlns:xlink="http://www.w3.org/1999/xlink" width="12px" height="11px" xmlns="http://www.w3.org/2000/svg">
  <g transform="matrix(1 0 0 1 -237 -15 )">
    <path d="M 6.98526315789474 1.94944444444444  L 0 8.70833333333333  L 0 11  L 2.36842105263158 11  L 9.35368421052631 4.24111111111111  L 6.98526315789474 1.94944444444444  Z M 7.56631578947368 4.24111111111111  L 1.84421052631579 9.77777777777778  L 1.26315789473684 9.77777777777778  L 1.26315789473684 9.21555555555556  L 6.98526315789474 3.67888888888889  L 7.56631578947368 4.24111111111111  Z M 11.1852631578947 2.46888888888889  C 11.4315789473684 2.23055555555556  11.4315789473684 1.84555555555556  11.1852631578947 1.60722222222222  L 9.70736842105263 0.177222222222222  C 9.58105263157895 0.0549999999999999  9.42315789473684 0  9.25894736842105 0  C 9.09473684210526 0  8.93684210526316 0.0611111111111112  8.81684210526316 0.177222222222222  L 7.66105263157895 1.29555555555556  L 10.0294736842105 3.58722222222222  L 11.1852631578947 2.46888888888889  Z " fill-rule="nonzero" fill="#ffffff" stroke="none" transform="matrix(1 0 0 1 237 15 )" />
  </g>
</svg>