<?xml version="1.0" encoding="utf-8"?>
<svg version="1.1" xmlns:xlink="http://www.w3.org/1999/xlink" width="42px" height="17px" xmlns="http://www.w3.org/2000/svg">
  <g>
    <path d="M 1 3  A 2 2 0 0 1 3 1 L 39 1  A 2 2 0 0 1 41 3 L 41 14  A 2 2 0 0 1 39 16 L 3 16  A 2 2 0 0 1 1 14 L 1 3  Z " fill-rule="nonzero" fill="#217348" stroke="none" />
    <path d="M 0.5 3  A 2.5 2.5 0 0 1 3 0.5 L 39 0.5  A 2.5 2.5 0 0 1 41.5 3 L 41.5 14  A 2.5 2.5 0 0 1 39 16.5 L 3 16.5  A 2.5 2.5 0 0 1 0.5 14 L 0.5 3  Z " stroke-width="1" stroke="#217348" fill="none" stroke-opacity="0.501960784313725" />
  </g>
</svg>