<?xml version="1.0" encoding="utf-8"?>
<svg version="1.1" xmlns:xlink="http://www.w3.org/1999/xlink" width="10px" height="10px" xmlns="http://www.w3.org/2000/svg">
  <g transform="matrix(1 0 0 1 -114 -284 )">
    <path d="M 119 284.5  C 121.52 284.5  123.5 286.48  123.5 289  C 123.5 291.52  121.52 293.5  119 293.5  C 116.48 293.5  114.5 291.52  114.5 289  C 114.5 286.48  116.48 284.5  119 284.5  Z " fill-rule="nonzero" fill="#70b603" stroke="none" />
    <path d="M 119 284.5  C 121.52 284.5  123.5 286.48  123.5 289  C 123.5 291.52  121.52 293.5  119 293.5  C 116.48 293.5  114.5 291.52  114.5 289  C 114.5 286.48  116.48 284.5  119 284.5  Z " stroke-width="1" stroke="#ffffff" fill="none" stroke-opacity="0.8" />
  </g>
</svg>