<?xml version="1.0" encoding="utf-8"?>
<svg version="1.1" xmlns:xlink="http://www.w3.org/1999/xlink" width="10px" height="10px" xmlns="http://www.w3.org/2000/svg">
  <g transform="matrix(1 0 0 1 -352 -254 )">
    <path d="M 357 254.5  C 359.52 254.5  361.5 256.48  361.5 259  C 361.5 261.52  359.52 263.5  357 263.5  C 354.48 263.5  352.5 261.52  352.5 259  C 352.5 256.48  354.48 254.5  357 254.5  Z " fill-rule="nonzero" fill="#facd91" stroke="none" />
    <path d="M 357 254.5  C 359.52 254.5  361.5 256.48  361.5 259  C 361.5 261.52  359.52 263.5  357 263.5  C 354.48 263.5  352.5 261.52  352.5 259  C 352.5 256.48  354.48 254.5  357 254.5  Z " stroke-width="1" stroke="#ffffff" fill="none" stroke-opacity="0.803921568627451" />
  </g>
</svg>