<?xml version="1.0" encoding="utf-8"?>
<svg version="1.1" xmlns:xlink="http://www.w3.org/1999/xlink" width="10px" height="10px" xmlns="http://www.w3.org/2000/svg">
  <g transform="matrix(1 0 0 1 -274 -254 )">
    <path d="M 279 254.5  C 281.52 254.5  283.5 256.48  283.5 259  C 283.5 261.52  281.52 263.5  279 263.5  C 276.48 263.5  274.5 261.52  274.5 259  C 274.5 256.48  276.48 254.5  279 254.5  Z " fill-rule="nonzero" fill="#ec808d" stroke="none" />
    <path d="M 279 254.5  C 281.52 254.5  283.5 256.48  283.5 259  C 283.5 261.52  281.52 263.5  279 263.5  C 276.48 263.5  274.5 261.52  274.5 259  C 274.5 256.48  276.48 254.5  279 254.5  Z " stroke-width="1" stroke="#ffffff" fill="none" stroke-opacity="0.8" />
  </g>
</svg>