<?xml version="1.0" encoding="utf-8"?>
<svg version="1.1" xmlns:xlink="http://www.w3.org/1999/xlink" width="12px" height="12px" viewBox="297 138.5  12 12" xmlns="http://www.w3.org/2000/svg">
  <path d="M 303 138.5  C 306.36 138.5  309 141.14  309 144.5  C 309 147.86  306.36 150.5  303 150.5  C 299.64 150.5  297 147.86  297 144.5  C 297 141.14  299.64 138.5  303 138.5  Z " fill-rule="nonzero" fill="#ffffff" stroke="none" />
  <path d="M 303 139  C 306.08 139  308.5 141.42  308.5 144.5  C 308.5 147.58  306.08 150  303 150  C 299.92 150  297.5 147.58  297.5 144.5  C 297.5 141.42  299.92 139  303 139  Z " stroke-width="1" stroke="#797979" fill="none" />
  <path d="M 303 147.5  C 301.32 147.5  300 146.18  300 144.5  C 300 142.82  301.32 141.5  303 141.5  C 304.68 141.5  306 142.82  306 144.5  C 306 146.18  304.68 147.5  303 147.5  " fill-rule="nonzero" fill="#797979" stroke="none" />
</svg>