<?xml version="1.0" encoding="utf-8"?>
<svg version="1.1" xmlns:xlink="http://www.w3.org/1999/xlink" width="12px" height="12px" viewBox="239 138.5  12 12" xmlns="http://www.w3.org/2000/svg">
  <path d="M 245 138.5  C 248.36 138.5  251 141.14  251 144.5  C 251 147.86  248.36 150.5  245 150.5  C 241.64 150.5  239 147.86  239 144.5  C 239 141.14  241.64 138.5  245 138.5  Z " fill-rule="nonzero" fill="#ffffff" stroke="none" />
  <path d="M 245 139  C 248.08 139  250.5 141.42  250.5 144.5  C 250.5 147.58  248.08 150  245 150  C 241.92 150  239.5 147.58  239.5 144.5  C 239.5 141.42  241.92 139  245 139  Z " stroke-width="1" stroke="#797979" fill="none" />
  <path d="M 245 147.5  C 243.32 147.5  242 146.18  242 144.5  C 242 142.82  243.32 141.5  245 141.5  C 246.68 141.5  248 142.82  248 144.5  C 248 146.18  246.68 147.5  245 147.5  " fill-rule="nonzero" fill="#797979" stroke="none" />
</svg>