<?xml version="1.0" encoding="utf-8"?>
<svg version="1.1" xmlns:xlink="http://www.w3.org/1999/xlink" width="15px" height="10px" xmlns="http://www.w3.org/2000/svg">
  <g transform="matrix(1 0 0 1 -165 -16 )">
    <path d="M 15 6.875  C 15 5.225  13.71875 3.8875  12.09375 3.775  C 11.66875 1.61875  9.775 0  7.5 0  C 5.69375 0  4.125 1.025  3.34375 2.525  C 1.4625 2.725  0 4.31875  0 6.25  C 0 8.31875  1.68125 10  3.75 10  L 11.875 10  C 13.6 10  15 8.6  15 6.875  Z M 10.625 5.625  L 8.75 5.625  L 8.75 8.125  L 6.25 8.125  L 6.25 5.625  L 4.375 5.625  L 7.5 2.5  L 10.625 5.625  Z " fill-rule="nonzero" fill="#ffffff" stroke="none" transform="matrix(1 0 0 1 165 16 )" />
  </g>
</svg>