<?xml version="1.0" encoding="utf-8"?>
<svg version="1.1" xmlns:xlink="http://www.w3.org/1999/xlink" width="12px" height="12px" viewBox="274 254.5  12 12" xmlns="http://www.w3.org/2000/svg">
  <path d="M 280 254.5  C 283.36 254.5  286 257.14  286 260.5  C 286 263.86  283.36 266.5  280 266.5  C 276.64 266.5  274 263.86  274 260.5  C 274 257.14  276.64 254.5  280 254.5  Z " fill-rule="nonzero" fill="#ffffff" stroke="none" />
  <path d="M 280 255  C 283.08 255  285.5 257.42  285.5 260.5  C 285.5 263.58  283.08 266  280 266  C 276.92 266  274.5 263.58  274.5 260.5  C 274.5 257.42  276.92 255  280 255  Z " stroke-width="1" stroke="#333333" fill="none" />
  <path d="M 280 263.5  C 278.32 263.5  277 262.18  277 260.5  C 277 258.82  278.32 257.5  280 257.5  C 281.68 257.5  283 258.82  283 260.5  C 283 262.18  281.68 263.5  280 263.5  " fill-rule="nonzero" fill="#333333" stroke="none" />
</svg>