<?xml version="1.0" encoding="utf-8"?>
<svg version="1.1" xmlns:xlink="http://www.w3.org/1999/xlink" width="12px" height="12px" viewBox="190 254.5  12 12" xmlns="http://www.w3.org/2000/svg">
  <path d="M 196 254.5  C 199.36 254.5  202 257.14  202 260.5  C 202 263.86  199.36 266.5  196 266.5  C 192.64 266.5  190 263.86  190 260.5  C 190 257.14  192.64 254.5  196 254.5  Z " fill-rule="nonzero" fill="#ffffff" stroke="none" />
  <path d="M 196 255  C 199.08 255  201.5 257.42  201.5 260.5  C 201.5 263.58  199.08 266  196 266  C 192.92 266  190.5 263.58  190.5 260.5  C 190.5 257.42  192.92 255  196 255  Z " stroke-width="1" stroke="#333333" fill="none" />
  <path d="M 196 263.5  C 194.32 263.5  193 262.18  193 260.5  C 193 258.82  194.32 257.5  196 257.5  C 197.68 257.5  199 258.82  199 260.5  C 199 262.18  197.68 263.5  196 263.5  " fill-rule="nonzero" fill="#333333" stroke="none" />
</svg>