<?xml version="1.0" encoding="utf-8"?>
<svg version="1.1" xmlns:xlink="http://www.w3.org/1999/xlink" width="12px" height="12px" viewBox="327 254.5  12 12" xmlns="http://www.w3.org/2000/svg">
  <path d="M 333 254.5  C 336.36 254.5  339 257.14  339 260.5  C 339 263.86  336.36 266.5  333 266.5  C 329.64 266.5  327 263.86  327 260.5  C 327 257.14  329.64 254.5  333 254.5  Z " fill-rule="nonzero" fill="#ffffff" stroke="none" />
  <path d="M 333 255  C 336.08 255  338.5 257.42  338.5 260.5  C 338.5 263.58  336.08 266  333 266  C 329.92 266  327.5 263.58  327.5 260.5  C 327.5 257.42  329.92 255  333 255  Z " stroke-width="1" stroke="#333333" fill="none" />
  <path d="M 333 263.5  C 331.32 263.5  330 262.18  330 260.5  C 330 258.82  331.32 257.5  333 257.5  C 334.68 257.5  336 258.82  336 260.5  C 336 262.18  334.68 263.5  333 263.5  " fill-rule="nonzero" fill="#333333" stroke="none" />
</svg>