<?xml version="1.0" encoding="utf-8"?>
<svg version="1.1" xmlns:xlink="http://www.w3.org/1999/xlink" width="12px" height="12px" xmlns="http://www.w3.org/2000/svg">
  <g transform="matrix(1 0 0 1 -97 -15 )">
    <path d="M 11.66 10.6666666666667  L 8.33333333333333 7.33333333333333  L 7.80666666666667 7.33333333333333  L 7.62 7.15333333333333  C 8.27333333333333 6.39333333333333  8.66666666666667 5.40666666666667  8.66666666666667 4.33333333333333  C 8.66666666666667 1.94  6.72666666666667 0  4.33333333333333 0  C 1.94 0  0 1.94  0 4.33333333333333  C 0 6.72666666666667  1.94 8.66666666666667  4.33333333333333 8.66666666666667  C 5.40666666666667 8.66666666666667  6.39333333333333 8.27333333333333  7.15333333333333 7.62  L 7.33333333333333 7.80666666666667  L 7.33333333333333 8.33333333333333  L 10.6666666666667 11.66  L 11.66 10.6666666666667  Z M 7.33333333333333 4.33333333333333  C 7.33333333333333 5.99333333333333  5.99333333333333 7.33333333333333  4.33333333333333 7.33333333333333  C 2.67333333333333 7.33333333333333  1.33333333333333 5.99333333333333  1.33333333333333 4.33333333333333  C 1.33333333333333 2.67333333333333  2.67333333333333 1.33333333333333  4.33333333333333 1.33333333333333  C 5.99333333333333 1.33333333333333  7.33333333333333 2.67333333333333  7.33333333333333 4.33333333333333  Z " fill-rule="nonzero" fill="#ffffff" stroke="none" transform="matrix(1 0 0 1 97 15 )" />
  </g>
</svg>