<?xml version="1.0" encoding="utf-8"?>
<svg version="1.1" xmlns:xlink="http://www.w3.org/1999/xlink" width="66px" height="27px" xmlns="http://www.w3.org/2000/svg">
  <defs>
    <filter x="308px" y="8px" width="66px" height="27px" filterUnits="userSpaceOnUse" id="filter12">
      <feOffset dx="0" dy="2" in="SourceAlpha" result="shadowOffsetInner" />
      <feGaussianBlur stdDeviation="0" in="shadowOffsetInner" result="shadowGaussian" />
      <feComposite in2="shadowGaussian" operator="atop" in="SourceAlpha" result="shadowComposite" />
      <feColorMatrix type="matrix" values="0 0 0 0 0.776470588235294  0 0 0 0 0.650980392156863  0 0 0 0 0.403921568627451  0 0 0 0.803921568627451 0  " in="shadowComposite" />
    </filter>
    <g id="widget13">
      <path d="M 309 13  A 4 4 0 0 1 313 9 L 369 9  A 4 4 0 0 1 373 13 L 373 28  A 4 4 0 0 1 369 32 L 313 32  A 4 4 0 0 1 309 28 L 309 13  Z " fill-rule="nonzero" fill="#eadeca" stroke="none" />
      <path d="M 308.5 13  A 4.5 4.5 0 0 1 313 8.5 L 369 8.5  A 4.5 4.5 0 0 1 373.5 13 L 373.5 28  A 4.5 4.5 0 0 1 369 32.5 L 313 32.5  A 4.5 4.5 0 0 1 308.5 28 L 308.5 13  Z " stroke-width="1" stroke="#c6a667" fill="none" stroke-opacity="0.803921568627451" />
    </g>
  </defs>
  <g transform="matrix(1 0 0 1 -308 -8 )">
    <use xlink:href="#widget13" filter="url(#filter12)" />
    <use xlink:href="#widget13" />
  </g>
</svg>