<?xml version="1.0" encoding="utf-8"?>
<svg version="1.1" xmlns:xlink="http://www.w3.org/1999/xlink" width="12px" height="13px" xmlns="http://www.w3.org/2000/svg">
  <g transform="matrix(1 0 0 1 -316 -14 )">
    <path d="M 12 6.5  C 12 2.912  9.312 0  6 0  C 2.688 0  0 2.912  0 6.5  C 0 10.088  2.688 13  6 13  C 9.312 13  12 10.088  12 6.5  Z M 8.94 10.6015  C 8.13 11.2905  7.11 11.7  6 11.7  C 3.348 11.7  1.2 9.373  1.2 6.5  C 1.2 5.2975  1.578 4.1925  2.214 3.315  L 8.94 10.6015  Z M 10.8 6.5  C 10.8 7.7025  10.422 8.8075  9.786 9.685  L 3.06 2.3985  C 3.87 1.7095  4.89 1.3  6 1.3  C 8.652 1.3  10.8 3.627  10.8 6.5  Z " fill-rule="nonzero" fill="#8c7457" stroke="none" transform="matrix(1 0 0 1 316 14 )" />
  </g>
</svg>