<?xml version="1.0" encoding="utf-8"?>
<svg version="1.1" xmlns:xlink="http://www.w3.org/1999/xlink" width="12px" height="12px" viewBox="171 494  12 12" xmlns="http://www.w3.org/2000/svg">
  <path d="M 171.5 496  A 1.5 1.5 0 0 1 173 494.5 L 181 494.5  A 1.5 1.5 0 0 1 182.5 496 L 182.5 504  A 1.5 1.5 0 0 1 181 505.5 L 173 505.5  A 1.5 1.5 0 0 1 171.5 504 L 171.5 496  Z " fill-rule="nonzero" fill="#f0f0f0" stroke="none" />
  <path d="M 171.5 496  A 1.5 1.5 0 0 1 173 494.5 L 181 494.5  A 1.5 1.5 0 0 1 182.5 496 L 182.5 504  A 1.5 1.5 0 0 1 181 505.5 L 173 505.5  A 1.5 1.5 0 0 1 171.5 504 L 171.5 496  Z " stroke-width="1" stroke="#797979" fill="none" />
</svg>