<?xml version="1.0" encoding="utf-8"?>
<svg version="1.1" xmlns:xlink="http://www.w3.org/1999/xlink" width="12px" height="12px" viewBox="171 444  12 12" xmlns="http://www.w3.org/2000/svg">
  <path d="M 171.5 446  A 1.5 1.5 0 0 1 173 444.5 L 181 444.5  A 1.5 1.5 0 0 1 182.5 446 L 182.5 454  A 1.5 1.5 0 0 1 181 455.5 L 173 455.5  A 1.5 1.5 0 0 1 171.5 454 L 171.5 446  Z " fill-rule="nonzero" fill="#f0f0f0" stroke="none" />
  <path d="M 171.5 446  A 1.5 1.5 0 0 1 173 444.5 L 181 444.5  A 1.5 1.5 0 0 1 182.5 446 L 182.5 454  A 1.5 1.5 0 0 1 181 455.5 L 173 455.5  A 1.5 1.5 0 0 1 171.5 454 L 171.5 446  Z " stroke-width="1" stroke="#797979" fill="none" />
  <path d="M 173.571428571429 450  L 176.142857142857 452.571428571429  " stroke-width="2.57142857142857" stroke="#797979" fill="none" />
  <path d="M 176.142857142857 452.571428571429  L 180.428571428571 446.571428571429  " stroke-width="2.57142857142857" stroke="#797979" fill="none" />
</svg>