<?xml version="1.0" encoding="utf-8"?>
<svg version="1.1" xmlns:xlink="http://www.w3.org/1999/xlink" width="20px" height="19px" xmlns="http://www.w3.org/2000/svg">
  <g transform="matrix(1 0 0 1 -1150 -89 )">
    <path d="M 20 9.5  C 20 4.2465  15.53 0  10 0  C 4.47 0  0 4.2465  0 9.5  C 0 14.7535  4.47 19  10 19  C 15.53 19  20 14.7535  20 9.5  Z M 11.41 9.5  L 15 12.9105  L 13.59 14.25  L 10 10.8395  L 6.41 14.25  L 5 12.9105  L 8.59 9.5  L 5 6.0895  L 6.41 4.75  L 10 8.1605  L 13.59 4.75  L 15 6.0895  L 11.41 9.5  Z " fill-rule="nonzero" fill="#f2f2f2" stroke="none" transform="matrix(1 0 0 1 1150 89 )" />
  </g>
</svg>