<?xml version="1.0" encoding="utf-8"?>
<svg version="1.1" xmlns:xlink="http://www.w3.org/1999/xlink" width="12px" height="12px" viewBox="172 369  12 12" xmlns="http://www.w3.org/2000/svg">
  <path d="M 172.5 371  A 1.5 1.5 0 0 1 174 369.5 L 182 369.5  A 1.5 1.5 0 0 1 183.5 371 L 183.5 379  A 1.5 1.5 0 0 1 182 380.5 L 174 380.5  A 1.5 1.5 0 0 1 172.5 379 L 172.5 371  Z " fill-rule="nonzero" fill="#f0f0f0" stroke="none" />
  <path d="M 172.5 371  A 1.5 1.5 0 0 1 174 369.5 L 182 369.5  A 1.5 1.5 0 0 1 183.5 371 L 183.5 379  A 1.5 1.5 0 0 1 182 380.5 L 174 380.5  A 1.5 1.5 0 0 1 172.5 379 L 172.5 371  Z " stroke-width="1" stroke="#797979" fill="none" />
</svg>