<?xml version="1.0" encoding="utf-8"?>
<svg version="1.1" xmlns:xlink="http://www.w3.org/1999/xlink" width="12px" height="12px" viewBox="1347 -656  12 12" xmlns="http://www.w3.org/2000/svg">
  <path d="M 1347.5 -654  A 1.5 1.5 0 0 1 1349 -655.5 L 1357 -655.5  A 1.5 1.5 0 0 1 1358.5 -654 L 1358.5 -646  A 1.5 1.5 0 0 1 1357 -644.5 L 1349 -644.5  A 1.5 1.5 0 0 1 1347.5 -646 L 1347.5 -654  Z " fill-rule="nonzero" fill="#ffffff" stroke="none" />
  <path d="M 1347.5 -654  A 1.5 1.5 0 0 1 1349 -655.5 L 1357 -655.5  A 1.5 1.5 0 0 1 1358.5 -654 L 1358.5 -646  A 1.5 1.5 0 0 1 1357 -644.5 L 1349 -644.5  A 1.5 1.5 0 0 1 1347.5 -646 L 1347.5 -654  Z " stroke-width="1" stroke="#797979" fill="none" />
</svg>