<?xml version="1.0" encoding="utf-8"?>
<svg version="1.1" xmlns:xlink="http://www.w3.org/1999/xlink" width="12px" height="12px" viewBox="1347 -681  12 12" xmlns="http://www.w3.org/2000/svg">
  <path d="M 1347.5 -679  A 1.5 1.5 0 0 1 1349 -680.5 L 1357 -680.5  A 1.5 1.5 0 0 1 1358.5 -679 L 1358.5 -671  A 1.5 1.5 0 0 1 1357 -669.5 L 1349 -669.5  A 1.5 1.5 0 0 1 1347.5 -671 L 1347.5 -679  Z " fill-rule="nonzero" fill="#f0f0f0" stroke="none" />
  <path d="M 1347.5 -679  A 1.5 1.5 0 0 1 1349 -680.5 L 1357 -680.5  A 1.5 1.5 0 0 1 1358.5 -679 L 1358.5 -671  A 1.5 1.5 0 0 1 1357 -669.5 L 1349 -669.5  A 1.5 1.5 0 0 1 1347.5 -671 L 1347.5 -679  Z " stroke-width="1" stroke="#797979" fill="none" />
  <path d="M 1349.57142857143 -675  L 1352.14285714286 -672.428571428571  " stroke-width="2.57142857142857" stroke="#797979" fill="none" />
  <path d="M 1352.14285714286 -672.428571428571  L 1356.42857142857 -678.428571428571  " stroke-width="2.57142857142857" stroke="#797979" fill="none" />
</svg>