<?xml version="1.0" encoding="utf-8"?>
<svg version="1.1" xmlns:xlink="http://www.w3.org/1999/xlink" width="102px" height="22px" xmlns="http://www.w3.org/2000/svg">
  <g transform="matrix(1 0 0 1 -43 -14 )">
    <path d="M 66.0739329909906 17.2194145948846  L 66.1363774713299 20.3043264854498  L 66.0956151022195 20.3043264854498  L 64.9950311362394 17.2194145948846  L 63.2639313757222 17.2194145948846  L 63.2639313757222 21.2373330825374  L 64.2881943101765 21.2373330825374  L 64.2266171142863 18.1496984100742  L 64.2673794833967 18.1496984100742  L 65.3532196137412 21.2373330825374  L 67.099063209894 21.2373330825374  L 67.099063209894 17.2194145948846  L 66.0739329909906 17.2194145948846  Z M 72.487501492506 20.3587821234121  L 72.487501492506 19.5782513126189  L 74.1249345325143 19.5782513126189  L 74.1249345325143 18.8313014785692  L 72.487501492506 18.8313014785692  L 72.487501492506 18.098873147976  L 74.2342123731081 18.098873147976  L 74.2342123731081 17.2203221888507  L 71.46497312695 17.2203221888507  L 71.46497312695 21.2382406765035  L 74.2706383199727 21.2382406765035  L 74.2706383199727 20.3587821234121  L 72.487501492506 20.3587821234121  Z M 63.1286350016537 11.7157647848267  C 64.1823856073793 11.4770675717586  65.1285929414096 10.38160165475  65.9429730391679 8.46022522864632  L 65.9499113147612 8.4457037251897  L 65.9499113147612 8.42755184586893  C 65.9499113147612 8.3186405699443  66.021028639592 8.08629651463842  66.3540658680683 7.5871198333172  C 66.479822113196 7.39470991251702  66.56828512701 7.16690382704134  66.6159857717137 6.91277751655054  C 66.6237913317561 6.85469150272407  66.628995038451 6.79479030096552  66.628995038451 6.73488909920698  C 66.628995038451 6.50345263786714  66.5639487047642 6.28018452222165  66.4390597440857 6.06599234623654  C 66.1068898000585 5.53504987610397  65.3046516845884 5.12481740345454  63.9803083307258 4.80625192137499  C 63.4000950342398 4.65377613508051  62.8571749690676 4.38785110303121  62.3662919708447 4.01755276488747  C 62.356751841904 4.0111996071252  62.2665542591917 3.97943381831385  62.1997733566066 3.95492878123081  C 62.2457394324119 3.7924694613099  62.2812980948274 3.63091773535503  62.2812980948274 3.47118119733224  C 62.2812980948274 3.31235225327549  62.2587486991493 3.15352330921874  62.2145171922423 2.99741714706011  C 62.1399307296148 2.75236677622969  62.002899786648 2.6044289597654  61.8077607855877 2.55904926146347  C 61.5545137264339 2.54634294593893  61.2943283916868 2.80409963229389  60.996849825626 3.34411804208684  C 60.3637321777414 4.10468178562717  59.6161329825682 4.76722538083534  58.7826726269283 5.29453747510375  C 58.5034070342998 5.4533664191605  58.3481631179007 5.66392821928145  58.3264810066718 5.92894565736472  C 58.2961260509513 6.22482129029329  58.4123421671383 6.45171978180294  58.6733947863346 6.60691834999554  C 58.8763393474373 6.71764481385224  59.1720833445998 6.68043346124466  59.5805743201527 6.49346910424071  C 59.808670130281 6.40180211367082  60.300420412953 5.97251016773457  61.0697017193552 5.18925657504328  C 61.3888623966449 5.18925657504328  61.6516495847394 5.20559326643197  61.8728071192744 5.23191349144709  C 61.6785354026633 5.48059423814166  61.0402140480838 6.09503535314978  59.2345278249391 7.57259832986059  C 58.1642988146795 8.32317853977449  57.9778326581107 8.5210340243709  57.9344684356529 8.60362507528041  C 57.8989097732374 8.66715665290311  57.8728912397627 8.74339454605035  57.8728912397627 8.82961597282402  C 57.8728912397627 8.94306521857884  57.9197246000172 9.07103596779028  58.0619592496789 9.20263709286587  C 58.2536291129426 9.37144957054905  58.4392279850622 9.45585580939064  58.6161540126902 9.45585580939064  C 59.2128457137102 9.41592167488494  60.5276489386321 8.27779884147256  62.6420884256766 5.97523294963269  C 62.6455575634733 5.97160257376853  62.9334960005934 5.59132070199837  63.0306318588989 5.46334995278693  C 63.3142338737732 5.54594100369644  63.5787556307661 5.63397761840218  63.8224625609792 5.73018257880227  C 63.2708696513154 6.62053225948611  61.9838195287665 7.90840809729486  59.9873307268073 9.56930505514546  C 59.4123211370163 9.89331610102123  59.051530806167 10.2055284253385  58.8928177519713 10.5132027798256  C 58.8659319340474 10.5758267634822  58.8442498228185 10.6493418747314  58.8442498228185 10.7255797678786  C 58.8442498228185 10.8481049532938  58.8954196053187 10.9842440481996  59.0541326595145 11.1140299853431  C 59.2631482117613 11.2819348690603  59.4617563506182 11.3654335139358  59.6464879382886 11.3654335139358  C 60.3307753686734 11.3046247182112  61.8190354834267 9.90874519844389  64.2049350030574 7.09701909165637  C 64.2075368564049 7.09520390372429  64.6307716675935 6.52523489305206  64.78861743734 6.31376549896507  C 64.8779477356032 6.4154160231614  64.9438613537391 6.52795767495018  64.9716144561121 6.66681955175408  C 65.0045712651801 6.80658902252402  65.0193151008158 6.9518040570902  65.0193151008158 7.09883427958844  C 65.0193151008158 7.68060201181918  64.7660680416619 8.30956463028391  64.2621757767018 8.97301581945811  C 63.926536694878 9.37780272831132  63.5770210618678 9.71270490177956  63.2231690066118 9.96047805450809  C 62.8363601422878 10.2336638382857  62.5995914876679 10.4669154875576  62.4989864915657 10.6765696937125  C 62.4157271844467 10.8644416446825  62.373230246438 11.0259933706374  62.373230246438 11.1603172776111  C 62.373230246438 11.2891956207886  62.4113907622009 11.394476520849  62.4877117937267 11.4734371958944  C 62.6819835103379 11.6776458382531  62.8979373381779 11.7593292951966  63.1286350016537 11.7157647848267  Z M 71.1865748187706 5.96706460393834  C 71.470176833645 6.13678467558755  71.8118869066128 6.13043151782528  72.1926247797927 5.93620640909303  L 72.20563404653 5.93076084529679  L 72.1978284864876 5.93257603322887  C 72.1978284864876 5.93257603322887  72.3235847316154 5.83092550903255  72.4510755456414 5.73109017276831  C 72.4744922257687 6.51888173528979  72.4892360614043 7.29578217021882  72.4892360614043 8.04999275599688  C 72.4892360614043 9.02384108155627  72.471023087972 9.97136918210055  72.4311280033108 10.8825935240033  C 72.4233224432684 10.994227581826  72.4198533054718 11.1013236698186  72.4198533054718 11.2002514121168  C 72.4198533054718 11.652233207204  72.4935724836501 11.9662607194533  72.6410108400068 12.1577630462875  C 72.8309461343722 12.3628792826122  73.0104740153476 12.4618070249104  73.1856654740773 12.4599918369783  C 73.3313692615357 12.4590842430123  73.4666656356042 12.3855691317632  73.5863508895878 12.2512452247895  C 73.791897304038 12.0098252298232  73.8925023001402 11.6204674183926  73.8925023001402 11.0677426930752  C 73.8925023001402 10.9198048766109  73.885564024547 10.7600683385881  73.8716874733605 10.5876254850407  C 73.8612800599706 10.2835815064178  73.8560763532756 9.94323376915335  73.8560763532756 9.56385949134923  C 73.8560763532756 8.50560492694824  73.8942368690386 7.15873548134699  73.9670887627677 5.54866378559455  C 73.9705579005643 5.488762583836  73.9714251850135 5.42795378811142  73.9714251850135 5.36805258635287  C 73.9714251850135 4.95055936197513  73.8760238956062 4.61656478247293  73.7103725658173 4.34610178059343  C 73.7814898906481 4.21177787361972  74.2541599154386 3.31870541103776  74.2541599154386 3.31870541103776  C 74.4961322767534 2.75871993399196  74.6132156773896 2.3503026492746  74.6132156773896 2.06259536204037  C 74.6132156773896 1.96366761974216  74.5993391262031 1.88016897486661  74.5707187393809 1.80756145758353  C 74.3729778849732 1.39369860906993  74.0781011722598 1.43272514960959  73.9211226869624 1.49353394533418  C 73.8023047174279 1.54980477122857  73.647928085478 1.68957424199851  73.3972828796716 2.32307483029344  C 73.3530513727646 2.47918099245207  73.1795944829332 2.78504015900708  72.5785663596675 3.44758375421524  C 72.1570661173772 3.92770096224965  71.6791923858918 4.30707524005377  71.1596890008468 4.57481546003515  C 70.768543714277 4.79354560585045  70.7069665183868 5.08669845688091  70.7234449229208 5.29635266303583  C 70.7286486296158 5.49693092953035  70.8153770745315 5.77737746503627  71.1865748187706 5.96706460393834  Z M 69.9134012474083 19.7162055954568  L 69.9134012474083 19.8332852170758  C 69.9134012474083 20.3043264854498  69.7095894018564 20.3379074621932  69.2846200217695 20.3379074621932  C 68.6705826317664 20.3379074621932  68.6445640982917 20.1073785948194  68.6445640982917 19.5065513893019  L 68.6445640982917 18.8794039587692  C 68.6445640982917 18.3076197601649  68.7009375874869 18.1188402152289  69.2846200217695 18.1188402152289  C 69.6332683703306 18.1188402152289  69.8726388782979 18.145160440244  69.9081975407133 18.5054752447613  L 69.9081975407133 18.662489000886  L 70.9636827153373 18.662489000886  L 70.9636827153373 18.5054752447613  C 70.9420006041084 17.3001904578621  70.4519848903347 17.1876488060733  69.3982342846091 17.1876488060733  C 68.2707645007051 17.1876488060733  67.590813492566 17.3791511329074  67.590813492566 18.7078686991879  L 67.590813492566 19.7479713842681  C 67.590813492566 21.2146432333865  68.3522892389258 21.2690988713488  69.3982342846091 21.2690988713488  C 69.8431512070266 21.2690988713488  70.2672533026643 21.274544435145  70.6150343667762 20.9741308323862  C 70.9645499997865 20.6691792597973  70.9680191375831 20.2734682906045  70.9680191375831 19.8323776231097  L 70.9680191375831 19.7162055954568  L 69.9134012474083 19.7162055954568  Z M 61.5640538553746 19.7634004816908  L 60.6117755302003 19.7634004816908  L 61.0783745638467 18.0235428487948  L 61.0879146927875 18.0235428487948  L 61.5640538553746 19.7634004816908  Z M 61.8476558702489 17.2194145948846  L 60.2908802840122 17.2194145948846  L 59.1382592510827 21.2373330825374  L 60.2032845546474 21.2373330825374  L 60.3932198490128 20.54483888645  L 61.7704675542739 20.54483888645  L 61.96994297758 21.2373330825374  L 63.014153454365 21.2373330825374  L 61.8476558702489 17.2194145948846  Z M 43.4785712371053 5.14841484657154  L 42.5124163607445 5.14841484657154  C 42.7335738952795 5.03315041288464  42.940854878628 4.92423913696001  42.9790153943909 4.90608725763924  C 43.1602778442647 4.9805099628544  43.3155217606638 5.06582379566203  43.4785712371053 5.14841484657154  Z M 41.8289962148088 3.13083346006778  C 41.7786937167578 3.09997526522246  41.7223202275625 3.10179045315454  41.6685485917148 3.08726894969792  C 42.0484191804456 3.03372090570165  42.443033604812 3.00830827465257  42.857595571509 3.02010699621107  C 43.2331297379939 3.02010699621107  43.5306083040547 3.02646015397334  43.7569695452847 3.0373512815658  C 43.6086639044789 3.14807774542251  43.3640896898166 3.3359496963925  42.940854878628 3.65996074226827  C 42.8671357004497 3.62002660776257  42.6260306235841 3.49477864044925  42.6260306235841 3.49477864044925  C 42.3589070132437 3.39585089815104  42.0909161184543 3.27332571273583  41.8289962148088 3.13083346006778  Z M 47.5582772859395 12.6469561939823  C 47.981512097128 12.8420888966806  48.3561789791638 12.8130458897673  48.6762069409027 12.5589195792765  C 49.0170497294214 12.263043946348  49.324068424423 11.8900228263061  49.5911920347633 11.4425790010491  C 49.6978680220096 11.2537994561131  49.7178155643402 11.1085844215469  49.6571056528992 11.0014883335543  C 49.5946611725599 10.8925770576297  49.4576302295931 10.8417517955315  49.2382072639564 10.8490125472599  C 48.8513983996324 10.8580884869202  48.2000677783156 10.8408442015655  47.306764795684 10.8009100670598  C 45.3883315941488 10.7464544290975  44.2712692236347 10.7192266101163  43.9529758307941 10.7219493920145  L 43.9529758307941 10.1338285020215  C 44.1030160404983 10.1374588778856  45.4646526256747 10.1628715089347  45.4646526256747 10.1628715089347  C 45.9034985569481 10.1628715089347  46.1541437627544 10.0539602330101  46.2374030698735 9.83069211736457  C 46.262554318899 9.74810106645506  46.2738290167381 9.67277076727386  46.2738290167381 9.61105437758323  C 46.2738290167381 9.44950265162836  46.2096499675004 9.34422175156789  46.1446036338137 9.27524461014896  C 46.0379276465674 9.17813205578283  45.6953502891504 9.05379168243554  43.9850653554129 9.03563980311477  C 43.9859326398621 8.73068823052581  43.9980746221503 8.50742011488032  44.0171548800317 8.35766711048395  C 44.4117693043981 8.37037342600849  44.7274608438913 8.42301387603873  44.9373436805872 8.51286567867655  C 45.3302235360553 8.68077056239368  45.6372422310569 8.66715665290311  45.847992352202 8.46748598037462  C 46.0726190245337 8.26418493198198  46.2243938031361 8.03456365857422  46.2972456968653 7.78316012998153  C 46.3440790571198 7.5471856988115  46.2833691456788 7.36294412370567  46.118585100339 7.2413265322565  C 45.8913565746599 7.12696969253564  45.228751255504 7.08794315199598  44.0934759115576 7.11607856494318  C 44.057049964693 6.93637495966754  43.9954727688028 6.76393210612021  43.8966023415989 6.60419556809742  C 43.7959973454967 6.44718181197274  43.6745775226148 6.34099331794623  43.5340774418513 6.28472249205184  C 44.0284295778708 6.28199971015372  44.593031754272 6.27927692825561  45.2374240999955 6.27927692825561  C 46.5687057294514 6.27927692825561  46.6129372363584 6.2674782066971  46.638088485384 6.26112504893483  L 46.6554341743671 6.25749467307068  L 46.8028725307238 6.13678467558755  C 47.019693643013 5.82638753920235  46.9954096784366 5.54775619162851  46.7473663259778 5.31087416649244  C 46.6424249076298 5.21739198799047  46.3475481949164 5.09758958447337  45.0422850989352 5.13480093708096  C 44.9703004896552 4.99140109044686  44.7439392484253 4.74635071961644  43.9946054843537 4.27893982710658  C 44.1342382806679 4.17002855118195  44.4707446469408 3.9077338949968  44.4707446469408 3.9077338949968  C 44.6771583458402 3.70715562850227  44.7474083862219 3.51928367753229  44.7474083862219 3.35682435761138  C 44.7474083862219 3.26606496100752  44.7222571371963 3.18891947389424  44.6910348970267 3.11721955057719  C 44.8133220043578 3.12992586610173  44.9442819561805 3.14535496352439  44.9442819561805 3.14535496352439  C 45.4516433589373 3.22250045063767  45.7985571386001 3.18619669199613  46.0032362686011 3.0373512815658  C 46.4186655197473 2.74692121243345  46.6406903387315 2.49188730797661  46.6849218456384 2.26045084663677  C 46.7014002501724 2.18058257762538  46.6840545611893 2.10706746637626  46.638088485384 2.04716626461771  C 46.5409526270784 1.92282589127042  46.3154586702976 1.86473987744395  45.9269152370753 1.86473987744395  C 45.9269152370753 1.86473987744395  43.8185467411748 1.87744619296849  43.614734895623 1.87744619296849  C 43.6355497224027 1.80393108171937  43.6572318336316 1.72134003080986  43.6572318336316 1.72134003080986  C 43.714472607276 1.6469173255947  43.7448275629965 1.55615792899084  43.7448275629965 1.45450740479452  C 43.7448275629965 1.37191635388501  43.725747305115 1.28115695728115  43.6841176515555 1.19221274860937  C 43.570503388716 0.978020572624262  43.3536822764267 0.84551185358263  43.034521599137 0.788333433722199  C 42.7630615665509 0.754752456978772  42.5349657564226 0.819191628567511  42.3502341687522 0.976205384692185  C 42.2652402927348 1.05153568387339  42.2227433547261 1.18858237274521  42.2227433547261 1.39823657890012  C 42.2227433547261 1.52802251604364  42.2435581815059 1.69138942993059  42.2747804216755 1.87926138090057  L 41.7387986320965 1.87926138090057  C 40.8220789693377 1.81572980327787  40.1958995970464 1.82752852483637  39.8316401284005 1.91011957574588  C 39.4170781617035 2.02084603960259  39.1100594667019 2.23231543368958  38.9123186122941 2.54725053990497  C 38.7683493937341 2.86218564612035  38.773553100429 3.14535496352439  38.9261951634806 3.39675849211708  C 39.1447508446682 3.69626450090981  39.5983406115772 3.70534044057019  40.3181867043775 3.43124706282654  C 40.5280695410735 3.34593323001891  40.7509616445068 3.2796788704981  40.9773228857367 3.22159285667163  C 40.9721191790418 3.22340804460371  40.9686500412452 3.22522323253578  40.9643136189994 3.22703842046786  C 40.7422888000152 3.37043826710196  40.6295418216248 3.54741909047948  40.6295418216248 3.75344292077024  C 40.6295418216248 3.76342645439666  40.6295418216248 3.77340998802309  40.630409106074 3.78430111561555  C 40.6425510883622 4.03933502007239  40.7830511691256 4.2017943399933  41.0371655127286 4.25080441415938  C 41.2574557628144 4.28347779693677  41.5054991152733 4.35336253232174  41.7717554411645 4.44684471082371  C 41.5271812265022 4.59569012125404  40.7379523777695 5.07671492325449  40.6971900086591 5.10121996033753  C 40.0007605959861 5.01227575166575  39.475186219797 5.01953650339406  39.1360780001766 5.12300221552245  C 38.8828309410228 5.20014770263573  38.6894265088608 5.34808551910002  38.5593338414873 5.55955491318701  C 38.4899510855547 5.67572694083995  38.4049572095373 5.97614054359872  38.4587288453851 7.23951134432442  C 38.4587288453851 8.56278334680867  38.3347071691556 9.42862799040948  38.0910002389425 9.8125402380438  C 37.6981203834744 10.2000828615423  37.1656077316921 10.6003318005653  36.5194808170702 10.9833364542336  C 36.0667583346103 11.2665057716376  35.9175854093553 11.6005003511398  36.0719620413052 11.9853201927402  C 36.1716997529583 12.2367237213328  36.3295455227048 12.3891995076273  36.5437647816466 12.4354867998953  C 36.9045551124959 12.5017411594161  37.4049782396594 12.3129616144801  38.0753891188577 11.8555342555966  C 38.8863000788194 11.1938982543545  39.3858559215338 10.3607269935311  39.5653838025093 9.37144957054905  C 39.663386945264 8.7515628917447  39.7136894433151 7.97557005078171  39.7136894433151 7.06525330284502  C 39.7136894433151 6.51797414132375  39.9469889601384 6.43084512058405  40.1213131344189 6.41541602316139  L 40.1360569700546 6.41450842919536  L 40.1508008056902 6.40906286539912  C 40.2262545527669 6.36912873089343  40.730146817727 6.311950311033  42.9954937989249 6.28835286791599  C 42.7743362643899 6.37003632485946  42.5419040320158 6.56516902755776  42.5419040320158 7.03802548386386  C 42.5419040320158 7.06888367870917  42.5453731698125 7.09974187355448  42.5471077387108 7.1306000683998  L 41.7387986320965 7.1306000683998  C 41.7153819519693 7.07251405457332  41.6832924273505 7.01715082264497  41.6260516537061 6.97721668813928  C 41.3910175679846 6.75122579059567  41.1395050777291 6.60419556809742  40.8914617252702 6.55064752410114  C 40.707597422049 6.52977286288225  40.569699194633 6.56516902755776  40.4725633363274 6.65502083019558  C 40.3771620469202 6.74396503886736  40.3268595488691 6.88101172773918  40.3199212732758 7.0625305209469  C 40.3867021758609 7.46459464790199  40.343337953403 7.91113087919297  40.1915631748006 8.40486199671796  C 40.050195809588 8.63992883392195  40.1239149877663 8.80238815384286  40.2115107171312 8.89496273837879  C 40.3736929091235 9.03745499104685  40.5740356168788 8.97846138325434  40.8168752626427 8.72615026069562  C 41.0866007263305 8.5092353028124  41.7205856586642 8.37672658377076  42.6763331216352 8.34405320099338  C 42.6971479484149 8.48563785969539  42.708422646254 8.71616672706919  42.7101572151523 9.03473220914874  C 41.4621348928155 8.98027657118642  40.7327486710745 9.06377521606197  40.4942454475564 9.29067370757161  C 40.2826280419621 9.50123550769256  40.2305909750126 9.74356309662486  40.3424706689539 9.99315143728547  C 40.4907763097597 10.2890270702141  40.851566640609 10.38160165475  41.4187706703576 10.2735979727914  C 41.7769591478594 10.216419552931  42.2062649501921 10.1828385761875  42.6824041127793 10.169224666697  L 42.6824041127793 10.7273949558107  C 42.5280274808293 10.7283025497767  40.9157456898466 10.7419164592673  40.9157456898466 10.7419164592673  C 39.9634673646723 10.7736822480787  39.2713743742451 10.9497554774901  38.8576796919972 11.2683209595697  C 38.6070344861909 11.5033877967737  38.4821455255123 11.7348242581135  38.4821455255123 11.9562771858269  C 38.4821455255123 12.0642808677855  38.5116331967836 12.169561767846  38.5706085393263 12.2739350739404  C 38.7796240915731 12.5979461198162  39.176840369287 12.6787219827936  39.7501153901797 12.5135398809746  C 41.7379313476474 11.864610195257  43.7838553632085 11.7157647848267  45.8332485165663 12.0715416195138  C 46.3622920305521 12.1604858281856  46.9425053270381 12.3547109369179  47.5582772859395 12.6469561939823  Z M 57.9344684356529 18.6125713327539  C 57.935335720102 19.0672759097392  57.9500795557377 19.2388111693205  57.5103663400151 19.2388111693205  L 56.7176683534857 19.2388111693205  L 56.7176683534857 18.1506060040402  L 57.5103663400151 18.1506060040402  C 57.8477399907372 18.1506060040402  57.9344684356529 18.2549793101347  57.9344684356529 18.6125713327539  Z M 58.2623019574342 19.6726410850869  C 58.9899536102768 19.4965678556754  58.9899536102768 19.1063024502789  58.9899536102768 18.4346829154103  C 58.9899536102768 17.4326991769037  58.5545768168001 17.2357512862733  57.6682121097617 17.2194145948846  L 55.6925381345823 17.2194145948846  L 55.6925381345823 21.2373330825374  L 56.7176683534857 21.2373330825374  L 56.7176683534857 20.1718177664081  L 57.5103663400152 20.1718177664081  C 57.8173850350167 20.1718177664081  57.940539426797 20.3751188148008  57.9301320134071 20.6746248235935  L 57.9301320134071 21.2373330825374  L 58.9526603789631 21.2373330825374  L 58.9526603789631 20.427759264831  C 58.9526603789631 19.9703319059476  58.681200346377 19.7307270989134  58.2623019574342 19.7162055954568  L 58.2623019574342 19.6726410850869  Z M 51.2719892972294 19.9485496507627  C 51.2702547283311 19.0318797450637  50.9892545668043 18.8794039587692  49.8522446539595 18.7940901259616  L 49.4272752738726 18.7605091492182  C 49.1575498101848 18.7405420819653  49.0101114538282 18.7296509543728  49.0101114538282 18.4083626903952  C 49.0101114538282 18.1823717928516  49.0543429607352 18.0643845772666  49.6068031548481 18.0643845772666  C 50.0161614148502 18.0643845772666  50.1800781757409 18.0643845772666  50.1800781757409 18.4782474257802  L 51.1627114566356 18.4782474257802  L 51.1627114566356 18.3121577299951  C 51.1627114566356 17.203985497462  50.4472017860812 17.1876488060733  49.6068031548481 17.1876488060733  C 48.6033550471736 17.1876488060733  47.9841139504755 17.2620715112885  47.9841139504755 18.4147158481575  C 47.9841139504755 19.5664525910604  48.5374414290376 19.5600994332981  49.4836487630678 19.6308917626491  L 49.7100100042978 19.6454132661058  C 50.1913528735799 19.6771790549171  50.2477263627751 19.6717334911209  50.2477263627751 20.0202495740797  C 50.2477263627751 20.3587821234121  50.0898805930285 20.3905479122234  49.6076704392973 20.3905479122234  C 49.1055127432354 20.3905479122234  48.9624108091245 20.3469834018536  48.9624108091245 19.9303977714419  L 47.9797775282297 19.9303977714419  C 47.9797775282297 21.2473166161639  48.6293735806483 21.2681912773827  49.6076704392973 21.2681912773827  C 51.297140546255 21.2681912773827  51.2719892972294 20.614723621835  51.2719892972294 19.9485496507627  Z M 55.3300132348347 12.3020704868876  C 56.1738810038643 11.7411774158758  56.7601652914944 11.1221983310375  57.0715204087417 10.4605623297953  L 57.0741222620892 10.4596547358293  C 57.376804534845 9.78258963716452  57.5415885801848 8.92672852719014  57.5641379758629 7.91203847315901  C 57.8659529641695 7.794051257574  58.0819067920096 7.65428178680405  58.2050611837898 7.48637690308692  C 58.2588328196376 7.40378585217741  58.2848513531123 7.32028720730186  58.2848513531123 7.23588096846027  C 58.2848513531123 7.13695322616206  58.2484254062477 7.04074826576197  58.1755735125185 6.94545089932792  C 58.0515518362891 6.81475736821837  57.8581474041271 6.76393210612021  57.5849528026426 6.77936120354286  C 57.5901565093376 6.61690188362196  57.6153077583631 5.78373062279854  57.6205114650581 5.63760799426633  C 57.9309992978563 5.70658513568526  58.1825117881118 5.67481934687391  58.3603051001889 5.51962077868132  C 58.576258928029 5.32358048201698  58.7210954310382 5.09214402067714  58.7896109025216 4.83529492828823  C 58.8347096938778 4.61293440660878  58.7713979290893 4.43686117719729  58.6048793148512 4.32068914954435  C 58.3559686779431 4.17728930291026  58.0333388628568 4.14643110806494  57.6508664207786 4.20723990378953  C 57.6508664207786 4.18818043050272  57.6499991363294 4.17093614514799  57.6499991363294 4.1500614839291  C 57.6499991363294 3.87687570015149  57.6820886609482 3.63091773535503  57.7462677101858 3.42489390506427  C 57.7974374926861 3.26243458514337  57.8234560261608 3.09362210746019  57.8234560261608 2.91573369011663  C 57.8234560261608 2.69700354430133  57.7835609414996 2.47010505279169  57.7037707721771 2.23322302765562  C 57.5736781048036 1.82662093087034  57.3776718192941 1.60063003332673  57.1218229067928 1.5670490565833  C 56.8009276606048 1.52439214017949  56.5494151703493 1.66234642301735  56.3742237116196 1.97183596543651  C 56.3534088848398 2.0045093482139  56.3178502224244 2.05987258014225  56.3178502224244 2.759627527958  C 56.3178502224244 3.08908413763  56.3256557824668 3.56738615773233  56.3473378936957 4.2489892262273  C 55.829569077549 4.24989682019334  55.5771893028444 4.25988035381977  55.4514330577166 4.27440185727638  C 55.4679114622506 4.17002855118195  55.4878590045812 4.06111727525732  55.4878590045812 3.98215660021196  C 55.4878590045812 3.90319592516661  55.4783188756405 3.83694156564579  55.4618404711065 3.7806707397514  C 55.3681737505975 3.57283172152856  55.2085934119527 3.39585089815104  54.983966739621 3.24246751789052  C 54.7289851115689 3.08091579193565  54.5121639992797 3.03372090570165  54.3404416783466 3.10269804712058  C 54.1773922019051 3.15987646698101  54.0022007431754 3.31598262913965  54.1097440148709 3.72712269575512  C 54.2172872865663 4.49222440912564  54.0976020325827 5.25460334059805  53.7524228218182 5.98249370136099  C 53.4783609358846 6.50889820166337  53.4297930067318 6.82927887167499  53.6067190343599 6.98810781573174  C 53.7480863995724 7.11154059511298  53.9649075118617 7.0861279640639  54.2675897846174 6.91096232861846  C 54.5598646439833 6.74941060266359  54.8261209698745 6.32284143862546  55.0811025979266 5.61673333304744  C 55.4228126708945 5.53958784593417  55.8599240332695 5.49602333556431  56.3785601338654 5.48331702003977  C 56.3811619872128 6.01425949017234  56.3941712539502 6.51071338959545  56.4184552185266 6.96269518468266  C 56.3152483690769 6.9872002217657  56.0151679496686 7.06434570887898  56.0151679496686 7.06434570887898  C 55.6543776188194 7.1777949546338  55.3655718972501 7.23951134432443  55.1600254827999 7.25131006588293  C 54.8191826942813 7.25947841157727  54.5130312837288 7.56715276606435  54.2276946999562 8.18431666297059  C 54.0637779390656 8.53374033989544  53.9839877697431 8.79966537194474  53.9839877697431 8.99570566860908  C 53.9839877697431 9.05651446433366  53.9917933297856 9.11006250832994  54.0074044498704 9.15544220663187  C 54.0351575522434 9.24166363340553  54.0906637569894 9.30791799292635  54.1687193574136 9.34603693949997  C 54.3716639185163 9.44950265162837  54.630114684365 9.37689513434528  54.93366424157 9.13184476351486  C 55.5026028402169 8.74793251588054  55.9778747183549 8.47837710796709  56.3612144448823 8.32317853977449  C 56.2918316889497 8.99116769877888  56.0975599723386 9.5184797930473  55.7723283039047 9.88605534929292  C 55.5216830980984 10.1392740658177  55.171300180639 10.405199097867  54.7333215338147 10.6711241299163  C 54.1930033219899 10.9325111921354  53.8816482047426 11.2156805095394  53.7853796308862 11.5387839614492  C 53.7636975196573 11.605945914936  53.7550246751657 11.675830650321  53.7550246751657 11.745715385706  C 53.7550246751657 11.8891152323401  53.7983888976236 12.0379606427704  53.8816482047426 12.1868060532007  C 54.0160772943619 12.3910146955594  54.1869323308458 12.521708226669  54.3907441763977 12.5734410827332  C 54.6760807601704 12.617005593103  54.9900377307652 12.5262461964992  55.3300132348347 12.3020704868876  Z M 54.0594415168198 17.2203221888507  L 54.0594415168198 19.8296548412116  C 54.0594415168198 20.3006961095856  53.9111358760139 20.3379074621932  53.4766263669863 20.3379074621932  C 53.0464532802045 20.3379074621932  52.8010117810931 20.332461898397  52.8010117810931 19.8768497274456  L 52.8010117810931 17.2203221888507  L 51.7767488466387 17.2203221888507  L 51.7767488466387 19.8995395765966  C 51.7767488466387 20.8615891805975  51.9415328919786 21.2690988713488  53.4766263669863 21.2690988713488  C 54.602361581992 21.2690988713488  55.0837044512741 20.969592862556  55.0837044512741 19.8995395765966  L 55.0837044512741 17.2203221888507  L 54.0594415168198 17.2203221888507  Z M 75.842157741845 11.5741801261247  C 76.1751949703213 11.5732725321586  76.566340256891 11.300086748381  77.0121244637577 10.7518999928937  C 77.3486308300306 10.1383664718516  77.5411679777434 9.57475061894169  77.5906031913454 9.06286762209593  C 77.6192235781675 8.7515628917447  77.5567790978282 8.56641372267283  77.3919950524884 8.5092353028124  C 77.2506276872759 8.45205688295197  77.0754362285462 8.57821244423133  76.869889814096 8.88679439268445  C 76.4960902165093 9.28341295584331  76.0069417871848 9.66460242157951  75.4050463794699 10.028547601961  C 74.8872775633232 10.3707105271575  74.7649904559921 10.7273949558107  75.0347159196799 11.1049540456827  C 75.2480678941725 11.4089980243057  75.5186606423095 11.5660117804303  75.842157741845 11.5741801261247  Z M 97.9917352888636 18.7723078707767  L 97.9917352888636 19.6127398833284  C 97.9917352888636 20.0365862654684  97.8529697769985 20.3006961095856  97.4713646193694 20.3006961095856  L 96.5737252144921 20.3006961095856  L 96.5737252144921 18.1433452523119  L 97.4713646193694 18.1433452523119  C 97.8312876657696 18.1433452523119  97.9917352888636 18.2513489342705  97.9917352888636 18.7723078707767  Z M 99.0506896012842 18.7723078707767  C 99.0506896012842 17.627831879602  98.5728158697987 17.2103386552243  97.4982504372933 17.2103386552243  L 95.5485949955885 17.2103386552243  L 95.5485949955885 21.2355178946054  L 97.6370159491584 21.2355178946054  C 98.712448666113 21.2355178946054  99.0506896012842 20.7136513641332  99.0506896012842 19.6127398833284  L 99.0506896012842 18.7723078707767  Z M 92.2329665464616 17.2112462491903  L 92.2329665464616 18.1433452523119  L 93.2173343962547 18.1433452523119  L 93.2173343962547 21.2355178946054  L 94.2441991840566 21.2355178946054  L 94.2441991840566 18.1433452523119  L 95.2814713852482 18.1433452523119  L 95.2814713852482 17.2112462491903  L 92.2329665464616 17.2112462491903  Z M 99.7228350493808 20.3016037035517  L 99.7228350493808 21.2355178946054  L 100.553693551673 21.2355178946054  L 100.553693551673 20.3016037035517  L 99.7228350493808 20.3016037035517  Z M 97.9136796884395 7.44553517461518  C 97.9024049906004 7.44462758064914  97.9258216707277 7.55716923243793  97.866846328185 7.97193967491756  C 97.866846328185 7.97193967491756  97.8625099059392 7.98101561457794  97.8607753370409 7.98646117837417  C 97.7324172385657 7.98736877234021  97.2094447157241 7.99916749389871  97.2094447157241 7.99916749389871  C 97.2094447157241 7.99916749389871  97.1036360129269 7.98827636630625  97.0966977373337 7.98827636630625  C 97.0975650217828 7.97829283267983  97.0637409282657 7.91113087919297  97.0463952392826 7.70964501873241  C 97.0463952392826 7.71962855235883  97.0611390749183 7.47367058756238  97.0628736438165 7.40741622804156  C 97.1053705818252 7.40378585217741  97.2267904047072 7.38200359699248  97.2267904047072 7.38200359699248  C 97.7289481007691 7.33753149265659  97.8729173193291 7.41013900993968  97.9136796884395 7.44553517461518  Z M 94.01436880503 7.49545284274731  C 94.01436880503 7.49454524878127  94.01436880503 7.49817562464542  94.01436880503 7.50543637637373  L 94.01436880503 7.54537051087943  C 94.01436880503 7.6107172764342  94.009165098335 7.74141080754376  93.9736064359196 7.9846459904421  C 93.9736064359196 7.9846459904421  93.9684027292247 7.99281433613645  93.9658008758772 7.99825989993268  L 93.4124733973151 7.99825989993268  C 93.4124733973151 7.99825989993268  93.312735685662 7.98827636630625  93.3083992634162 7.98827636630625  C 93.3083992634162 7.97920042664587  93.2789115921449 7.91748403695524  93.2580967653651 7.73868802564564  C 93.2598313342635 7.74685637133999  93.27370788545 7.48183893325673  93.2754424543483 7.45642630220765  C 93.296257281128 7.45279592634349  93.4124733973151 7.43918201685291  93.4124733973151 7.43918201685291  C 93.8964181199446 7.43918201685291  93.9987576849451 7.48456171515484  94.01436880503 7.49545284274731  Z M 90.7438391472592 5.96978738583645  C 90.7438391472592 6.16492008853475  90.6918020803098 6.3473464757085  90.5842588086144 6.52523489305206  C 90.4038636431897 6.8837345096373  90.1696968419173 7.12243172270545  89.8644127158141 7.25947841157727  C 89.8245176311529 7.27672269693201  89.8011009510256 7.29759735815089  89.7664095730594 7.31574923747167  C 89.7620731508135 6.88010413377315  89.7490638840762 5.69297122619469  89.7464620307287 5.34899311306606  C 89.8375268978902 5.34899311306606  89.9424683162382 5.31178176045848  90.0656227080185 5.23554386731124  C 90.1870425309005 5.159305974164  90.2876475270027 5.13933890691115  90.3735086874692 5.1711046957225  C 90.4983976481478 5.21829958195651  90.6111446265382 5.39437281136799  90.7056786314963 5.67935731670411  C 90.7308298805218 5.77646987107024  90.7438391472592 5.87630520733448  90.7438391472592 5.96978738583645  Z M 89.7429928929322 3.32687375673211  C 89.7429928929322 3.08545376176585  89.7854898309408 2.86944639784867  89.841863320136 2.66251497359187  C 90.1211289127645 2.65162384599941  90.3448883006471 2.68066685291264  90.499264932597 2.7550895581278  C 90.5972680753517 2.76870346761838  90.626755746623 2.78867053487123  90.6406322978096 2.80319203832785  C 90.6328267377671 3.00286271085634  90.532221741665 3.27060293083772  90.3258080427656 3.60913548017011  C 90.1688295574682 3.84329472340806  90.0161874944166 4.01664517092143  89.8800238358989 4.11829569511775  C 89.814110217763 4.17275133308007  89.7941626754324 4.22902215897446  89.742125608483 4.28347779693677  L 89.742125608483 3.32687375673211  Z M 100.868517806717 10.6729393178484  C 100.796533197437 10.5204635315539  100.625678160953 10.4369648866783  100.347279852774 10.4160902254595  C 99.872875259085 10.4424104504746  99.1747112775136 10.2500005296744  98.2579916147548 9.84430602685515  C 98.2302385123818 9.80981745614568  98.0541797692029 9.59290249826246  98.01601925344 9.54480001806242  C 98.0125501156434 9.48399122233783  98.0082136933976 9.41319889298682  98.0004081333552 9.30519521102823  C 98.1946798499663 9.34059137570374  98.4088991089081 9.32697746621316  98.6526060391212 9.23984844547345  C 98.8850382714953 9.15271942473375  99.0168655077671 8.93308168495241  99.0480877479367 8.59001116578983  C 99.1079303749286 7.97557005078171  99.1842514064544 7.5399249470832  99.2701125669209 7.2975973581509  C 99.3160786427262 7.14965954168661  99.3143440738279 6.97358631227512  99.2614397224294 6.75304097852775  C 99.215473646624 6.54338677237284  99.104461237132 6.38546542228212  98.9310043473006 6.28926046188203  C 98.9015166760292 6.27655414635749  98.1096859739489 6.2438807635801  98.1096859739489 6.2438807635801  C 98.1062168361523 6.2438807635801  96.4592436672034 6.21574535063291  96.4592436672034 6.21574535063291  C 96.2181385903377 6.21574535063291  96.0290705804215 6.31104271706696  95.893774206353 6.5025450439011  C 95.8200550281747 6.58422850084457  95.7480704188947 6.78299157940702  95.9067834730904 7.94561944990244  C 95.9336692910143 8.43027462776704  95.9700952378789 8.74974770381262  96.0195304514808 8.90494627200522  C 96.0516199760996 9.05016130657139  96.1288082920746 9.17631686785075  96.2484935460582 9.26526107652254  C 96.3586386711011 9.33060784207731  96.4991387518646 9.33696099983958  96.7029505974164 9.28976611360557  C 96.7081543041114 9.28704333170746  96.7497839576709 9.28069017394519  96.7870771889847 9.27252182825084  C 96.7792716289423 9.69818339832294  96.5693887922463 10.075742488195  96.1296755765238 10.3861396245802  C 96.1279410076254 10.3861396245802  95.451459137283 10.7255797678786  95.451459137283 10.7255797678786  C 95.2936133675365 10.829953073973  95.1964775092309 10.9606466050826  95.1505114334256 11.1085844215469  C 95.0551101440183 10.9125441248826  94.8131377827035 10.5485989445011  94.1435941879544 9.74810106645506  C 94.1401250501578 9.74537828455694  94.0854861298609 9.71088971384748  94.0325817784623 9.67549354917197  C 94.0638040186319 9.57928858877188  94.1019645343949 9.48671400423595  94.1019645343949 9.3796179162434  C 94.1019645343949 9.35511287916035  94.0932916899033 9.3278850601792  94.091557121005 9.30338002309615  C 94.2892979754128 9.34149896966978  94.5069863721511 9.32970024811127  94.7567642935083 9.24075603943949  C 94.9883292414332 9.15362701869979  95.119289193256 8.93398927891845  95.1522460023239 8.59091875975587  C 95.2146904826632 8.00279786976287  95.2875423763924 7.58802742728324  95.3734035368589 7.3565909659434  C 95.4211041815625 7.205930367581  95.4176350437659 7.03167232610159  95.3638634079182 6.81203458632025  C 95.318764616562 6.60147278619931  95.20775220707 6.44264384214255  95.0342953172386 6.3473464757085  C 95.0030730770689 6.33464016018396  94.2112423749887 6.3001515894745  94.2112423749887 6.3001515894745  C 94.2095078060903 6.3001515894745  92.6700779088368 6.2720161765273  92.6700779088368 6.2720161765273  C 92.428105547522 6.2720161765273  92.239904822055 6.36822113692739  92.1037411635374 6.55881586979549  C 92.102006594639 6.56244624565965  92.0985374568424 6.56879940342191  92.095935603495 6.57333737325211  C 92.1314942659104 6.39181858004439  92.1497072393427 6.20122384717629  92.134963403707 5.98793926515722  C 92.1254232747663 5.50963724505489  91.880849060104 4.98414033871855  91.4081790353135 4.43776877116333  C 91.3431327016267 4.36969922371044  91.2000307675158 4.22085381328011  91.4931729113309 3.84510991134014  C 91.9736484961638 3.50022420424548  92.2416393909533 3.13990939972816  92.2797999067162 2.77414903141461  C 92.3075530090892 2.51820753299173  92.2199572797243 2.26771159836509  92.0161454341725 2.03355235512713  C 91.7698366506119 1.77488807480614  91.3864969240846 1.64056416783243  90.8704626768362 1.62967304023997  C 90.5643112662838 1.62150469454562  90.2642308468755 1.55343514709273  89.9762924097554 1.42909477374544  C 89.6155020789061 1.32381387368496  89.2677210147942 1.30293921246608  88.9234090884789 1.36102522629255  C 88.6389397891554 1.4045897366624  88.4125785479255 1.52257695224741  88.2547327781789 1.70863371528532  C 88.0804086038984 1.87381581710434  87.9910783056352 2.05351942237998  87.9910783056352 2.24139137334997  C 87.9910783056352 2.2867710716519  87.9971492967793 2.33668873978402  88.0092912790675 2.38388362601802  C 88.0413808036863 2.52274550282193  88.1523932131784 2.63347196667863  88.3128408362725 2.73330730294288  C 88.3718161788151 3.03462849966769  88.3995692811881 3.73438344748343  88.3995692811881 4.84890883777881  C 88.3995692811881 6.11591001436866  88.3614087654252 7.9093156912609  88.288556871696 10.2118815831008  C 88.2833531650011 10.2817663184857  88.2816185961028 10.3507434599047  88.2816185961028 10.4188130073576  C 88.2816185961028 10.8145239765504  88.3527359209337 11.1639476534752  88.4932360016971 11.4589156924378  C 88.6597546159352 11.8219532788532  88.8670355992837 12.0125480117213  89.1038042539035 12.0243467332798  C 89.3301654951335 12.0243467332798  89.5105606605582 11.8809468866457  89.6441224657283 11.6014079451058  C 89.7629404352628 11.3409284768528  89.8227830622546 11.040514874094  89.8227830622546 10.6992595428635  C 89.8227830622546 10.6747545057804  89.7880916842884 8.90585386597126  89.7759497020002 8.18068628710643  C 90.0179220633149 8.26872290181218  90.338817309503 8.21154448195174  90.4732463991223 8.18613185090266  C 91.0395831444218 8.03547125254026  91.4645525245087 7.73687283771357  91.7455526860355 7.30122773401505  C 91.8713089311633 7.17144179687153  91.9623737983247 7.00807488298459  92.0291547009099 6.82564849581084  C 92.0126762963759 7.02441157437328  92.0291547009099 7.3611289357736  92.1167504302747 7.97557005078171  C 92.1445035326477 8.44207334932555  92.1817967639614 8.75065529777866  92.2320992620126 8.90494627200522  C 92.2641887866314 9.05016130657139  92.3405098181572 9.17631686785075  92.46106235659 9.26526107652254  C 92.5503926548532 9.31880912051881  92.665741486591 9.323347090349  92.8123125584986 9.30247242913012  C 92.7247168291337 9.67458595520593  92.5547290770989 9.98498309159113  92.2468430976482 10.2046208313725  C 92.2832690445128 10.1855613580857  92.0109417274776 10.335314362482  92.0109417274776 10.335314362482  C 91.7967224685358 10.4596547358293  91.5322007115429 10.5740115755502  91.2442622744229 10.6656785661201  C 90.9762713796334 10.7909265334334  90.8444441433615 11.0105642732147  90.8444441433615 11.3064399061433  C 90.8444441433615 11.4688992260642  90.9094904770483 11.7048736572342  91.2277838698889 11.8909304202721  C 91.5963797607806 12.1259972574761  91.9606392294265 12.1405187609328  92.3058184401909 11.933587336676  C 92.7940995850663 11.6368041097813  93.1618281915088 11.2701361475018  93.4263499485017 10.852642923124  C 93.5737883048584 10.922527658509  93.8660631642242 11.0858945723959  94.4696931408374 11.4770675717586  C 94.6006530926602 11.582348471819  94.7584988624067 11.6422496735776  94.9241501921957 11.6422496735776  C 95.0481718684251 11.6422496735776  95.1184219088069 11.5859788476832  95.1531132867731 11.5415067433473  C 95.1583169934681 11.5369687735171  95.1591842779172 11.5288004278228  95.1626534157138 11.5251700519586  C 95.2103540604175 11.652233207204  95.3083572031722 11.7838343322796  95.5139036176224 11.8809468866457  C 95.8625519661834 12.0742644014119  96.2033947547021 12.0633732738195  96.5208208630936 11.8428279400721  C 96.9535958032229 11.5778105019888  97.2866330316991 11.1911754724564  97.539880090853 10.7255797678786  C 97.8763864571258 10.8617188627844  98.258858899204 11.2193108854036  98.6916338393333 11.8464583159363  C 99.0524241701826 12.2948097351593  99.6421775956093 12.1967895868271  100.450486702224 11.5669193743964  C 100.455690408918 11.5632889985322  100.767045526166 11.2093273517772  100.767045526166 11.2093273517772  C 100.904943753582 10.99331998786  100.937033278201 10.8190619463806  100.868517806717 10.6729393178484  Z M 101.221502577524 4.8017139515448  C 101.220635293075 4.79445319981649  101.220635293075 4.78446966619007  101.217166155278 4.7735785385976  C 101.207626026337 4.66194448077486  101.13303956371 4.56936989623892  100.995141336294 4.50311553671811  C 99.8347147433221 4.05022614766486  98.7193869417063 3.4866102947549  97.6656363359806 2.82406669954674  C 96.9319136919939 2.35665580703687  96.4028701780081 2.08710039912341  96.0247341581757 1.9763739352667  C 95.9275982998701 1.6750527385419  95.8347988638103 1.51259341862099  95.7229191698691 1.4681213142851  C 95.4748758174103 1.41003530045863  95.1773972513494 1.62059710057958  94.710798217703 2.17422941986311  C 94.1730818592256 2.65434662789752  93.3647727526114 3.10269804712058  92.3231641291739 3.49114826458509  C 92.0005343140876 3.60005954050972  91.7915187618408 3.81062134063067  91.7047903169251 4.11375772528756  C 91.6501513966282 4.34700937455947  91.6614260944672 4.6746507962994  92.0256855631131 4.97052642922798  C 92.1757257728173 5.11574146379415  92.4870808900646 5.12935537328473  93.0013805684147 4.99866184217517  C 93.091578151127 4.97687958699025  93.1956522850258 4.93603785851851  93.3083992634162 4.8815822205562  C 93.1011182800677 5.13480093708096  93.1384115113814 5.37440574411514  93.2155998273564 5.53958784593417  C 93.3647727526114 5.84544701248917  93.7229612301132 5.94346716082133  94.2771559931245 5.83637107282878  C 94.8044649382119 5.74470408225888  95.7506722722421 5.71112310551546  97.0897594617404 5.73925851846265  C 97.524268970768 5.73925851846265  97.7757814610235 5.62490167874179  97.8633771903884 5.38892724757176  C 97.9544420575499 5.0839756749828  97.8599080525917 4.90154928780905  97.7627721942862 4.80080635757876  C 97.5641640554292 4.61565718850689  97.1877626044951 4.53851170139361  96.6006110324159 4.55666358071439  L 96.6058147391108 4.55666358071439  L 94.5642271457954 4.54395726518985  C 94.202569530497 4.53760410742758  93.9241712223176 4.57027749020496  93.7073501100284 4.6392546316239  C 94.0308472095639 4.41598651597841  94.4133196516421 4.09288306406867  94.8634402807546 3.66177593020035  C 95.0906688064337 3.42580149903032  95.3517214256299 3.23157639029806  95.6387925783009 3.07093225830923  C 96.2580336749989 3.0936221074602  96.9848180433924 3.65996074226827  97.8009327100491 4.77357853859761  C 98.5884269898836 5.94891272461757  99.6707979824314 6.07143791003277  101.012487025277 5.13480093708096  C 101.07146236782 5.08760605084695  101.221502577524 4.9687112412959  101.221502577524 4.8017139515448  Z M 80.6495154435218 10.8099860067202  C 81.020713187761 11.3009943423471  81.391043647551 11.5396915554152  81.7657105295868 11.5142789243661  C 82.2184330120467 11.5224472700605  82.5705504984044 11.3726942656641  82.8159919975158 11.0595743473808  C 83.0067945763303 10.829045480007  82.8871093223466 10.5340774410445  82.457803520014 10.1783006063573  C 81.717142600434 9.62557588103985  81.1334601661514 9.14273589110732  80.7067562171661 8.72796544862769  C 80.5081480783092 8.50378973901616  80.3086726550031 8.45659485278216  80.1005243872055 8.58728838389171  C 79.9600243064421 8.68167815635973  79.9418113330098 8.90403867803918  80.0432836135611 9.25073957306591  C 80.2661757169944 10.0221944441987  80.4665184247497 10.5404305988067  80.6495154435218 10.8099860067202  Z M 46.4542241821627 17.2194145948846  L 46.5149340936037 20.3043264854498  L 46.4741717244933 20.3043264854498  L 45.3735877585132 17.2194145948846  L 43.6433552824451 17.2194145948846  L 43.6433552824451 21.2373330825374  L 44.6667509324503 21.2373330825374  L 44.6069083054584 18.1496984100742  L 44.6476706745688 18.1496984100742  L 45.7335108049133 21.2373330825374  L 47.478487116617 21.2373330825374  L 47.478487116617 17.2194145948846  L 46.4542241821627 17.2194145948846  Z M 78.8507674959703 19.8269320593135  C 78.8507674959703 20.3006961095856  78.6460883659693 20.332461898397  78.218517132535 20.332461898397  C 77.6018778891844 20.332461898397  77.577593924608 20.1019330310232  77.577593924608 19.5011058255056  L 77.577593924608 18.8721432070409  C 77.577593924608 18.2976362265385  77.633100129354 18.1097642755685  78.218517132535 18.1097642755685  C 78.5680327655452 18.1097642755685  78.8091378424108 18.1360845005836  78.8446965048262 18.4963993051009  L 78.8446965048262 18.6525054672596  L 79.9027835327977 18.6525054672596  L 79.9027835327977 18.4963993051009  C 79.8811014215688 17.2892993302696  79.3893511388968 17.1767576784808  78.3312641109254 17.1767576784808  C 77.2029270425722 17.1767576784808  76.5203741810857 17.3709827872131  76.5203741810857 18.7006079474596  L 76.5203741810857 19.7407106325398  C 76.5203741810857 21.2137356394204  77.2844517807929 21.2681912773827  78.3312641109254 21.2681912773827  C 78.7796501711395 21.2681912773827  79.2037522667772 21.2709140592809  79.5532678997875 20.9714080504881  C 79.9027835327977 20.6655488839331  79.9062526705943 20.2680227268082  79.9062526705943 19.8278396532795  L 79.9062526705943 19.7098524376945  L 78.8499002115212 19.7098524376945  L 78.8499002115212 19.8269320593135  Z M 84.4386812018884 20.3016037035517  L 84.4386812018884 21.2355178946054  L 85.271274273079 21.2355178946054  L 85.271274273079 20.3016037035517  L 84.4386812018884 20.3016037035517  Z M 79.4084313967783 4.10921975545736  L 78.0008287357966 4.17002855118195  C 77.5853994846504 4.24898922622731  77.4960691863873 4.20814749775557  77.489130910794 4.20542471585745  C 77.4527049639294 4.18636524257064  77.3919950524884 4.14915388996306  77.3312851410474 3.95220599933269  C 77.1543591134194 3.28512443429434  77.2037943270214 3.08636135573189  77.2341492827419 3.03190571776957  C 77.2376184205385 3.02282977810919  77.2766462207506 2.98017286170537  77.4769889285058 2.93025519357325  C 77.8334428371093 2.87307677371282  78.5411469476213 2.83132745127504  79.5636753131773 2.81408316592031  C 80.109197231697 2.85038692456185  80.2679102858928 2.9220868478789  80.3095399394523 2.95112985479214  C 80.3069380861048 2.95385263669025  80.4049412288596 3.10451323505266  80.2575028725029 3.8959351734383  C 80.2340861923757 3.97489584848365  80.186385547672 4.04387298990259  80.119604645087 4.09469825200075  C 80.1187373606378 4.09469825200075  80.0068576666965 4.15187667186118  79.4162369568207 4.10921975545736  L 79.4084313967783 4.10921975545736  Z M 74.4501662009482 8.09264967240069  C 74.6479070553559 8.31591778804618  75.0060955328577 8.50378973901616  75.6288057673524 8.17796350520832  C 76.4327784517208 7.72961208598526  77.2610351006657 7.51905028586431  78.0927608874072 7.54537051087943  C 78.0892917496106 7.81220313689477  78.0546003716443 10.828137886041  78.0546003716443 10.828137886041  C 78.0546003716443 11.6849065899814  78.1300541187209 12.1904364290649  78.2861653195692 12.4218728904047  C 78.5194648363924 12.7631282216352  78.7917921534277 12.7304548388578  78.931424949742 12.6778143888276  C 79.1603880443194 12.5906853680879  79.3104282540235 12.3429122153594  79.3954221300409 11.9208810211514  C 79.4587338948294 11.6259129821889  79.4916907038973 11.2465387043848  79.4916907038973 10.7854809696372  C 79.4916907038973 10.6357279652408  79.4882215661007 10.476899021184  79.4812832905074 10.310809325399  C 79.4812832905074 10.310809325399  79.5099036773296 8.19520779056305  79.5211783751687 7.6225159979927  C 80.4084103666562 7.72688930408714  81.1612132685244 7.95197260766471  81.7327537205188 8.31501019408014  C 82.1265008604361 8.52738718213317  82.5046368802685 8.49108342349162  82.8290012642532 8.2151748578159  C 83.0701063411188 7.99281433613644  83.3103441335353 7.68332479371729  83.5445109348076 7.2930593883207  C 83.6390449397657 7.12787728650168  83.6581251976472 6.98629262779966  83.6034862773503 6.86739781824861  C 83.5453782192568 6.74396503886736  83.4204892585782 6.66863473968616  83.2210138352721 6.64412970260312  L 83.2184119819246 6.64412970260312  C 81.1993737842873 6.38274264038401  79.9851755554676 6.25930986100276  79.5099036773297 6.26475542479899  C 79.473477730465 5.98884685912326  79.4119005345749 5.7592255857155  79.3052245473286 5.59585867182856  C 79.2826751516505 5.56681566491532  79.2609930404216 5.54866378559455  79.2393109291927 5.52778912437566  C 79.2462492047859 5.52960431230774  79.2523201959301 5.5286967183417  79.2592584715233 5.53141950023982  C 79.2471164892351 5.52415874851151  79.2358417913961 5.51236002695301  79.224567093557 5.50237649332658  C 79.417971525719 5.52415874851151  79.5896938466521 5.55410934939078  79.7371322030088 5.59495107786252  C 80.1265429206802 5.69206363222865  80.4639165714023 5.67481934687392  80.7440494484799 5.5404954399002  C 81.1985064998382 5.30179822683206  81.4985869192465 4.7100469609749  81.6625036801371 3.72803028972116  C 81.6980623425526 3.43850781455486  81.7466302717053 3.23429917219618  81.805605614248 3.11358917471304  C 81.9842662107743 2.76144271589008  82.015488450944 2.48644174418039  81.9018741881044 2.27315716216132  C 81.4864449369583 1.62422747644373  80.0363453379679 1.40095936079824  77.4605105239718 1.57521740227765  C 77.4700506529125 1.57521740227765  77.2870536341404 1.59609206349654  77.2870536341404 1.59609206349654  L 77.3200104432084 1.59064649970031  L 76.6287847372303 1.6351186040362  C 76.1673894102789 1.6823134902702  75.8777164042605 1.82662093087034  75.7337471857004 2.07348648963283  C 75.6392131807423 2.25772806473866  75.6643644297679 2.51185437522946  75.8118027861245 2.85038692456186  C 75.8447595951925 2.94568429099591  75.935824462354 3.32687375673211  76.1578492813382 4.55484839278231  C 76.2645252685844 5.12935537328473  76.4431858651108 5.48603980193789  76.7025039154087 5.65212949772295  C 76.914121321003 5.81186603574574  77.1881832069366 5.81186603574574  77.5099457375738 5.64214596409653  C 77.6842699118543 5.55864731922098  78.0147052869831 5.50691446315678  78.4795697517312 5.48513220797185  C 78.3728937644849 5.58133716837194  78.2766251906285 5.71384588741357  78.1898967457128 5.90171783838356  C 78.185560323467 5.9144241539081  78.1387269632126 6.13769226955359  78.1066374385938 6.28109211618769  C 77.6365692671507 6.29742880757638  77.1586955356652 6.33191737828585  76.6886273642222 6.40180211367082  C 76.6903619331205 6.40180211367082  75.2749537120964 6.5424791784068  75.2749537120964 6.5424791784068  C 74.9878825594255 6.5306804568483  74.747644767009 6.64776007846727  74.5698514549319 6.89008766739957  C 74.1648296171756 7.47911615135861  74.2810457333626 7.87028915072124  74.4501662009482 8.09264967240069  Z M 86.3120156120674 21.2355178946054  L 86.6285744360096 21.2355178946054  C 86.6285744360096 21.5023505206207  86.553120688933 21.5894795413604  86.2617131140163 21.5931099172246  L 86.2617131140163 21.9960816381457  C 86.9642135178333 22.0015272019419  87.1593525188936 21.7882426199229  87.144608683258 21.2355178946054  L 87.144608683258 20.332461898397  L 86.3128828965165 20.332461898397  L 86.3128828965165 21.2355178946054  Z M 90.5504347150972 20.3006961095856  L 90.5504347150972 17.2103386552243  L 89.5235699272955 17.2103386552243  L 89.5235699272955 21.2355178946054  L 92.1557782304867 21.2355178946054  L 92.1557782304867 20.3006961095856  L 90.5504347150972 20.3006961095856  Z M 82.7492110949307 18.7650471190483  L 82.7492110949307 19.6717334911209  C 82.7492110949307 20.2734682906045  82.5592758005653 20.332461898397  82.026763148783 20.332461898397  C 81.4942504970007 20.332461898397  81.3181917538218 20.2743758845705  81.3034479181861 19.6717334911209  L 81.3034479181861 18.7650471190483  C 81.3181917538218 18.167850289395  81.4933832125515 18.1097642755685  82.026763148783 18.1097642755685  C 82.5601430850145 18.1097642755685  82.7492110949307 18.167850289395  82.7492110949307 18.7650471190483  Z M 83.8072981229022 18.6525054672596  C 83.8072981229022 17.4145472975829  83.0692390566696 17.1758500845148  82.026763148783 17.1758500845148  C 80.9842872408964 17.1758500845148  80.2453608902147 17.4136397036169  80.2453608902147 18.6515978732935  L 80.2453608902147 19.7897207067059  C 80.2453608902147 21.0304016582806  80.9842872408964 21.2672836834167  82.026763148783 21.2672836834167  C 83.0683717722205 21.2672836834167  83.8072981229022 21.0304016582806  83.8072981229022 19.7897207067059  L 83.8072981229022 18.6525054672596  Z M 28.3548650127069 17.2194145948846  L 28.3548650127069 18.7305585483389  L 27.0183796765561 18.7305585483389  L 27.0183796765561 17.2194145948846  L 25.9949840265509 17.2194145948846  L 25.9949840265509 21.2373330825374  L 27.0183796765561 21.2373330825374  L 27.0183796765561 19.6626575514605  L 28.3548650127069 19.6626575514605  L 28.3548650127069 21.2373330825374  L 29.3817298005087 21.2373330825374  L 29.3817298005087 17.2194145948846  L 28.3548650127069 17.2194145948846  Z M 30.0235202928848 17.2203221888507  L 30.0235202928848 21.2382406765035  L 31.0512523651358 21.2382406765035  L 31.0512523651358 17.2203221888507  L 30.0235202928848 17.2203221888507  Z M 7.84705692794235 18.7732154647427  L 7.84705692794235 19.6780866488832  C 7.84705692794235 20.2789138544007  7.65798891802614 20.3369998682272  7.12547626624379 20.3369998682272  C 6.59209633001229 20.3369998682272  6.4186394401809 20.2789138544007  6.40302832009608 19.6780866488832  L 6.40302832009608 18.7732154647427  C 6.4186394401809 18.1769262290553  6.59296361446145 18.1188402152289  7.12547626624379 18.1188402152289  C 7.65798891802614 18.1188402152289  7.84705692794235 18.1769262290553  7.84705692794235 18.7732154647427  Z M 8.90167481811717 18.662489000886  C 8.90254210256633 17.4209004553452  8.16535032078295 17.1876488060733  7.12547626624379 17.1876488060733  C 6.08646949615381 17.1876488060733  5.34841042992126 17.4209004553452  5.34841042992126 18.662489000886  L 5.34841042992126 19.7960738644682  C 5.34841042992126 21.0340320341448  6.0864694961538 21.2690988713488  7.12547626624379 21.2690988713488  C 8.16535032078295 21.2690988713488  8.90167481811717 21.0340320341448  8.90167481811717 19.7960738644682  L 8.90167481811717 18.662489000886  Z M 7.80889641217945 7.51632750396619  L 7.87914645256116 7.15147472961868  L 8.29977941040227 7.11517097097714  L 9.16966571290666 7.07977480630164  L 9.37781398070432 7.29850495211693  L 9.34485717163635 7.58621223935116  L 9.13410705049122 7.95288020163075  L 8.12545523612173 7.95288020163075  L 7.87914645256116 7.88208787227974  L 7.80889641217945 7.51632750396619  Z M 6.27553750607001 7.58530464538512  L 6.1350374253066 7.91476125505713  C 6.1350374253066 7.91476125505713  5.89046321064434 7.95197260766471  5.71527175191465 7.98918396027229  C 5.54268214653242 8.0245801249478  5.08735781072503 7.98918396027229  5.08735781072503 7.98918396027229  L 4.56438528788341 7.95197260766471  L 4.5322957632646 7.47820855739257  L 4.6710612751297 7.15147472961868  L 5.26341655390388 7.03984067179594  L 5.85663911712722 6.93365217776942  L 6.13417014085744 7.15147472961868  L 6.27553750607001 7.58530464538512  Z M 4.49673710084916 5.18471860521308  L 4.95032686775823 5.03768838271483  L 5.40391663466731 5.11029589999792  L 6.10121333178947 5.18471860521308  L 6.2052874656883 5.5849675442361  L 6.06565466937404 5.84181663662501  L 5.57824080894785 5.84181663662501  L 4.95032686775823 5.87721280130052  L 4.53316304771375 5.73381295466642  L 4.49673710084916 5.18471860521308  Z M 9.48275539905231 11.346374040649  L 10.0412865843094 11.3091626880414  L 10.3908022173196 10.8335834498372  L 10.2875953678699 10.2146043649989  L 9.76115370723168 10.0675741425006  L 9.06472429455867 9.96229324244016  L 7.91297054607828 9.92145151396843  L 7.87914645256116 9.3750799464132  L 9.16966571290667 9.3750799464132  L 10.0074624907922 9.48399122233783  L 10.6700678099481 9.66641760951159  L 11.332673129104 9.887870537225  L 12.029102541777 10.1429044416818  L 12.6570164829666 10.0684817364667  L 13.1799890058083 9.77805166733433  L 13.6335787727173 9.22804972391495  L 13.8053010936504 8.60997823304268  L 13.6665355817853 7.95288020163075  L 11.0854970610943 7.95288020163075  L 10.7377159969824 7.80766516706458  L 10.7377159969824 7.44371998668311  L 11.0187161585092 7.1895936761923  L 11.5408213969017 7.11607856494318  L 11.8886024610136 6.93455977173546  L 12.029102541777 6.60691834999554  L 12.1010871510571 6.24206557564803  L 12.029102541777 5.8790279892326  L 11.1930403327898 5.8790279892326  L 11.0863643455435 5.62217889684368  L 10.8443919842287 5.25914131042825  L 10.3196848924887 5.00319981200537  L 9.76115370723168 5.1874413871112  L 9.5191813459169 5.84453941852313  L 7.87914645256116 5.80642047194951  L 7.84532235904404 5.07762251722053  L 8.19397070760512 5.11301868189604  L 8.78545870193014 5.07762251722053  L 9.41510721201806 5.00410740597141  L 9.83053646316424 4.7499810954806  L 10.0065952063431 4.38331313320102  L 9.89991921909678 3.983064194178  L 9.97016925947849 3.7970074311401  L 10.2156107585899 3.6182114198305  L 10.5278331602864 3.14263218162628  L 10.8782160777458 3.14263218162628  L 11.8192197050811 3.07002466434319  L 12.2034267160576 2.6679605373881  L 12.3786181747873 2.08528521119134  L 11.8547783674965 1.79667032999107  L 10.7385832814315 1.61242875488524  L 10.7750092282961 0.919026964831761  L 10.8079660373641 0.445262914559622  L 10.3196848924887 0.00326465309883412  L 9.66054871112947 0.00326465309883412  L 9.30929850922092 0.588662761193718  L 9.09941567252495 1.61242875488524  L 8.08902928925713 1.64964010749282  L 7.53136538844923 1.68594386613436  L 7.07604105264185 2.30583054493871  L 7.14715837747272 2.74238324260327  L 7.70482227828061 2.99560195912803  C 7.70482227828061 2.99560195912803  8.68051728358215 2.92753241167514  8.78545870193014 2.92753241167514  C 8.89126740472728 2.92753241167514  9.16966571290666 3.14353977559232  9.16966571290666 3.14353977559232  L 9.27460713125464 3.65269999053996  L 9.0317674854907 3.91045667689492  L 8.08902928925713 3.94585284157042  L 7.4272912545504 3.87506051221941  L 6.8696273537425 3.61911901379653  L 6.55306852980022 3.87506051221941  L 4.67192855957885 3.79791502510613  L 4.70575265309597 3.54469630858137  L 4.95032686775822 3.25335864548299  L 5.23045974483591 2.92753241167514  L 5.68404951174498 2.92753241167514  L 6.03096329140775 2.81589835385239  L 6.27640479051916 2.44832279760677  L 6.37874435551968 2.05079664048187  L 5.9615805354752 1.68594386613436  L 5.47243210615069 1.64964010749282  L 5.02057690813993 1.4281871797794  L 4.95032686775822 0.91902696483176  L 4.70575265309597 0.479751485269088  L 4.35710430453489 0.116713898853656  L 3.83326449724411 0.0785949522800359  L 3.45252662406422 0.479751485269088  L 3.41610067719964 1.38916063923974  L 3.03276095067229 1.46086056255679  C 3.03276095067229 1.46086056255679  2.50978842783067 1.49988710309645  2.40484700948267 1.53346807983988  C 2.29903830668553 1.57249462037954  1.95212452702276 1.89741326022135  1.95212452702276 1.89741326022135  L 1.74224169032679 2.26498881646697  L 1.81162444625934 2.77505662538065  L 2.29903830668553 3.06730188244508  L 2.85843677639174 3.06730188244508  L 3.45252662406423 2.99287917722991  L 3.59042485148019 3.17712075233574  L 3.93907320004127 3.46755082146809  L 4.25389745508523 3.61639623189842  C 4.25389745508523 3.61639623189842  4.18364741470352 3.8723377303213  4.07957328080469 3.90682630103076  C 3.97289729355839 3.94222246570627  3.76561631020988 4.23628291070277  3.76561631020988 4.23628291070277  L 3.83326449724413 5.00229221803933  L 3.41610067719964 4.96417327146571  L 2.96337819473973 5.18653379314516  L 2.75436264249291 5.80460528401743  L 2.19669874168501 5.98703167119119  L 1.77693306829306 7.04074826576198  L 2.22965555075297 7.3329935228264  L 3.10127642215568 7.3329935228264  L 2.99720228825685 7.91566884902317  L 1.95125724257361 8.0245801249478  L 1.04321042430631 8.24149508283102  C 1.04321042430631 8.24149508283102  0.485546523498404 8.46294801054443  0.275663686802434 8.93943484271468  C 0.0666481345556148 9.41319889298682  0.275663686802434 9.59290249826246  0.275663686802434 9.59290249826246  L 0.869753534474921 10.2155119589649  L 1.81075716181019 10.3988459401047  L 2.40397972503352 9.77805166733433  L 3.37967473033505 9.48580641026991  C 3.37967473033505 9.48580641026991  5.12378375758962 9.15816498852998  5.22959246038677 9.15816498852998  C 5.33279930983644 9.15816498852998  6.13417014085744 9.26707626445461  6.13417014085744 9.26707626445461  L 6.20442018123915 9.77805166733433  L 5.71440446746549 9.88877813119104  L 4.84365088051194 9.88877813119104  L 4.18278013025437 9.88877813119104  C 4.07870599635553 9.88877813119104  3.62424894499731 10.3280536107537  3.62424894499731 10.3280536107537  L 3.58955756703103 11.016917430977  L 4.11339737432181 11.2773968992301  L 6.20442018123915 11.2773968992301  L 6.27553750607002 13.2078492649941  L 6.30936159958714 13.794154967055  L 6.37787707107053 14.193496312112  L 6.76468593539452 14.3405265346103  L 7.21567384895611 14.3405265346103  L 7.5643221975172 13.9012510550476  L 7.70395499383147 13.4293021927075  L 7.73864637179774 12.6986890500465  L 7.70395499383147 11.8954683901023  L 7.8080291277303 11.1666704353734  L 8.19310342315597 11.1285514887997  C 8.19310342315597 11.1285514887997  8.78459141748099 11.2401855466225  8.92595878269357 11.2401855466225  C 9.06385701010951 11.2401855466225  9.48275539905231 11.346374040649  9.48275539905231 11.346374040649  Z M 11.6769850554193 17.2203221888507  L 11.6769850554193 19.8296548412116  C 11.6769850554193 20.3006961095856  11.5269448457152 20.3379074621932  11.0933026211367 20.3379074621932  C 10.6631295343549 20.3379074621932  10.4176880352435 20.332461898397  10.4176880352435 19.8768497274456  L 10.4176880352435 17.2203221888507  L 9.39342510078914 17.2203221888507  L 9.39342510078914 19.8995395765966  C 9.39342510078914 20.8615891805975  9.55647457723064 21.2690988713488  11.0933026211367 21.2690988713488  C 12.2207724050407 21.2690988713488  12.7003807054245 20.969592862556  12.7003807054245 19.8995395765966  L 12.7003807054245 17.2203221888507  L 11.6769850554193 17.2203221888507  Z M 18.7514243071923 17.2194145948846  L 18.7514243071923 18.7305585483389  L 17.4149389710415 18.7305585483389  L 17.4149389710415 17.2194145948846  L 16.3924106054855 17.2194145948846  L 16.3924106054855 21.2373330825374  L 17.4149389710415 21.2373330825374  L 17.4149389710415 19.6626575514605  L 18.7514243071923 19.6626575514605  L 18.7514243071923 21.2373330825374  L 19.7748199571975 21.2373330825374  L 19.7748199571975 17.2194145948846  L 18.7514243071923 17.2194145948846  Z M 24.4434121470092 19.8332852170758  C 24.4434121470092 20.3043264854498  24.2387330170082 20.3379074621932  23.8137636369213 20.3379074621932  C 23.1997262469182 20.3379074621932  23.1737077134435 20.1073785948194  23.1737077134435 19.5065513893019  L 23.1737077134435 18.8794039587692  C 23.1737077134435 18.3076197601649  23.2292139181895 18.1188402152289  23.8137636369213 18.1188402152289  C 24.1624119854824 18.1188402152289  24.4017824934497 18.145160440244  24.4390757247634 18.5054752447613  L 24.4390757247634 18.662489000886  L 25.4936936149382 18.662489000886  L 25.4936936149382 18.5054752447613  C 25.4728787881585 17.3001904578621  24.9819957899357 17.1876488060733  23.9265106153117 17.1876488060733  C 22.800775400306 17.1876488060733  22.1199571077178 17.3791511329074  22.1199571077178 18.7078686991879  L 22.1199571077178 19.7479713842681  C 22.1199571077178 21.2146432333865  22.8823001385267 21.2690988713488  23.9265106153117 21.2690988713488  C 24.3722948221783 21.2690988713488  24.7972642022652 21.274544435145  25.1450452663772 20.9741308323862  C 25.4936936149382 20.6691792597973  25.4988973216332 20.2734682906045  25.4988973216332 19.8323776231097  L 25.4988973216332 19.7162055954568  L 24.4442794314584 19.7162055954568  L 24.4442794314584 19.8332852170758  Z M 41.990311122352 17.2203221888507  L 41.990311122352 21.2382406765035  L 43.0137067723572 21.2382406765035  L 43.0137067723572 17.2203221888507  L 41.990311122352 17.2203221888507  Z M 13.0221432360617 17.2203221888507  L 13.0221432360617 18.1506060040402  L 14.0056438014057 18.1506060040402  L 14.0056438014057 21.2382406765035  L 15.02990673586 21.2382406765035  L 15.02990673586 18.1506060040402  L 16.0628425148059 18.1506060040402  L 16.0628425148059 17.2203221888507  L 13.0221432360617 17.2203221888507  Z M 4.99716022801271 19.9485496507627  C 4.99629294356356 19.0318797450637  4.71442549758756 18.8794039587692  3.57741558474283 18.7940901259616  L 3.1533134891051 18.7605091492182  C 2.88185345651898 18.7405420819653  2.73354781571315 18.7296509543728  2.73354781571315 18.4083626903952  C 2.73354781571315 18.1823717928516  2.77951389151846 18.0643845772666  3.33284137008058 18.0643845772666  C 3.74133234563349 18.0643845772666  3.9061163909733 18.0643845772666  3.9061163909733 18.4782474257802  L 4.8887496718681 18.4782474257802  L 4.8887496718681 18.3121577299951  C 4.8887496718681 17.203985497462  4.17237271686448 17.1876488060733  3.33370865452974 17.1876488060733  C 2.32939326240602 17.1876488060733  1.71101945015714 17.2620715112885  1.71101945015714 18.4147158481575  C 1.71101945015714 19.5664525910604  2.2634796442701 19.5600994332981  3.21055426274946 19.6308917626491  L 3.4351809350811 19.6454132661058  C 3.91739108881235 19.6771790549171  3.97376457800755 19.6717334911209  3.97376457800755 20.0202495740797  C 3.97376457800755 20.3587821234121  3.81505152381183 20.3905479122234  3.33370865452974 20.3905479122234  C 2.83155095846788 20.3905479122234  2.68844902435699 20.3469834018536  2.68844902435699 19.9303977714419  L 1.7058157434622 19.9303977714419  C 1.7058157434622 21.2473166161639  2.35541179588073 21.2681912773827  3.33370865452974 21.2681912773827  C 5.02317876148742 21.2681912773827  4.99716022801271 20.614723621835  4.99716022801271 19.9485496507627  Z M 38.193339803943 19.7634004816908  L 37.2419287632179 19.7634004816908  L 37.706793227966 18.0235428487948  L 37.7180679258051 18.0235428487948  L 38.193339803943 19.7634004816908  Z M 38.475207249919 17.2194145948846  L 36.9192989481315 17.2194145948846  L 35.7675451996511 21.2373330825374  L 36.8325705032158 21.2373330825374  L 37.021638513132 20.54483888645  L 38.3988862183932 20.54483888645  L 38.5992289261485 21.2373330825374  L 39.6425721184843 21.2373330825374  L 38.475207249919 17.2194145948846  Z M 25.9047864438386 6.029688587595  L 26.1857866053655 6.14041505145171  L 26.1476260896026 6.54066399047472  L 25.868360496974 7.0107976648827  L 25.5899621887947 7.30576570384524  L 25.2413138402336 7.34025427455471  L 24.7885913577737 7.26764675727162  L 24.5778412366285 6.68769421297297  L 24.4737671027297 6.10411129281016  L 24.8562395448079 6.06780753416862  L 25.2751379337507 6.029688587595  L 25.9047864438386 6.029688587595  Z M 26.4988762915111 8.54281627955583  L 27.1953057041841 8.65354274341253  L 27.9984111041034 8.69347687791823  L 28.5890318139793 8.61542379683891  L 29.0434888653375 8.39850883895569  L 29.0773129588546 8.90403867803918  L 28.9706369716083 9.56658227324734  L 28.4832231111821 9.31064077482446  L 26.2569039301963 9.23712566357534  L 26.1857866053655 8.61542379683891  L 26.4988762915111 8.54281627955583  Z M 27.3314693627017 7.19594683395457  L 27.5439540527452 6.7566713543919  L 27.8917351168571 6.32102625069338  L 28.3791489772833 6.35642241536889  L 28.9697696871592 6.46714887922559  L 29.0426215808884 6.94182052346377  L 29.0087974873712 7.41558457373591  L 28.6237231919456 7.45098073841141  L 27.7156763736783 7.37837322112833  L 27.3314693627017 7.19594683395457  Z M 24.4737671027297 9.27252182825084  C 24.4737671027297 9.27252182825084  23.9863532423035 9.38597107400566  23.884013677303 9.42045964471513  C 23.7808068278533 9.45585580939063  22.8770964318318 9.49306716199822  22.8770964318318 9.49306716199822  L 22.181534303608 9.5302785146058  L 22.0445033606412 9.27342942221688  L 22.0445033606412 8.76426920726924  L 22.0774601697091 8.51014289677843  L 22.9803032812815 8.58184282009548  L 24.4746343871789 8.58184282009548  L 24.4746343871789 9.27252182825084  Z M 22.043636076192 7.45007314444537  L 21.9048705643269 7.41558457373591  L 21.8684446174623 6.97449390624116  L 21.9048705643269 6.72309037764847  L 21.9360928044965 6.42993752661801  L 22.5310499366182 6.32102625069338  L 22.9109205253489 6.57878293704834  L 23.2933929674271 7.12243172270545  L 22.9109205253489 7.19594683395457  L 22.4261085182702 7.23134299863008  L 22.043636076192 7.45007314444537  Z M 32.1839258557347 3.00104752292426  L 31.9740430190388 2.63437956064467  L 30.9957461603897 2.63437956064467  L 28.869164691057 2.56358723129366  L 26.4988762915111 2.45467595536903  L 26.4988762915111 1.61696672471543  C 26.4988762915111 1.61696672471543  25.9741691997712 0.996172451945038  25.5908294732438 0.958961099337456  C 25.2083570311656 0.921749746729874  24.5093257651451 0.958961099337456  24.5093257651451 0.958961099337456  L 24.2682206882795 1.32653665558308  L 24.2300601725166 2.34757986737648  C 24.2300601725166 2.34757986737648  20.1581596837249 2.05442701634602  19.7748199571975 2.20145723884427  C 19.3923475151193 2.34757986737648  18.7306094804126 3.07637782210546  18.7306094804126 3.07637782210546  L 18.8693749922777 3.80517577683444  L 19.1841992473216 4.20723990378953  L 19.7071717701632 4.57027749020496  L 20.1243355902077 4.35427012628778  C 20.1243355902077 4.35427012628778  20.6819994910156 3.95039081140061  20.8207650028807 3.98578697607612  C 20.9621323680933 4.02572111058181  22.1468429256417 3.8442023173741  22.1468429256417 3.8442023173741  L 23.0505533216632 3.65814555433619  L 24.0574705671344 3.65814555433619  L 24.5101930495943 3.8442023173741  L 24.6142671834931 4.57027749020496  L 24.3714275377292 4.8652455291675  L 23.9872205267527 4.79263801188441  C 23.9872205267527 4.79263801188441  23.8128963524721 4.6465153833522  23.7105567874716 4.60930403074462  C 23.6056153691236 4.57027749020496  23.3627757233597 4.53488132552946  23.3627757233597 4.53488132552946  L 22.7027722575513 4.93513026455247  L 22.2170929660234 5.12300221552246  L 21.6967222965292 4.93513026455247  L 21.1381911112722 4.8652455291675  L 20.5770580726676 5.12300221552246  L 20.263968386522 5.52506634247755  L 20.3012616178357 7.85122967743443  L 20.7522495313973 12.2312781575366  L 21.1017651644076 12.594315743952  L 21.5891790248338 12.4109817628122  L 21.9725187513611 12.1949743988951  L 22.0072101293274 10.5522293203652  L 24.4043843467971 10.5894406729728  L 24.5448844275606 11.8655177892231  L 24.6142671834931 12.6714612310653  L 24.8232827357399 13.3975364038962  C 24.8232827357399 13.3975364038962  25.138974275233 13.3630478331867  25.2430484091319 13.3630478331867  C 25.3471225430307 13.3630478331867  25.7668882164227 13.2160176106885  25.7668882164227 13.2160176106885  L 25.9412123907032 12.6324346905257  L 26.0791106181191 11.9036367357967  L 26.1484933740517 10.5885330790068  L 28.3800162617325 10.5159255617237  L 28.9029887845741 10.1120462468365  L 28.941149300337 10.8444745774297  C 28.941149300337 10.8444745774297  28.8336060286415 11.5732725321586  28.8700319755061 11.7538837314003  C 28.9029887845741 11.9381253065061  28.7650905571581 12.593408149986  28.7650905571581 12.593408149986  C 28.7650905571581 12.593408149986  29.0105320562695 13.0680797942242  29.1137389057192 13.0680797942242  C 29.2186803240672 13.0680797942242  30.0200511550882 12.7776497250918  30.0200511550882 12.7776497250918  L 30.2993167477167 11.9381253065061  L 30.5412891090315 10.6974443549314  L 30.9619220668726 5.95980385221003  L 30.4025235971664 5.33537920357549  L 29.6011527661454 5.30089063286602  L 28.1736025628331 5.30089063286602  L 27.4745712968126 4.90245688177508  L 26.918641964903 4.90245688177508  L 26.1164038494329 4.79173041791837  L 26.0799779025683 4.38875869699725  L 26.4294935355785 3.73256825955135  L 27.4051885408801 3.7643340483627  L 28.6965750856747 4.13463238650644  C 28.6965750856747 4.13463238650644  29.8127701717397 4.46136621428033  29.9853597771219 4.49766997292187  C 30.1614185203008 4.53306613759738  30.5794496247944 4.60839643677858  30.7529065146258 4.56936989623892  C 30.9289652578046 4.53397373156342  31.312304984332 4.20633230982349  31.312304984332 4.20633230982349  L 32.1839258557347 3.00104752292426  Z M 34.4917697749413 17.2194145948846  L 34.5542142552806 20.3043264854498  L 34.5134518861702 20.3043264854498  L 33.4128679201901 17.2194145948846  L 31.6817681596729 17.2194145948846  L 31.6817681596729 21.2373330825374  L 32.7060310941272 21.2373330825374  L 32.6435866137879 18.1496984100742  L 32.6860835517966 18.1496984100742  L 33.7701891132427 21.2373330825374  L 35.5160327093956 21.2373330825374  L 35.5160327093956 17.2194145948846  L 34.4917697749413 17.2194145948846  Z " fill-rule="nonzero" fill="#e60012" stroke="none" transform="matrix(1 0 0 1 43 14 )" />
  </g>
</svg>