<?xml version="1.0" encoding="utf-8"?>
<svg version="1.1" xmlns:xlink="http://www.w3.org/1999/xlink" width="12px" height="12px" viewBox="308 368.5  12 12" xmlns="http://www.w3.org/2000/svg">
  <path d="M 314 368.5  C 317.36 368.5  320 371.14  320 374.5  C 320 377.86  317.36 380.5  314 380.5  C 310.64 380.5  308 377.86  308 374.5  C 308 371.14  310.64 368.5  314 368.5  Z " fill-rule="nonzero" fill="#ffffff" stroke="none" />
  <path d="M 314 369  C 317.08 369  319.5 371.42  319.5 374.5  C 319.5 377.58  317.08 380  314 380  C 310.92 380  308.5 377.58  308.5 374.5  C 308.5 371.42  310.92 369  314 369  Z " stroke-width="1" stroke="#797979" fill="none" />
  <path d="M 314 377.5  C 312.32 377.5  311 376.18  311 374.5  C 311 372.82  312.32 371.5  314 371.5  C 315.68 371.5  317 372.82  317 374.5  C 317 376.18  315.68 377.5  314 377.5  " fill-rule="nonzero" fill="#797979" stroke="none" />
</svg>