<?xml version="1.0" encoding="utf-8"?>
<svg version="1.1" xmlns:xlink="http://www.w3.org/1999/xlink" width="12px" height="12px" viewBox="245 368.5  12 12" xmlns="http://www.w3.org/2000/svg">
  <path d="M 251 368.5  C 254.36 368.5  257 371.14  257 374.5  C 257 377.86  254.36 380.5  251 380.5  C 247.64 380.5  245 377.86  245 374.5  C 245 371.14  247.64 368.5  251 368.5  Z " fill-rule="nonzero" fill="#ffffff" stroke="none" />
  <path d="M 251 369  C 254.08 369  256.5 371.42  256.5 374.5  C 256.5 377.58  254.08 380  251 380  C 247.92 380  245.5 377.58  245.5 374.5  C 245.5 371.42  247.92 369  251 369  Z " stroke-width="1" stroke="#797979" fill="none" />
  <path d="M 251 377.5  C 249.32 377.5  248 376.18  248 374.5  C 248 372.82  249.32 371.5  251 371.5  C 252.68 371.5  254 372.82  254 374.5  C 254 376.18  252.68 377.5  251 377.5  " fill-rule="nonzero" fill="#797979" stroke="none" />
</svg>