<?xml version="1.0" encoding="utf-8"?>
<svg version="1.1" xmlns:xlink="http://www.w3.org/1999/xlink" width="18px" height="18px" xmlns="http://www.w3.org/2000/svg">
  <g transform="matrix(1 0 0 1 -106 -466 )">
    <path d="M 17.3333333333333 9  C 17.3333333333333 4.39166666666667  13.6083333333333 0.666666666666667  9 0.666666666666667  C 4.39166666666667 0.666666666666667  0.666666666666667 4.39166666666667  0.666666666666667 9  C 0.666666666666667 13.6083333333333  4.39166666666667 17.3333333333333  9 17.3333333333333  C 13.6083333333333 17.3333333333333  17.3333333333333 13.6083333333333  17.3333333333333 9  Z M 15.6666666666667 9  C 15.6666666666667 12.675  12.675 15.6666666666667  9 15.6666666666667  C 5.325 15.6666666666667  2.33333333333333 12.675  2.33333333333333 9  C 2.33333333333333 5.325  5.325 2.33333333333333  9 2.33333333333333  C 12.675 2.33333333333333  15.6666666666667 5.325  15.6666666666667 9  Z M 13.1666666666667 6.00833333333333  L 11.9916666666667 4.83333333333333  L 9 7.825  L 6.00833333333333 4.83333333333333  L 4.83333333333333 6.00833333333333  L 7.825 9  L 4.83333333333333 11.9916666666667  L 6.00833333333333 13.1666666666667  L 9 10.175  L 11.9916666666667 13.1666666666667  L 13.1666666666667 11.9916666666667  L 10.175 9  L 13.1666666666667 6.00833333333333  Z " fill-rule="nonzero" fill="#ffffff" stroke="none" transform="matrix(1 0 0 1 106 466 )" />
  </g>
</svg>