<?xml version="1.0" encoding="utf-8"?>
<svg version="1.1" xmlns:xlink="http://www.w3.org/1999/xlink" width="12px" height="12px" viewBox="297 129.5  12 12" xmlns="http://www.w3.org/2000/svg">
  <path d="M 303 129.5  C 306.36 129.5  309 132.14  309 135.5  C 309 138.86  306.36 141.5  303 141.5  C 299.64 141.5  297 138.86  297 135.5  C 297 132.14  299.64 129.5  303 129.5  Z " fill-rule="nonzero" fill="#ffffff" stroke="none" />
  <path d="M 303 130  C 306.08 130  308.5 132.42  308.5 135.5  C 308.5 138.58  306.08 141  303 141  C 299.92 141  297.5 138.58  297.5 135.5  C 297.5 132.42  299.92 130  303 130  Z " stroke-width="1" stroke="#797979" fill="none" />
  <path d="M 303 138.5  C 301.32 138.5  300 137.18  300 135.5  C 300 133.82  301.32 132.5  303 132.5  C 304.68 132.5  306 133.82  306 135.5  C 306 137.18  304.68 138.5  303 138.5  " fill-rule="nonzero" fill="#797979" stroke="none" />
</svg>