<?xml version="1.0" encoding="utf-8"?>
<svg version="1.1" xmlns:xlink="http://www.w3.org/1999/xlink" width="12px" height="11px" xmlns="http://www.w3.org/2000/svg">
  <g transform="matrix(1 0 0 1 -13 -18 )">
    <path d="M 7.8 4.88888888888889  L 12 4.88888888888889  L 12 0  L 7.8 0  L 7.8 1.83333333333333  L 4.2 1.83333333333333  L 4.2 0  L 0 0  L 0 4.88888888888889  L 4.2 4.88888888888889  L 4.2 3.05555555555556  L 5.4 3.05555555555556  L 5.4 9.16666666666667  L 7.8 9.16666666666667  L 7.8 11  L 12 11  L 12 6.11111111111111  L 7.8 6.11111111111111  L 7.8 7.94444444444444  L 6.6 7.94444444444444  L 6.6 3.05555555555556  L 7.8 3.05555555555556  L 7.8 4.88888888888889  Z " fill-rule="nonzero" fill="#555555" stroke="none" transform="matrix(1 0 0 1 13 18 )" />
  </g>
</svg>