<?xml version="1.0" encoding="utf-8"?>
<svg version="1.1" xmlns:xlink="http://www.w3.org/1999/xlink" width="12px" height="12px" viewBox="263 221.5  12 12" xmlns="http://www.w3.org/2000/svg">
  <path d="M 269 221.5  C 272.36 221.5  275 224.14  275 227.5  C 275 230.86  272.36 233.5  269 233.5  C 265.64 233.5  263 230.86  263 227.5  C 263 224.14  265.64 221.5  269 221.5  Z " fill-rule="nonzero" fill="#ffffff" stroke="none" />
  <path d="M 269 222  C 272.08 222  274.5 224.42  274.5 227.5  C 274.5 230.58  272.08 233  269 233  C 265.92 233  263.5 230.58  263.5 227.5  C 263.5 224.42  265.92 222  269 222  Z " stroke-width="1" stroke="#797979" fill="none" />
  <path d="M 269 230.5  C 267.32 230.5  266 229.18  266 227.5  C 266 225.82  267.32 224.5  269 224.5  C 270.68 224.5  272 225.82  272 227.5  C 272 229.18  270.68 230.5  269 230.5  " fill-rule="nonzero" fill="#797979" stroke="none" />
</svg>