<?xml version="1.0" encoding="utf-8"?>
<svg version="1.1" xmlns:xlink="http://www.w3.org/1999/xlink" width="12px" height="12px" viewBox="349 221.5  12 12" xmlns="http://www.w3.org/2000/svg">
  <path d="M 355 221.5  C 358.36 221.5  361 224.14  361 227.5  C 361 230.86  358.36 233.5  355 233.5  C 351.64 233.5  349 230.86  349 227.5  C 349 224.14  351.64 221.5  355 221.5  Z " fill-rule="nonzero" fill="#ffffff" stroke="none" />
  <path d="M 355 222  C 358.08 222  360.5 224.42  360.5 227.5  C 360.5 230.58  358.08 233  355 233  C 351.92 233  349.5 230.58  349.5 227.5  C 349.5 224.42  351.92 222  355 222  Z " stroke-width="1" stroke="#797979" fill="none" />
  <path d="M 355 230.5  C 353.32 230.5  352 229.18  352 227.5  C 352 225.82  353.32 224.5  355 224.5  C 356.68 224.5  358 225.82  358 227.5  C 358 229.18  356.68 230.5  355 230.5  " fill-rule="nonzero" fill="#797979" stroke="none" />
</svg>