<?xml version="1.0" encoding="utf-8"?>
<svg version="1.1" xmlns:xlink="http://www.w3.org/1999/xlink" width="12px" height="12px" viewBox="435 221.5  12 12" xmlns="http://www.w3.org/2000/svg">
  <path d="M 441 221.5  C 444.36 221.5  447 224.14  447 227.5  C 447 230.86  444.36 233.5  441 233.5  C 437.64 233.5  435 230.86  435 227.5  C 435 224.14  437.64 221.5  441 221.5  Z " fill-rule="nonzero" fill="#ffffff" stroke="none" />
  <path d="M 441 222  C 444.08 222  446.5 224.42  446.5 227.5  C 446.5 230.58  444.08 233  441 233  C 437.92 233  435.5 230.58  435.5 227.5  C 435.5 224.42  437.92 222  441 222  Z " stroke-width="1" stroke="#797979" fill="none" />
  <path d="M 441 230.5  C 439.32 230.5  438 229.18  438 227.5  C 438 225.82  439.32 224.5  441 224.5  C 442.68 224.5  444 225.82  444 227.5  C 444 229.18  442.68 230.5  441 230.5  " fill-rule="nonzero" fill="#797979" stroke="none" />
</svg>