<?xml version="1.0" encoding="utf-8"?>
<svg version="1.1" xmlns:xlink="http://www.w3.org/1999/xlink" width="12px" height="12px" viewBox="244 400.5  12 12" xmlns="http://www.w3.org/2000/svg">
  <path d="M 250 400.5  C 253.36 400.5  256 403.14  256 406.5  C 256 409.86  253.36 412.5  250 412.5  C 246.64 412.5  244 409.86  244 406.5  C 244 403.14  246.64 400.5  250 400.5  Z " fill-rule="nonzero" fill="#ffffff" stroke="none" />
  <path d="M 250 401  C 253.08 401  255.5 403.42  255.5 406.5  C 255.5 409.58  253.08 412  250 412  C 246.92 412  244.5 409.58  244.5 406.5  C 244.5 403.42  246.92 401  250 401  Z " stroke-width="1" stroke="#797979" fill="none" />
  <path d="M 250 409.5  C 248.32 409.5  247 408.18  247 406.5  C 247 404.82  248.32 403.5  250 403.5  C 251.68 403.5  253 404.82  253 406.5  C 253 408.18  251.68 409.5  250 409.5  " fill-rule="nonzero" fill="#797979" stroke="none" />
</svg>