<?xml version="1.0" encoding="utf-8"?>
<svg version="1.1" xmlns:xlink="http://www.w3.org/1999/xlink" width="12px" height="12px" viewBox="307 400.5  12 12" xmlns="http://www.w3.org/2000/svg">
  <path d="M 313 400.5  C 316.36 400.5  319 403.14  319 406.5  C 319 409.86  316.36 412.5  313 412.5  C 309.64 412.5  307 409.86  307 406.5  C 307 403.14  309.64 400.5  313 400.5  Z " fill-rule="nonzero" fill="#ffffff" stroke="none" />
  <path d="M 313 401  C 316.08 401  318.5 403.42  318.5 406.5  C 318.5 409.58  316.08 412  313 412  C 309.92 412  307.5 409.58  307.5 406.5  C 307.5 403.42  309.92 401  313 401  Z " stroke-width="1" stroke="#797979" fill="none" />
  <path d="M 313 409.5  C 311.32 409.5  310 408.18  310 406.5  C 310 404.82  311.32 403.5  313 403.5  C 314.68 403.5  316 404.82  316 406.5  C 316 408.18  314.68 409.5  313 409.5  " fill-rule="nonzero" fill="#797979" stroke="none" />
</svg>