<?xml version="1.0" encoding="utf-8"?>
<svg version="1.1" xmlns:xlink="http://www.w3.org/1999/xlink" width="18px" height="16px" xmlns="http://www.w3.org/2000/svg">
  <g transform="matrix(1 0 0 1 -400 -13 )">
    <path d="M 6.3 6.22222222222222  L 6.3 12.4444444444444  L 4.5 12.4444444444444  L 4.5 6.22222222222222  L 6.3 6.22222222222222  Z M 9.9 3.55555555555556  L 9.9 12.4444444444444  L 8.1 12.4444444444444  L 8.1 3.55555555555556  L 9.9 3.55555555555556  Z M 13.5 8.88888888888889  L 13.5 12.4444444444444  L 11.7 12.4444444444444  L 11.7 8.88888888888889  L 13.5 8.88888888888889  Z M 15.75 2  L 15.75 14  L 2.25 14  L 2.25 2  L 15.75 2  Z M 17.55 1.77777777777778  C 17.55 0.8  16.74 0  15.75 0  L 2.25 0  C 1.26 0  0.45 0.8  0.45 1.77777777777778  L 0.45 14.2222222222222  C 0.45 15.2  1.26 16  2.25 16  L 15.75 16  C 16.74 16  17.55 15.2  17.55 14.2222222222222  L 17.55 1.77777777777778  Z " fill-rule="nonzero" fill="#ffffff" stroke="none" fill-opacity="0.501960784313725" transform="matrix(1 0 0 1 400 13 )" />
  </g>
</svg>