<?xml version="1.0" encoding="utf-8"?>
<svg version="1.1" xmlns:xlink="http://www.w3.org/1999/xlink" width="12px" height="12px" viewBox="378 213.5  12 12" xmlns="http://www.w3.org/2000/svg">
  <path d="M 384 213.5  C 387.36 213.5  390 216.14  390 219.5  C 390 222.86  387.36 225.5  384 225.5  C 380.64 225.5  378 222.86  378 219.5  C 378 216.14  380.64 213.5  384 213.5  Z " fill-rule="nonzero" fill="#ffffff" stroke="none" />
  <path d="M 384 214  C 387.08 214  389.5 216.42  389.5 219.5  C 389.5 222.58  387.08 225  384 225  C 380.92 225  378.5 222.58  378.5 219.5  C 378.5 216.42  380.92 214  384 214  Z " stroke-width="1" stroke="#333333" fill="none" />
  <path d="M 384 222.5  C 382.32 222.5  381 221.18  381 219.5  C 381 217.82  382.32 216.5  384 216.5  C 385.68 216.5  387 217.82  387 219.5  C 387 221.18  385.68 222.5  384 222.5  " fill-rule="nonzero" fill="#333333" stroke="none" />
</svg>