<?xml version="1.0" encoding="utf-8"?>
<svg version="1.1" xmlns:xlink="http://www.w3.org/1999/xlink" width="12px" height="12px" viewBox="262 196.5  12 12" xmlns="http://www.w3.org/2000/svg">
  <path d="M 268 196.5  C 271.36 196.5  274 199.14  274 202.5  C 274 205.86  271.36 208.5  268 208.5  C 264.64 208.5  262 205.86  262 202.5  C 262 199.14  264.64 196.5  268 196.5  Z " fill-rule="nonzero" fill="#ffffff" stroke="none" />
  <path d="M 268 197  C 271.08 197  273.5 199.42  273.5 202.5  C 273.5 205.58  271.08 208  268 208  C 264.92 208  262.5 205.58  262.5 202.5  C 262.5 199.42  264.92 197  268 197  Z " stroke-width="1" stroke="#333333" fill="none" />
  <path d="M 268 205.5  C 266.32 205.5  265 204.18  265 202.5  C 265 200.82  266.32 199.5  268 199.5  C 269.68 199.5  271 200.82  271 202.5  C 271 204.18  269.68 205.5  268 205.5  " fill-rule="nonzero" fill="#333333" stroke="none" />
</svg>