<?xml version="1.0" encoding="utf-8"?>
<svg version="1.1" xmlns:xlink="http://www.w3.org/1999/xlink" width="12px" height="12px" viewBox="705 207.5  12 12" xmlns="http://www.w3.org/2000/svg">
  <path d="M 711 207.5  C 714.36 207.5  717 210.14  717 213.5  C 717 216.86  714.36 219.5  711 219.5  C 707.64 219.5  705 216.86  705 213.5  C 705 210.14  707.64 207.5  711 207.5  Z " fill-rule="nonzero" fill="#ffffff" stroke="none" />
  <path d="M 711 208  C 714.08 208  716.5 210.42  716.5 213.5  C 716.5 216.58  714.08 219  711 219  C 707.92 219  705.5 216.58  705.5 213.5  C 705.5 210.42  707.92 208  711 208  Z " stroke-width="1" stroke="#333333" fill="none" />
  <path d="M 711 216.5  C 709.32 216.5  708 215.18  708 213.5  C 708 211.82  709.32 210.5  711 210.5  C 712.68 210.5  714 211.82  714 213.5  C 714 215.18  712.68 216.5  711 216.5  " fill-rule="nonzero" fill="#333333" stroke="none" />
</svg>