<?xml version="1.0" encoding="utf-8"?>
<svg version="1.1" xmlns:xlink="http://www.w3.org/1999/xlink" width="12px" height="12px" viewBox="620 207.5  12 12" xmlns="http://www.w3.org/2000/svg">
  <path d="M 626 207.5  C 629.36 207.5  632 210.14  632 213.5  C 632 216.86  629.36 219.5  626 219.5  C 622.64 219.5  620 216.86  620 213.5  C 620 210.14  622.64 207.5  626 207.5  Z " fill-rule="nonzero" fill="#ffffff" stroke="none" />
  <path d="M 626 208  C 629.08 208  631.5 210.42  631.5 213.5  C 631.5 216.58  629.08 219  626 219  C 622.92 219  620.5 216.58  620.5 213.5  C 620.5 210.42  622.92 208  626 208  Z " stroke-width="1" stroke="#333333" fill="none" />
  <path d="M 626 216.5  C 624.32 216.5  623 215.18  623 213.5  C 623 211.82  624.32 210.5  626 210.5  C 627.68 210.5  629 211.82  629 213.5  C 629 215.18  627.68 216.5  626 216.5  " fill-rule="nonzero" fill="#333333" stroke="none" />
</svg>