<?xml version="1.0" encoding="utf-8"?>
<svg version="1.1" xmlns:xlink="http://www.w3.org/1999/xlink" width="1086px" height="235px" xmlns="http://www.w3.org/2000/svg">
  <defs>
    <filter x="153px" y="153px" width="1086px" height="235px" filterUnits="userSpaceOnUse" id="filter37">
      <feOffset dx="3" dy="3" in="SourceAlpha" result="shadowOffsetInner" />
      <feGaussianBlur stdDeviation="2.5" in="shadowOffsetInner" result="shadowGaussian" />
      <feComposite in2="shadowGaussian" operator="atop" in="SourceAlpha" result="shadowComposite" />
      <feColorMatrix type="matrix" values="0 0 0 0 0  0 0 0 0 0  0 0 0 0 0  0 0 0 0.101960784313725 0  " in="shadowComposite" />
    </filter>
    <g id="widget38">
      <path d="M 156 159  A 3 3 0 0 1 159 156 L 1227 156  A 3 3 0 0 1 1230 159 L 1230 376  A 3 3 0 0 1 1227 379 L 159 379  A 3 3 0 0 1 156 376 L 156 159  Z " fill-rule="nonzero" fill="#ffffff" stroke="none" />
      <path d="M 155.5 159  A 3.5 3.5 0 0 1 159 155.5 L 1227 155.5  A 3.5 3.5 0 0 1 1230.5 159 L 1230.5 376  A 3.5 3.5 0 0 1 1227 379.5 L 159 379.5  A 3.5 3.5 0 0 1 155.5 376 L 155.5 159  Z " stroke-width="1" stroke="#aaaaaa" fill="none" stroke-opacity="0.501960784313725" />
    </g>
  </defs>
  <g transform="matrix(1 0 0 1 -153 -153 )">
    <use xlink:href="#widget38" filter="url(#filter37)" />
    <use xlink:href="#widget38" />
  </g>
</svg>