<?xml version="1.0" encoding="utf-8"?>
<svg version="1.1" xmlns:xlink="http://www.w3.org/1999/xlink" width="12px" height="12px" viewBox="383 221.5  12 12" xmlns="http://www.w3.org/2000/svg">
  <path d="M 389 221.5  C 392.36 221.5  395 224.14  395 227.5  C 395 230.86  392.36 233.5  389 233.5  C 385.64 233.5  383 230.86  383 227.5  C 383 224.14  385.64 221.5  389 221.5  Z " fill-rule="nonzero" fill="#ffffff" stroke="none" />
  <path d="M 389 222  C 392.08 222  394.5 224.42  394.5 227.5  C 394.5 230.58  392.08 233  389 233  C 385.92 233  383.5 230.58  383.5 227.5  C 383.5 224.42  385.92 222  389 222  Z " stroke-width="1" stroke="#797979" fill="none" />
  <path d="M 389 230.5  C 387.32 230.5  386 229.18  386 227.5  C 386 225.82  387.32 224.5  389 224.5  C 390.68 224.5  392 225.82  392 227.5  C 392 229.18  390.68 230.5  389 230.5  " fill-rule="nonzero" fill="#797979" stroke="none" />
</svg>