<?xml version="1.0" encoding="utf-8"?>
<svg version="1.1" xmlns:xlink="http://www.w3.org/1999/xlink" width="16px" height="16px" xmlns="http://www.w3.org/2000/svg">
  <g transform="matrix(1 0 0 1 -311 -13 )">
    <path d="M 16 3.55555555555556  C 16 2.57777777777778  15.2 1.77777777777778  14.2222222222222 1.77777777777778  L 12.4444444444444 1.77777777777778  L 12.4444444444444 0  L 3.55555555555556 0  L 3.55555555555556 1.77777777777778  L 1.77777777777778 1.77777777777778  C 0.8 1.77777777777778  0 2.57777777777778  0 3.55555555555556  L 0 4.44444444444444  C 0 6.71111111111111  1.70666666666667 8.56  3.90222222222222 8.83555555555556  C 4.46222222222222 10.1688888888889  5.66222222222222 11.1733333333333  7.11111111111111 11.4666666666667  L 7.11111111111111 14.2222222222222  L 3.55555555555556 14.2222222222222  L 3.55555555555556 16  L 12.4444444444444 16  L 12.4444444444444 14.2222222222222  L 8.88888888888889 14.2222222222222  L 8.88888888888889 11.4666666666667  C 10.3377777777778 11.1733333333333  11.5377777777778 10.1688888888889  12.0977777777778 8.83555555555556  C 14.2933333333333 8.56  16 6.71111111111111  16 4.44444444444444  L 16 3.55555555555556  Z M 3.55555555555556 6.95111111111111  C 2.52444444444444 6.57777777777778  1.77777777777778 5.6  1.77777777777778 4.44444444444444  L 1.77777777777778 3.55555555555556  L 3.55555555555556 3.55555555555556  L 3.55555555555556 6.95111111111111  Z M 14.2222222222222 3.55555555555556  L 14.2222222222222 4.44444444444444  C 14.2222222222222 5.6  13.4755555555556 6.57777777777778  12.4444444444444 6.95111111111111  L 12.4444444444444 3.55555555555556  L 14.2222222222222 3.55555555555556  Z " fill-rule="nonzero" fill="#ffffff" stroke="none" fill-opacity="0.501960784313725" transform="matrix(1 0 0 1 311 13 )" />
  </g>
</svg>