<?xml version="1.0" encoding="utf-8"?>
<svg version="1.1" xmlns:xlink="http://www.w3.org/1999/xlink" width="8px" height="8px" xmlns="http://www.w3.org/2000/svg">
  <g transform="matrix(1 0 0 1 -145 -17 )">
    <path d="M 8 0  L 6.825 1.175  C 6.1 0.45  5.105 0  4 0  C 1.79 0  0.00499999999999989 1.79  0.00499999999999989 4  C 0.00499999999999989 6.21  1.79 8  4 8  C 5.865 8  7.42 6.725  7.865 5  L 6.825 5  C 6.415 6.165  5.305 7  4 7  C 2.345 7  0.999999999999999 5.655  0.999999999999999 4  C 0.999999999999999 2.345  2.345 1  4 1  C 4.83 1  5.57 1.345  6.11 1.89  L 4.5 3.5  L 8 3.5  L 8 0  Z " fill-rule="nonzero" fill="#ffffff" stroke="none" transform="matrix(1 0 0 1 145 17 )" />
  </g>
</svg>