<?xml version="1.0" encoding="utf-8"?>
<svg version="1.1" xmlns:xlink="http://www.w3.org/1999/xlink" width="22px" height="16px" xmlns="http://www.w3.org/2000/svg">
  <g transform="matrix(1 0 0 1 -1252 -55 )">
    <path d="M 20.3119419642857 14.4375  C 20.3896949404762 14.3655303030303  20.4285714285714 14.280303030303  20.4285714285714 14.1818181818182  L 20.4285714285714 5.45454545454546  C 20.1666666666667 5.72727272727273  19.8843005952381 5.97727272727273  19.5814732142857 6.20454545454546  C 17.3880208333333 7.76515151515151  15.6447172619048 9.04545454545455  14.3515625 10.0454545454545  C 13.9341517857143 10.3712121212121  13.594494047619 10.625  13.3325892857143 10.8068181818182  C 13.0706845238095 10.9886363636364  12.7167038690476 11.1723484848485  12.2706473214286 11.3579545454545  C 11.8245907738095 11.5435606060606  11.4051339285714 11.6363636363636  11.0122767857143 11.6363636363636  L 11 11.6363636363636  L 10.9877232142857 11.6363636363636  C 10.5948660714286 11.6363636363636  10.1754092261905 11.5435606060606  9.72935267857143 11.3579545454545  C 9.28329613095238 11.1723484848485  8.92931547619048 10.9886363636364  8.66741071428572 10.8068181818182  C 8.40550595238095 10.625  8.06584821428572 10.3712121212121  7.6484375 10.0454545454545  C 6.35528273809524 9.04545454545455  4.61197916666667 7.76515151515151  2.41852678571429 6.20454545454546  C 2.11569940476191 5.97727272727273  1.83333333333333 5.72727272727273  1.57142857142857 5.45454545454546  L 1.57142857142857 14.1818181818182  C 1.57142857142857 14.280303030303  1.61030505952381 14.3655303030303  1.68805803571429 14.4375  C 1.76581101190476 14.5094696969697  1.8578869047619 14.5454545454545  1.96428571428571 14.5454545454545  L 20.0357142857143 14.5454545454545  C 20.1421130952381 14.5454545454545  20.2341889880952 14.5094696969697  20.3119419642857 14.4375  Z M 19.8577008928571 3.73295454545454  C 20.23828125 3.18371212121212  20.4285714285714 2.68560606060606  20.4285714285714 2.23863636363636  L 20.4285714285714 2.11363636363636  L 20.4285714285714 1.96022727272727  C 20.4285714285714 1.96022727272727  20.426525297619 1.91098484848485  20.4224330357143 1.8125  C 20.4183407738095 1.71401515151515  20.4060639880952 1.66666666666666  20.3856026785714 1.67045454545454  C 20.3651413690476 1.67424242424242  20.3426339285714 1.64015151515151  20.3180803571429 1.56818181818182  C 20.2935267857143 1.49621212121212  20.2566964285714 1.46780303030303  20.2075892857143 1.48295454545454  C 20.1584821428571 1.49810606060606  20.1011904761905 1.48863636363636  20.0357142857143 1.45454545454546  L 1.96428571428571 1.45454545454546  C 1.8578869047619 1.45454545454546  1.76581101190476 1.4905303030303  1.68805803571429 1.5625  C 1.61030505952381 1.6344696969697  1.57142857142857 1.71969696969697  1.57142857142857 1.81818181818182  C 1.57142857142857 3.09090909090909  2.17299107142857 4.16666666666666  3.37611607142857 5.04545454545454  C 4.95572916666667 6.1969696969697  6.59672619047619 7.39772727272727  8.29910714285714 8.64772727272727  C 8.34821428571428 8.68560606060606  8.49144345238095 8.79734848484848  8.72879464285714 8.98295454545455  C 8.96614583333333 9.16856060606061  9.15438988095238 9.31060606060606  9.29352678571428 9.40909090909091  C 9.43266369047619 9.50757575757576  9.6147693452381 9.62689393939394  9.83984375 9.76704545454545  C 10.0649181547619 9.90719696969697  10.2715773809524 10.0113636363636  10.4598214285714 10.0795454545455  C 10.6480654761905 10.1477272727273  10.8240327380952 10.1818181818182  10.9877232142857 10.1818181818182  L 11 10.1818181818182  L 11.0122767857143 10.1818181818182  C 11.1759672619048 10.1818181818182  11.3519345238095 10.1477272727273  11.5401785714286 10.0795454545455  C 11.7284226190476 10.0113636363636  11.9350818452381 9.90719696969697  12.16015625 9.76704545454545  C 12.3852306547619 9.62689393939394  12.5673363095238 9.50757575757576  12.7064732142857 9.40909090909091  C 12.8456101190476 9.31060606060606  13.0338541666667 9.16856060606061  13.2712053571429 8.98295454545455  C 13.508556547619 8.79734848484848  13.6517857142857 8.68560606060606  13.7008928571429 8.64772727272727  C 15.4032738095238 7.39772727272727  17.0442708333333 6.1969696969697  18.6238839285714 5.04545454545454  C 19.0658482142857 4.71969696969697  19.4771205357143 4.28219696969697  19.8577008928571 3.73295454545454  Z M 21.4229910714286 0.534090909090908  C 21.8076636904762 0.890151515151514  22 1.31818181818182  22 1.81818181818182  L 22 14.1818181818182  C 22 14.6818181818182  21.8076636904762 15.1098484848485  21.4229910714286 15.4659090909091  C 21.038318452381 15.8219696969697  20.5758928571429 16  20.0357142857143 16  L 1.96428571428571 16  C 1.42410714285714 16  0.961681547619048 15.8219696969697  0.577008928571429 15.4659090909091  C 0.19233630952381 15.1098484848485  0 14.6818181818182  0 14.1818181818182  L 0 1.81818181818182  C 0 1.31818181818182  0.19233630952381 0.890151515151514  0.577008928571429 0.534090909090908  C 0.961681547619048 0.178030303030301  1.42410714285714 0  1.96428571428571 0  L 20.0357142857143 0  C 20.5758928571429 0  21.038318452381 0.178030303030301  21.4229910714286 0.534090909090908  Z " fill-rule="nonzero" fill="#ffe0b2" stroke="none" transform="matrix(1 0 0 1 1252 55 )" />
  </g>
</svg>