<?xml version="1.0" encoding="utf-8"?>
<svg version="1.1" xmlns:xlink="http://www.w3.org/1999/xlink" width="12px" height="12px" viewBox="264 206.5  12 12" xmlns="http://www.w3.org/2000/svg">
  <path d="M 270 206.5  C 273.36 206.5  276 209.14  276 212.5  C 276 215.86  273.36 218.5  270 218.5  C 266.64 218.5  264 215.86  264 212.5  C 264 209.14  266.64 206.5  270 206.5  Z " fill-rule="nonzero" fill="#f0f0f0" stroke="none" />
  <path d="M 270 207  C 273.08 207  275.5 209.42  275.5 212.5  C 275.5 215.58  273.08 218  270 218  C 266.92 218  264.5 215.58  264.5 212.5  C 264.5 209.42  266.92 207  270 207  Z " stroke-width="1" stroke="#333333" fill="none" />
  <path d="M 270 215.5  C 268.32 215.5  267 214.18  267 212.5  C 267 210.82  268.32 209.5  270 209.5  C 271.68 209.5  273 210.82  273 212.5  C 273 214.18  271.68 215.5  270 215.5  " fill-rule="nonzero" fill="#333333" stroke="none" />
</svg>