<?xml version="1.0" encoding="utf-8"?>
<svg version="1.1" xmlns:xlink="http://www.w3.org/1999/xlink" width="12px" height="12px" viewBox="415 206.5  12 12" xmlns="http://www.w3.org/2000/svg">
  <path d="M 421 206.5  C 424.36 206.5  427 209.14  427 212.5  C 427 215.86  424.36 218.5  421 218.5  C 417.64 218.5  415 215.86  415 212.5  C 415 209.14  417.64 206.5  421 206.5  Z " fill-rule="nonzero" fill="#f0f0f0" stroke="none" />
  <path d="M 421 207  C 424.08 207  426.5 209.42  426.5 212.5  C 426.5 215.58  424.08 218  421 218  C 417.92 218  415.5 215.58  415.5 212.5  C 415.5 209.42  417.92 207  421 207  Z " stroke-width="1" stroke="#333333" fill="none" />
  <path d="M 421 215.5  C 419.32 215.5  418 214.18  418 212.5  C 418 210.82  419.32 209.5  421 209.5  C 422.68 209.5  424 210.82  424 212.5  C 424 214.18  422.68 215.5  421 215.5  " fill-rule="nonzero" fill="#333333" stroke="none" />
</svg>