<?xml version="1.0" encoding="utf-8"?>
<svg version="1.1" xmlns:xlink="http://www.w3.org/1999/xlink" width="12px" height="12px" viewBox="181 635  12 12" xmlns="http://www.w3.org/2000/svg">
  <path d="M 181.5 637  A 1.5 1.5 0 0 1 183 635.5 L 191 635.5  A 1.5 1.5 0 0 1 192.5 637 L 192.5 645  A 1.5 1.5 0 0 1 191 646.5 L 183 646.5  A 1.5 1.5 0 0 1 181.5 645 L 181.5 637  Z " fill-rule="nonzero" fill="#f0f0f0" stroke="none" />
  <path d="M 181.5 637  A 1.5 1.5 0 0 1 183 635.5 L 191 635.5  A 1.5 1.5 0 0 1 192.5 637 L 192.5 645  A 1.5 1.5 0 0 1 191 646.5 L 183 646.5  A 1.5 1.5 0 0 1 181.5 645 L 181.5 637  Z " stroke-width="1" stroke="#797979" fill="none" />
</svg>