<?xml version="1.0" encoding="utf-8"?>
<svg version="1.1" xmlns:xlink="http://www.w3.org/1999/xlink" width="12px" height="12px" viewBox="181 665  12 12" xmlns="http://www.w3.org/2000/svg">
  <path d="M 181.5 667  A 1.5 1.5 0 0 1 183 665.5 L 191 665.5  A 1.5 1.5 0 0 1 192.5 667 L 192.5 675  A 1.5 1.5 0 0 1 191 676.5 L 183 676.5  A 1.5 1.5 0 0 1 181.5 675 L 181.5 667  Z " fill-rule="nonzero" fill="#ffffff" stroke="none" />
  <path d="M 181.5 667  A 1.5 1.5 0 0 1 183 665.5 L 191 665.5  A 1.5 1.5 0 0 1 192.5 667 L 192.5 675  A 1.5 1.5 0 0 1 191 676.5 L 183 676.5  A 1.5 1.5 0 0 1 181.5 675 L 181.5 667  Z " stroke-width="1" stroke="#797979" fill="none" />
  <path d="M 183.571428571429 671  L 186.142857142857 673.571428571429  " stroke-width="2.57142857142857" stroke="#797979" fill="none" />
  <path d="M 186.142857142857 673.571428571429  L 190.428571428571 667.571428571429  " stroke-width="2.57142857142857" stroke="#797979" fill="none" />
</svg>