<?xml version="1.0" encoding="utf-8"?>
<svg version="1.1" xmlns:xlink="http://www.w3.org/1999/xlink" width="12px" height="12px" viewBox="181 605  12 12" xmlns="http://www.w3.org/2000/svg">
  <path d="M 181.5 607  A 1.5 1.5 0 0 1 183 605.5 L 191 605.5  A 1.5 1.5 0 0 1 192.5 607 L 192.5 615  A 1.5 1.5 0 0 1 191 616.5 L 183 616.5  A 1.5 1.5 0 0 1 181.5 615 L 181.5 607  Z " fill-rule="nonzero" fill="#ffffff" stroke="none" />
  <path d="M 181.5 607  A 1.5 1.5 0 0 1 183 605.5 L 191 605.5  A 1.5 1.5 0 0 1 192.5 607 L 192.5 615  A 1.5 1.5 0 0 1 191 616.5 L 183 616.5  A 1.5 1.5 0 0 1 181.5 615 L 181.5 607  Z " stroke-width="1" stroke="#797979" fill="none" />
</svg>