<?xml version="1.0" encoding="utf-8"?>
<svg version="1.1" xmlns:xlink="http://www.w3.org/1999/xlink" width="16px" height="13px" xmlns="http://www.w3.org/2000/svg">
  <g transform="matrix(1 0 0 1 -9 -89 )">
    <path d="M 16 3.25  C 16 2.35625  15.28 1.625  14.4 1.625  L 8 1.625  L 6.4 0  L 1.6 0  C 0.72 0  0.00799999999999983 0.73125  0.00799999999999983 1.625  L 0 11.375  C 0 12.26875  0.72 13  1.6 13  L 14.4 13  C 15.28 13  16 12.26875  16 11.375  L 16 3.25  Z M 9.6 8.125  L 9.6 9.75  L 3.2 9.75  L 3.2 8.125  L 9.6 8.125  Z M 12.8 4.875  L 12.8 6.5  L 3.2 6.5  L 3.2 4.875  L 12.8 4.875  Z " fill-rule="nonzero" fill="#08415c" stroke="none" transform="matrix(1 0 0 1 9 89 )" />
  </g>
</svg>