<?xml version="1.0" encoding="utf-8"?>
<svg version="1.1" xmlns:xlink="http://www.w3.org/1999/xlink" width="87px" height="16px" xmlns="http://www.w3.org/2000/svg">
  <g transform="matrix(1 0 0 1 -41 -12 )">
    <path d="M 55.49734349835 6.21430445079081  L 54.3268035249842 6.21430445079081  C 54.5944205007602 6.08165632816223  54.8461169199036 5.95579134816807  54.8923623463125 5.93544192026482  C 55.1122176521908 6.02060804445249  55.2994737230595 6.11934045390899  55.49734349835 6.21430445079081  Z M 53.497418336602 3.89296230479069  C 53.4382848405381 3.85753922658874  53.369295761797 3.85904659161861  53.3040972917779 3.84246557629004  C 53.7650353123779 3.78141729258029  54.2426520113549 3.75202367449782  54.7437704844085 3.76558995976665  C 55.1986435310533 3.76558995976665  55.558751359647 3.77312678491601  55.8331914311227 3.7859393876699  C 55.6542746994424 3.91331173269394  55.3570909756345 4.12961861448031  54.8438425546704 4.50193777685825  C 54.7543841888302 4.45520946093228  54.4632654389776 4.31200978309461  54.4632654389776 4.31200978309461  C 54.1395474541154 4.19820372333941  53.8150713475089 4.05651141053161  53.497418336602 3.89296230479069  Z M 60.4440878806114 14.8432155642828  C 60.9527875711092 15.0685666362484  61.4053862525207 15.0354046055913  61.7935445856575 14.7429757897965  C 62.2059628146154 14.4023112930458  62.5782005911197 13.9727122595328  62.9019185759818 13.4579471018321  C 63.0307992725312 13.2401328550159  63.0558172900966 13.0735690192152  62.9815213591447 12.9507187692808  C 62.9064673064483 12.8248537892866  62.7396805226785 12.7668202356366  62.4743379121358 12.7758644258158  C 62.0050605523473 12.7864159810249  61.2166139381631 12.7668202356366  60.134774208893 12.7208456022256  C 57.8103729405384 12.658289953486  56.4571256267704 12.6273889703736  56.0719997806112 12.6304037004334  L 56.0719997806112 11.9528431195067  C 56.253948999269 11.9573652145963  57.9036219151006 11.9867588326788  57.9036219151006 11.9867588326788  C 58.4350652579306 11.9867588326788  58.7390720774381 11.8608938526846  58.8391441477 11.6046417976067  C 58.8702271392207 11.5096778007249  58.8831152088756 11.4230043115073  58.8831152088756 11.3514044725885  C 58.8831152088756 11.1659985739145  58.805786790946 11.0446556890099  58.7261840077832 10.9655190249417  C 58.5973033112338 10.8532203302164  58.1818525952983 10.7107743348937  56.110663989576 10.6896712244755  C 56.1121802330648 10.3384551725157  56.1265845462085 10.0814494349228  56.1500863202852 9.9088561390027  C 56.6277030192621 9.92317610678647  57.0105545001881 9.98347070798128  57.2645252845648 10.0867252125274  C 57.7406257400529 10.2796679363508  58.1121053948128 10.2638406035371  58.3683505444227 10.0347211189969  C 58.6405162506651 9.80032585685205  58.8247398345562 9.53653697662476  58.9126819569075 9.24712289088968  C 58.9695410877381 8.97579718551304  58.8952451567861 8.76401239881628  58.6958591380069 8.62307376852341  C 58.4206609447868 8.49117932840977  57.6178100174588 8.4467120600286  56.242577173103 8.47836672565587  C 56.1986061119273 8.27185771656365  56.1235520592309 8.07363921513572  56.0037688236145 7.88974068149156  C 55.8817112227648 7.70885687790713  55.7346356043497 7.58676031048764  55.5648163336023 7.52194361420322  C 56.1637325116845 7.51892888414348  56.8475583251404 7.51591415408374  57.6276656001362 7.51591415408374  C 59.2409486722362 7.51591415408374  59.2940171943447 7.50234786881491  59.324342064121 7.49481104366556  L 59.3455694729645 7.49104263109088  L 59.5237280829003 7.35161136582789  C 59.7860382064654 6.99436585374865  59.7572295801779 6.6732971023863  59.4570133693924 6.40121771449472  C 59.3296489163319 6.293441114859  58.9725735747157 6.15551721462588  57.3918897376253 6.19847711797718  C 57.3047057370184 6.03342064720639  57.0302656655427 5.75078970410573  56.1227939374865 5.213414070957  C 56.2918550864894 5.08754909096283  56.7004827067253 4.78607608498879  56.7004827067253 4.78607608498879  C 56.9506628823799 4.55544923541865  57.0355725177536 4.33914235363227  57.0355725177536 4.15222908992837  C 57.0355725177536 4.04822090286732  57.0052476479772 3.95928636610498  56.9673415607569 3.87713497197705  C 57.1159334226608 3.89220862227576  57.2743808672421 3.90954332011926  57.2743808672421 3.90954332011926  C 57.8892176019569 3.99772417436667  58.3092170483588 3.95702531856017  58.5578809805246 3.78518570515497  C 59.0605156970671 3.45055066852378  59.3304070380763 3.15736817021403  59.3834755601848 2.89131824244193  C 59.4031867255394 2.79936897561985  59.381959316696 2.71495653394712  59.3266164293542 2.64561774257309  C 59.209107558971 2.50241806473542  58.9361837309842 2.4353403209062  58.4653901277069 2.4353403209062  C 58.4653901277069 2.4353403209062  55.9112779707967 2.44966028868996  55.6648884038641 2.44966028868996  C 55.6899064214296 2.36524784701723  55.7164406824839 2.27028385013541  55.7164406824839 2.27028385013541  C 55.785429761225 2.1843640434328  55.822577726701 2.08035585637176  55.822577726701 1.96353506655682  C 55.822577726701 1.868571069675  55.7990759526243 1.76456288261395  55.7490399174934 1.66206206058278  C 55.6110617600112 1.41485419568406  55.3487516364461 1.26336401018211  54.962109546798 1.19703994886782  C 54.633084709725 1.15784845809119  54.3571283947605 1.23246302706977  54.1334824801602 1.41334683065419  C 54.0303779229207 1.50002031987173  53.978825644301 1.6582936480081  53.978825644301 1.8987183702724  C 53.978825644301 2.04794750822955  54.0038436618664 2.23636813696333  54.0417497490868 2.4526750187497  L 53.3920394141293 2.4526750187497  C 52.2821491803161 2.379567814801  51.5232693141638 2.39313410006983  51.0820424589184 2.48809809695165  C 50.5801658641204 2.61547044197569  50.2071699658717 2.85890989429972  49.9691197381277 3.22143118398351  C 49.7947517369138 3.58470615618223  49.8015748326135 3.90954332011926  49.9857984165046 4.19971108836928  C 50.250382905303 4.54489768020956  50.8000211699987 4.55544923541865  51.6726192978122 4.23965626166084  C 51.9273482039332 4.14167753471928  52.196481423198 4.06555560071083  52.4709214946737 3.9984778568816  C 52.4648565207184 4.00073890442641  52.460307790252 4.00224626945628  52.4550009380411 4.00526099951602  C 52.1866258405207 4.17031747028681  52.0494058047829 4.37381174931929  52.0494058047829 4.61046805900891  C 52.0494058047829 4.62252697924787  52.0494058047829 4.6338322169719  52.0509220482717 4.64589113721086  C 52.0653263614155 4.93907363552062  52.2351456321628 5.12598689922452  52.5429430603924 5.18251308784466  C 52.8090437926796 5.22019721359141  53.110776246954 5.30084124268947  53.4329779883273 5.40861784232519  C 53.1373105080082 5.57970377321546  52.1805608665655 6.13366042169276  52.1305248314345 6.16154667474536  C 51.2867353299086 6.05904585271418  50.6499130646059 6.06809004289341  50.2397692008813 6.18641819773822  C 49.9334880161405 6.27459905198562  49.698470275374 6.44568498287589  49.5415390742816 6.68912443519993  C 49.4581456823967 6.82252624034345  49.3550411251572 7.16846651469866  49.4194814734319 8.62307376852341  C 49.4194814734319 10.1455124486923  49.2693733680392 11.1426344159515  48.9737058877201 11.5842923697034  C 48.4983635539763 12.030472418545  47.8532019494852 12.4902187526554  47.0700621875119 12.9318767064074  C 46.5211820445606 13.2582212353743  46.3407490693915 13.6418456354763  46.5280051402602 14.0850109542581  C 46.6493046193655 14.3744250399932  46.8403512989563 14.5500330659731  47.0996289355438 14.6035445245335  C 47.5370651820671 14.6796664585419  48.142804455849 14.4618522117257  48.9547528441099 13.935781816301  C 49.9372786248625 13.1738087937016  50.5422597769 12.2151246347041  50.7598407175451 11.0770640371521  C 50.8788658314171 10.3633266955086  50.9387574492253 9.47021291531047  50.9387574492253 8.42259421955067  C 50.9387574492253 7.79251563706493  51.2215368598895 7.69302954509349  51.4322947048349 7.67418748222012  L 51.4504896267006 7.67268011719025  L 51.4686845485664 7.66665065707077  C 51.5596591578954 7.62067602365972  52.1707052838882 7.55435196234543  54.9151059986447 7.52721939180777  C 54.6474890228687 7.62067602365972  54.365467733949 7.84602709562532  54.365467733949 8.39018587140847  C 54.365467733949 8.42560894961042  54.3700164644154 8.46103202781237  54.3715327079042 8.49645510601432  L 53.3920394141293 8.49645510601432  C 53.3632307878417 8.42937736218509  53.3245665788769 8.36606803093054  53.2548193783914 8.3200933975195  C 52.9705237242385 8.05931924735195  52.6657587829865 7.89049436400649  52.3647844504566 7.82944608029675  C 52.1418966576006 7.80532823981882  51.9751098738309 7.84678077814026  51.8576010034477 7.94928160017143  C 51.7423664982977 8.0517824222026  51.6809586370006 8.21005575033898  51.6733774195566 8.418825806976  C 51.7544964462082 8.88234055366109  51.7014279240996 9.3955983463319  51.5179624619529 9.96312128007803  C 51.3473850694612 10.2336933029397  51.4360853135569 10.4213602491586  51.542222357774 10.5276294837644  C 51.7385758895756 10.6911785895053  51.9819329695306 10.6241008456761  52.2753260846164 10.3331793949112  C 52.6020765564562 10.0829567999527  53.3700538835414 9.93146661445076  54.5284639089967 9.893782488704  C 54.5534819265621 10.05657791193  54.5678862397059 10.3218741571871  54.5701606049391 10.6881638594456  C 53.0584658465898 10.625608210706  52.1744958926102 10.7220795726177  51.8856515079908 10.9821000402703  C 51.6286482366365 11.2247858100794  51.5657241318506 11.5036483406054  51.7021860458441 11.7900476962807  C 51.8811027775243 12.1307121930314  52.3185390240477 12.2369814276372  53.0061554462256 12.112623812673  C 53.4405592057714 12.0470534338736  53.9606307224351 12.007861943097  54.5368032481852 11.9927882927983  L 54.5368032481852 12.634925795523  C 54.3495471773164 12.6364331605529  52.3958674419773 12.6522604933665  52.3958674419773 12.6522604933665  C 51.2420061469885 12.6891909365983  50.4042816194177 12.8919315331159  49.9031631463641 13.2574675528594  C 49.5991563268566 13.5272858932061  49.4482900997194 13.7948431860081  49.4482900997194 14.0488341935412  C 49.4482900997194 14.1731918085055  49.4839218217066 14.2945346934101  49.5559433874253 14.4143702132848  C 49.809914171802 14.7874430581776  50.2898052360121 14.8801460075147  50.9842447538898 14.6894643312361  C 53.3920394141292 13.9425649589354  55.871097518343 13.7714790280451  58.3539462312789 14.1807286336549  C 58.9945591053036 14.2832294556861  59.6973379623697 14.5070731626218  60.4440878806114 14.8432155642828  Z M 82.7836613230788 9.05116543700655  C 82.7700151316795 9.05116543700655  82.7995818797114 9.18682828969487  82.7252859487594 9.68802716212671  C 82.7252859487594 9.68802716212671  82.7199790965485 9.69933239985074  82.7177047313153 9.70536185997022  C 82.5547085562676 9.70686922500009  81.8890776646775 9.72043551026892  81.8890776646775 9.72043551026892  C 81.8890776646775 9.72043551026892  81.7541319941729 9.70686922500009  81.7457926549844 9.70686922500009  C 81.7465507767288 9.69405662224619  81.7040959590419 9.61416627566307  81.6805941849653 9.37072682333903  C 81.6805941849653 9.38353942609293  81.6995472285755 9.08583483269356  81.7018215938087 9.00519080359551  C 81.7556482376617 9.0006687085059  81.9103050735209 8.97428982048317  81.9103050735209 8.97428982048317  C 82.5486435823124 8.92077836192277  82.7321090444591 9.00820553365524  82.7836613230788 9.05116543700655  Z M 77.8240288711623 9.11221372071629  C 77.8240288711624 9.11070635568642  77.8240288711624 9.11598213329097  77.8240288711624 9.12427264095526  L 77.8240288711624 9.1725083219111  C 77.8240288711624 9.25089130346435  77.8172057754627 9.40916463160072  77.7717184707982 9.70385449494035  C 77.7717184707982 9.70385449494035  77.765653496843 9.71440605014944  77.7618628881209 9.72043551026892  L 77.0583259093104 9.72043551026892  C 77.0583259093104 9.72043551026892  76.9309614562499 9.70837659002996  76.9264127257834 9.70837659002996  L 76.9264127257834 9.70686922500009  C 76.9264127257834 9.69707135230594  76.888506638563 9.62170310081243  76.8627304992531 9.40614990154098  C 76.8650048644864 9.41594777423514  76.8824416646078 9.09563270538772  76.884716029841 9.06548540479032  C 76.9104921691508 9.06096330970071  77.0583259093104 9.04438229437213  77.0583259093104 9.04438229437213  C 77.6739207657696 9.04438229437213  77.8035595840633 9.0994011179624  77.8240288711623 9.11221372071629  Z M 73.6649729813407 7.26945997169996  C 73.6642148595963 7.50385523384478  73.5975001460884 7.72468421072076  73.4610382320949 7.9402374099922  C 73.2313273435394 8.37360485607989  72.9341436197315 8.6615115767851  72.5459852865946 8.82732173007082  C 72.4951911297193 8.84842484048901  72.4656243816874 8.87254268096693  72.4208951987673 8.89590683892992  C 72.4155883465565 8.36983644350522  72.3989096681795 6.93482493506877  72.3958771812019 6.5187921868246  C 72.5118698080963 6.5187921868246  72.6445411133676 6.47432491844342  72.8022304362045 6.38237565162134  C 72.9568872720637 6.29042638479926  73.0850098468686 6.26630854432134  73.1941793780634 6.30474635258303  C 73.353384944389 6.36127254120316  73.4966699540821 6.57456469292979  73.6164531896985 6.9182439197402  C 73.6482943029637 7.03581839207008  73.6649729813407 7.1564075944597  73.6649729813407 7.26945997169996  Z M 72.3913284507354 4.07459979089005  C 72.3913284507354 3.78292465761016  72.4451550945884 3.52215050744262  72.5171766603071 3.27192791248416  C 72.8727357584344 3.25836162721533  73.156273290843 3.29378470541728  73.353384944389 3.38422660720949  C 73.4784750322163 3.40080762253806  73.5156229976923 3.42417178050105  73.5338179195581 3.44226016085949  C 73.5239623368808 3.68343856563873  73.3958397620759 4.00752204706082  73.1335296385108 4.41677165267058  C 72.9341436197315 4.69940259577125  72.7400644531631 4.90968001743814  72.5672126954381 5.03177658485763  C 72.4830611818088 5.09810064617192  72.4580431642433 5.16517839000114  72.3920865724798 5.23150245131543  L 72.3920865724798 4.07459979089005  Z M 86.5462195405752 12.9529798168256  C 86.4522124442686 12.7675739181516  86.2346315036235 12.6665804611503  85.8798305272406 12.6424626206723  C 85.2771237404364 12.6748709688145  84.3886050559903 12.4412293891847  83.222613813091 11.9520894369918  C 83.1877402128482 11.9106368986703  82.9633361765035 11.6483553834729  82.9148163848614 11.589568147308  C 82.9102676543949 11.5157072608443  82.9042026804397 11.4297874541417  82.8951052195068 11.299400379058  C 83.1414947864393 11.3423602824093  83.4151767361706 11.3250255845658  83.724490407889 11.2210173975047  C 84.0201578882081 11.1155018454138  84.1877027937222 10.8502056001567  84.2278832461758 10.4349265344274  C 84.304453542361 9.69254925721633  84.4007350039008 9.16572517927669  84.5099045350956 8.87254268096693  C 84.568279909415 8.69316624241238  84.5660055441818 8.48138145571561  84.4985327089294 8.21382416291365  C 84.44015733461 7.96058683789545  84.2991466901502 7.76915147910194  84.0777751407831 7.65383805431687  C 84.0398690535627 7.63876440401816  83.033083376989 7.5988192307266  83.033083376989 7.5988192307266  C 83.0285346465226 7.5988192307266  80.9338442667236 7.56490351755452  80.9338442667236 7.56490351755452  C 80.6275630819828 7.56490351755452  80.3864803672611 7.68021694233959  80.2143867312805 7.91159747442467  C 80.1203796349739 8.00957620136623  80.0286469039005 8.25075460614547  80.2310654096574 9.65486513146957  C 80.2651808881558 10.2412301280891  80.3114263145647 10.6271155757359  80.3751085410949 10.8140288394398  C 80.416047115293 10.9903905479346  80.5138448203216 11.1426344159515  80.666985412692 11.2496573330723  C 80.8072379354074 11.3280403146255  80.9853965453433 11.3363308222898  81.2446741819308 11.2798046336697  C 81.2514972776304 11.2767899036099  81.304565799739 11.2684993959456  81.3515693478923 11.2594552057664  C 81.341713765215 11.7742203634671  81.0748549111834 12.2301982850028  80.5153610638104 12.6055321774405  C 80.5130866985772 12.6055321774405  79.6526185186742 13.0155354655652  79.6526185186742 13.0155354655652  C 79.4517162564061 13.1414004455594  79.328900533812 13.2989200911808  79.2697670377482 13.4782965297354  C 79.148467558643 13.2408865375308  78.8406701304134 12.8014896313236  77.9892994114433 11.833761282147  C 77.9847506809768 11.8307465520872  77.9157616022357 11.7892940137658  77.847530645239 11.7455804278996  C 77.8869529759482 11.6295133205995  77.9362308893348 11.5172146258742  77.9362308893348 11.3883349158203  C 77.9362308893348 11.3589412977378  77.9248590631686 11.3257792670807  77.9225846979354 11.2963856489982  C 78.1742811170788 11.3431139649242  78.4509955537877 11.3287939971404  78.769406686439 11.2210173975047  C 79.0635579232693 11.1155018454138  79.2311028287834 10.8502056001566  79.2727995247259 10.4349265344274  C 79.3516441861443 9.72495760535853  79.4448931607065 9.22225136789682  79.5540626919012 8.94338883737083  C 79.6147124314538 8.76099766875653  79.6101637009874 8.55072024708964  79.5419327439907 8.28467031931755  C 79.4843154914157 8.02992562926948  79.3433048469558 7.83849027047596  79.1226914193331 7.72317684569089  C 79.0832690886239 7.70810319539219  78.0764834120502 7.66665065707076  78.0764834120502 7.66665065707076  C 78.074209046817 7.66665065707076  76.1167387027558 7.63273494389868  76.1167387027558 7.63273494389868  C 75.8081831527818 7.63273494389868  75.5701329250378 7.74880205119868  75.3957649238239 7.97942890076883  C 75.3934905585907 7.98395099585844  75.3889418281243 7.99224150352272  75.386667462891 7.99676359861233  C 75.4313966458111 7.77744198676622  75.4556565416322 7.54756881971101  75.436703498022 7.28905571708827  C 75.4245735501114 6.71098122813304  75.1137436349042 6.07562686804275  74.5117949698443 5.41615466747453  C 74.4291596997039 5.33475695586154  74.247210481046 5.15387315227711  74.6202063792947 4.69940259577125  C 75.2312525052874 4.28261616501213  75.5716491685266 3.84774135389458  75.6209270819131 3.40532971762767  C 75.6558006821559 3.09556620398934  75.5443567857279 2.79333951550036  75.2850791491404 2.5107085723997  C 74.9712167469555 2.19793032870163  74.4837444653013 2.03513490547565  73.8279691563884 2.02307598523669  C 73.4382945797628 2.01252443002759  73.0562012205812 1.9311267184146  72.6907865397766 1.78114389794252  C 72.2313647626654 1.65377155291848  71.79013790742 1.62890002992563  71.3519435391522 1.69974618632953  C 70.9903194670697 1.75250396237498  70.7022332041947 1.89494995769772  70.5013309419266 2.12030102966331  C 70.2792012708151 2.32002689612112  70.1654830091539 2.53708746042243  70.1654830091539 2.76394589741789  C 70.1654830091539 2.81896472100816  70.173064226598 2.87850563968803  70.1882266614861 2.9357855108231  C 70.2284071139397 3.10385671165363  70.370175880144 3.23725851679714  70.5748687511341 3.35784771918676  C 70.6499228038305 3.72187637390041  70.6855545258177 4.56675447314267  70.6855545258177 5.91433880984664  C 70.6855545258177 7.44582168019477  70.6370347341756 9.6126589106332  70.5437857596134 12.3952547557736  C 70.5369626639138 12.4796671974463  70.535446420425 12.5633259566041  70.535446420425 12.6454773507321  C 70.535446420425 13.1240657477159  70.6256629080095 13.5461279560795  70.8038215179453 13.9026197856438  C 71.0153374846351 14.3412630093361  71.2791638516891 14.5711361763913  71.5808963059634 14.585456144175  C 71.8697406905828 14.585456144175  72.0979353356496 14.41210916574  72.2685127281414 14.0737057165341  C 72.4193789552785 13.7594201078062  72.4959492514637 13.3953914530925  72.4959492514637 12.983127117423  C 72.4959492514637 12.9529798168256  72.4519781902881 10.8162898869846  72.4360576336555 9.93975712211504  C 72.7438550618851 10.0467800392358  73.152482682121 9.97744124786179  73.3230600746128 9.94654026474945  C 74.0440338535447 9.76414909613516  74.5845746573075 9.40388885399618  74.9416499989236 8.87706477605654  C 75.1023718087381 8.72105249546497  75.2176063138881 8.52283399403704  75.3017578275173 8.30200501716105  C 75.2805304186739 8.54242973942535  75.3017578275173 8.94941829749031  75.4132017239453 9.69179557470139  C 75.4488334459325 10.2547964133579  75.4958369940858 10.6286229407657  75.5602773423605 10.8155362044696  C 75.6004577948141 10.9918979129644  75.6982554998427 11.1441417809813  75.8513960922131 11.2511646981021  C 75.9651143538742 11.3167350769015  76.111431850545 11.322010854506  76.2979297996693 11.2956319664833  C 76.1864859032414 11.7448267453846  75.9696630843407 12.1201606378223  75.5784722642262 12.3854568830795  C 75.6239595688907 12.3628464076314  75.2790141751851 12.5437302112158  75.2790141751851 12.5437302112158  C 75.0060903471983 12.6937130316879  74.6694842926812 12.832390614436  74.3040696118766 12.9431819441314  C 73.962914826893 13.0946721296334  73.7961280431233 13.3607220574055  73.7961280431233 13.7179675694847  C 73.7961280431233 13.9146787058828  73.8780051915193 14.1995706965283  74.2836003247776 14.4241680859789  C 74.7521195628216 14.7075527115945  75.2153319486548 14.725641091953  75.6550425604114 14.4761721795094  C 76.2759442690815 14.1174193024003  76.7437053853812 13.6750076661334  77.0803114398983 13.1700403811269  C 77.267567510767 13.2544528227996  77.6398052872713 13.4519176417126  78.4070244926121 13.9252302610919  C 78.5738112763818 14.0526026061159  78.7747135386499 14.1249561275497  78.9847132618509 14.1249561275497  C 79.1431607064321 14.1249561275497  79.2311028287834 14.0571247012055  79.2758320117035 14.0028595601302  C 79.2826551074032 13.9975837825256  79.2834132291476 13.9877859098315  79.2887200813584 13.9832638147419  C 79.3493698209111 14.1362613652737  79.473701786994 14.29604205844  79.7352537888147 14.4128628482549  C 80.1787550092933 14.6465044278848  80.6124006470946 14.6336918251309  81.0157214151196 14.3661345323289  C 81.5668759233042 14.0458194634815  81.9899078566838 13.5785363042217  82.3121095980571 13.0162891480801  C 82.7396902619032 13.180591936336  83.226404421813 13.6124520173938  83.7768008082532 14.3706566274185  C 84.2362225853643 14.9125543556569  84.9860049905838 14.7942262008121  86.0140180760008 14.0330068607276  C 86.0200830499561 14.0292384481529  86.4165807222814 13.6011467796698  86.4165807222814 13.6011467796698  C 86.5917068452397 13.3403726295022  86.6334035411821 13.1293415253204  86.5462195405752 12.9529798168256  Z M 86.9912370045426 5.85630525619664  C 86.9912370045426 5.84801474853235  86.9912370045426 5.83595582829339  86.9859301523317 5.82314322553949  C 86.9738002044212 5.68823405536611  86.8782768646258 5.57668904315571  86.7031507416676 5.49604501405766  C 85.2270877053054 4.94811782569983  83.8078837997738 4.2667888321985  82.4682826774051 3.46713168385235  C 81.535034810039 2.90186979765102  80.8625808227492 2.57703263371399  80.3811735150502 2.44287714605554  C 80.2568415489673 2.07884849134189  80.1400908003285 1.88289103745876  79.9968057906354 1.82862589638343  C 79.6814271449617 1.75777973997953  79.3031243945022 2.01327811254253  78.7095150686308 2.68179450328997  C 78.0249311334305 3.26137635727507  76.9969180480134 3.80402776802834  75.6724793605328 4.27357197483292  C 75.2623354968081 4.40546641494656  74.9962347645209 4.66021110499462  74.8863071115818 5.02574712473815  C 74.8165599110963 5.30762438532388  74.83096422424 5.70406138817975  75.2941766100733 6.06130690025899  C 75.4844651679196 6.23616124372393  75.8817209619894 6.2527422590525  76.535221905669 6.09522261343107  C 76.6496982890745 6.06959740792327  76.7823695943459 6.01985436193756  76.925654604039 5.95353030062327  C 76.6625863587295 6.25952540168692  76.7095899068828 6.548939487422  76.8081457336558 6.7486653538798  C 76.9976761697578 7.11872346871294  77.4533073381469 7.23629794104282  78.1591186821907 7.10741823098891  C 78.8292983042472 6.99662690129345  80.033195634367 6.95592804548696  81.7366951940515 6.98984375865904  C 82.2893659457249 6.98984375865904  82.609293321865 6.85191985842591  82.720737218293 6.56627418526551  C 82.8367298451874 6.19772343546224  82.7161884878265 5.97689445858625  82.592614643488 5.8555515736817  C 82.3401601026002 5.63170786674598  81.8610271601344 5.53825123489402  81.1135191201482 5.56086171034208  L 81.1203422158479 5.56086171034208  L 78.5230171195065 5.54578806004337  C 78.0628372206509 5.53825123489402  77.7087943660124 5.57819640818558  77.4328380510479 5.66034780231351  C 77.843740036517 5.38977577945181  78.3304541964268 5.00012191923036  78.9035942351992 4.47857361889526  C 79.193196741563 4.19368162824979  79.5244959438693 3.95853268359004  79.8899106246739 3.76483627725172  C 80.6768409953693 3.79196884778938  81.6017495235469 4.47706625386539  82.6403763133857 5.82238954302456  C 83.6426132594929 7.2423274011623  85.0186042255933 7.39080285660451  86.7258943939998 6.25877171917198  C 86.8009484466962 6.20224553055185  86.9912370045426 6.05753848768431  86.9912370045426 5.85630525619664  Z M 8.9228922523956 8.40224479164743  L 9.00476940079165 7.99827096364221  L 9.49679041291237 7.95757210783571  L 10.5141897939078 7.91762693454415  L 10.7575468738627 8.16031270435326  L 10.7188826648979 8.47987409068574  L 10.4724930979653 8.88761633126563  L 9.29285566366665 8.88761633126563  L 9.00476940079165 8.80923334971238  L 8.9228922523956 8.40224479164743  Z M 7.13069244861534 8.4791204081708  L 6.96618003007883 8.8461637929442  C 6.96618003007883 8.8461637929442  6.68036813243706 8.88761633126563  6.47567526144692 8.92831518707213  C 6.27401487743442 8.96750667784876  5.74105529111568 8.92831518707213  5.74105529111568 8.92831518707213  L 5.13000916512292 8.8868626487507  L 5.09210307790252 8.36003857081106  L 5.25434113120581 7.99751728112727  L 5.94726440559462 7.87391334867791  L 6.64094580172784 7.7555851938331  L 6.96542190833441 7.99751728112727  L 7.13069244861534 8.4791204081708  Z M 5.05040638196009 5.81409903536027  L 5.58109160304562 5.65054992961935  L 6.11177682413114 5.73119395871741  L 6.92675769936962 5.81409903536027  L 7.0488153002193 6.25801803665705  L 6.88506100342719 6.54366370981745  L 6.31571157337686 6.54366370981745  L 5.58109160304562 6.58360888310901  L 5.09286119964693 6.42382818994277  L 5.05040638196009 5.81409903536027  Z M 10.8811207182012 12.6499994458217  L 11.5338635401364 12.6168374151645  L 11.9424911603722 12.0877522896801  L 11.8219498030114 11.4003938360593  L 11.2063549465522 11.2368447303184  L 10.3921321930581 11.1200239405034  L 9.04570797498967 11.0748029896073  L 9.00552752253606 10.4680885650845  L 10.5149479156522 10.4680885650845  L 11.4944412094272 10.5894314499891  L 12.2699997539564 10.7914183639917  L 13.0455582984857 11.0371188638606  L 13.8597810519798 11.3205034894762  L 14.5936429005666 11.2375984128333  L 15.2054471483038 10.9150222964411  L 15.7361323693893 10.3037857768287  L 15.9370346316574 9.61718100572281  L 15.7747965783541 8.88761633126563  L 12.7567139138663 8.88761633126563  L 12.3496025371193 8.72632827306952  L 12.3496025371193 8.32160076254937  L 12.6778692524479 8.0389698194487  L 13.2881572566962 7.95757210783571  L 13.6952686334433 7.75633887634804  L 13.8597810519798 7.39231022163438  L 13.9439325656091 6.9868290285993  L 13.8597810519798 6.58360888310902  L 12.8818040016936 6.58360888310902  L 12.7567139138663 6.29796320994861  L 12.4739345032022 5.89398938194339  L 11.8598558902318 5.60909739129792  L 11.2063549465522 5.81334535284534  L 10.9228174141436 6.54291002730252  L 9.00552752253606 6.49995012395122  L 8.96610519182685 5.69049510291091  L 9.3739746903183 5.73044027620248  L 10.0653817212183 5.69049510291091  L 10.8022760567828 5.60909739129792  L 11.2882320949482 5.32646644819726  L 11.4936830876828 4.91872420761737  L 11.3685929998555 4.47480520632059  L 11.4504701482515 4.26829619722837  L 11.7377982893821 4.0693240132855  L 12.1024548484423 3.54023888780106  L 12.512598712167 3.54023888780106  L 13.6133914850472 3.459594858703  L 14.0621995577367 3.01266112734649  L 14.2668924287268 2.36524784701723  L 13.6543300592453 2.04417909565488  L 12.3488444153749 1.83993113410746  L 12.3920573548061 1.06966760384378  L 12.4307215637709 0.542843525904145  L 11.8598558902318 0.051442526166456  L 11.0888460761689 0.051442526166456  L 10.6787022124443 0.702624219070387  L 10.4330707672561 1.83917745159253  L 9.25191708946862 1.88062998991396  L 8.59993238927784 1.92132884572045  L 8.0677309247035 2.6094409818562  L 8.15036619484396 3.09481252147441  L 8.80310901677915 3.37593609954521  C 8.80310901677915 3.37593609954521  9.94484036385744 3.29981416553676  10.0668979647071 3.29981416553676  C 10.1904718090456 3.29981416553676  10.5157060373966 3.53948520528612  10.5157060373966 3.53948520528612  L 10.6385217599907 4.10474709148745  L 10.3542261058377 4.39114644716279  L 9.25191708946862 4.43109162045435  L 8.47787478842817 4.3527086389011  L 7.82589008823738 4.06857033077057  L 7.45516855522193 4.3527086389011  L 5.25509925295023 4.26754251471344  L 5.29527970540384 3.98566525412771  L 5.58184972479002 3.66233545522055  L 5.90935831837423 3.3005678480517  L 6.44004353945976 3.3005678480517  L 6.84563867271798 3.1762102330874  L 7.13296681384857 2.76846799250751  L 7.25275004946501 2.32681003875554  L 6.76451964606633 1.92132884572045  L 6.19289585078278 1.88062998991396  L 5.66448499493048 1.63492949004511  L 5.58260784653443 1.06966760384378  L 5.29603782714825 0.581281334165835  L 4.8881683286568 0.177307506160618  L 4.27560595917523 0.135101285324252  L 3.8305884952078 0.5805276516509  L 3.78737555577655 1.59498431675355  L 3.33932560483148 1.67412098082174  C 3.33932560483148 1.67412098082174  2.72827947883872 1.71783456668797  2.60546375624464 1.75401132740486  C 2.48188991190616 1.7977249132711  2.07629477864793 2.15873883792501  2.07629477864793 2.15873883792501  L 1.82990521171537 2.5664810785049  L 1.91102423836701 3.1332503297361  L 2.48113179016174 3.4573338111582  L 3.13539085558575 3.4573338111582  L 3.82983037346338 3.37442873451534  L 3.99131030502227 3.57867669606275  L 4.39917980351371 3.90125281245498  L 4.76762697129595 4.06630928322576  C 4.76762697129595 4.06630928322576  4.6857498228999 4.3504475913563  4.56369222205023 4.38888539961799  C 4.43936025596733 4.42883057290955  4.19676129775681 4.75442141936152  4.19676129775681 4.75442141936152  L 4.27560595917523 5.60532897872325  L 3.78737555577655 5.56236907537195  L 3.25744845643543 5.80957694027066  L 3.01333325473609 6.49618171137655  L 2.3613485545453 6.69892230789409  L 1.87084378591339 7.86939125358831  L 2.40077088525451 8.1934747350104  L 3.42044463148312 8.1934747350104  L 3.29914515237786 8.84088801533966  L 2.07629477864793 8.96223090024421  L 1.01416621473248 9.20340930502345  C 1.01416621473248 9.20340930502345  0.361423392797278 9.44910980489229  0.116550069353533 9.97819493037673  C -0.12756513234581 10.5042653258014  0.116550069353533 10.7039911922592  0.116550069353533 10.7039911922592  L 0.810989587231162 11.3951180584547  L 1.91102423836701 11.5986123374872  L 2.60470563450023 10.9089928363216  L 3.74643698157852 10.5841556723846  C 3.74643698157852 10.5841556723846  5.78578447403574 10.2201270176709  5.90935831837423 10.2201270176709  C 6.02989967573508 10.2201270176709  6.96693815182323 10.3414699025755  6.96693815182323 10.3414699025755  L 7.04881530021929 10.9089928363216  L 6.47643338319133 11.031843086256  L 5.45751775870712 11.031843086256  L 4.68423357941107 11.031843086256  C 4.5621759785614 11.031843086256  4.03073263573147 11.519475673419  4.03073263573147 11.519475673419  L 3.98979406153344 12.2844634260782  L 4.60235643101502 12.5731238292983  L 7.04805717847488 12.5731238292983  L 7.13069244861533 14.7173505842887  L 7.17087290106895 15.3685322771926  L 7.25047568423178 15.8116975959744  L 7.70231624389888 15.9752467017154  L 8.22996897800677 15.9752467017154  L 8.63783847649822 15.4868604320374  L 8.80159277329032 14.9622974016426  L 8.84253134748835 14.1513350155724  L 8.80159277329032 13.2589749178892  L 8.92289225239558 12.4495198968489  L 9.37321656857387 12.4073136760126  C 9.37321656857387 12.4073136760126  10.0646235994739 12.5316712909769  10.2298941397548 12.5316712909769  C 10.3913740713137 12.5316712909769  10.8811207182012 12.6499994458217  10.8811207182012 12.6499994458217  Z M 31.2033321987991 6.69892230789409  L 31.5505519577379 6.83006306549279  L 31.5035484095846 7.29809990726749  L 31.1593611376235 7.84828814317012  L 30.8159319874067 8.1934747350104  L 30.3860769583274 8.2341735908169  L 29.8280993544432 8.14900746662923  L 29.5688217178557 7.4699395206727  L 29.4399410213064 6.78710316214149  L 29.9114927463281 6.74414325879019  L 30.4277736542698 6.69892230789409  L 31.2033321987991 6.69892230789409  Z M 31.937194047386 9.64431357626048  L 32.7946297403113 9.77319328631438  L 33.784736738508 9.81992160224036  L 34.5125336131396 9.72872601793321  L 35.0735437040014 9.47473501040008  L 35.1152403999438 10.0671294671391  L 34.9840853381613 10.8426687750073  L 34.3836529165902 10.5427031340631  L 31.6392522018336 10.4567833273605  L 31.5513100794823 9.72872601793321  L 31.937194047386 9.64431357626048  Z M 32.9636908893142 8.06610238998637  L 33.2244847693905 7.55133723228569  L 33.6535816767254 7.04109416967462  L 34.2547722200409 7.08330039051099  L 34.9833272164169 7.21293378307983  L 35.072785582257 7.768397796587  L 35.0310888863145 8.32310812757924  L 34.5565046743152 8.36456066590067  L 33.4367588578247 8.28014822422794  L 32.9636908893142 8.06610238998637  Z M 29.4406991430508 9.68727347961178  L 29.4406991430508 10.497482183167  C 29.4406991430508 10.497482183167  28.8395085997353 10.6301303057956  28.7136603901636 10.6700754790872  C 28.5862959371031 10.7115280174086  27.4718569728235 10.7544879207599  27.4718569728235 10.7544879207599  L 26.6136631581537 10.7982015066261  L 26.4446020091508 10.497482183167  L 26.4446020091508 9.90131931385335  L 26.4855405833488 9.60361472045398  L 27.5984633041396 9.68727347961178  L 29.4406991430508 9.68727347961178  Z M 26.4453601308952 8.36380698338574  L 26.2732664949146 8.32310812757924  L 26.2285373119945 7.80683560484869  L 26.2732664949146 7.51214574150907  L 26.3119307038794 7.16846651469866  L 27.0450344307218 7.04034048715969  L 27.5135536687659 7.34256717564867  L 27.9851053937876 7.97942890076883  L 27.5135536687659 8.06534870747143  L 26.9161537341725 8.1075549283078  L 26.4453601308952 8.36380698338574  Z M 38.940722722226 3.15510712266922  L 38.685993816105 2.72400072412634  L 37.479822120752 2.72400072412634  L 34.858995250334 2.64109564748348  L 31.937194047386 2.51296961994451  L 31.937194047386 1.531674985499  C 31.937194047386 1.531674985499  31.2897580776616 0.804371358586624  30.8174482308955 0.761411455235323  C 30.3458965058738 0.717697869369087  29.4846702042264 0.761411455235323  29.4846702042264 0.761411455235323  L 29.1874864804185 1.19176417126327  L 29.1397248105208 2.38710463995035  C 29.1397248105208 2.38710463995035  24.1202007407962 2.04342541313994  23.6478908940301 2.21601870906008  C 23.1763391690084 2.38710463995035  22.3606001720255 3.24102692937182  22.3606001720255 3.24102692937182  L 22.5311775645172 4.0949492187933  L 22.9193358976541 4.56600079062774  L 23.5637393804008 4.99183141156607  L 24.0785040448537 4.73934776906281  C 24.0785040448537 4.73934776906281  24.7653623452873 4.2667888321985  24.9374559812679 4.307487688005  C 25.1118239824817 4.35421600393097  26.5719664622113 4.14167753471927  26.5719664622113 4.14167753471927  L 27.6856473047465 3.92386328790303  L 28.9266926003422 3.92386328790303  L 29.4846702042264 4.14167753471927  L 29.6135509007758 4.99183141156607  L 29.3140928117346 5.33701800340635  L 28.8402667214797 5.25260556173362  C 28.8402667214797 5.25260556173362  28.6257182678123 5.08151963084335  28.4991119364962 5.03780604497711  C 28.3694731182024 4.99183141156607  28.0700150291613 4.95037887324464  28.0700150291613 4.95037887324464  L 27.2557922756672 5.41690834998947  L 26.6576342193294 5.63698364435052  L 26.0155051018159 5.41690834998947  L 25.3271305578935 5.33551063837648  L 24.6357235269935 5.63698364435052  L 24.2498395590899 6.10728153367003  L 24.2960849854988 8.83184382516044  L 24.8517882241498 13.9606533392938  L 25.2831594967179 14.3864839602322  L 25.8843500400334 14.1716844434757  L 26.3566598867995 13.9192008009724  L 26.3998728262307 11.9950493403431  L 29.3550313859327 12.0387629262093  L 29.5278831436577 13.5333153533256  L 29.6127927790314 14.4776795445393  L 29.8697960503856 15.3278334213861  C 29.8697960503856 15.3278334213861  30.2587125052669 15.2871345655796  30.3868350800718 15.2871345655796  C 30.5157157766212 15.2871345655796  31.0327548063073 15.1152949521744  31.0327548063073 15.1152949521744  L 31.2480613817192 14.4324585936432  L 31.4178806524666 13.5785363042217  L 31.5035484095846 12.0380092436944  L 34.2547722200409 11.9528431195067  L 34.8991757027876 11.4802841826424  L 34.9461792509409 12.3387285671535  C 34.9461792509409 12.3387285671535  34.8135079456695 13.192650856575  34.858995250334 13.4036819607568  C 34.899933824532 13.6192351600282  34.7293564320402 14.3864839602322  34.7293564320402 14.3864839602322  C 34.7293564320402 14.3864839602322  35.031847008059 14.9419479737393  35.1592114611195 14.9419479737393  C 35.2888502794132 14.9419479737393  36.2766829123767 14.6012834769887  36.2766829123767 14.6012834769887  L 36.6208701843379 13.6184814775133  L 36.9195701516346 12.1653815887184  L 37.4381254248096 6.61752459628109  L 36.7482346373984 5.88645255679404  L 35.7604020044349 5.84575370098754  L 34.0000433139198 5.84575370098754  L 33.1380588905281 5.37922422424271  L 32.4527168335833 5.37922422424271  L 31.463367957131 5.25109819670375  L 31.4178806524665 4.77929294235437  L 31.8484938032902 4.0112904596355  L 33.0508748899211 4.04897458538225  L 34.6429305531777 4.48309571398488  C 34.6429305531777 4.48309571398488  36.0181633975336 4.86521274905697  36.2311956077122 4.90817265240827  C 36.4480184266129 4.95037887324464  36.9635412128103 5.03780604497711  37.1773315447333 4.99183141156607  C 37.394154363634 4.94962519072971  37.8664642104001 4.56600079062774  37.8664642104001 4.56600079062774  L 38.940722722226 3.15510712266922  Z " fill-rule="nonzero" fill="#ffffff" stroke="none" transform="matrix(1 0 0 1 41 12 )" />
  </g>
</svg>