<?xml version="1.0" encoding="utf-8"?>
<svg version="1.1" xmlns:xlink="http://www.w3.org/1999/xlink" width="12px" height="12px" viewBox="-10 -611.5  12 12" xmlns="http://www.w3.org/2000/svg">
  <path d="M -4 -611.5  C -0.640000000000001 -611.5  2 -608.86  2 -605.5  C 2 -602.14  -0.640000000000001 -599.5  -4 -599.5  C -7.36 -599.5  -10 -602.14  -10 -605.5  C -10 -608.86  -7.36 -611.5  -4 -611.5  Z " fill-rule="nonzero" fill="#ffffff" stroke="none" />
  <path d="M -4 -611  C -0.92 -611  1.5 -608.58  1.5 -605.5  C 1.5 -602.42  -0.92 -600  -4 -600  C -7.08 -600  -9.5 -602.42  -9.5 -605.5  C -9.5 -608.58  -7.08 -611  -4 -611  Z " stroke-width="1" stroke="#333333" fill="none" />
  <path d="M -4 -602.5  C -5.68 -602.5  -7 -603.82  -7 -605.5  C -7 -607.18  -5.68 -608.5  -4 -608.5  C -2.32 -608.5  -1 -607.18  -1 -605.5  C -1 -603.82  -2.32 -602.5  -4 -602.5  " fill-rule="nonzero" fill="#333333" stroke="none" />
</svg>