<?xml version="1.0" encoding="utf-8"?>
<svg version="1.1" xmlns:xlink="http://www.w3.org/1999/xlink" width="12px" height="12px" viewBox="43 -611.5  12 12" xmlns="http://www.w3.org/2000/svg">
  <path d="M 49 -611.5  C 52.36 -611.5  55 -608.86  55 -605.5  C 55 -602.14  52.36 -599.5  49 -599.5  C 45.64 -599.5  43 -602.14  43 -605.5  C 43 -608.86  45.64 -611.5  49 -611.5  Z " fill-rule="nonzero" fill="#f0f0f0" stroke="none" />
  <path d="M 49 -611  C 52.08 -611  54.5 -608.58  54.5 -605.5  C 54.5 -602.42  52.08 -600  49 -600  C 45.92 -600  43.5 -602.42  43.5 -605.5  C 43.5 -608.58  45.92 -611  49 -611  Z " stroke-width="1" stroke="#333333" fill="none" />
  <path d="M 49 -602.5  C 47.32 -602.5  46 -603.82  46 -605.5  C 46 -607.18  47.32 -608.5  49 -608.5  C 50.68 -608.5  52 -607.18  52 -605.5  C 52 -603.82  50.68 -602.5  49 -602.5  " fill-rule="nonzero" fill="#333333" stroke="none" />
</svg>