<?xml version="1.0" encoding="utf-8"?>
<svg version="1.1" xmlns:xlink="http://www.w3.org/1999/xlink" width="66px" height="27px" xmlns="http://www.w3.org/2000/svg">
  <defs>
    <filter x="376px" y="8px" width="66px" height="27px" filterUnits="userSpaceOnUse" id="filter73">
      <feOffset dx="0" dy="2" in="SourceAlpha" result="shadowOffsetInner" />
      <feGaussianBlur stdDeviation="0" in="shadowOffsetInner" result="shadowGaussian" />
      <feComposite in2="shadowGaussian" operator="atop" in="SourceAlpha" result="shadowComposite" />
      <feColorMatrix type="matrix" values="0 0 0 0 0.776470588235294  0 0 0 0 0.650980392156863  0 0 0 0 0.403921568627451  0 0 0 0.803921568627451 0  " in="shadowComposite" />
    </filter>
    <g id="widget74">
      <path d="M 377 13  A 4 4 0 0 1 381 9 L 437 9  A 4 4 0 0 1 441 13 L 441 28  A 4 4 0 0 1 437 32 L 381 32  A 4 4 0 0 1 377 28 L 377 13  Z " fill-rule="nonzero" fill="#eadeca" stroke="none" />
      <path d="M 376.5 13  A 4.5 4.5 0 0 1 381 8.5 L 437 8.5  A 4.5 4.5 0 0 1 441.5 13 L 441.5 28  A 4.5 4.5 0 0 1 437 32.5 L 381 32.5  A 4.5 4.5 0 0 1 376.5 28 L 376.5 13  Z " stroke-width="1" stroke="#c6a667" fill="none" stroke-opacity="0.803921568627451" />
    </g>
  </defs>
  <g transform="matrix(1 0 0 1 -376 -8 )">
    <use xlink:href="#widget74" filter="url(#filter73)" />
    <use xlink:href="#widget74" />
  </g>
</svg>