<?xml version="1.0" encoding="utf-8"?>
<svg version="1.1" xmlns:xlink="http://www.w3.org/1999/xlink" width="12px" height="12px" xmlns="http://www.w3.org/2000/svg">
  <g transform="matrix(1 0 0 1 -237 -15 )">
    <path d="M 12 6  C 12 2.688  9.312 0  6 0  C 2.688 0  0 2.688  0 6  C 0 9.312  2.688 12  6 12  C 9.312 12  12 9.312  12 6  Z M 8.94 9.786  C 8.13 10.422  7.11 10.8  6 10.8  C 3.348 10.8  1.2 8.652  1.2 6  C 1.2 4.89  1.578 3.87  2.214 3.06  L 8.94 9.786  Z M 10.8 6  C 10.8 7.11  10.422 8.13  9.786 8.94  L 3.06 2.214  C 3.87 1.578  4.89 1.2  6 1.2  C 8.652 1.2  10.8 3.348  10.8 6  Z " fill-rule="nonzero" fill="#555555" stroke="none" transform="matrix(1 0 0 1 237 15 )" />
  </g>
</svg>