<?xml version="1.0" encoding="utf-8"?>
<svg version="1.1" xmlns:xlink="http://www.w3.org/1999/xlink" width="12px" height="12px" viewBox="1000 169.5  12 12" xmlns="http://www.w3.org/2000/svg">
  <path d="M 1006 169.5  C 1009.36 169.5  1012 172.14  1012 175.5  C 1012 178.86  1009.36 181.5  1006 181.5  C 1002.64 181.5  1000 178.86  1000 175.5  C 1000 172.14  1002.64 169.5  1006 169.5  Z " fill-rule="nonzero" fill="#ffffff" stroke="none" />
  <path d="M 1006 170  C 1009.08 170  1011.5 172.42  1011.5 175.5  C 1011.5 178.58  1009.08 181  1006 181  C 1002.92 181  1000.5 178.58  1000.5 175.5  C 1000.5 172.42  1002.92 170  1006 170  Z " stroke-width="1" stroke="#333333" fill="none" />
  <path d="M 1006 178.5  C 1004.32 178.5  1003 177.18  1003 175.5  C 1003 173.82  1004.32 172.5  1006 172.5  C 1007.68 172.5  1009 173.82  1009 175.5  C 1009 177.18  1007.68 178.5  1006 178.5  " fill-rule="nonzero" fill="#333333" stroke="none" />
</svg>