<?xml version="1.0" encoding="utf-8"?>
<svg version="1.1" xmlns:xlink="http://www.w3.org/1999/xlink" width="1060px" height="40px" xmlns="http://www.w3.org/2000/svg">
  <defs>
    <mask fill="white" id="clip80">
      <path d="M 0 40  L 0 4  C 0 1.75999999999999  1.75999999999999 0  4 0  L 1056 0  C 1058.24 0  1060 1.75999999999999  1060 4  L 1060 40  L 134 40  L 0 40  Z " fill-rule="evenodd" />
    </mask>
  </defs>
  <g transform="matrix(1 0 0 1 -165 -297 )">
    <path d="M 0 40  L 0 4  C 0 1.75999999999999  1.75999999999999 0  4 0  L 1056 0  C 1058.24 0  1060 1.75999999999999  1060 4  L 1060 40  L 134 40  L 0 40  Z " fill-rule="nonzero" fill="#ffffff" stroke="none" transform="matrix(1 0 0 1 165 297 )" />
    <path d="M 0 40  L 0 4  C 0 1.75999999999999  1.75999999999999 0  4 0  L 1056 0  C 1058.24 0  1060 1.75999999999999  1060 4  L 1060 40  L 134 40  L 0 40  Z " stroke-width="2" stroke="#cccccc" fill="none" transform="matrix(1 0 0 1 165 297 )" mask="url(#clip80)" />
  </g>
</svg>