<?xml version="1.0" encoding="utf-8"?>
<svg version="1.1" xmlns:xlink="http://www.w3.org/1999/xlink" width="18px" height="18px" xmlns="http://www.w3.org/2000/svg">
  <g transform="matrix(1 0 0 1 -1254 -168 )">
    <path d="M 18 4  L 14 0  L 2 0  C 0.89 0  0 0.9  0 2  L 0 16  C 0 17.1  0.89 18  2 18  L 16 18  C 17.1 18  18 17.1  18 16  L 18 4  Z M 12 13  C 12 14.66  10.66 16  9 16  C 7.34 16  6 14.66  6 13  C 6 11.34  7.34 10  9 10  C 10.66 10  12 11.34  12 13  Z M 12 2  L 12 6  L 2 6  L 2 2  L 12 2  Z " fill-rule="nonzero" fill="#eeeeee" stroke="none" fill-opacity="0.4" transform="matrix(1 0 0 1 1254 168 )" />
  </g>
</svg>