<?xml version="1.0" encoding="utf-8"?>
<svg version="1.1" xmlns:xlink="http://www.w3.org/1999/xlink" width="22px" height="22px" xmlns="http://www.w3.org/2000/svg">
  <g transform="matrix(1 0 0 1 -1251 -203 )">
    <path d="M 21.065 13.772  L 18.854 12.034  C 18.898 11.704  18.92 11.363  18.92 11  C 18.92 10.648  18.898 10.296  18.843 9.966  L 21.076 8.228  C 21.274 8.074  21.329 7.777  21.208 7.557  L 19.096 3.905  C 18.964 3.663  18.689 3.586  18.447 3.663  L 15.818 4.719  C 15.268 4.301  14.685 3.949  14.036 3.685  L 13.64 0.891  C 13.596 0.627  13.376 0.44  13.112 0.44  L 8.888 0.44  C 8.624 0.44  8.415 0.627  8.371 0.891  L 7.975 3.685  C 7.326 3.949  6.732 4.312  6.193 4.719  L 3.564 3.663  C 3.322 3.575  3.047 3.663  2.915 3.905  L 0.814 7.557  C 0.682 7.788  0.726 8.074  0.946 8.228  L 3.179 9.966  C 3.124 10.296  3.08 10.659  3.08 11  C 3.08 11.341  3.102 11.704  3.157 12.034  L 0.924 13.772  C 0.726 13.926  0.671 14.223  0.792 14.443  L 2.904 18.095  C 3.036 18.337  3.311 18.414  3.553 18.337  L 6.182 17.281  C 6.732 17.699  7.315 18.051  7.964 18.315  L 8.36 21.109  C 8.415 21.373  8.624 21.56  8.888 21.56  L 13.112 21.56  C 13.376 21.56  13.596 21.373  13.629 21.109  L 14.025 18.315  C 14.674 18.051  15.268 17.699  15.807 17.281  L 18.436 18.337  C 18.678 18.425  18.953 18.337  19.085 18.095  L 21.197 14.443  C 21.329 14.201  21.274 13.926  21.065 13.772  Z M 14.96 11  C 14.96 13.178  13.178 14.96  11 14.96  C 8.822 14.96  7.04 13.178  7.04 11  C 7.04 8.822  8.822 7.04  11 7.04  C 13.178 7.04  14.96 8.822  14.96 11  Z " fill-rule="nonzero" fill="#ffe0b2" stroke="none" transform="matrix(1 0 0 1 1251 203 )" />
  </g>
</svg>