<?xml version="1.0" encoding="utf-8"?>
<svg version="1.1" xmlns:xlink="http://www.w3.org/1999/xlink" width="12px" height="12px" viewBox="616 173.5  12 12" xmlns="http://www.w3.org/2000/svg">
  <path d="M 622 173.5  C 625.36 173.5  628 176.14  628 179.5  C 628 182.86  625.36 185.5  622 185.5  C 618.64 185.5  616 182.86  616 179.5  C 616 176.14  618.64 173.5  622 173.5  Z " fill-rule="nonzero" fill="#ffffff" stroke="none" />
  <path d="M 622 174  C 625.08 174  627.5 176.42  627.5 179.5  C 627.5 182.58  625.08 185  622 185  C 618.92 185  616.5 182.58  616.5 179.5  C 616.5 176.42  618.92 174  622 174  Z " stroke-width="1" stroke="#333333" fill="none" />
  <path d="M 622 182.5  C 620.32 182.5  619 181.18  619 179.5  C 619 177.82  620.32 176.5  622 176.5  C 623.68 176.5  625 177.82  625 179.5  C 625 181.18  623.68 182.5  622 182.5  " fill-rule="nonzero" fill="#333333" stroke="none" />
</svg>