<?xml version="1.0" encoding="utf-8"?>
<svg version="1.1" xmlns:xlink="http://www.w3.org/1999/xlink" width="12px" height="12px" viewBox="325 246.5  12 12" xmlns="http://www.w3.org/2000/svg">
  <path d="M 331 246.5  C 334.36 246.5  337 249.14  337 252.5  C 337 255.86  334.36 258.5  331 258.5  C 327.64 258.5  325 255.86  325 252.5  C 325 249.14  327.64 246.5  331 246.5  Z " fill-rule="nonzero" fill="#f0f0f0" stroke="none" />
  <path d="M 331 247  C 334.08 247  336.5 249.42  336.5 252.5  C 336.5 255.58  334.08 258  331 258  C 327.92 258  325.5 255.58  325.5 252.5  C 325.5 249.42  327.92 247  331 247  Z " stroke-width="1" stroke="#797979" fill="none" />
  <path d="M 331 255.5  C 329.32 255.5  328 254.18  328 252.5  C 328 250.82  329.32 249.5  331 249.5  C 332.68 249.5  334 250.82  334 252.5  C 334 254.18  332.68 255.5  331 255.5  " fill-rule="nonzero" fill="#797979" stroke="none" />
</svg>