<?xml version="1.0" encoding="utf-8"?>
<svg version="1.1" xmlns:xlink="http://www.w3.org/1999/xlink" width="132px" height="18px" xmlns="http://www.w3.org/2000/svg">
  <g transform="matrix(1 0 0 1 -426 -391 )">
    <path d="M 1.5 17  L 1.5 4.53333333333333  C 0.5 2.31200000000002  2.03999999999996 0.566666666666667  4 0.566666666666667  L 89 0.566666666666667  L 127 0.566666666666667  C 128.96 0.566666666666667  130.5 2.31200000000002  130.5 4.53333333333333  L 130.5 17  L 1.5 17  Z " fill-rule="nonzero" fill="#cde2ff" stroke="none" fill-opacity="0.596078431372549" transform="matrix(1 0 0 1 426 391 )" />
    <path d="M 1.5 17  L 1.5 4.53333333333333  C 0.5 2.31200000000002  2.03999999999996 0.566666666666667  4 0.566666666666667  L 89 0.566666666666667  L 127 0.566666666666667  C 128.96 0.566666666666667  130.5 2.31200000000002  130.5 4.53333333333333  L 130.5 17  " stroke-width="1" stroke="#6a8ec3" fill="none" transform="matrix(1 0 0 1 426 391 )" />
  </g>
</svg>