<?xml version="1.0" encoding="utf-8"?>
<svg version="1.1" xmlns:xlink="http://www.w3.org/1999/xlink" width="12px" height="12px" viewBox="356 176.5  12 12" xmlns="http://www.w3.org/2000/svg">
  <path d="M 362 176.5  C 365.36 176.5  368 179.14  368 182.5  C 368 185.86  365.36 188.5  362 188.5  C 358.64 188.5  356 185.86  356 182.5  C 356 179.14  358.64 176.5  362 176.5  Z " fill-rule="nonzero" fill="#ffffff" stroke="none" />
  <path d="M 362 177  C 365.08 177  367.5 179.42  367.5 182.5  C 367.5 185.58  365.08 188  362 188  C 358.92 188  356.5 185.58  356.5 182.5  C 356.5 179.42  358.92 177  362 177  Z " stroke-width="1" stroke="#333333" fill="none" />
  <path d="M 362 185.5  C 360.32 185.5  359 184.18  359 182.5  C 359 180.82  360.32 179.5  362 179.5  C 363.68 179.5  365 180.82  365 182.5  C 365 184.18  363.68 185.5  362 185.5  " fill-rule="nonzero" fill="#333333" stroke="none" />
</svg>