<?xml version="1.0" encoding="utf-8"?>
<svg version="1.1" xmlns:xlink="http://www.w3.org/1999/xlink" width="12px" height="12px" xmlns="http://www.w3.org/2000/svg">
  <g transform="matrix(1 0 0 1 -167 -15 )">
    <path d="M 12 1.33333333333333  C 12 0.6  11.4 0  10.6666666666667 0  L 1.33333333333333 0  C 0.593333333333333 0  0 0.6  0 1.33333333333333  L 0 10.6666666666667  C 0 11.4  0.593333333333333 12  1.33333333333333 12  L 10.6666666666667 12  C 11.4 12  12 11.4  12 10.6666666666667  L 12 1.33333333333333  Z M 10.6666666666667 1.33333333333333  L 10.6666666666667 10.6666666666667  L 1.33333333333333 10.6666666666667  L 1.33333333333333 1.33333333333333  L 10.6666666666667 1.33333333333333  Z M 5.33333333333333 6.66666666666667  L 5.33333333333333 9.33333333333333  L 6.66666666666667 9.33333333333333  L 6.66666666666667 6.66666666666667  L 9.33333333333333 6.66666666666667  L 9.33333333333333 5.33333333333333  L 6.66666666666667 5.33333333333333  L 6.66666666666667 2.66666666666667  L 5.33333333333333 2.66666666666667  L 5.33333333333333 5.33333333333333  L 2.66666666666667 5.33333333333333  L 2.66666666666667 6.66666666666667  L 5.33333333333333 6.66666666666667  Z " fill-rule="nonzero" fill="#ffffff" stroke="none" transform="matrix(1 0 0 1 167 15 )" />
  </g>
</svg>