<?xml version="1.0" encoding="utf-8"?>
<svg version="1.1" xmlns:xlink="http://www.w3.org/1999/xlink" width="12px" height="12px" viewBox="171 489  12 12" xmlns="http://www.w3.org/2000/svg">
  <path d="M 171.5 491  A 1.5 1.5 0 0 1 173 489.5 L 181 489.5  A 1.5 1.5 0 0 1 182.5 491 L 182.5 499  A 1.5 1.5 0 0 1 181 500.5 L 173 500.5  A 1.5 1.5 0 0 1 171.5 499 L 171.5 491  Z " fill-rule="nonzero" fill="#ffffff" stroke="none" />
  <path d="M 171.5 491  A 1.5 1.5 0 0 1 173 489.5 L 181 489.5  A 1.5 1.5 0 0 1 182.5 491 L 182.5 499  A 1.5 1.5 0 0 1 181 500.5 L 173 500.5  A 1.5 1.5 0 0 1 171.5 499 L 171.5 491  Z " stroke-width="1" stroke="#797979" fill="none" />
</svg>