<?xml version="1.0" encoding="utf-8"?>
<svg version="1.1" xmlns:xlink="http://www.w3.org/1999/xlink" width="12px" height="12px" viewBox="171 514  12 12" xmlns="http://www.w3.org/2000/svg">
  <path d="M 171.5 516  A 1.5 1.5 0 0 1 173 514.5 L 181 514.5  A 1.5 1.5 0 0 1 182.5 516 L 182.5 524  A 1.5 1.5 0 0 1 181 525.5 L 173 525.5  A 1.5 1.5 0 0 1 171.5 524 L 171.5 516  Z " fill-rule="nonzero" fill="#ffffff" stroke="none" />
  <path d="M 171.5 516  A 1.5 1.5 0 0 1 173 514.5 L 181 514.5  A 1.5 1.5 0 0 1 182.5 516 L 182.5 524  A 1.5 1.5 0 0 1 181 525.5 L 173 525.5  A 1.5 1.5 0 0 1 171.5 524 L 171.5 516  Z " stroke-width="1" stroke="#797979" fill="none" />
</svg>