<?xml version="1.0" encoding="utf-8"?>
<svg version="1.1" xmlns:xlink="http://www.w3.org/1999/xlink" width="205px" height="26px" viewBox="939 8  205 26" xmlns="http://www.w3.org/2000/svg">
  <path d="M 940 12  A 3 3 0 0 1 943 9 L 1140 9  A 3 3 0 0 1 1143 12 L 1143 30  A 3 3 0 0 1 1140 33 L 943 33  A 3 3 0 0 1 940 30 L 940 12  Z " fill-rule="nonzero" fill="#f0f0f0" stroke="none" />
  <path d="M 939.5 12  A 3.5 3.5 0 0 1 943 8.5 L 1140 8.5  A 3.5 3.5 0 0 1 1143.5 12 L 1143.5 30  A 3.5 3.5 0 0 1 1140 33.5 L 943 33.5  A 3.5 3.5 0 0 1 939.5 30 L 939.5 12  Z " stroke-width="1" stroke="#aaaaaa" fill="none" stroke-opacity="0.603921568627451" />
</svg>