<?xml version="1.0" encoding="utf-8"?>
<svg version="1.1" xmlns:xlink="http://www.w3.org/1999/xlink" width="10px" height="11px" xmlns="http://www.w3.org/2000/svg">
  <g transform="matrix(1 0 0 1 -492 -213 )">
    <path d="M 3.33333333333333 6.05  L 3.33333333333333 4.95  L 2.22222222222222 4.95  L 2.22222222222222 6.05  L 3.33333333333333 6.05  Z M 5.55555555555556 6.05  L 5.55555555555556 4.95  L 4.44444444444444 4.95  L 4.44444444444444 6.05  L 5.55555555555556 6.05  Z M 7.77777777777778 6.05  L 7.77777777777778 4.95  L 6.66666666666667 4.95  L 6.66666666666667 6.05  L 7.77777777777778 6.05  Z M 10 2.2  C 10 1.595  9.5 1.1  8.88888888888889 1.1  L 8.33333333333333 1.1  L 8.33333333333333 0  L 7.22222222222222 0  L 7.22222222222222 1.1  L 2.77777777777778 1.1  L 2.77777777777778 0  L 1.66666666666667 0  L 1.66666666666667 1.1  L 1.11111111111111 1.1  C 0.494444444444444 1.1  0.00555555555555544 1.595  0.00555555555555544 2.2  L 0 9.9  C 0 10.505  0.494444444444445 11  1.11111111111111 11  L 8.88888888888889 11  C 9.5 11  10 10.505  10 9.9  L 10 2.2  Z M 8.88888888888889 3.85  L 8.88888888888889 9.9  L 1.11111111111111 9.9  L 1.11111111111111 3.85  L 8.88888888888889 3.85  Z " fill-rule="nonzero" fill="#aaaaaa" stroke="none" transform="matrix(1 0 0 1 492 213 )" />
  </g>
</svg>