<?xml version="1.0" encoding="utf-8"?>
<svg version="1.1" xmlns:xlink="http://www.w3.org/1999/xlink" width="205px" height="26px" viewBox="953 8  205 26" xmlns="http://www.w3.org/2000/svg">
  <path d="M 954 12  A 3 3 0 0 1 957 9 L 1154 9  A 3 3 0 0 1 1157 12 L 1157 30  A 3 3 0 0 1 1154 33 L 957 33  A 3 3 0 0 1 954 30 L 954 12  Z " fill-rule="nonzero" fill="#f0f0f0" stroke="none" />
  <path d="M 953.5 12  A 3.5 3.5 0 0 1 957 8.5 L 1154 8.5  A 3.5 3.5 0 0 1 1157.5 12 L 1157.5 30  A 3.5 3.5 0 0 1 1154 33.5 L 957 33.5  A 3.5 3.5 0 0 1 953.5 30 L 953.5 12  Z " stroke-width="1" stroke="#aaaaaa" fill="none" stroke-opacity="0.603921568627451" />
</svg>