<?xml version="1.0" encoding="utf-8"?>
<svg version="1.1" xmlns:xlink="http://www.w3.org/1999/xlink" width="9px" height="12px" xmlns="http://www.w3.org/2000/svg">
  <g transform="matrix(1 0 0 1 -308 -15 )">
    <path d="M 1.92857142857143 4  L 7.07142857142857 4  L 7.07142857142857 10.6666666666667  L 1.92857142857143 10.6666666666667  L 1.92857142857143 4  Z M 6.75 0.666666666666667  L 6.10714285714286 0  L 2.89285714285714 0  L 2.25 0.666666666666667  L 0 0.666666666666667  L 0 2  L 9 2  L 9 0.666666666666667  L 6.75 0.666666666666667  Z M 8.35714285714286 10.6666666666667  L 8.35714285714286 2.66666666666667  L 0.642857142857143 2.66666666666667  L 0.642857142857143 10.6666666666667  C 0.642857142857143 11.4  1.22142857142857 12  1.92857142857143 12  L 7.07142857142857 12  C 7.77857142857143 12  8.35714285714286 11.4  8.35714285714286 10.6666666666667  Z " fill-rule="nonzero" fill="#ffffff" stroke="none" transform="matrix(1 0 0 1 308 15 )" />
  </g>
</svg>