<?xml version="1.0" encoding="utf-8"?>
<svg version="1.1" xmlns:xlink="http://www.w3.org/1999/xlink" width="12px" height="12px" viewBox="246 -691.5  12 12" xmlns="http://www.w3.org/2000/svg">
  <path d="M 252 -691.5  C 255.36 -691.5  258 -688.86  258 -685.5  C 258 -682.14  255.36 -679.5  252 -679.5  C 248.64 -679.5  246 -682.14  246 -685.5  C 246 -688.86  248.64 -691.5  252 -691.5  Z " fill-rule="nonzero" fill="#ffffff" stroke="none" />
  <path d="M 252 -691  C 255.08 -691  257.5 -688.58  257.5 -685.5  C 257.5 -682.42  255.08 -680  252 -680  C 248.92 -680  246.5 -682.42  246.5 -685.5  C 246.5 -688.58  248.92 -691  252 -691  Z " stroke-width="1" stroke="#333333" fill="none" />
  <path d="M 252 -682.5  C 250.32 -682.5  249 -683.82  249 -685.5  C 249 -687.18  250.32 -688.5  252 -688.5  C 253.68 -688.5  255 -687.18  255 -685.5  C 255 -683.82  253.68 -682.5  252 -682.5  " fill-rule="nonzero" fill="#333333" stroke="none" />
</svg>