<?xml version="1.0" encoding="utf-8"?>
<svg version="1.1" xmlns:xlink="http://www.w3.org/1999/xlink" width="12px" height="12px" viewBox="299 -691.5  12 12" xmlns="http://www.w3.org/2000/svg">
  <path d="M 305 -691.5  C 308.36 -691.5  311 -688.86  311 -685.5  C 311 -682.14  308.36 -679.5  305 -679.5  C 301.64 -679.5  299 -682.14  299 -685.5  C 299 -688.86  301.64 -691.5  305 -691.5  Z " fill-rule="nonzero" fill="#f0f0f0" stroke="none" />
  <path d="M 305 -691  C 308.08 -691  310.5 -688.58  310.5 -685.5  C 310.5 -682.42  308.08 -680  305 -680  C 301.92 -680  299.5 -682.42  299.5 -685.5  C 299.5 -688.58  301.92 -691  305 -691  Z " stroke-width="1" stroke="#333333" fill="none" />
  <path d="M 305 -682.5  C 303.32 -682.5  302 -683.82  302 -685.5  C 302 -687.18  303.32 -688.5  305 -688.5  C 306.68 -688.5  308 -687.18  308 -685.5  C 308 -683.82  306.68 -682.5  305 -682.5  " fill-rule="nonzero" fill="#333333" stroke="none" />
</svg>