<?xml version="1.0" encoding="utf-8"?>
<svg version="1.1" xmlns:xlink="http://www.w3.org/1999/xlink" width="12px" height="12px" viewBox="323 238.5  12 12" xmlns="http://www.w3.org/2000/svg">
  <path d="M 329 238.5  C 332.36 238.5  335 241.14  335 244.5  C 335 247.86  332.36 250.5  329 250.5  C 325.64 250.5  323 247.86  323 244.5  C 323 241.14  325.64 238.5  329 238.5  Z " fill-rule="nonzero" fill="#ffffff" stroke="none" />
  <path d="M 329 239  C 332.08 239  334.5 241.42  334.5 244.5  C 334.5 247.58  332.08 250  329 250  C 325.92 250  323.5 247.58  323.5 244.5  C 323.5 241.42  325.92 239  329 239  Z " stroke-width="1" stroke="#333333" fill="none" />
  <path d="M 329 247.5  C 327.32 247.5  326 246.18  326 244.5  C 326 242.82  327.32 241.5  329 241.5  C 330.68 241.5  332 242.82  332 244.5  C 332 246.18  330.68 247.5  329 247.5  " fill-rule="nonzero" fill="#333333" stroke="none" />
</svg>