<?xml version="1.0" encoding="utf-8"?>
<svg version="1.1" xmlns:xlink="http://www.w3.org/1999/xlink" width="12px" height="12px" viewBox="266 238.5  12 12" xmlns="http://www.w3.org/2000/svg">
  <path d="M 272 238.5  C 275.36 238.5  278 241.14  278 244.5  C 278 247.86  275.36 250.5  272 250.5  C 268.64 250.5  266 247.86  266 244.5  C 266 241.14  268.64 238.5  272 238.5  Z " fill-rule="nonzero" fill="#ffffff" stroke="none" />
  <path d="M 272 239  C 275.08 239  277.5 241.42  277.5 244.5  C 277.5 247.58  275.08 250  272 250  C 268.92 250  266.5 247.58  266.5 244.5  C 266.5 241.42  268.92 239  272 239  Z " stroke-width="1" stroke="#333333" fill="none" />
  <path d="M 272 247.5  C 270.32 247.5  269 246.18  269 244.5  C 269 242.82  270.32 241.5  272 241.5  C 273.68 241.5  275 242.82  275 244.5  C 275 246.18  273.68 247.5  272 247.5  " fill-rule="nonzero" fill="#333333" stroke="none" />
</svg>