<?xml version="1.0" encoding="utf-8"?>
<svg version="1.1" xmlns:xlink="http://www.w3.org/1999/xlink" width="12px" height="12px" viewBox="618 138.5  12 12" xmlns="http://www.w3.org/2000/svg">
  <path d="M 624 138.5  C 627.36 138.5  630 141.14  630 144.5  C 630 147.86  627.36 150.5  624 150.5  C 620.64 150.5  618 147.86  618 144.5  C 618 141.14  620.64 138.5  624 138.5  Z " fill-rule="nonzero" fill="#ffffff" stroke="none" />
  <path d="M 624 139  C 627.08 139  629.5 141.42  629.5 144.5  C 629.5 147.58  627.08 150  624 150  C 620.92 150  618.5 147.58  618.5 144.5  C 618.5 141.42  620.92 139  624 139  Z " stroke-width="1" stroke="#333333" fill="none" />
  <path d="M 624 147.5  C 622.32 147.5  621 146.18  621 144.5  C 621 142.82  622.32 141.5  624 141.5  C 625.68 141.5  627 142.82  627 144.5  C 627 146.18  625.68 147.5  624 147.5  " fill-rule="nonzero" fill="#333333" stroke="none" />
</svg>