<?xml version="1.0" encoding="utf-8"?>
<svg version="1.1" xmlns:xlink="http://www.w3.org/1999/xlink" width="12px" height="12px" viewBox="679 138.5  12 12" xmlns="http://www.w3.org/2000/svg">
  <path d="M 685 138.5  C 688.36 138.5  691 141.14  691 144.5  C 691 147.86  688.36 150.5  685 150.5  C 681.64 150.5  679 147.86  679 144.5  C 679 141.14  681.64 138.5  685 138.5  Z " fill-rule="nonzero" fill="#f0f0f0" stroke="none" />
  <path d="M 685 139  C 688.08 139  690.5 141.42  690.5 144.5  C 690.5 147.58  688.08 150  685 150  C 681.92 150  679.5 147.58  679.5 144.5  C 679.5 141.42  681.92 139  685 139  Z " stroke-width="1" stroke="#333333" fill="none" />
  <path d="M 685 147.5  C 683.32 147.5  682 146.18  682 144.5  C 682 142.82  683.32 141.5  685 141.5  C 686.68 141.5  688 142.82  688 144.5  C 688 146.18  686.68 147.5  685 147.5  " fill-rule="nonzero" fill="#333333" stroke="none" />
</svg>