<?xml version="1.0" encoding="utf-8"?>
<svg version="1.1" xmlns:xlink="http://www.w3.org/1999/xlink" width="11px" height="11px" xmlns="http://www.w3.org/2000/svg">
  <g transform="matrix(1 0 0 1 -1218 -57 )">
    <path d="M 11 5.5  C 11 2.4585  8.5415 0  5.5 0  C 2.4585 0  0 2.4585  0 5.5  C 0 8.5415  2.4585 11  5.5 11  C 8.5415 11  11 8.5415  11 5.5  Z M 6.2755 5.5  L 8.25 7.4745  L 7.4745 8.25  L 5.5 6.2755  L 3.5255 8.25  L 2.75 7.4745  L 4.7245 5.5  L 2.75 3.5255  L 3.5255 2.75  L 5.5 4.7245  L 7.4745 2.75  L 8.25 3.5255  L 6.2755 5.5  Z " fill-rule="nonzero" fill="#aaaaaa" stroke="none" transform="matrix(1 0 0 1 1218 57 )" />
  </g>
</svg>