<?xml version="1.0" encoding="utf-8"?>
<svg version="1.1" xmlns:xlink="http://www.w3.org/1999/xlink" width="18px" height="15px" xmlns="http://www.w3.org/2000/svg">
  <g transform="matrix(1 0 0 1 -13 -85 )">
    <path d="M 4 0  L 4 1.66666666666667  L 6 1.66666666666667  L 6 0  L 4 0  Z M 4 6.66666666666667  L 4 8.33333333333333  L 6 8.33333333333333  L 6 6.66666666666667  L 4 6.66666666666667  Z M 4 13.3333333333333  L 4 15  L 6 15  L 6 13.3333333333333  L 4 13.3333333333333  Z M 8 10  L 8 11.6666666666667  L 10 11.6666666666667  L 10 10  L 8 10  Z M 8 13.3333333333333  L 8 15  L 10 15  L 10 13.3333333333333  L 8 13.3333333333333  Z M 0 13.3333333333333  L 0 15  L 2 15  L 2 13.3333333333333  L 0 13.3333333333333  Z M 0 10  L 0 11.6666666666667  L 2 11.6666666666667  L 2 10  L 0 10  Z M 0 6.66666666666667  L 0 8.33333333333333  L 2 8.33333333333333  L 2 6.66666666666667  L 0 6.66666666666667  Z M 0 3.33333333333333  L 0 5  L 2 5  L 2 3.33333333333333  L 0 3.33333333333333  Z M 0 0  L 0 1.66666666666667  L 2 1.66666666666667  L 2 0  L 0 0  Z M 8 6.66666666666667  L 8 8.33333333333333  L 10 8.33333333333333  L 10 6.66666666666667  L 8 6.66666666666667  Z M 16 10  L 16 11.6666666666667  L 18 11.6666666666667  L 18 10  L 16 10  Z M 16 6.66666666666667  L 16 8.33333333333333  L 18 8.33333333333333  L 18 6.66666666666667  L 16 6.66666666666667  Z M 16 13.3333333333333  L 16 15  L 18 15  L 18 13.3333333333333  L 16 13.3333333333333  Z M 16 3.33333333333333  L 16 5  L 18 5  L 18 3.33333333333333  L 16 3.33333333333333  Z M 8 3.33333333333333  L 8 5  L 10 5  L 10 3.33333333333333  L 8 3.33333333333333  Z M 18 0  L 16 0  L 16 1.66666666666667  L 18 1.66666666666667  L 18 0  Z M 8 0  L 8 1.66666666666667  L 10 1.66666666666667  L 10 0  L 8 0  Z M 12 13.3333333333333  L 12 15  L 14 15  L 14 13.3333333333333  L 12 13.3333333333333  Z M 12 6.66666666666667  L 12 8.33333333333333  L 14 8.33333333333333  L 14 6.66666666666667  L 12 6.66666666666667  Z M 12 0  L 12 1.66666666666667  L 14 1.66666666666667  L 14 0  L 12 0  Z " fill-rule="nonzero" fill="#aaaaaa" stroke="none" transform="matrix(1 0 0 1 13 85 )" />
  </g>
</svg>