<?xml version="1.0" encoding="utf-8"?>
<svg version="1.1" xmlns:xlink="http://www.w3.org/1999/xlink" width="112px" height="21px" xmlns="http://www.w3.org/2000/svg">
  <g transform="matrix(1 0 0 1 -43 -14 )">
    <path d="M 72.5517695587347 16.4367139314808  L 72.6203360469505 19.381402554293  L 72.575577367143 19.381402554293  L 71.3670930123413 16.4367139314808  L 69.4662775890283 16.4367139314808  L 69.4662775890283 20.2719997606039  L 70.590958458233 20.2719997606039  L 70.5233442823536 17.3247121187072  L 70.5681029621611 17.3247121187072  L 71.7603980072452 20.2719997606039  L 73.6774027402758 20.2719997606039  L 73.6774027402758 16.4367139314808  L 72.5517695587347 16.4367139314808  Z M 79.594119285889 19.4333829359843  L 79.594119285889 18.688330798409  L 81.3920849768784 18.688330798409  L 81.3920849768784 17.9753332295433  L 79.594119285889 17.9753332295433  L 79.594119285889 17.2761970957953  L 81.5120763312559 17.2761970957953  L 81.5120763312559 16.4375802711757  L 78.4713430413569 16.4375802711757  L 78.4713430413569 20.2728661002988  L 81.5520734493818 20.2728661002988  L 81.5520734493818 19.4333829359843  L 79.594119285889 19.4333829359843  Z M 69.3177168645609 11.18323002188  C 70.4747763532009 10.9553826821332  71.513749112136 9.90971067044317  72.4079703959491 8.07566953643512  L 72.4155888946397 8.06180810131744  L 72.4155888946397 8.04448130742034  C 72.4155888946397 7.94052054403774  72.4936785062187 7.71873758215485  72.8593664433691 7.2422507499846  C 72.9974517321368 7.05858673467534  73.0945875904424 6.84113547126673  73.1469647689405 6.59856035670733  C 73.1555355799675 6.54311461623661  73.1612494539854 6.48593619637618  73.1612494539854 6.42875777651575  C 73.1612494539854 6.20784115432772  73.0898260287607 5.99472158939339  72.9526930523294 5.79026542140761  C 72.5879574275152 5.28345669991743  71.7070685164108 4.89187115784297  70.2528875788361 4.58778592494886  C 69.6157906258319 4.44224085621322  69.0196431032899 4.1884033256207  68.4806343209275 3.83493673011986  C 68.4701588852279 3.82887235225587  68.3711184022497 3.79855046293595  68.2977903523524 3.77515929117486  C 68.3482629061778 3.62008448579581  68.3873077119673 3.46587602011162  68.3873077119673 3.31340023381714  C 68.3873077119673 3.16179078721752  68.3625475912228 3.01018134061789  68.31397966207 2.86117091310283  C 68.2320808011457 2.62725919549198  68.0816154520057 2.48604582523061  67.8673451763316 2.44272884048786  C 67.5892699741235 2.43060008475989  67.3035762732247 2.67664055809871  66.9769331418638 3.19211267653744  C 66.2817451363435 3.91810534082594  65.4608519024278 4.55053331807009  64.5456797472154 5.05387668078085  C 64.2390351749174 5.20548612738048  64.0685712667145 5.40647693658684  64.0447634583063 5.6594481274845  C 64.0114325265348 5.94187486800724  64.1390423796029 6.15845979172099  64.425688392838 6.3066038795412  C 64.648529479539 6.41229732231351  64.9732679862272 6.37677739482445  65.4218070966383 6.19831141768432  C 65.6722652410929 6.11081110850396  66.2122263357915 5.70103243283754  67.0569273781155 4.95338127617767  C 67.4073783178846 4.95338127617767  67.6959289557923 4.96897539068506  67.9387686015563 4.99409924183586  C 67.7254506382185 5.23147631822613  67.0245487586803 5.81798829164297  65.0418344744429 7.22838931486692  C 63.8666810514127 7.94485224251201  63.661933899102 8.1337142959904  63.6143182822855 8.21255120822221  C 63.575273476496 8.27319498686206  63.5467041064062 8.34596752122988  63.5467041064062 8.42826979224111  C 63.5467041064062 8.53656225409798  63.5981289725679 8.65871615107254  63.7543081957259 8.78433540682651  C 63.9647692220546 8.94547459006955  64.1685640620291 9.02604418169106  64.3628357786402 9.02604418169106  C 65.0180266660347 8.98792523511744  66.4617321679097 7.90153525776926  68.7834696438802 5.70363145192211  C 68.7872788932255 5.70016609314269  69.1034465888868 5.33716976099844  69.2101055705557 5.21501586402388  C 69.5215117045353 5.29385277625569  69.8119669671158 5.37788772665663  70.0795667336242 5.46971973431126  C 69.4738960877189 6.31959897496402  68.0606645806064 7.54893500196328  65.8684415823766 9.13433664354794  C 65.2370585033904 9.44361991461117  64.8408965714775 9.7416407696413  64.6666234139292 10.0353299261971  C 64.637101731503 10.0951073651421  64.6132939230948 10.1652808804254  64.6132939230948 10.2380534147932  C 64.6132939230948 10.3550092735986  64.6694803509382 10.4849602278269  64.8437535084865 10.6088468041912  C 65.0732607815418 10.7691196477393  65.2913403065612 10.848822899666  65.4941828341993 10.848822899666  C 66.245557267563 10.7907781401107  67.8797252367038 9.45834768942371  70.4995364739454 6.7744273147629  C 70.5023934109544 6.77269463537319  70.967121831083 6.22863330700424  71.1404426762949 6.02677615810303  C 71.2385308469368 6.12380620392679  71.3109065844978 6.23123232608881  71.3413805792604 6.36378229940162  C 71.3775684480409 6.49719861240929  71.3937577577585 6.6358129635861  71.3937577577585 6.77615999415261  C 71.3937577577585 7.33148373855467  71.1156825555504 7.93185714708919  70.5623890881431 8.5651514640282  C 70.1938442139837 8.95153896793353  69.8100623424431 9.27121831533503  69.4215189092208 9.50772905203045  C 68.996787607218 9.7684973001818  68.7368063394001 9.99114660175954  68.6263381083859 10.191271071271  C 68.5349161240983 10.370603388106  68.4882528196182 10.5248118537902  68.4882528196182 10.6530301286288  C 68.4882528196182 10.7760503652982  68.5301545624167 10.8765457699014  68.6139580480136 10.9519173233537  C 68.8272760113514 11.1468437546961  69.0644017830973 11.2248143272331  69.3177168645609 11.18323002188  Z M 78.1656507813952 5.69583439466841  C 78.4770569153749 5.8578399176063  78.8522679758885 5.85177553974231  79.270333091537 5.66637884504334  L 79.284617776582 5.66118080687421  L 79.276046965555 5.66291348626392  C 79.276046965555 5.66291348626392  79.4141322543228 5.56588344044016  79.5541221677631 5.47058607400611  C 79.579834600844 6.22256892914026  79.5960239105616 6.96415570793615  79.5960239105616 7.68408399436066  C 79.5960239105616 8.61366648694008  79.5760253514987 9.51812512836871  79.5322189840276 10.3879301820031  C 79.5236481730006 10.4944899644703  79.5198389236553 10.5967180484632  79.5198389236553 10.6911490752024  C 79.5198389236553 11.1225862432402  79.6007854722433 11.42233977766  79.7626785694192 11.6051374532744  C 79.9712349710753 11.8009302243117  80.1683636246954 11.8953612510508  80.3607307166339 11.8936285716611  C 80.5207191891372 11.8927622319663  80.6692799136046 11.822588716683  80.800699016018 11.6943704418445  C 81.026397039728 11.4639240830131  81.1368652707422 11.0922643539203  81.1368652707422 10.5646634797536  C 81.1368652707422 10.4234501094922  81.1292467720516 10.2709743231977  81.1140097746703 10.1063697811753  C 81.1025820266344 9.81614598339883  81.0968681526164 9.4912685978282  81.0968681526164 9.12913860537881  C 81.0968681526164 8.11898652117787  81.1387698954149 6.83333841401304  81.2187641316665 5.29645179534025  C 81.2225733810118 5.23927337547982  81.2235256933482 5.18122861592454  81.2235256933482 5.12405019606411  C 81.2235256933482 4.7255339364308  81.1187713363519 4.40672092872416  80.9368796801131 4.14855169965737  C 81.0149692916921 4.02033342481883  81.5339795149915 3.1678551650815  81.5339795149915 3.1678551650815  C 81.7996746568273 2.63332357335596  81.9282368222317 2.24347071067121  81.9282368222317 1.96884102740217  C 81.9282368222317 1.87441000066297  81.9129998248505 1.79470674873631  81.8815735177516 1.72539957314791  C 81.6644463050686 1.33034867229403  81.3406601107166 1.36760127917279  81.1682915778411 1.42564603872808  C 81.037824787764 1.47935909980909  80.8683131918974 1.61277541281676  80.5930949266983 2.21748051982556  C 80.5445269975455 2.36649094734062  80.3540645302796 2.65844742450675  79.6941120812035 3.29087540175091  C 79.2312882857475 3.74916910032921  78.7065641884301 4.1112990927786  78.136129098969 4.36686930276083  C 77.7066362352845 4.57565716922089  77.6390220594051 4.85548489065905  77.6571159937954 5.05560936017056  C 77.6628298678134 5.24707043273352  77.7580611014463 5.51476939844371  78.1656507813952 5.69583439466841  Z M 76.767656271664 18.8200144320269  L 76.767656271664 18.9317722526632  C 76.767656271664 19.381402554293  76.5438628726266 19.4134571230026  76.0772298278253 19.4134571230026  C 75.4029926937043 19.4134571230026  75.3744233236144 19.1934068405094  75.3744233236144 18.6198899625154  L 75.3744233236144 18.0212492333706  C 75.3744233236144 17.475455225612  75.4363236254758 17.2952565690821  76.0772298278253 17.2952565690821  C 76.4600593870297 17.2952565690821  76.7228975918565 17.3203804202329  76.761942397646 17.6643172790903  L 76.761942397646 17.8141940463003  L 77.9209065109586 17.8141940463003  L 77.9209065109586 17.6643172790903  C 77.8970987025504 16.5138181643229  77.3590422325244 16.4063920421609  76.2019827438845 16.4063920421609  C 74.9639767066566 16.4063920421609  74.2173638349745 16.5891897177753  74.2173638349745 17.857511031043  L 74.2173638349745 18.8503363213469  C 74.2173638349745 20.2503412682325  75.0534940662715 20.3023216499238  76.2019827438845 20.3023216499238  C 76.6905189724213 20.3023216499238  77.1561997048863 20.307519688093  77.5380769517543 20.020761249096  C 77.9218588232949 19.7296711116247  77.9256680726403 19.3519470046679  77.9256680726403 18.9309059129684  L 77.9256680726403 18.8200144320269  L 76.767656271664 18.8200144320269  Z M 67.5997454098231 18.8650640961594  L 66.5541064645336 18.8650640961594  L 67.0664505014788 17.2042909011223  L 67.0769259371784 17.2042909011223  L 67.5997454098231 18.8650640961594  Z M 67.9111515438027 16.4367139314808  L 66.2017509000919 16.4367139314808  L 64.9361278051104 20.2719997606039  L 66.1055673541226 20.2719997606039  L 66.3141237557787 19.6109825734295  L 67.8263957458694 19.6109825734295  L 68.0454275832251 20.2719997606039  L 69.1920116361655 20.2719997606039  L 67.9111515438027 16.4367139314808  Z M 47.7411762603509 4.9143959899092  L 46.6803003176802 4.9143959899092  C 46.9231399634442 4.80437084866261  47.1507426118269 4.70041008528001  47.1926443546253 4.68308329138291  C 47.3916776329181 4.75412314636102  47.5621415411211 4.83555907767739  47.7411762603509 4.9143959899092  Z M 45.9298781966529 2.98852284824651  C 45.8746440811458 2.95906729862144  45.8127437792844 2.96079997801115  45.753700414432 2.94693854289347  C 46.1708132177441 2.89582450089703  46.6041153307739 2.87156698944109  47.0593206275393 2.8828294054742  C 47.4716718691698 2.8828294054742  47.7983150005307 2.88889378333819  48.0468685203126 2.89928985967645  C 47.8840231108003 3.00498330244876  47.6154710319555 3.18431561928375  47.1507426118269 3.49359889034698  C 47.0697960632389 3.45547994377336  46.8050532337394 3.33592506588337  46.8050532337394 3.33592506588337  C 46.51174103415 3.24149403914418  46.2174765222243 3.12453818033875  45.9298781966529 2.98852284824651  Z M 52.2208534904433 12.0720945488013  C 52.685581910572 12.2583575831951  53.0969808398662 12.2306347129597  53.4483840919716 11.9880595984003  C 53.822642840149 11.7056328578776  54.1597614072095 11.3495672432922  54.4530736067989 10.9224617737287  C 54.5702080241674 10.7422631171988  54.592111207903 10.603648766022  54.5254493443599 10.5014206820291  C 54.4568828561442 10.3974599186465  54.3064175070042 10.3489448957347  54.0654824859129 10.3558756132935  C 53.6407511839101 10.364539010242  52.9255646193269 10.3480785560398  51.9446829129079 10.3099596094662  C 49.8381680249477 10.2579792277749  48.6115897357558 10.2319890369292  48.262091108323 10.2345880560138  L 48.262091108323 9.67319993374775  C 48.4268411425079 9.67666529252717  49.9219715105447 9.70092280398311  49.9219715105447 9.70092280398311  C 50.4038415527273 9.70092280398311  50.6790598179264 9.59696204060051  50.770481802214 9.38384247566618  C 50.7980988599675 9.30500556343437  50.8104789203398 9.23309936876141  50.8104789203398 9.17418826951127  C 50.8104789203398 9.01997980382707  50.7400078074515 8.91948439922389  50.6685843822268 8.85364258241491  C 50.5514499648583 8.76094423506543  50.1752865920083 8.64225569687029  48.2973266647672 8.62492890297319  C 48.2982789771035 8.33383876550191  48.3116113498121 8.12071920056758  48.3325622212113 7.9777731509165  C 48.7658643342411 7.98990190664447  49.1125060246649 8.04014960894606  49.3429656100566 8.12591723873671  C 49.7743630984137 8.28619008228488  50.1114816654742 8.27319498686206  50.3428935632022 8.08260025399396  C 50.5895424583115 7.88854016234643  50.7561971171691 7.66935621954812  50.8361913534207 7.42938012407328  C 50.8876162195825 7.20413180341098  50.8209543560394 7.02826484535541  50.6400150121369 6.91217532624484  C 50.3905091800187 6.80301652469311  49.6629425550632 6.76576391781435  48.4163657068083 6.79262044835485  C 48.3763685886825 6.62108518877356  48.3087544128031 6.45648064675111  48.2001908064616 6.30400486045663  C 48.0897225754474 6.15412809324671  47.9563988483613 6.05276634894867  47.802124249876 5.99905328786766  C 48.3449422815836 5.9964542687831  48.9648976125339 5.99385524969853  49.6724656784265 5.99385524969853  C 51.1342651146918 5.99385524969853  51.1828330438445 5.98259283366542  51.2104501015981 5.97652845580143  L 51.2294963483247 5.97306309702201  L 51.3913894455006 5.8578399176063  C 51.6294675295829 5.56155174196588  51.6028027841657 5.2955854556454  51.3304414559756 5.06947079528824  C 51.2152116632797 4.98023780671817  50.8914254689278 4.86588096699731  49.4581954027524 4.90140089448637  C 49.3791534788371 4.76451922269928  49.1305999590552 4.53060750508842  48.3078021004668 4.0844425622381  C 48.4611243866158 3.98048179885549  48.8306215731115 3.7301096270424  48.8306215731115 3.7301096270424  C 49.0572719091578 3.53864855447944  49.1344092084005 3.35931623764445  49.1344092084005 3.20424143226541  C 49.1344092084005 3.11760746277991  49.106792150647 3.04396858871723  49.0725089065391 2.97552775282369  C 49.2067849459615 2.98765650855166  49.3505841087472 3.00238428336419  49.3505841087472 3.00238428336419  C 49.9076868254998 3.07602315742687  50.2886117600315 3.04136956963267  50.5133574714052 2.89928985967644  C 50.9695150805068 2.62206115732284  51.2133070386071 2.37861970306859  51.2618749677599 2.15770308088056  C 51.2799689021501 2.08146518773332  51.2609226554235 2.01129167245006  51.2104501015981 1.95411325258963  C 51.1037911199292 1.83542471439449  50.8561899124837 1.77997897392377  50.4295539858082 1.77997897392377  C 50.4295539858082 1.77997897392377  48.114482696192 1.79210772965174  47.8906892971546 1.79210772965174  C 47.9135447932265 1.72193421436849  47.9373526016347 1.64309730213668  47.9373526016347 1.64309730213668  C 48.0002052158325 1.57205744715857  48.033536147604 1.48542347767307  48.033536147604 1.38839343184931  C 48.033536147604 1.30955651961751  48.0125852762048 1.222922550132  47.9668742840609 1.13802126003621  C 47.8421213680018 0.933565092050432  47.6040432839195 0.807079496601601  47.2535923441504 0.752500095825736  C 46.9555185828794 0.7204455271161  46.7050604384248 0.781955645450806  46.5022179107867 0.931832412660722  C 46.4088913018264 1.00373860733369  46.3622279973463 1.13455590125679  46.3622279973463 1.3346803707683  C 46.3622279973463 1.45856694713257  46.3850834934182 1.61450809220647  46.419366737526 1.79384040904145  L 45.8308377136746 1.79384040904145  C 44.8242435741747 1.7331966304016  44.136674067345 1.74445904643472  43.7367028860868 1.82329595866652  C 43.2814975893214 1.92898940143884  42.9443790222609 2.13084655034005  42.7272518095779 2.43146642445474  C 42.5691679617472 2.73208629856943  42.5748818357652 3.00238428336419  42.7424888069591 3.24236037883903  C 42.9824715157141 3.52825247814118  43.4805308676142 3.53691587508973  44.2709501067674 3.27528128724352  C 44.5014096921591 3.19384535592715  44.7461539625957 3.13060255820273  44.9947074823776 3.07515681773201  C 44.9889936083596 3.07688949712172  44.9851843590143 3.07862217651143  44.9804227973327 3.08035485590114  C 44.7366308392324 3.21723652768823  44.6128302355096 3.38617276818496  44.6128302355096 3.58283187891705  C 44.6128302355096 3.59236161556045  44.6128302355096 3.60189135220386  44.613782547846 3.61228742854212  C 44.6271149205545 3.85572888279637  44.7813895190399 4.01080368817542  45.0604170335843 4.05758603169759  C 45.3023043670119 4.08877426071237  45.5746656952021 4.15548241721621  45.8670255824551 4.24471540578627  C 45.5984735036103 4.38679511574249  44.7318692775508 4.84595515401565  44.6871105977433 4.86934632577673  C 43.922403791671 4.78444503568094  43.3453025158555 4.79137575323978  42.9729483923508 4.89013847845325  C 42.6948731901427 4.96377735251593  42.4825075391413 5.10499072277729  42.3396606886919 5.30684787167851  C 42.2634757017856 5.41773935261995  42.1701490928253 5.70449779161696  42.2291924576777 6.91044264685513  C 42.2291924576777 8.17356592195373  42.0930117935826 9.00005399084541  41.8254120270742 9.36651568176908  C 41.394014538717 9.73644273147216  40.8092947642109 10.1184985369032  40.0998220736457 10.484093888132  C 39.6027150340819 10.7543918729268  39.4389173122333 11.0732048806334  39.6084289080998 11.440532911252  C 39.7179448267777 11.6805090067268  39.8912656719896 11.8260540754624  40.1264868190629 11.8702373999001  C 40.5226487509759 11.9334801976245  41.0721329690378 11.7532815410946  41.8082704050202 11.3166463348877  C 42.698682439488 10.6850846973384  43.2472143452136 9.8897848574615  43.4443429988337 8.94547459006954  C 43.5519542928389 8.35376457848357  43.607188408346 7.61304413938254  43.607188408346 6.74410542544297  C 43.607188408346 6.2217025894454  43.8633604268186 6.13853397873932  44.0547752064207 6.12380620392678  L 44.0709645161383 6.12293986423193  L 44.0871538258559 6.1177418260628  C 44.1700049991166 6.07962287948918  44.7232984665238 6.02504347871331  47.2107382890156 6.00251864664708  C 46.9678986432517 6.08048921918403  46.7126789371154 6.26675225357786  46.7126789371154 6.71811523459732  C 46.7126789371154 6.74757078422239  46.7164881864608 6.77702633384746  46.7183928111334 6.80648188347253  L 45.8308377136746 6.80648188347253  C 45.8051252805937 6.75103614300181  45.7698897241496 6.69818942161566  45.7070371099518 6.66007047504204  C 45.4489604668066 6.44435189102314  45.1727898892712 6.30400486045663  44.900428561081 6.25289081846018  C 44.6985383457792 6.23296500547852  44.5471206843029 6.26675225357786  44.440461702634 6.35251988336851  C 44.3357073456378 6.4374211734643  44.2804732301307 6.5682384673874  44.2728547314401 6.74150640635841  C 44.3461827813374 7.12529489117917  44.298567164521 7.55153402104784  44.1319125056634 8.02282281504896  C 43.9766855948417 8.24720479601641  44.0576321434297 8.40227960139545  44.1538156893989 8.49064625027067  C 44.3318980962925 8.6266615823629  44.5518822459845 8.57034950219733  44.8185297001567 8.32950706702763  C 45.1146988367551 8.12245187995729  45.8108391546117 7.99596628450846  46.8602873492464 7.96477805549368  C 46.8831428453184 8.09992704789106  46.8955229056906 8.31997733038423  46.8974275303633 8.62406256327834  C 45.5270500783856 8.57208218158704  44.7261554035328 8.6517854335137  44.4642695110423 8.86837035722745  C 44.2319053009779 9.06936116643381  44.1747665607982 9.3006738649601  44.2976148521847 9.53891728104523  C 44.460460261697 9.82134402156796  44.8566221936099 9.90971067044317  45.4794344615692 9.80661624675542  C 45.8727394564731 9.75203684597956  46.344134062956 9.71998227726992  46.8669535356008 9.7069871818471  L 46.8669535356008 10.2397860941829  C 46.6974419397342 10.2406524338778  44.9270933064983 10.2536475293006  44.9270933064983 10.2536475293006  C 43.8814543612088 10.2839694186205  43.1215091168181 10.4520393194224  42.6672561323891 10.7561245523165  C 42.39203786719 10.980506533284  42.2549048907586 11.201423155472  42.2549048907586 11.4128100410166  C 42.2549048907586 11.5159044647044  42.2872835101938 11.6163998693075  42.3520407490642 11.7160289342159  C 42.5815480221195 12.0253122052791  43.0177070721583 12.1024164381212  43.6471855264718 11.9447426136576  C 45.8298854013383 11.3253097318362  48.0763902027388 11.18323002188  50.3267042534846 11.5228351822632  C 50.9076147786454 11.607736472359  51.5447117316496 11.793133167058  52.2208534904433 12.0720945488013  Z M 63.6143182822855 17.7665453630832  C 63.6152705946218 18.2005815502056  63.6314599043394 18.3643197525332  63.1486375498206 18.3643197525332  L 62.2782240744157 18.3643197525332  L 62.2782240744157 17.325578458402  L 63.1486375498206 17.325578458402  C 63.5190870486526 17.325578458402  63.6143182822855 17.4252075233104  63.6143182822855 17.7665453630832  Z M 63.974292345418 18.7784301266739  C 64.7732823955981 18.610360225872  64.7732823955981 18.2378341570844  64.7732823955981 17.5967427828917  C 64.7732823955981 16.6403037597717  64.2952216027609 16.4523080459882  63.3219583950325 16.4367139314808  L 61.1525908928746 16.4367139314808  L 61.1525908928746 20.2719997606039  L 62.2782240744157 20.2719997606039  L 62.2782240744157 19.2549169588441  L 63.1486375498206 19.2549169588441  C 63.4857561168811 19.2549169588441  63.6209844686398 19.4489770504917  63.6095567206039 19.7348691497938  L 63.6095567206039 20.2719997606039  L 64.732332965136 20.2719997606039  L 64.732332965136 19.4992247527932  C 64.732332965136 19.0625895465863  64.4342592038649 18.8338758671446  63.974292345418 18.8200144320269  L 63.974292345418 18.7784301266739  Z M 56.2986549146049 19.0417973939098  C 56.2967502899322 18.1667943021062  55.9882010929615 18.0212492333706  54.739719620034 17.9398133020542  L 54.2730865752327 17.9077587333446  C 53.9769174386343 17.8886992600578  53.8150243414584 17.8783031837195  53.8150243414584 17.5716189317409  C 53.8150243414584 17.355900347722  53.8635922706112 17.2432761873908  54.4702152288529 17.2432761873908  C 54.9197066516002 17.2432761873908  55.0996936831664 17.2432761873908  55.0996936831664 17.6383270882447  L 56.1786635602274 17.6383270882447  L 56.1786635602274 17.4797869240862  C 56.1786635602274 16.4219861566683  55.3930058827558 16.4063920421609  54.4702152288529 16.4063920421609  C 53.36838985572 16.4063920421609  52.688438847581 16.477431897139  52.688438847581 17.5776833096048  C 52.688438847581 18.6770683823758  53.296014118159 18.6710040045119  54.3349868770941 18.7385785007106  L 54.583540396876 18.7524399358282  C 55.1120737435387 18.7827618251482  55.1739740454001 18.777563786979  55.1739740454001 19.1102382298034  C 55.1739740454001 19.4333829359843  55.0006532001882 19.4637048253042  54.4711675411892 19.4637048253042  C 53.9197786984546 19.4637048253042  53.7626471629603 19.4221205199512  53.7626471629603 19.0244706000127  L 52.6836772858993 19.0244706000127  C 52.6836772858993 20.2815294972473  53.3969592258099 20.301455310229  54.4711675411892 20.301455310229  C 56.3262719723584 20.301455310229  56.2986549146049 19.6776907299334  56.2986549146049 19.0417973939098  Z M 60.7545243362891 11.7428854647564  C 61.6811242395373 11.207487533336  62.3248873788958 10.6166438614449  62.666767507638 9.98508222389555  L 62.669624444647 9.9842158842007  C 63.0019814500259 9.33792647183886  63.1829207939284 8.52096813959059  63.207680914673 7.55240036074269  C 63.5390856077155 7.43977620041154  63.7762113794615 7.30635988740387  63.9114397312202 7.14608704385569  C 63.9704830960726 7.06725013162389  63.9990524661625 6.98754687969723  63.9990524661625 6.90697728807571  C 63.9990524661625 6.81254626133651  63.9590553480367 6.72071425368188  63.879061111785 6.62974858572211  C 63.74288044769 6.50499566966299  63.5305147966886 6.45648064675111  63.2305364107449 6.47120842156364  C 63.2362502847628 6.3161336161846  63.2638673425164 5.5208337763077  63.2695812165344 5.38135308543604  C 63.6105090329402 5.44719490224502  63.8866796104757 5.4168730129251  64.0819036394231 5.26872892510489  C 64.3190294111691 5.08159955101621  64.4780655713361 4.86068292882818  64.5532982459061 4.61550879518422  C 64.6028184873952 4.40325556994474  64.5332996868432 4.23518566914287  64.350455718268 4.12429418820143  C 64.0771420777415 3.98741251641434  63.722881888627 3.95795696678927  63.3029121483059 4.01600172634455  C 63.3029121483059 3.9978085927526  63.3019598359695 3.98134813855035  63.3019598359695 3.96142232556869  C 63.3019598359695 3.70065407741733  63.3371953924137 3.46587602011162  63.4076665053021 3.26921690937953  C 63.4638529331455 3.11414210400049  63.4924223032354 2.95300292075746  63.4924223032354 2.78320034056588  C 63.4924223032354 2.57441247410582  63.4486159357642 2.35782755039207  63.361003200822 2.13171289003491  C 63.2181563503726 1.74359270673987  63.0029337623622 1.52787412272097  62.7220016231451 1.49581955401133  C 62.3696460587033 1.45510158835315  62.0934754811678 1.58678522197111  61.9011083892293 1.88220705791667  C 61.8782528931574 1.91339528693145  61.839208087368 1.9662420083176  61.839208087368 2.63418991305081  C 61.839208087368 2.94867122228318  61.8477788983949 3.40523224147177  61.8715867068031 4.05585335230788  C 61.3030562420146 4.05671969200274  61.0259333521428 4.06624942864614  60.8878480633751 4.08011086376382  C 60.9059419977654 3.9804817988555  60.9278451815009 3.8765210354729  60.9278451815009 3.80114948202051  C 60.9278451815009 3.72577792856812  60.9173697458013 3.66253513084371  60.8992758114111 3.6088220697627  C 60.7964260790875 3.4104302796409  60.6212006092029 3.24149403914417  60.3745517140937 3.09508263071368  C 60.0945718872129 2.94087416502949  59.8564938031306 2.89582450089703  59.6679359605374 2.96166631770601  C 59.4889012413076 3.01624571848187  59.2965341493691 3.16525614599693  59.4146208790739 3.55770802776625  C 59.5327076087787 4.28803239052902  59.4012885063653 5.01575773420723  59.0222681965063 5.71056216948095  C 58.7213374982263 6.21303919249685  58.6680080073918 6.51885710478067  58.862279724003 6.6704665513803  C 59.0175066348246 6.78828874988058  59.2555847189069 6.76403123842464  59.5879417242858 6.59682767731762  C 59.9088709816287 6.44261921163343  60.2012308688818 6.03543955505157  60.4812106957626 5.36142727245438  C 60.8564217562763 5.2877883983917  61.3363871737862 5.24620409303866  61.905869950911 5.23407533731069  C 61.90872688792 5.74088405880087  61.9230115729649 6.21477187188656  61.9496763183821 6.64620903992436  C 61.836351150359 6.66960021168544  61.5068510819891 6.74323908574812  61.5068510819891 6.74323908574812  C 61.1106891500762 6.85153154760499  60.7935691420785 6.91044264685513  60.5678711183685 6.92170506288825  C 60.1936123701912 6.92950212014194  59.857446115467 7.22319127669779  59.5441353568147 7.8123022691992  C 59.3641483252485 8.14584305171837  59.2765355903062 8.39968058231089  59.2765355903062 8.58680995639957  C 59.2765355903062 8.64485471595486  59.2851064013332 8.6959687579513  59.3022480233871 8.73928574269405  C 59.3327220181496 8.82158801370528  59.3936700076747 8.8848308114297  59.4793781179443 8.92121707861361  C 59.7022192046453 9.01997980382708  59.9860082808714 8.95067262823868  60.3193175985866 8.71676091062782  C 60.9440344912185 8.35029921970416  61.4659016515269 8.09299633033222  61.8868237041844 7.94485224251201  C 61.8106387172781 8.5824782579253  61.5973207539404 9.08582162063606  61.2402036278169 9.43668919705233  C 60.9649853626178 9.67839797191688  60.5802511787408 9.9322355025094  60.0993334488946 10.1860730331019  C 59.5060428633615 10.4355788652202  59.1641627346193 10.7058768500149  59.0584560652868 11.0142937813833  C 59.0346482568786 11.0784029188026  59.0251251335153 11.1451110753064  59.0251251335153 11.2118192318102  C 59.0251251335153 11.3487009035973  59.0727407503318 11.4907806135536  59.1641627346193 11.6328603235098  C 59.3117711467504 11.8277867548522  59.4993766770072 11.9525396709113  59.7231700760446 12.001921033518  C 60.0364808346969 12.0435053388711  60.381217900448 11.9568713693856  60.7545243362891 11.7428854647564  Z M 59.3593867635668 16.4375802711756  L 59.3593867635668 18.9283068938838  C 59.3593867635668 19.3779371955135  59.1965413540545 19.4134571230026  58.7194328735536 19.4134571230026  C 58.2470859547343 19.4134571230026  57.9775815635532 19.4082590848335  57.9775815635532 18.9733565580163  L 57.9775815635532 16.4375802711756  L 56.8529006943484 16.4375802711756  L 56.8529006943484 18.9950150503876  C 56.8529006943484 19.9133351269339  57.033840038251 20.3023216499238  58.7194328735536 20.3023216499238  C 59.9555342861089 20.3023216499238  60.4840676327715 20.0164295506217  60.4840676327715 18.9950150503876  L 60.4840676327715 16.4375802711756  L 59.3593867635668 16.4375802711756  Z M 83.2776634028102 11.0480810294826  C 83.6433513399606 11.0472146897878  84.072844203645 10.7864464416364  84.5623327445182 10.263177265944  C 84.931829931014 9.67753163222203  85.143243269679 9.13953468171707  85.1975250728498 8.65091909381884  C 85.2289513799487 8.35376457848358  85.160384891733 8.17703128073316  84.9794455478305 8.12245187995729  C 84.8242186370088 8.06787247918142  84.6318515450703 8.18829369676627  84.4061535213603 8.48284919301697  C 83.9957069044024 8.86143963966861  83.4586027467127 9.22530231150771  82.7976979853003 9.57270452914457  C 82.2291675205118 9.89931459410491  82.0948914810894 10.2397860941829  82.3910606176878 10.6001834072426  C 82.6253294524248 10.890407205019  82.9224509013594 11.040283972229  83.2776634028102 11.0480810294826  Z M 107.598768160321 17.9190211493777  L 107.598768160321 18.7212517068135  C 107.598768160321 19.1258323443107  107.446398186508 19.3779371955135  107.027380758523 19.3779371955135  L 106.041737490423 19.3779371955135  L 106.041737490423 17.3186477408432  L 107.027380758523 17.3186477408432  C 107.4225903781 17.3186477408432  107.598768160321 17.4217421645309  107.598768160321 17.9190211493777  Z M 108.761541522979 17.9190211493777  C 108.761541522979 16.8265667941655  108.236817425661 16.4280505345322  107.05690244095 16.4280505345322  L 104.916104308882 16.4280505345322  L 104.916104308882 20.2702670812142  L 107.209272414762 20.2702670812142  C 108.39013971181 20.2702670812142  108.761541522979 19.7721217566726  108.761541522979 18.7212517068135  L 108.761541522979 17.9190211493777  Z M 101.275414247095 16.4289168742271  L 101.275414247095 17.3186477408432  L 102.356288748829 17.3186477408432  L 102.356288748829 20.2702670812142  L 103.483826555042 20.2702670812142  L 103.483826555042 17.3186477408432  L 104.622792109292 17.3186477408432  L 104.622792109292 16.4289168742271  L 101.275414247095 16.4289168742271  Z M 109.499583583634 19.3788035352084  L 109.499583583634 20.2702670812142  L 110.411898801837 20.2702670812142  L 110.411898801837 19.3788035352084  L 109.499583583634 19.3788035352084  Z M 107.513060050051 7.10710175758722  C 107.500679989679 7.10623541789236  107.52639242276 7.21366154005439  107.461635183889 7.60957878060312  C 107.461635183889 7.60957878060312  107.456873622208 7.61824217755167  107.454968997535 7.6234402157208  C 107.314026771758 7.62430655541566  106.739782432952 7.63556897144877  106.739782432952 7.63556897144877  C 106.739782432952 7.63556897144877  106.62360032792 7.62517289511051  106.615981829229 7.62517289511051  C 106.616934141565 7.61564315846711  106.579793960449 7.55153402104784  106.560747713722 7.35920660879003  C 106.560747713722 7.36873634543343  106.57693702344 7.13395828812773  106.578841648112 7.07071549040331  C 106.625504952592 7.06725013162389  106.758828679679 7.04645797894737  106.758828679679 7.04645797894737  C 107.310217522413 7.00400733389947  107.468301370244 7.07331450948787  107.513060050051 7.10710175758722  Z M 103.231463785915 7.15475044080425  C 103.231463785915 7.15388410110939  103.231463785915 7.15734945988881  103.231463785915 7.16428017744765  L 103.231463785915 7.20239912402127  C 103.231463785915 7.26477558205083  103.225749911897 7.38952849810995  103.186705106108 7.62170753633109  C 103.186705106108 7.62170753633109  103.18099123209 7.62950459358479  103.178134295081 7.63470263175392  L 102.570559024503 7.63470263175392  C 102.570559024503 7.63470263175392  102.461043105825 7.62517289511051  102.456281544143 7.62517289511051  C 102.456281544143 7.61650949816196  102.423902924708 7.55759839891182  102.401047428636 7.38692947902539  C 102.402952053309 7.39472653627908  102.41818905069 7.14175534538142  102.420093675363 7.11749783392548  C 102.442949171435 7.11403247514606  102.570559024503 7.10103737972323  102.570559024503 7.10103737972323  C 103.101949308174 7.10103737972323  103.214322163861 7.14435436446599  103.231463785915 7.15475044080425  Z M 99.6402939656179 5.69843341375298  C 99.640293965618 5.8846964481468  99.5831552254382 6.05883072681266  99.4650684957334 6.22863330700424  C 99.2669875297769 6.57083748647197  99.0098631989681 6.79868482621884  98.6746492565802 6.92950212014194  C 98.6308428891091 6.94596257434419  98.6051304560281 6.96588838732585  98.567037962575 6.98321518122295  C 98.5622764008933 6.56737212769255  98.5479917158484 5.4341998068222  98.5451347788394 5.10585706247215  C 98.645127574154 5.10585706247215  98.7603573668498 5.0703371349831  98.8955857186086 4.99756460061528  C 99.0289094456946 4.92479206624746  99.1393776767088 4.90573259296065  99.2336565980054 4.93605448228057  C 99.3707895744368 4.98110414641303  99.4945901781596 5.1491740472149  99.5983922228195 5.42120471139938  C 99.626009280573 5.51390305874886  99.6402939656179 5.60920042518291  99.6402939656179 5.69843341375298  Z M 98.5413255294941 3.1756522223352  C 98.5413255294941 2.94520586350376  98.5879888339742 2.73901701612827  98.6498891358357 2.54149156570133  C 98.9565337081336 2.53109548936307  99.2022302909066 2.55881835959843  99.3717418867732 2.62985821457654  C 99.4793531807784 2.64285330999937  99.5117318002135 2.66191278328618  99.5269687975948 2.67577421840386  C 99.5183979865678 2.86636895127196  99.4079297555537 3.12193916125418  99.1812794195073 3.4450838674351  C 99.0089108866318 3.6685995087077  98.8413039154378 3.834070390425  98.6917908786341 3.93110043624876  C 98.6194151410731 3.98308081794006  98.5975119573375 4.03679387902107  98.5403732171578 4.08877426071237  L 98.5403732171578 3.1756522223352  Z M 110.757588179925 10.1878057124916  C 110.678546256009 10.042260643756  110.490940725753 9.96255739182932  110.185248465791 9.94263157884766  C 109.664333617819 9.96775542999846  108.897722187074 9.78409141468919  107.891128047574 9.39683757108901  C 107.860654052811 9.36391666268451  107.667334648537 9.15686147561417  107.625432905738 9.11094547178685  C 107.621623656393 9.05290071223157  107.616862094711 8.98532621603288  107.608291283684 8.88223179234513  C 107.821609247022 8.91601904044448  108.056830394095 8.90302394502165  108.324430160604 8.81985533431557  C 108.57964986674 8.73668672360949  108.724401341862 8.52703251745458  108.75868458597 8.19955611279939  C 108.824394137176 7.61304413938255  108.908197622773 7.19720108585214  109.00247654407 6.96588838732585  C 109.052949097895 6.82467501706449  109.051044473223 6.65660511626262  108.992953420707 6.44608457041285  C 108.942480866881 6.24596010090134  108.820584887831 6.09521699399657  108.630122420565 6.00338498634194  C 108.59774380113 5.99125623061397  107.728282638062 5.96006800159919  107.728282638062 5.96006800159919  C 107.724473388716 5.96006800159919  105.916032262027 5.93321147105869  105.916032262027 5.93321147105869  C 105.651289432528 5.93321147105869  105.443685343208 6.02417713901846  105.295124618741 6.20697481463287  C 105.214178070153 6.28494538716982  105.135136146237 6.47467378034307  105.309409303786 7.58445492945233  C 105.338930986212 8.0470803265049  105.378928104338 8.35203189909387  105.433209907508 8.50017598691407  C 105.468445463953 8.63879033809087  105.553201261886 8.75921155567572  105.684620364299 8.84411284577151  C 105.805564031013 8.90648930380107  105.959838629498 8.91255368166506  106.183632028536 8.86750401753259  C 106.189345902554 8.86490499844803  106.235056894697 8.85884062058405  106.27600632516 8.85104356333035  C 106.267435514133 9.25735688021735  106.036975928741 9.61775419327703  105.554153574222 9.91404236891744  C 105.552248949549 9.91404236891744  104.809445327213 10.2380534147932  104.809445327213 10.2380534147932  C 104.636124482001 10.3376824797015  104.529465500332 10.4624353957607  104.478992946506 10.603648766022  C 104.37423858951 10.4165193919333  104.108543447674 10.0691171742965  103.373358324028 9.30500556343437  C 103.369549074683 9.30240654434981  103.309553397494 9.26948563594532  103.251462344978 9.23569838784598  C 103.285745589086 9.14386638019134  103.327647331885 9.05549973131613  103.327647331885 8.95327164732324  C 103.327647331885 8.92988047556216  103.318124208521 8.90389028471651  103.316219583849 8.88049911295542  C 103.533346796532 8.91688538013933  103.77237719295 8.90562296410622  104.046643145813 8.82072167401042  C 104.300910539613 8.73755306330434  104.444709702399 8.52789885714943  104.480897571179 8.20042245249424  C 104.549464059395 7.63903433022819  104.629458295647 7.24311708967946  104.723737216943 7.02220046749143  C 104.776114395441 6.8783880781455  104.772305146096 6.71205085673334  104.713261781244 6.50239665057842  C 104.663741539754 6.30140584137206  104.541845560704 6.14979639477244  104.351383093438 6.05883072681266  C 104.317099849331 6.04670197108469  103.447638686262 6.0137810626802  103.447638686262 6.0137810626802  C 103.445734061589 6.0137810626802  101.755379664605 5.9869245321397  101.755379664605 5.9869245321397  C 101.489684522769 5.9869245321397  101.283032745786 6.07875653979433  101.133519708982 6.26068787571388  C 101.13161508431 6.2641532344933  101.127805834964 6.27021761235728  101.124948897955 6.27454931083156  C 101.163993703745 6.10128137186056  101.183992262808 5.919350035941  101.16780295309 5.71576020765008  C 101.15732751739 5.25919918846149  100.888775438546 4.75758850514044  100.369765215246 4.23605200883772  C 100.298341790022 4.1710765317236  100.141210254527 4.02899682176738  100.463091824206 3.6703321880974  C 100.990672858533 3.3411231040525  101.284937370459 2.99718624519506  101.326839113257 2.6480513481685  C 101.35731310802 2.40374355421938  101.26112956205 2.1646337984394  101.037336163013 1.94111815716681  C 100.766879459495 1.69421134413313  100.345957406838 1.56599306929459  99.7793315667221 1.55559699295633  C 99.4431653119979 1.54779993570264  99.113665243628 1.48282445858851  98.7974975479667 1.36413592039337  C 98.4013356160538 1.26364051579019  98.0194583691858 1.24371470280853  97.6413903716631 1.29916044327925  C 97.3290319253471 1.34074474863229  97.0804784055652 1.45336890896344  96.9071575603533 1.63096854640872  C 96.7157427807511 1.78864237087233  96.6176546101092 1.96017763045362  96.6176546101092 2.13950994728861  C 96.6176546101092 2.18282693203136  96.6243207964636 2.23047561524838  96.6376531691722 2.27552527938084  C 96.6728887256163 2.40807525269366  96.7947847046665 2.51376869546597  96.9709624868874 2.60906606190002  C 97.0357197257578 2.89669084059188  97.0661937205203 3.56463874532509  97.0661937205203 4.62850389060704  C 97.0661937205203 5.83791410462463  97.0242919777218 7.54980134165813  96.9442977414702 9.74770514750528  C 96.9385838674522 9.81441330400912  96.9366792427795 9.8802551208181  96.9366792427795 9.94523059793223  C 96.9366792427795 10.322954704889  97.0147688543585 10.6564954874082  97.1690434528439 10.9380558882361  C 97.351887421419 11.2845917661781  97.5794900698017 11.4665231020976  97.8394713376196 11.4777855181307  C 98.0880248574015 11.4777855181307  98.286105823358 11.3409038463436  98.4327619231527 11.0740712203283  C 98.5632287132298 10.8254317279049  98.6289382644365 10.5386732889079  98.6289382644365 10.2129295636424  C 98.6289382644365 10.1895383918813  98.5908457709833 8.50104232660893  98.5775133982747 7.80883691041978  C 98.8432085401105 7.89287186082071  99.1955641045523 7.83829246004485  99.3431725166834 7.81403494858891  C 99.9650324723063 7.67022255924298  100.431665517108 7.38519679963568  100.740214714078 6.96935374610527  C 100.878300002846 6.84546716974101  100.978292798161 6.68952602466711  101.051620848058 6.51539174600125  C 101.033526913668 6.7051201391745  101.051620848058 7.02653216596571  101.147804394027 7.61304413938255  C 101.17827838879 8.05834274253802  101.219227819252 8.35289823878872  101.274461934759 8.50017598691407  C 101.309697491203 8.63879033809087  101.3935009768 8.75921155567572  101.52587239155 8.84411284577151  C 101.623960562192 8.89522688776796  101.750618102923 8.89955858624223  101.911558887763 8.87963277326057  C 101.815375341794 9.23483204815112  101.628722123873 9.53112022379153  101.290651244476 9.74077442994644  C 101.330648362602 9.72258129635449  101.031622288995 9.86552734600556  101.031622288995 9.86552734600556  C 100.796401141922 9.9842158842007  100.505945879341 10.0933746857524  100.18977818368 10.1808749949328  C 99.8955136717543 10.3004298728228  99.7507621966322 10.5100840789777  99.7507621966322 10.7925108195004  C 99.7507621966322 10.9475856248795  99.8221856218569 11.1728339455418  100.17168424929 11.350433582987  C 100.57641699223 11.5748155639545  100.976388173488 11.5886769990722  101.355408483347 11.3911515486452  C 101.8915603287 11.1078584684276  102.295340759304 10.7578572317062  102.585796021884 10.3593409720729  C 102.74768911906 10.4260491285768  103.068618376403 10.5819902736507  103.731427762488 10.9553826821332  C 103.875226925274 11.0558780867363  104.048547770486 11.1130565065968  104.230439426725 11.1130565065968  C 104.36662009082 11.1130565065968  104.443757390062 11.0593434455158  104.481849883516 11.0168928004679  C 104.487563757534 11.0125611019936  104.48851606987 11.0047640447399  104.492325319215 11.0012986859605  C 104.544702497713 11.1225862432402  104.652313791718 11.2482054989942  104.878011815429 11.3409038463436  C 105.260841374633 11.5254342013478  105.63510012281 11.5150381250095  105.983646437907 11.3045175791597  C 106.458850293735 11.0515463882621  106.824538230885 10.6824856782538  107.102613433093 10.2380534147932  C 107.472110619589 10.3680043690215  107.89208035991 10.7093422087943  108.367284215739 11.3079829379391  C 108.763446147652 11.7359547471975  109.411018536355 11.6423900601532  110.298573633814 11.0411503119238  C 110.304287507832 11.0376849531444  110.646167636574 10.6998124721509  110.646167636574 10.6998124721509  C 110.797585298051 10.4936236247754  110.832820854495 10.3272864033633  110.757588179925 10.1878057124916  Z M 111.145179300811 4.58345422647458  C 111.144226988474 4.57652350891574  111.144226988474 4.56699377227234  111.140417739129 4.55659769593408  C 111.129942303429 4.45003791346691  111.048043442505 4.3616712645917  110.896625781029 4.29842846686729  C 109.62243187502 3.86612495913464  108.397758210501 3.32812800862968  107.240698721861 2.69570003138552  C 106.435042485327 2.24953508853519  105.854131960166 1.99223219916326  105.438923781526 1.88653875639094  C 105.332264799857 1.59891397769908  105.23036737987 1.44383917232004  105.107519088484 1.40138852727214  C 104.835157760294 1.34594278680142  104.508514628933 1.54693359600778  103.996170591988 2.07540080986934  C 103.405736943463 2.53369450844763  102.518181846005 2.96166631770601  101.374454730073 3.33245970710395  C 101.020194540959 3.43642047048655  100.790687267904 3.63741127969292  100.695456034271 3.92676873777449  C 100.635460357082 4.14941803935222  100.647840417454 4.46216666919488  101.047811598712 4.74459340971761  C 101.212561632897 4.88320776089442  101.55444176164 4.89620285631724  102.119162977083 4.77144994025812  C 102.218203460061 4.7506577875816  102.332480940421 4.71167250131312  102.456281544143 4.65969211962182  C 102.228678895761 4.90140089448637  102.269628326223 5.13011457392809  102.354384124156 5.2877883983917  C 102.518181846005 5.57974487555784  102.911486840909 5.67330956260218  103.520014423823 5.57108147860929  C 104.099020324311 5.48358116942894  105.137993083246 5.4515266007193  106.608363330539 5.47838313125981  C 107.085471811039 5.47838313125981  107.361642388575 5.36922432970808  107.457825934544 5.14397600904577  C 107.557818729859 4.85288587157449  107.454016685199 4.67875159290863  107.34735770353 4.58258788677973  C 107.129278178511 4.40585458902931  106.715974624544 4.33221571496663  106.071259172849 4.34954250886373  L 106.076973046867 4.34954250886373  L 103.835229807148 4.33741375313576  C 103.438115562899 4.33134937527178  103.132423302937 4.36253760428656  102.894345218855 4.42837942109554  C 103.249557720305 4.21525985616121  103.669527460627 3.90684292479282  104.163777563181 3.49533156973669  C 104.4132833953 3.27008324907439  104.699929408535 3.08468655437542  105.01514479186 2.93134442838608  C 105.695095799999 2.95300292075746  106.493133537843 3.49359889034699  107.389259446328 4.55659769593408  C 108.253959047715 5.67850760077131  109.442444843454 5.79546345957674  110.915672027755 4.90140089448637  C 110.980429266626 4.85635123035391  111.145179300811 4.74286073032791  111.145179300811 4.58345422647458  Z M 88.5563306830828 10.3186230064147  C 88.9639203630317 10.7873127813313  89.3705577306442 11.0151601210782  89.7819566599384 10.9909026096222  C 90.2790636995023 10.9986996668759  90.6657025080519 10.8557536172248  90.935206899233 10.5568664224999  C 91.1447156132254 10.3368161400067  91.013296510812 10.0552557391788  90.5419019043291 9.71565057879565  C 89.728627169104 9.18804970462895  89.0877209667544 8.72715698696608  88.6191832972805 8.33123974641734  C 88.4011037722611 8.11725384178816  88.1820719349054 8.0722041776557  87.9535169741864 8.19695709371482  C 87.7992423757011 8.28705642197974  87.7792438166382 8.49930964721922  87.8906643599886 8.83025141065383  C 88.1354086304252 9.56664015128059  88.3553927801173 10.0613201170428  88.5563306830828 10.3186230064147  Z M 51.0085598862963 16.4367139314808  L 51.0752217498394 19.381402554293  L 51.0304630700319 19.381402554293  L 49.8219787152302 16.4367139314808  L 47.9221156042535 16.4367139314808  L 47.9221156042535 20.2719997606039  L 49.0458441611219 20.2719997606039  L 48.9801346099152 17.3247121187072  L 49.0248932897226 17.3247121187072  L 50.2171883348068 20.2719997606039  L 52.133240755501 20.2719997606039  L 52.133240755501 16.4367139314808  L 51.0085598862963 16.4367139314808  Z M 86.5812348975361 18.9257078747992  C 86.5812348975361 19.3779371955135  86.3564891861624 19.4082590848335  85.8869992043521 19.4082590848335  C 85.2099051332221 19.4082590848335  85.1832403878049 19.1882088023403  85.1832403878049 18.6146919243463  L 85.1832403878049 18.0143185158118  C 85.1832403878049 17.4659254889685  85.2441883773299 17.2865931721336  85.8869992043521 17.2865931721336  C 86.2707810758928 17.2865931721336  86.5355239053923 17.3117170232843  86.5745687111818 17.6556538821418  L 86.5745687111818 17.8046643096568  L 87.7363897615034 17.8046643096568  L 87.7363897615034 17.6556538821418  C 87.7125819530951 16.5034220879846  87.1726208583965 16.3959959658226  86.0107998080749 16.3959959658226  C 84.7718414585107 16.3959959658226  84.0223716498196 16.5813926605216  84.0223716498196 17.8505803134842  L 84.0223716498196 18.843405603788  C 84.0223716498196 20.2494749285377  84.8613588181256 20.301455310229  86.0107998080749 20.301455310229  C 86.5031452859571 20.301455310229  86.968826018422 20.3040543293135  87.3526078899627 20.0181622300114  C 87.7363897615034 19.7262057528453  87.7401990108487 19.3467489664988  87.7401990108487 18.9265742144941  L 87.7401990108487 18.8139500541629  L 86.5802825851997 18.8139500541629  L 86.5802825851997 18.9257078747992  Z M 92.7169832805049 19.3788035352084  L 92.7169832805049 20.2702670812142  L 93.6312031233809 20.2702670812142  L 93.6312031233809 19.3788035352084  L 92.7169832805049 19.3788035352084  Z M 87.1935717297958 3.92243703930021  L 85.6479688079335 3.9804817988555  C 85.1918111988318 4.05585335230788  85.0937230281899 4.01686806603941  85.0861045294993 4.01426904695484  C 85.0461074113734 3.99607591336289  84.9794455478304 3.96055598587383  84.9127836842874 3.7725602720903  C 84.7185119676762 3.13580059637187  84.772793770847 2.94607220319862  84.8061247026185 2.89409182150732  C 84.8099339519638 2.88542842455877  84.8527880070987 2.84471045890058  85.0727721567907 2.79706177568356  C 85.464172527022 2.74248237490769  86.2412593934665 2.70263074894436  87.3640356379987 2.68617029474212  C 87.9630400975497 2.72082388253632  88.1373132550979 2.78926471842986  88.1830242472417 2.81698758866522  C 88.1801673102327 2.81958660774979  88.2877786042379 2.96339899709572  88.125885507062 3.71884721100928  C 88.1001730739811 3.79421876446167  88.047795895483 3.86006058127065  87.9744678455857 3.90857560418253  C 87.9735155332493 3.90857560418253  87.8506672418629 3.9631550049584  87.2021425408227 3.92243703930021  L 87.1935717297958 3.92243703930021  Z M 81.7492021030019 7.72480196001884  C 81.9663293156849 7.93792152495317  82.3596343105889 8.11725384178816  83.0433945680732 7.80623789133521  C 83.9261881038503 7.37826608207684  84.8356463850447 7.17727527287048  85.7489139155844 7.20239912402127  C 85.7451046662391 7.45710299430864  85.7070121727859 10.3359498003118  85.7070121727859 10.3359498003118  C 85.7070121727859 11.153774472255  85.7898633460465 11.6363256822892  85.9612795665858 11.8572423044772  C 86.2174515850584 12.1829860297427  86.5164776586657 12.1517978007279  86.6697999448147 12.1015500984263  C 86.9212104016056 12.0183814877203  87.0859604357906 11.7818707510248  87.1792870447508 11.3790227929173  C 87.2488058453028 11.0974623920894  87.2849937140833 10.73533239964  87.2849937140833 10.2952318346536  C 87.2849937140833 10.1522857850026  87.281184464738 10.0006763384029  87.2735659660474 9.84213617424448  C 87.2735659660474 9.84213617424448  87.3049922731462 7.82269834553745  87.3173723335185 7.27603799808394  C 88.2915878535833 7.37566706299227  89.118194961517 7.59051930731631  89.7457687911579 7.93705518525832  C 90.1781185918514 8.13977867385439  90.5933267704909 8.10512508606019  90.949491584278 7.84175781882426  C 91.2142344137775 7.62950459358479  91.4780249309407 7.33408275763923  91.7351492617496 6.96155668885158  C 91.8389513064094 6.80388286438797  91.8599021778087 6.66873387199059  91.79990650062 6.55524337196458  C 91.7361015740859 6.4374211734643  91.5989685976545 6.36551497879133  91.3799367602988 6.34212380703025  L 91.3770798232898 6.34212380703025  C 89.1600967043155 6.09261797491201  87.8268594334547 5.97479577641172  87.3049922731463 5.97999381458085  C 87.2649951550205 5.71662654734493  87.1973809791411 5.49744260454662  87.0802465617726 5.34150145947271  C 87.055486441028 5.31377858923735  87.0316786326198 5.29645179534025  87.0078708242116 5.27652598235859  C 87.0154893229022 5.2782586617483  87.0221555092565 5.27739232205344  87.0297740079472 5.27999134113801  C 87.0164416352386 5.27306062357917  87.0040615748663 5.26179820754605  86.991681514494 5.25226847090265  C 87.2040471654954 5.27306062357917  87.3926050080886 5.30164983350938  87.5544981052645 5.34063511977786  C 87.9820863442763 5.43333346712734  88.3525358431084 5.4168730129251  88.6601327277427 5.28865473808656  C 89.1591443919792 5.06080739833969  89.4886444603491 4.49595391729423  89.6686314919153 3.55857436746111  C 89.7076762977048 3.28221200480236  89.7610057885392 3.08728557345999  89.8257630274096 2.97206239404427  C 90.0219393686934 2.63592259244053  90.0562226128013 2.37342166489946  89.9314696967421 2.16983183660853  C 89.4753120876404 1.5503989547872  87.8830458612981 1.33727938985287  85.0546782224004 1.50361661126503  C 85.0651536581001 1.50361661126503  84.8642157551346 1.5235424242467  84.8642157551346 1.5235424242467  L 84.9004036239151 1.51834438607757  L 84.1414106918608 1.56079503112546  C 83.6347805289337 1.60584469525792  83.3167082085997 1.74359270673987  83.1586243607691 1.97923710374043  C 83.0548223161092 2.155104061796  83.0824393738627 2.3976791763554  83.2443324710387 2.72082388253632  C 83.2805203398192 2.81178955049609  83.3805131351338 3.1756522223352  83.6243050932341 4.34780982947402  C 83.7414395106025 4.89620285631724  83.9376158518863 5.23667435639526  84.2223572404487 5.39521452055373  C 84.4547214505131 5.54769030684821  84.7556521487931 5.54769030684821  85.1089600255712 5.38568478391032  C 85.3003748051734 5.30598153198366  85.6632058053148 5.25660016937692  86.1736452175872 5.2358080167004  C 86.0565108002187 5.32764002435503  85.9508041308862 5.45412561980387  85.8555728972533 5.63345793663885  C 85.8508113355716 5.64558669236682  85.7993864694099 5.85870625730115  85.7641509129657 5.99558792908825  C 85.2479976266753 6.01118204359564  84.7232735293579 6.04410295200013  84.2071202430675 6.11081110850396  C 84.2090248677402 6.11081110850396  82.654851134851 6.24509376120649  82.654851134851 6.24509376120649  C 82.339635751526 6.23383134517337  82.0758452343628 6.34558916580967  81.8806212054154 6.57690186433596  C 81.4358913443497 7.13915632629686  81.5635011974177 7.51254873477936  81.7492021030019 7.72480196001884  Z M 94.7739779269759 20.2702670812142  L 95.121571929736 20.2702670812142  C 95.121571929736 20.5249709515016  95.0387207564754 20.6081395622077  94.7187438114688 20.6116049209871  L 94.7187438114688 20.9962597455027  C 95.4901168038954 21.0014577836718  95.7043870795695 20.7978679553809  95.6881977698519 20.2702670812142  L 95.6881977698519 19.4082590848335  L 94.7749302393122 19.4082590848335  L 94.7749302393122 20.2702670812142  Z M 99.4279283146166 19.3779371955135  L 99.4279283146166 16.4280505345322  L 98.3003905084029 16.4280505345322  L 98.3003905084029 20.2702670812142  L 101.190658449162 20.2702670812142  L 101.190658449162 19.3779371955135  L 99.4279283146166 19.3779371955135  Z M 90.8618788493357 17.9120904318189  L 90.8618788493357 18.777563786979  C 90.8618788493357 19.3519470046679  90.6533224476796 19.4082590848335  90.0686026731735 19.4082590848335  C 89.4838828986674 19.4082590848335  89.2905634943926 19.3528133443628  89.274374184675 18.777563786979  L 89.274374184675 17.9120904318189  C 89.2905634943926 17.3420389126043  89.4829305863311 17.2865931721336  90.0686026731735 17.2865931721336  C 90.6542747600159 17.2865931721336  90.8618788493357 17.3420389126043  90.8618788493357 17.9120904318189  Z M 92.0236998996573 17.8046643096569  C 92.0236998996573 16.6229769658746  91.2132821014412 16.3951296261278  90.0686026731735 16.3951296261278  C 88.9239232449059 16.3951296261278  88.1125531343534 16.6221106261798  88.1125531343534 17.803797969962  L 88.1125531343534 18.8901879473102  C 88.1125531343534 20.074474310177  88.9239232449059 20.3005889705341  90.0686026731735 20.3005889705341  C 91.2123297891048 20.3005889705341  92.0236998996573 20.074474310177  92.0236998996573 18.8901879473102  L 92.0236998996573 17.8046643096569  Z M 31.1347537394429 16.4367139314808  L 31.1347537394429 17.8791695234144  L 29.6672404291596 17.8791695234144  L 29.6672404291596 16.4367139314808  L 28.5435118722912 16.4367139314808  L 28.5435118722912 20.2719997606039  L 29.6672404291596 20.2719997606039  L 29.6672404291596 18.7689003900305  L 31.1347537394429 18.7689003900305  L 31.1347537394429 20.2719997606039  L 32.2622915456566 20.2719997606039  L 32.2622915456566 16.4367139314808  L 31.1347537394429 16.4367139314808  Z M 32.9670026745402 16.4375802711757  L 32.9670026745402 20.2728661002988  L 34.0954927930903 20.2728661002988  L 34.0954927930903 16.4375802711757  L 32.9670026745402 16.4375802711757  Z M 8.61637623460337 17.9198874890726  L 8.61637623460337 18.783628164843  C 8.61637623460337 19.357145042837  8.40877214528361 19.4125907833077  7.8240523707775 19.4125907833077  C 7.23838028393506 19.4125907833077  7.04791781666923 19.357145042837  7.03077619461531 18.783628164843  L 7.03077619461531 17.9198874890726  C 7.04791781666923 17.3507023095528  7.23933259627139 17.2952565690821  7.8240523707775 17.2952565690821  C 8.40877214528361 17.2952565690821  8.61637623460337 17.3507023095528  8.61637623460337 17.9198874890726  Z M 9.77438803557964 17.8141940463003  C 9.77534034791597 16.6290413437386  8.96587486203618 16.4063920421609  7.8240523707775 16.4063920421609  C 6.68318219185516 16.4063920421609  5.87276439363903 16.6290413437386  5.87276439363903 17.8141940463003  L 5.87276439363903 18.8962523251742  C 5.87276439363903 20.0779396689564  6.68318219185516 20.3023216499238  7.8240523707775 20.3023216499238  C 8.96587486203618 20.3023216499238  9.77438803557964 20.0779396689564  9.77438803557964 18.8962523251742  L 9.77438803557964 17.8141940463003  Z M 8.57447449180488 7.17467625378591  L 8.65161179104755 6.8264076964542  L 9.1134832741672 6.79175410866  L 10.0686525475053 6.75796686056065  L 10.2972075082244 6.96675472702071  L 10.2610196394438 7.24138441028975  L 10.0296077417159 7.59138564701117  L 8.92206849456503 7.59138564701117  L 8.65161179104754 7.52381115081248  L 8.57447449180488 7.17467625378591  Z M 6.89078628117491 7.24051807059489  L 6.7365116826896 7.55499937982726  C 6.7365116826896 7.55499937982726  6.46795960384477 7.59051930731631  6.27559251190628 7.62603923480537  C 6.08608235697677 7.65982648290471  5.58611838040396 7.62603923480537  5.58611838040396 7.62603923480537  L 5.01187404159747 7.59051930731631  L 4.97663848515329 7.138289986602  L 5.12900845896595 6.8264076964542  L 5.77943778467878 6.71984791398703  L 6.43081942272793 6.618486169689  L 6.73555937035326 6.8264076964542  L 6.89078628117491 7.24051807059489  Z M 4.93759367936379 4.9490495777034  L 5.43565303126394 4.80870254713688  L 5.9337123831641 4.87800972272528  L 6.69937150157276 4.94904957770339  L 6.81364898193225 5.33110538313445  L 6.66032669578326 5.57627951677842  L 6.12512716276626 5.57627951677842  L 5.43565303126394 5.61006676487777  L 4.97759079748961 5.47318509309068  L 4.93759367936379 4.9490495777034  Z M 10.4124373009202 10.830629766074  L 11.0257264455162 10.795109838585  L 11.4095083170568 10.341147838481  L 11.2961831490336 9.75030416658985  L 10.7181295608818 9.60995713602334  L 9.95342275480952 9.50946173142016  L 8.68875197216439 9.47047644515168  L 8.65161179104755 8.94893994884897  L 10.0686525475054 8.94893994884897  L 10.9885862643993 9.05290071223157  L 11.7161528893548 9.22703499089742  L 12.4437195143103 9.43842187644205  L 13.2084263203826 9.6818633306963  L 13.8979004518849 9.61082347571819  L 14.4721447906914 9.33359477336459  L 14.9702041425916 8.80859291828246  L 15.1587619851848 8.21861558608619  L 15.0063920113721 7.59138564701117  L 12.1723104984565 7.59138564701117  L 11.7904332515885 7.45277129583437  L 11.7904332515885 7.10536907819751  L 12.0989824485591 6.86279396363811  L 12.6722744750293 6.79262044835485  L 13.0541517218973 6.61935250938385  L 13.2084263203826 6.3066038795412  L 13.2874682442979 5.95833532220948  L 13.2084263203826 5.61179944426748  L 12.2903972281613 5.61179944426748  L 12.1732628107928 5.36662531062351  L 11.907567668957 5.02008943268151  L 11.3314187054778 4.7757816387324  L 10.7181295608818 4.95164859678796  L 10.452434419046 5.57887853586299  L 8.65161179104754 5.54249226867908  L 8.61447160993071 4.84682149371051  L 8.99730116913504 4.88060874180985  L 9.64677818251153 4.84682149371051  L 10.3381569386865 4.77664797842725  L 10.7943145477882 4.53407286386785  L 10.987633952063 4.18407162714643  L 10.8704995346945 3.80201582171537  L 10.9476368339372 3.62441618427009  L 11.2171412251183 3.45374726438365  L 11.5599736661968 2.99978526427963  L 11.9447078500738 2.99978526427963  L 12.977966734991 2.93047808869123  L 13.3998410999848 2.54668960387046  L 13.5922081919233 1.99049951977355  L 13.0170115407805 1.71500349680965  L 11.7913855639248 1.53913653875409  L 11.8313826820506 0.877253011884862  L 11.8675705508312 0.425023691170549  L 11.3314187054778 0.00311625977615984  L 10.6076613298677 0.00311625977615984  L 10.2219748336543 0.56190536295764  L 9.99151524826269 1.53913653875409  L 8.8820713764392 1.57465646624314  L 8.26973454417955 1.60931005403734  L 7.76977056760674 2.20102006562331  L 7.84786017918573 2.61772945884857  L 8.46019701144538 2.85943823371312  C 8.46019701144538 2.85943823371312  9.5315483898157 2.79446275659899  9.64677818251153 2.79446275659899  C 9.76296028754368 2.79446275659899  10.0686525475053 3.00065160397449  10.0686525475053 3.00065160397449  L 10.1838823402012 3.48666817278814  L 9.91723488602901 3.73270864612697  L 8.8820713764392 3.76649589422631  L 8.15545706382004 3.69892139802762  L 7.54312023156039 3.45461360407851  L 7.19552622880024 3.69892139802762  L 5.12996077130227 3.62528252396495  L 5.1671009524191 3.3835737491004  L 5.43565303126393 3.10547870705194  L 5.74324991589825 2.79446275659899  L 6.24130926779841 2.79446275659899  L 6.62223420233008 2.68790297413183  L 6.89173859351124 2.33703539771555  L 7.00411144919808 1.95757861136906  L 6.54604921542375 1.60931005403734  L 6.0089450577341 1.57465646624314  L 5.51279033050659 1.36326958069852  L 5.43565303126393 0.877253011884862  L 5.1671009524191 0.457944599575039  L 4.78427139321478 0.111408721633036  L 4.20907474207196 0.0750224544491252  L 3.79100962642346 0.457944599575039  L 3.75101250829765 1.32601697381975  L 3.33009045564016 1.3944578097133  C 3.33009045564016 1.3944578097133  2.75584611683367 1.43171041659207  2.64061632413784 1.4637649853017  C 2.52443421910568 1.50101759218047  2.14350928457401 1.81116720293856  2.14350928457401 1.81116720293856  L 1.91304969918235 2.16203477935484  L 1.98923468608869 2.64891768786335  L 2.52443421910568 2.92787906960666  L 3.13867567603799 2.92787906960666  L 3.79100962642347 2.85683921462855  L 3.94242728789981 3.03270617268412  L 4.32525684710414 3.30993487503772  L 4.67094622519163 3.45201458499394  C 4.67094622519163 3.45201458499394  4.59380892594897 3.69632237894305  4.47953144558946 3.72924328734755  C 4.36239702822098 3.76303053544689  4.1347943798383 4.04372459657991  4.1347943798383 4.04372459657991  L 4.20907474207198 4.77491529903754  L 3.75101250829765 4.73852903185363  L 3.25390546873382 4.95078225709311  L 3.02439819567849 5.54075958928937  L 2.41206136341884 5.71489386795522  L 1.95114219263552 6.72071425368189  L 2.44824923219935 6.9996756354252  L 3.40532313021016 6.9996756354252  L 3.29104564985066 7.55586571952211  L 2.14255697223769 7.65982648290472  L 1.14548595610104 7.86688166997506  C 1.14548595610104 7.86688166997506  0.533149123841385 8.07826855551968  0.302689538449732 8.53309689531856  C 0.0731822653944006 8.98532621603288  0.302689538449732 9.15686147561417  0.302689538449732 9.15686147561417  L 0.955023488835207 9.7511705062847  L 1.98828237375236 9.92617112464541  L 2.63966401180151 9.33359477336459  L 3.71101539017182 9.05463339162128  C 3.71101539017182 9.05463339162128  5.62611549852978 8.74188476177862  5.74229760356194 8.74188476177862  C 5.85562277158511 8.74188476177862  6.73555937035327 8.84584552516122  6.73555937035327 8.84584552516122  L 6.81269666959593 9.33359477336459  L 6.27464019956995 9.4392882161369  L 5.31851861389546 9.4392882161369  L 4.59285661361264 9.4392882161369  C 4.47857913325314 9.4392882161369  3.97956746901665 9.85859662844672  3.97956746901665 9.85859662844672  L 3.94147497556348 10.5161484568417  L 4.5166716267063 10.7647879492651  L 6.81269666959593 10.7647879492651  L 6.89078628117492 12.6074924802217  L 6.92792646229176 13.167147923098  L 7.00315913686176 13.5483373888342  L 7.42789043886457 13.6886844194007  L 7.92309285375573 13.6886844194007  L 8.30592241296006 13.2693760070909  L 8.45924469910906 12.8188793657663  L 8.49733719256223 12.121475911408  L 8.45924469910906 11.3547652814613  L 8.57352217946856 10.6590945064928  L 8.99634885679871 10.6227082393088  C 8.99634885679871 10.6227082393088  9.64582587017521 10.729268021776  9.80105278099686 10.729268021776  C 9.95247044247319 10.729268021776  10.4124373009202 10.830629766074  10.4124373009202 10.830629766074  Z M 12.821787511833 16.4375802711756  L 12.821787511833 18.9283068938838  C 12.821787511833 19.3779371955135  12.657037477648 19.4134571230026  12.1808813094834 19.4134571230026  C 11.7085343906642 19.4134571230026  11.439029999483 19.4082590848335  11.439029999483 18.9733565580163  L 11.439029999483 16.4375802711756  L 10.3143491302783 16.4375802711756  L 10.3143491302783 18.9950150503876  C 10.3143491302783 19.9133351269339  10.4933838495082 20.3023216499238  12.1808813094834 20.3023216499238  C 13.4188873467114 20.3023216499238  13.9455160687014 20.0164295506217  13.9455160687014 18.9950150503876  L 13.9455160687014 16.4375802711756  L 12.821787511833 16.4375802711756  Z M 20.58979923927 16.4367139314808  L 20.58979923927 17.8791695234144  L 19.1222859289868 17.8791695234144  L 19.1222859289868 16.4367139314808  L 17.9995096844547 16.4367139314808  L 17.9995096844547 20.2719997606039  L 19.1222859289868 20.2719997606039  L 19.1222859289868 18.7689003900305  L 20.58979923927 18.7689003900305  L 20.58979923927 20.2719997606039  L 21.7135277961384 20.2719997606039  L 21.7135277961384 16.4367139314808  L 20.58979923927 16.4367139314808  Z M 26.8398251025984 18.9317722526632  C 26.8398251025984 19.381402554293  26.6150793912247 19.4134571230026  26.1484463464234 19.4134571230026  C 25.4742092123023 19.4134571230026  25.4456398422124 19.1934068405094  25.4456398422124 18.6198899625154  L 25.4456398422124 18.0212492333706  C 25.4456398422124 17.475455225612  25.5065878317375 17.2952565690821  26.1484463464234 17.2952565690821  C 26.5312759056277 17.2952565690821  26.7941141104545 17.3203804202329  26.8350635409167 17.6643172790903  L 26.8350635409167 17.8141940463003  L 27.993075341893 17.8141940463003  L 27.993075341893 17.6643172790903  C 27.9702198458211 16.5138181643229  27.4312110634588 16.4063920421609  26.2722469501462 16.4063920421609  C 25.0361455375909 16.4063920421609  24.2885803535725 16.5891897177753  24.2885803535725 17.857511031043  L 24.2885803535725 18.8503363213469  C 24.2885803535725 20.2503412682325  25.1256628972058 20.3023216499238  26.2722469501462 20.3023216499238  C 26.7617354910193 20.3023216499238  27.2283685358206 20.307519688093  27.6102457826886 20.020761249096  C 27.993075341893 19.7296711116247  27.9987892159109 19.3519470046679  27.9987892159109 18.9309059129684  L 27.9987892159109 18.8200144320269  L 26.8407774149347 18.8200144320269  L 26.8407774149347 18.9317722526632  Z M 46.1070082912101 16.4375802711757  L 46.1070082912101 20.2728661002988  L 47.2307368480785 20.2728661002988  L 47.2307368480785 16.4375802711757  L 46.1070082912101 16.4375802711757  Z M 14.2988239454795 16.4375802711757  L 14.2988239454795 17.325578458402  L 15.3787461348768 17.325578458402  L 15.3787461348768 20.2728661002988  L 16.5034270040815 20.2728661002988  L 16.5034270040815 17.325578458402  L 17.6376309966496 17.325578458402  L 17.6376309966496 16.4375802711757  L 14.2988239454795 16.4375802711757  Z M 5.48707789742572 19.0417973939098  C 5.4861255850894 18.1667943021062  5.17662407578242 18.0212492333706  3.92814260285487 17.9398133020542  L 3.46246187038991 17.9077587333446  C 3.16438810911888 17.8886992600578  3.00154269960659 17.8783031837195  3.00154269960659 17.5716189317409  C 3.00154269960659 17.355900347722  3.05201525343204 17.2432761873908  3.65959052401005 17.2432761873908  C 4.10812963442109 17.2432761873908  4.28906897832363 17.2432761873908  4.28906897832363 17.6383270882447  L 5.36803885538458 17.6383270882447  L 5.36803885538458 17.4797869240862  C 5.36803885538458 16.4219861566683  4.58142886557669 16.4063920421609  3.66054283634638 16.4063920421609  C 2.5577651508772 16.4063920421609  1.8787664550745 16.477431897139  1.8787664550745 17.5776833096048  C 1.8787664550745 18.6770683823758  2.48538941331618 18.6710040045119  3.52531448458764 18.7385785007106  L 3.77196337969689 18.7524399358282  C 4.30144903869591 18.7827618251482  4.36334934055731 18.777563786979  4.36334934055731 19.1102382298034  C 4.36334934055731 19.4333829359843  4.18907618300906 19.4637048253042  3.66054283634638 19.4637048253042  C 3.10915399361179 19.4637048253042  2.95202245811747 19.4221205199512  2.95202245811747 19.0244706000127  L 1.87305258105653 19.0244706000127  C 1.87305258105653 20.2815294972473  2.58633452096708 20.301455310229  3.66054283634638 20.301455310229  C 5.5156472675156 20.301455310229  5.48707789742572 19.6776907299334  5.48707789742572 19.0417973939098  Z M 41.937784882761 18.8650640961594  L 40.8930982498079 18.8650640961594  L 41.4035376620803 17.2042909011223  L 41.4159177224526 17.2042909011223  L 41.937784882761 18.8650640961594  Z M 42.2472863920679 16.4367139314808  L 40.5388380606934 16.4367139314808  L 39.2741672780483 20.2719997606039  L 40.4436068270605 20.2719997606039  L 40.6512109163803 19.6109825734295  L 42.163482906471 19.6109825734295  L 42.383467056163 20.2719997606039  L 43.529098796767 20.2719997606039  L 42.2472863920679 16.4367139314808  Z M 28.444471389313 5.75561183361341  L 28.7530205862836 5.86130527638572  L 28.7111188434852 6.24336108181678  L 28.4044742711872 6.69212504375167  L 28.0987820112255 6.97368544457955  L 27.7159524520212 7.00660635298404  L 27.2188454124573 6.93729917739564  L 26.9874335147294 6.38370811238329  L 26.8731560343699 5.82665168859152  L 27.293125774691 5.79199810079732  L 27.753092633138 5.75561183361341  L 28.444471389313 5.75561183361341  Z M 29.0968053396985 8.15450644866692  L 29.8615121457708 8.26019989143924  L 30.7433533692116 8.29831883801285  L 31.3918780702518 8.22381362425532  L 31.8908897344883 8.01675843718498  L 31.9280299156051 8.49930964721922  L 31.8108954982366 9.13173762446337  L 31.2756959652196 8.88742983051426  L 28.8311101978626 8.817256315231  L 28.7530205862836 8.22381362425532  L 29.0968053396985 8.15450644866692  Z M 30.0110251825745 6.86885834150209  L 30.2443417049751 6.44954992919227  L 30.6262189518431 6.03370687566187  L 31.1614184848601 6.06749412376121  L 31.8099431859003 6.17318756653352  L 31.8899374221519 6.62628322694269  L 31.8527972410351 7.078512547657  L 31.4299705637049 7.11229979575635  L 30.4328995475683 7.04299262016795  L 30.0110251825745 6.86885834150209  Z M 26.8731560343699 8.85104356333035  C 26.8731560343699 8.85104356333035  26.3379565013529 8.95933602518723  26.225583645666 8.99225693359172  C 26.1122584776429 9.02604418169106  25.1199490231879 9.06156410918012  25.1199490231879 9.06156410918012  L 24.3561945294519 9.09708403666917  L 24.2057291803119 8.8519099030252  L 24.2057291803119 8.36589333421155  L 24.2419170490924 8.12331821965214  L 25.233274191211 8.19175905554569  L 26.8741083467062 8.19175905554569  L 26.8741083467062 8.85104356333035  Z M 24.2047768679755 7.11143345606149  L 24.0524068941629 7.078512547657  L 24.012409776037 6.65747145595747  L 24.0524068941629 6.41749536048263  L 24.0866901382707 6.13766763904447  L 24.7399764009925 6.03370687566187  L 25.1570892043047 6.27974734900069  L 25.5770589446259 6.79868482621884  L 25.1570892043047 6.86885834150209  L 24.6247466082967 6.90264558960144  L 24.2047768679755 7.11143345606149  Z M 35.3392127043361 2.86463627188225  L 35.1087531189445 2.51463503516082  L 34.0345448035652 2.51463503516082  L 31.6994749548861 2.44706053896213  L 29.0968053396985 2.34309977557953  L 29.0968053396985 1.54346823722836  C 29.0968053396985 1.54346823722836  28.5206563762193 0.950891885947536  28.0997343235618 0.91537195845848  C 27.6797645832407 0.879852030969425  26.9122008401593 0.91537195845848  26.9122008401593 0.91537195845848  L 26.6474580106598 1.26623953487476  L 26.6055562678614 2.24087169158664  C 26.6055562678614 2.24087169158664  22.1344498487959 1.96104397014847  21.7135277961384 2.10139100071499  C 21.2935580558173 2.24087169158664  20.5669437431981 2.93654246655521  20.5669437431981 2.93654246655521  L 20.7193137170108 3.63221324152378  L 21.0650030950983 4.01600172634455  L 21.6392474339047 4.36253760428656  L 22.0973096676791 4.15634875691106  C 22.0973096676791 4.15634875691106  22.7096464999387 3.77082759270058  22.8620164737514 3.80461484079993  C 23.017243384573 3.84273378737355  24.3181020359987 3.66946584840255  24.3181020359987 3.66946584840255  L 25.3104114904537 3.49186621095727  L 26.4160461129319 3.49186621095727  L 26.9131531524957 3.66946584840255  L 27.0274306328552 4.36253760428655  L 26.760783178683 4.64409800511443  L 26.3389088136892 4.57479082952603  C 26.3389088136892 4.57479082952603  26.147494034087 4.43531013865438  26.0351211784002 4.39979021116532  C 25.9198913857044 4.36253760428655  25.6532439315322 4.32875035618721  25.6532439315322 4.32875035618721  L 24.9285342435857 4.71080616161827  L 24.3952393352414 4.89013847845325  L 23.8238519334439 4.71080616161827  L 23.2105627888479 4.64409800511443  L 22.5944167072429 4.89013847845325  L 22.2506319538281 5.27392696327402  L 22.2915813842902 7.49435560118741  L 22.7867837991814 11.6753109685577  L 23.170565670722 12.0218468464997  L 23.705765203739 11.846846228139  L 24.1266872563965 11.6406573807635  L 24.1647797498497 10.0725825330759  L 26.7969710474635 10.108102460565  L 26.9512456459488 11.3261760715311  L 27.0274306328552 12.0954857205624  L 27.2569379059105 12.7885574764464  C 27.2569379059105 12.7885574764464  27.6035795963343 12.7556365680419  27.7178570766938 12.7556365680419  C 27.8321345570533 12.7556365680419  28.2930537278366 12.6152895374754  28.2930537278366 12.6152895374754  L 28.4844685074388 12.0582331136836  L 28.6358861689151 11.362562338715  L 28.7120711558215 10.1072361208701  L 31.1623707971964 10.0379289452817  L 31.7366151360029 9.65240778107123  L 31.7785168788014 10.3515439148192  C 31.7785168788014 10.3515439148192  31.6604301490966 11.0472146897878  31.7004272672224 11.2196162890639  C 31.7366151360029 11.3954832471195  31.5851974745266 12.0209805068048  31.5851974745266 12.0209805068048  C 31.5851974745266 12.0209805068048  31.8547018657077 12.474076167214  31.9680270337309 12.474076167214  C 32.0832568264267 12.474076167214  32.9631934251949 12.1968474648604  32.9631934251949 12.1968474648604  L 33.2698379974929 11.3954832471195  L 33.5355331393287 10.2111968842527  L 33.9974046224484 5.68890367710957  L 33.383163165516 5.09286196704933  L 32.5032265667479 5.05994105864484  L 30.9357204611501 5.05994105864484  L 30.1681567180688 4.67961793260349  L 29.5577245104818 4.67961793260349  L 28.6768355993773 4.57392448983118  L 28.6368384812515 4.18926966531555  L 29.0206203527921 3.56290606593538  L 30.0919717311624 3.59322795525531  L 31.5099647999566 3.94669455075615  C 31.5099647999566 3.94669455075615  32.7355907768122 4.25857684090395  32.9251009317417 4.29323042869815  C 33.1184203360165 4.3270176767975  33.5774348821272 4.39892387147046  33.767897349393 4.3616712645917  C 33.9612167536678 4.32788401649235  34.3821388063253 4.0151353866497  34.3821388063253 4.0151353866497  L 35.3392127043361 2.86463627188225  Z M 37.8733158313081 16.4367139314808  L 37.9418823195238 19.381402554293  L 37.8971236397163 19.381402554293  L 36.6886392849146 16.4367139314808  L 34.7878238616016 16.4367139314808  L 34.7878238616016 20.2719997606039  L 35.9125047308063 20.2719997606039  L 35.8439382425906 17.3247121187072  L 35.8906015470707 17.3247121187072  L 37.0809919674822 20.2719997606039  L 38.9979967005128 20.2719997606039  L 38.9979967005128 16.4367139314808  L 37.8733158313081 16.4367139314808  Z " fill-rule="nonzero" fill="#e60012" stroke="none" transform="matrix(1 0 0 1 43 14 )" />
  </g>
</svg>