<?xml version="1.0" encoding="utf-8"?>
<svg version="1.1" xmlns:xlink="http://www.w3.org/1999/xlink" width="15px" height="15px" xmlns="http://www.w3.org/2000/svg">
  <g transform="matrix(1 0 0 1 -564 -574 )">
    <path d="M 15 11.1416666666667  C 15 10.6916666666667  14.625 10.3166666666667  14.175 10.3166666666667  C 13.15 10.3166666666667  12.1583333333333 10.15  11.2333333333333 9.85  C 10.9416666666667 9.75  10.6166666666667 9.825  10.3916666666667 10.05  L 9.08333333333333 11.6916666666667  C 6.725 10.5666666666667  4.51666666666667 8.44166666666667  3.34166666666667 6  L 4.96666666666667 4.61666666666667  C 5.19166666666667 4.38333333333333  5.25833333333333 4.05833333333333  5.16666666666667 3.76666666666667  C 4.85833333333334 2.84166666666667  4.7 1.85  4.7 0.825000000000001  C 4.7 0.375000000000001  4.325 0  3.875 0  L 0.991666666666667 0  C 0.541666666666667 0  0 0.2  0 0.825  C 0 8.56666666666667  6.44166666666667 15  14.175 15  C 14.7666666666667 15  15 14.475  15 14.0166666666667  L 15 11.1416666666667  Z " fill-rule="nonzero" fill="#555555" stroke="none" transform="matrix(1 0 0 1 564 574 )" />
  </g>
</svg>