<?xml version="1.0" encoding="utf-8"?>
<svg version="1.1" xmlns:xlink="http://www.w3.org/1999/xlink" width="12px" height="12px" viewBox="172 486  12 12" xmlns="http://www.w3.org/2000/svg">
  <path d="M 172.5 488  A 1.5 1.5 0 0 1 174 486.5 L 182 486.5  A 1.5 1.5 0 0 1 183.5 488 L 183.5 496  A 1.5 1.5 0 0 1 182 497.5 L 174 497.5  A 1.5 1.5 0 0 1 172.5 496 L 172.5 488  Z " fill-rule="nonzero" fill="#f0f0f0" stroke="none" />
  <path d="M 172.5 488  A 1.5 1.5 0 0 1 174 486.5 L 182 486.5  A 1.5 1.5 0 0 1 183.5 488 L 183.5 496  A 1.5 1.5 0 0 1 182 497.5 L 174 497.5  A 1.5 1.5 0 0 1 172.5 496 L 172.5 488  Z " stroke-width="1" stroke="#797979" fill="none" />
</svg>