<?xml version="1.0" encoding="utf-8"?>
<svg version="1.1" xmlns:xlink="http://www.w3.org/1999/xlink" width="12px" height="12px" viewBox="172 461  12 12" xmlns="http://www.w3.org/2000/svg">
  <path d="M 172.5 463  A 1.5 1.5 0 0 1 174 461.5 L 182 461.5  A 1.5 1.5 0 0 1 183.5 463 L 183.5 471  A 1.5 1.5 0 0 1 182 472.5 L 174 472.5  A 1.5 1.5 0 0 1 172.5 471 L 172.5 463  Z " fill-rule="nonzero" fill="#ffffff" stroke="none" />
  <path d="M 172.5 463  A 1.5 1.5 0 0 1 174 461.5 L 182 461.5  A 1.5 1.5 0 0 1 183.5 463 L 183.5 471  A 1.5 1.5 0 0 1 182 472.5 L 174 472.5  A 1.5 1.5 0 0 1 172.5 471 L 172.5 463  Z " stroke-width="1" stroke="#797979" fill="none" />
</svg>