<?xml version="1.0" encoding="utf-8"?>
<svg version="1.1" xmlns:xlink="http://www.w3.org/1999/xlink" width="12px" height="12px" viewBox="172 436  12 12" xmlns="http://www.w3.org/2000/svg">
  <path d="M 172.5 438  A 1.5 1.5 0 0 1 174 436.5 L 182 436.5  A 1.5 1.5 0 0 1 183.5 438 L 183.5 446  A 1.5 1.5 0 0 1 182 447.5 L 174 447.5  A 1.5 1.5 0 0 1 172.5 446 L 172.5 438  Z " fill-rule="nonzero" fill="#ffffff" stroke="none" />
  <path d="M 172.5 438  A 1.5 1.5 0 0 1 174 436.5 L 182 436.5  A 1.5 1.5 0 0 1 183.5 438 L 183.5 446  A 1.5 1.5 0 0 1 182 447.5 L 174 447.5  A 1.5 1.5 0 0 1 172.5 446 L 172.5 438  Z " stroke-width="1" stroke="#797979" fill="none" />
</svg>