<?xml version="1.0" encoding="utf-8"?>
<svg version="1.1" xmlns:xlink="http://www.w3.org/1999/xlink" width="11px" height="11px" xmlns="http://www.w3.org/2000/svg">
  <g transform="matrix(1 0 0 1 -170 -50 )">
    <path d="M 8.1640625 6.61002604166667  C 8.27387152777778 6.75802951388889  8.28580729166667 6.91558159722222  8.19986979166667 7.08268229166667  C 8.11870659722222 7.24978298611111  7.98263888888889 7.33333333333333  7.79166666666667 7.33333333333333  L 3.20833333333333 7.33333333333333  C 3.01736111111111 7.33333333333333  2.88129340277778 7.24978298611111  2.80013020833333 7.08268229166667  C 2.71419270833333 6.91558159722222  2.72612847222222 6.75802951388889  2.8359375 6.61002604166667  L 5.12760416666667 3.40169270833333  C 5.21831597222222 3.27278645833333  5.34244791666667 3.20833333333333  5.5 3.20833333333333  C 5.65755208333333 3.20833333333333  5.78168402777778 3.27278645833333  5.87239583333333 3.40169270833333  L 8.1640625 6.61002604166667  Z M 9.0986328125 9.0986328125  C 9.14398871527778 9.05327690972222  9.16666666666667 8.99956597222222  9.16666666666667 8.9375  L 9.16666666666667 2.0625  C 9.16666666666667 2.00043402777778  9.14398871527778 1.94672309027778  9.0986328125 1.9013671875  C 9.05327690972222 1.85601128472222  8.99956597222222 1.83333333333333  8.9375 1.83333333333333  L 2.0625 1.83333333333333  C 2.00043402777778 1.83333333333333  1.94672309027778 1.85601128472222  1.9013671875 1.9013671875  C 1.85601128472222 1.94672309027778  1.83333333333333 2.00043402777778  1.83333333333333 2.0625  L 1.83333333333333 8.9375  C 1.83333333333333 8.99956597222222  1.85601128472222 9.05327690972222  1.9013671875 9.0986328125  C 1.94672309027778 9.14398871527778  2.00043402777778 9.16666666666667  2.0625 9.16666666666667  L 8.9375 9.16666666666667  C 8.99956597222222 9.16666666666667  9.05327690972222 9.14398871527778  9.0986328125 9.0986328125  Z M 10.3948567708333 0.605143229166667  C 10.7982855902778 1.00857204861111  11 1.49435763888889  11 2.0625  L 11 8.9375  C 11 9.50564236111111  10.7982855902778 9.99142795138889  10.3948567708333 10.3948567708333  C 9.99142795138889 10.7982855902778  9.50564236111111 11  8.9375 11  L 2.0625 11  C 1.49435763888889 11  1.00857204861111 10.7982855902778  0.605143229166667 10.3948567708333  C 0.201714409722222 9.99142795138889  0 9.50564236111111  0 8.9375  L 0 2.0625  C 0 1.49435763888889  0.201714409722222 1.00857204861111  0.605143229166667 0.605143229166667  C 1.00857204861111 0.201714409722222  1.49435763888889 0  2.0625 0  L 8.9375 0  C 9.50564236111111 0  9.99142795138889 0.201714409722222  10.3948567708333 0.605143229166667  Z " fill-rule="nonzero" fill="#333333" stroke="none" transform="matrix(1 0 0 1 170 50 )" />
  </g>
</svg>