<?xml version="1.0" encoding="utf-8"?>
<svg version="1.1" xmlns:xlink="http://www.w3.org/1999/xlink" width="132px" height="20px" xmlns="http://www.w3.org/2000/svg">
  <g transform="matrix(1 0 0 1 -291 -325 )">
    <path d="M 1.5 15  L 1.5 0  L 130.5 0  L 130.5 15  C 130.5 16.96  128.96 18.5  127 18.5  L 117 18.5  L 4 18.5  C 2.04000000000002 18.5  0.5 16.96  1.5 15  Z " fill-rule="nonzero" fill="#ffffff" stroke="none" transform="matrix(1 0 0 1 291 325 )" />
    <path d="M 130.5 0  L 130.5 15  C 130.5 16.96  128.96 18.5  127 18.5  L 117 18.5  L 4 18.5  C 2.04000000000002 18.5  0.5 16.96  1.5 15  L 1.5 0  " stroke-width="1" stroke="#6a8ec3" fill="none" transform="matrix(1 0 0 1 291 325 )" />
  </g>
</svg>