<?xml version="1.0" encoding="utf-8"?>
<svg version="1.1" xmlns:xlink="http://www.w3.org/1999/xlink" width="20px" height="21px" xmlns="http://www.w3.org/2000/svg">
  <g transform="matrix(1 0 0 1 -1150 -91 )">
    <path d="M 20 10.5  C 20 4.6935  15.53 0  10 0  C 4.47 0  0 4.6935  0 10.5  C 0 16.3065  4.47 21  10 21  C 15.53 21  20 16.3065  20 10.5  Z M 11.41 10.5  L 15 14.2695  L 13.59 15.75  L 10 11.9805  L 6.41 15.75  L 5 14.2695  L 8.59 10.5  L 5 6.7305  L 6.41 5.25  L 10 9.0195  L 13.59 5.25  L 15 6.7305  L 11.41 10.5  Z " fill-rule="nonzero" fill="#f2f2f2" stroke="none" transform="matrix(1 0 0 1 1150 91 )" />
  </g>
</svg>