<?xml version="1.0" encoding="utf-8"?>
<svg version="1.1" xmlns:xlink="http://www.w3.org/1999/xlink" width="12px" height="12px" viewBox="323 172.5  12 12" xmlns="http://www.w3.org/2000/svg">
  <path d="M 329 172.5  C 332.36 172.5  335 175.14  335 178.5  C 335 181.86  332.36 184.5  329 184.5  C 325.64 184.5  323 181.86  323 178.5  C 323 175.14  325.64 172.5  329 172.5  Z " fill-rule="nonzero" fill="#f0f0f0" stroke="none" />
  <path d="M 329 173  C 332.08 173  334.5 175.42  334.5 178.5  C 334.5 181.58  332.08 184  329 184  C 325.92 184  323.5 181.58  323.5 178.5  C 323.5 175.42  325.92 173  329 173  Z " stroke-width="1" stroke="#333333" fill="none" />
  <path d="M 329 181.5  C 327.32 181.5  326 180.18  326 178.5  C 326 176.82  327.32 175.5  329 175.5  C 330.68 175.5  332 176.82  332 178.5  C 332 180.18  330.68 181.5  329 181.5  " fill-rule="nonzero" fill="#333333" stroke="none" />
</svg>