<?xml version="1.0" encoding="utf-8"?>
<svg version="1.1" xmlns:xlink="http://www.w3.org/1999/xlink" width="14px" height="12px" xmlns="http://www.w3.org/2000/svg">
  <g transform="matrix(1 0 0 1 -96 -15 )">
    <path d="M 14 5.33333333333333  C 14 4.22666666666667  13.062 3.33333333333333  11.9 3.33333333333333  L 11.2 3.33333333333333  L 11.2 0  L 2.8 0  L 2.8 3.33333333333333  L 2.1 3.33333333333333  C 0.938 3.33333333333333  0 4.22666666666667  0 5.33333333333333  L 0 9.33333333333333  L 2.8 9.33333333333333  L 2.8 12  L 11.2 12  L 11.2 9.33333333333333  L 14 9.33333333333333  L 14 5.33333333333333  Z M 4.2 3.33333333333333  L 4.2 1.33333333333333  L 9.8 1.33333333333333  L 9.8 3.33333333333333  L 4.2 3.33333333333333  Z M 9.8 8  L 9.8 9.33333333333333  L 9.8 10.6666666666667  L 4.2 10.6666666666667  L 4.2 8  L 9.8 8  Z M 12.6 8  L 11.2 8  L 11.2 6.66666666666667  L 2.8 6.66666666666667  L 2.8 8  L 1.4 8  L 1.4 5.33333333333333  C 1.4 4.96666666666667  1.715 4.66666666666667  2.1 4.66666666666667  L 11.9 4.66666666666667  C 12.285 4.66666666666667  12.6 4.96666666666667  12.6 5.33333333333333  L 12.6 8  Z " fill-rule="nonzero" fill="#ffffff" stroke="none" transform="matrix(1 0 0 1 96 15 )" />
  </g>
</svg>