<?xml version="1.0" encoding="utf-8"?>
<svg version="1.1" xmlns:xlink="http://www.w3.org/1999/xlink" width="11px" height="13px" xmlns="http://www.w3.org/2000/svg">
  <g transform="matrix(1 0 0 1 -168 -14 )">
    <path d="M 2.75 10.4  L 2.75 9.1  L 8.25 9.1  L 8.25 10.4  L 2.75 10.4  Z M 2.75 7.8  L 2.75 6.5  L 8.25 6.5  L 8.25 7.8  L 2.75 7.8  Z M 11 3.9  L 6.875 0  L 1.375 0  C 0.61875 0  0 0.585  0 1.3  L 0 11.7  C 0 12.415  0.611875 13  1.368125 13  L 9.625 13  C 10.38125 13  11 12.415  11 11.7  L 11 3.9  Z M 9.625 4.55  L 9.625 11.7  L 1.375 11.7  L 1.375 1.3  L 6.1875 1.3  L 6.1875 4.55  L 9.625 4.55  Z " fill-rule="nonzero" fill="#ffffff" stroke="none" transform="matrix(1 0 0 1 168 14 )" />
  </g>
</svg>