<?xml version="1.0" encoding="utf-8"?>
<svg version="1.1" xmlns:xlink="http://www.w3.org/1999/xlink" width="10px" height="10px" xmlns="http://www.w3.org/2000/svg">
  <g transform="matrix(1 0 0 1 -170 -370 )">
    <path d="M 175 370.5  C 177.52 370.5  179.5 372.48  179.5 375  C 179.5 377.52  177.52 379.5  175 379.5  C 172.48 379.5  170.5 377.52  170.5 375  C 170.5 372.48  172.48 370.5  175 370.5  Z " fill-rule="nonzero" fill="#70b603" stroke="none" />
    <path d="M 175 370.5  C 177.52 370.5  179.5 372.48  179.5 375  C 179.5 377.52  177.52 379.5  175 379.5  C 172.48 379.5  170.5 377.52  170.5 375  C 170.5 372.48  172.48 370.5  175 370.5  Z " stroke-width="1" stroke="#ffffff" fill="none" stroke-opacity="0.803921568627451" />
  </g>
</svg>