<?xml version="1.0" encoding="utf-8"?>
<svg version="1.1" xmlns:xlink="http://www.w3.org/1999/xlink" width="12px" height="12px" viewBox="172 506  12 12" xmlns="http://www.w3.org/2000/svg">
  <path d="M 172.5 508  A 1.5 1.5 0 0 1 174 506.5 L 182 506.5  A 1.5 1.5 0 0 1 183.5 508 L 183.5 516  A 1.5 1.5 0 0 1 182 517.5 L 174 517.5  A 1.5 1.5 0 0 1 172.5 516 L 172.5 508  Z " fill-rule="nonzero" fill="#ffffff" stroke="none" />
  <path d="M 172.5 508  A 1.5 1.5 0 0 1 174 506.5 L 182 506.5  A 1.5 1.5 0 0 1 183.5 508 L 183.5 516  A 1.5 1.5 0 0 1 182 517.5 L 174 517.5  A 1.5 1.5 0 0 1 172.5 516 L 172.5 508  Z " stroke-width="1" stroke="#797979" fill="none" />
</svg>