<?xml version="1.0" encoding="utf-8"?>
<svg version="1.1" xmlns:xlink="http://www.w3.org/1999/xlink" width="12px" height="12px" viewBox="356 172.5  12 12" xmlns="http://www.w3.org/2000/svg">
  <path d="M 362 172.5  C 365.36 172.5  368 175.14  368 178.5  C 368 181.86  365.36 184.5  362 184.5  C 358.64 184.5  356 181.86  356 178.5  C 356 175.14  358.64 172.5  362 172.5  Z " fill-rule="nonzero" fill="#f0f0f0" stroke="none" />
  <path d="M 362 173  C 365.08 173  367.5 175.42  367.5 178.5  C 367.5 181.58  365.08 184  362 184  C 358.92 184  356.5 181.58  356.5 178.5  C 356.5 175.42  358.92 173  362 173  Z " stroke-width="1" stroke="#333333" fill="none" />
  <path d="M 362 181.5  C 360.32 181.5  359 180.18  359 178.5  C 359 176.82  360.32 175.5  362 175.5  C 363.68 175.5  365 176.82  365 178.5  C 365 180.18  363.68 181.5  362 181.5  " fill-rule="nonzero" fill="#333333" stroke="none" />
</svg>