<?xml version="1.0" encoding="utf-8"?>
<svg version="1.1" xmlns:xlink="http://www.w3.org/1999/xlink" width="12px" height="12px" viewBox="266 172.5  12 12" xmlns="http://www.w3.org/2000/svg">
  <path d="M 272 172.5  C 275.36 172.5  278 175.14  278 178.5  C 278 181.86  275.36 184.5  272 184.5  C 268.64 184.5  266 181.86  266 178.5  C 266 175.14  268.64 172.5  272 172.5  Z " fill-rule="nonzero" fill="#f0f0f0" stroke="none" />
  <path d="M 272 173  C 275.08 173  277.5 175.42  277.5 178.5  C 277.5 181.58  275.08 184  272 184  C 268.92 184  266.5 181.58  266.5 178.5  C 266.5 175.42  268.92 173  272 173  Z " stroke-width="1" stroke="#333333" fill="none" />
  <path d="M 272 181.5  C 270.32 181.5  269 180.18  269 178.5  C 269 176.82  270.32 175.5  272 175.5  C 273.68 175.5  275 176.82  275 178.5  C 275 180.18  273.68 181.5  272 181.5  " fill-rule="nonzero" fill="#333333" stroke="none" />
</svg>