<?xml version="1.0" encoding="utf-8"?>
<svg version="1.1" xmlns:xlink="http://www.w3.org/1999/xlink" width="12px" height="12px" viewBox="730 318.5  12 12" xmlns="http://www.w3.org/2000/svg">
  <path d="M 736 318.5  C 739.36 318.5  742 321.14  742 324.5  C 742 327.86  739.36 330.5  736 330.5  C 732.64 330.5  730 327.86  730 324.5  C 730 321.14  732.64 318.5  736 318.5  Z " fill-rule="nonzero" fill="#ffffff" stroke="none" />
  <path d="M 736 319  C 739.08 319  741.5 321.42  741.5 324.5  C 741.5 327.58  739.08 330  736 330  C 732.92 330  730.5 327.58  730.5 324.5  C 730.5 321.42  732.92 319  736 319  Z " stroke-width="1" stroke="#333333" fill="none" />
  <path d="M 736 327.5  C 734.32 327.5  733 326.18  733 324.5  C 733 322.82  734.32 321.5  736 321.5  C 737.68 321.5  739 322.82  739 324.5  C 739 326.18  737.68 327.5  736 327.5  " fill-rule="nonzero" fill="#333333" stroke="none" />
</svg>