<?xml version="1.0" encoding="utf-8"?>
<svg version="1.1" xmlns:xlink="http://www.w3.org/1999/xlink" width="12px" height="12px" viewBox="264 -346.5  12 12" xmlns="http://www.w3.org/2000/svg">
  <path d="M 270 -346.5  C 273.36 -346.5  276 -343.86  276 -340.5  C 276 -337.14  273.36 -334.5  270 -334.5  C 266.64 -334.5  264 -337.14  264 -340.5  C 264 -343.86  266.64 -346.5  270 -346.5  Z " fill-rule="nonzero" fill="#ffffff" stroke="none" />
  <path d="M 270 -346  C 273.08 -346  275.5 -343.58  275.5 -340.5  C 275.5 -337.42  273.08 -335  270 -335  C 266.92 -335  264.5 -337.42  264.5 -340.5  C 264.5 -343.58  266.92 -346  270 -346  Z " stroke-width="1" stroke="#333333" fill="none" />
  <path d="M 270 -337.5  C 268.32 -337.5  267 -338.82  267 -340.5  C 267 -342.18  268.32 -343.5  270 -343.5  C 271.68 -343.5  273 -342.18  273 -340.5  C 273 -338.82  271.68 -337.5  270 -337.5  " fill-rule="nonzero" fill="#333333" stroke="none" />
</svg>