<?xml version="1.0" encoding="utf-8"?>
<svg version="1.1" xmlns:xlink="http://www.w3.org/1999/xlink" width="10px" height="12px" xmlns="http://www.w3.org/2000/svg">
  <g transform="matrix(1 0 0 1 -169 -15 )">
    <path d="M 10 3.6  L 6.25 0  L 1.25 0  C 0.5625 0  0 0.54  0 1.2  L 0 10.8  C 0 11.46  0.5625 12  1.25 12  L 8.75 12  C 9.4375 12  10 11.46  10 10.8  L 10 3.6  Z M 8.75 10.8  L 1.25 10.8  L 1.25 1.2  L 5.625 1.2  L 5.625 3.6  L 8.75 3.6  L 8.75 10.8  Z M 4.375 9.6  L 4.375 10.2  L 5.625 10.2  L 5.625 9.6  L 6.25 9.6  C 6.59375 9.6  6.875 9.33  6.875 9  L 6.875 7.2  C 6.875 6.87  6.59375 6.6  6.25 6.6  L 4.375 6.6  L 4.375 6  L 6.875 6  L 6.875 4.8  L 5.625 4.8  L 5.625 4.2  L 4.375 4.2  L 4.375 4.8  L 3.75 4.8  C 3.40625 4.8  3.125 5.07  3.125 5.4  L 3.125 7.2  C 3.125 7.53  3.40625 7.8  3.75 7.8  L 5.625 7.8  L 5.625 8.4  L 3.125 8.4  L 3.125 9.6  L 4.375 9.6  Z " fill-rule="nonzero" fill="#ffffff" stroke="none" transform="matrix(1 0 0 1 169 15 )" />
  </g>
</svg>