<?xml version="1.0" encoding="utf-8"?>
<svg version="1.1" xmlns:xlink="http://www.w3.org/1999/xlink" width="12px" height="12px" viewBox="441 246.5  12 12" xmlns="http://www.w3.org/2000/svg">
  <path d="M 447 246.5  C 450.36 246.5  453 249.14  453 252.5  C 453 255.86  450.36 258.5  447 258.5  C 443.64 258.5  441 255.86  441 252.5  C 441 249.14  443.64 246.5  447 246.5  Z " fill-rule="nonzero" fill="#f0f0f0" stroke="none" />
  <path d="M 447 247  C 450.08 247  452.5 249.42  452.5 252.5  C 452.5 255.58  450.08 258  447 258  C 443.92 258  441.5 255.58  441.5 252.5  C 441.5 249.42  443.92 247  447 247  Z " stroke-width="1" stroke="#797979" fill="none" />
  <path d="M 447 255.5  C 445.32 255.5  444 254.18  444 252.5  C 444 250.82  445.32 249.5  447 249.5  C 448.68 249.5  450 250.82  450 252.5  C 450 254.18  448.68 255.5  447 255.5  " fill-rule="nonzero" fill="#797979" stroke="none" />
</svg>