<?xml version="1.0" encoding="utf-8"?>
<svg version="1.1" xmlns:xlink="http://www.w3.org/1999/xlink" width="12px" height="12px" viewBox="383 246.5  12 12" xmlns="http://www.w3.org/2000/svg">
  <path d="M 389 246.5  C 392.36 246.5  395 249.14  395 252.5  C 395 255.86  392.36 258.5  389 258.5  C 385.64 258.5  383 255.86  383 252.5  C 383 249.14  385.64 246.5  389 246.5  Z " fill-rule="nonzero" fill="#f0f0f0" stroke="none" />
  <path d="M 389 247  C 392.08 247  394.5 249.42  394.5 252.5  C 394.5 255.58  392.08 258  389 258  C 385.92 258  383.5 255.58  383.5 252.5  C 383.5 249.42  385.92 247  389 247  Z " stroke-width="1" stroke="#797979" fill="none" />
  <path d="M 389 255.5  C 387.32 255.5  386 254.18  386 252.5  C 386 250.82  387.32 249.5  389 249.5  C 390.68 249.5  392 250.82  392 252.5  C 392 254.18  390.68 255.5  389 255.5  " fill-rule="nonzero" fill="#797979" stroke="none" />
</svg>