<?xml version="1.0" encoding="utf-8"?>
<svg version="1.1" xmlns:xlink="http://www.w3.org/1999/xlink" width="12px" height="12px" viewBox="265 206.5  12 12" xmlns="http://www.w3.org/2000/svg">
  <path d="M 271 206.5  C 274.36 206.5  277 209.14  277 212.5  C 277 215.86  274.36 218.5  271 218.5  C 267.64 218.5  265 215.86  265 212.5  C 265 209.14  267.64 206.5  271 206.5  Z " fill-rule="nonzero" fill="#ffffff" stroke="none" />
  <path d="M 271 207  C 274.08 207  276.5 209.42  276.5 212.5  C 276.5 215.58  274.08 218  271 218  C 267.92 218  265.5 215.58  265.5 212.5  C 265.5 209.42  267.92 207  271 207  Z " stroke-width="1" stroke="#333333" fill="none" />
  <path d="M 271 215.5  C 269.32 215.5  268 214.18  268 212.5  C 268 210.82  269.32 209.5  271 209.5  C 272.68 209.5  274 210.82  274 212.5  C 274 214.18  272.68 215.5  271 215.5  " fill-rule="nonzero" fill="#333333" stroke="none" />
</svg>