<?xml version="1.0" encoding="utf-8"?>
<svg version="1.1" xmlns:xlink="http://www.w3.org/1999/xlink" width="12px" height="12px" viewBox="323 206.5  12 12" xmlns="http://www.w3.org/2000/svg">
  <path d="M 329 206.5  C 332.36 206.5  335 209.14  335 212.5  C 335 215.86  332.36 218.5  329 218.5  C 325.64 218.5  323 215.86  323 212.5  C 323 209.14  325.64 206.5  329 206.5  Z " fill-rule="nonzero" fill="#ffffff" stroke="none" />
  <path d="M 329 207  C 332.08 207  334.5 209.42  334.5 212.5  C 334.5 215.58  332.08 218  329 218  C 325.92 218  323.5 215.58  323.5 212.5  C 323.5 209.42  325.92 207  329 207  Z " stroke-width="1" stroke="#333333" fill="none" />
  <path d="M 329 215.5  C 327.32 215.5  326 214.18  326 212.5  C 326 210.82  327.32 209.5  329 209.5  C 330.68 209.5  332 210.82  332 212.5  C 332 214.18  330.68 215.5  329 215.5  " fill-rule="nonzero" fill="#333333" stroke="none" />
</svg>