<?xml version="1.0" encoding="utf-8"?>
<svg version="1.1" xmlns:xlink="http://www.w3.org/1999/xlink" width="12px" height="12px" viewBox="348 240.5  12 12" xmlns="http://www.w3.org/2000/svg">
  <path d="M 354 240.5  C 357.36 240.5  360 243.14  360 246.5  C 360 249.86  357.36 252.5  354 252.5  C 350.64 252.5  348 249.86  348 246.5  C 348 243.14  350.64 240.5  354 240.5  Z " fill-rule="nonzero" fill="#f0f0f0" stroke="none" />
  <path d="M 354 241  C 357.08 241  359.5 243.42  359.5 246.5  C 359.5 249.58  357.08 252  354 252  C 350.92 252  348.5 249.58  348.5 246.5  C 348.5 243.42  350.92 241  354 241  Z " stroke-width="1" stroke="#333333" fill="none" />
  <path d="M 354 249.5  C 352.32 249.5  351 248.18  351 246.5  C 351 244.82  352.32 243.5  354 243.5  C 355.68 243.5  357 244.82  357 246.5  C 357 248.18  355.68 249.5  354 249.5  " fill-rule="nonzero" fill="#333333" stroke="none" />
</svg>