<?xml version="1.0" encoding="utf-8"?>
<svg version="1.1" xmlns:xlink="http://www.w3.org/1999/xlink" width="12px" height="12px" viewBox="171 438  12 12" xmlns="http://www.w3.org/2000/svg">
  <path d="M 171.5 440  A 1.5 1.5 0 0 1 173 438.5 L 181 438.5  A 1.5 1.5 0 0 1 182.5 440 L 182.5 448  A 1.5 1.5 0 0 1 181 449.5 L 173 449.5  A 1.5 1.5 0 0 1 171.5 448 L 171.5 440  Z " fill-rule="nonzero" fill="#f0f0f0" stroke="none" />
  <path d="M 171.5 440  A 1.5 1.5 0 0 1 173 438.5 L 181 438.5  A 1.5 1.5 0 0 1 182.5 440 L 182.5 448  A 1.5 1.5 0 0 1 181 449.5 L 173 449.5  A 1.5 1.5 0 0 1 171.5 448 L 171.5 440  Z " stroke-width="1" stroke="#797979" fill="none" />
  <path d="M 173.571428571429 444  L 176.142857142857 446.571428571429  " stroke-width="2.57142857142857" stroke="#797979" fill="none" />
  <path d="M 176.142857142857 446.571428571429  L 180.428571428571 440.571428571429  " stroke-width="2.57142857142857" stroke="#797979" fill="none" />
</svg>