<?xml version="1.0" encoding="utf-8"?>
<svg version="1.1" xmlns:xlink="http://www.w3.org/1999/xlink" width="12px" height="9px" xmlns="http://www.w3.org/2000/svg">
  <g transform="matrix(1 0 0 1 -13 -55 )">
    <path d="M 7.8 4  L 12 4  L 12 0  L 7.8 0  L 7.8 1.5  L 4.2 1.5  L 4.2 0  L 0 0  L 0 4  L 4.2 4  L 4.2 2.5  L 5.4 2.5  L 5.4 7.5  L 7.8 7.5  L 7.8 9  L 12 9  L 12 5  L 7.8 5  L 7.8 6.5  L 6.6 6.5  L 6.6 2.5  L 7.8 2.5  L 7.8 4  Z " fill-rule="nonzero" fill="#555555" stroke="none" transform="matrix(1 0 0 1 13 55 )" />
  </g>
</svg>