<?xml version="1.0" encoding="utf-8"?>
<svg version="1.1" xmlns:xlink="http://www.w3.org/1999/xlink" width="14px" height="10px" xmlns="http://www.w3.org/2000/svg">
  <g transform="matrix(1 0 0 1 -7 -15 )">
    <path d="M 12.92578125 9.0234375  C 12.9752604166667 8.97845643939394  13 8.92518939393939  13 8.86363636363636  L 13 3.40909090909091  C 12.8333333333333 3.57954545454545  12.6536458333333 3.73579545454545  12.4609375 3.87784090909091  C 11.0651041666667 4.8532196969697  9.95572916666667 5.65340909090909  9.1328125 6.27840909090909  C 8.8671875 6.48200757575757  8.65104166666667 6.640625  8.484375 6.75426136363636  C 8.31770833333333 6.86789772727273  8.09244791666667 6.9827178030303  7.80859375 7.09872159090909  C 7.52473958333333 7.21472537878788  7.2578125 7.27272727272727  7.0078125 7.27272727272727  L 7 7.27272727272727  L 6.9921875 7.27272727272727  C 6.7421875 7.27272727272727  6.47526041666667 7.21472537878788  6.19140625 7.09872159090909  C 5.90755208333333 6.9827178030303  5.68229166666667 6.86789772727273  5.515625 6.75426136363636  C 5.34895833333333 6.640625  5.1328125 6.48200757575757  4.8671875 6.27840909090909  C 4.04427083333333 5.65340909090909  2.93489583333333 4.8532196969697  1.5390625 3.87784090909091  C 1.34635416666667 3.73579545454545  1.16666666666667 3.57954545454545  1 3.40909090909091  L 1 8.86363636363636  C 1 8.92518939393939  1.02473958333333 8.97845643939394  1.07421875 9.0234375  C 1.12369791666667 9.06841856060606  1.18229166666667 9.09090909090909  1.25 9  L 12.75 9  C 12.8177083333333 9.09090909090909  12.8763020833333 9.06841856060606  12.92578125 9.0234375  Z M 12.63671875 2.33309659090909  C 12.87890625 1.98982007575757  13 1.67850378787879  13 1.39914772727273  L 13 1.32102272727273  L 13 1.22514204545455  C 13 1.22514204545455  12.9986979166667 1.19436553030303  12.99609375 1.1328125  C 12.9934895833333 1.07125946969697  12.9856770833333 1.04166666666667  12.97265625 1.04403409090909  C 12.9596354166667 1.04640151515151  12.9453125 1.0250946969697  12.9296875 0.980113636363636  C 12.9140625 0.935132575757575  12.890625 0.917376893939393  12.859375 0.926846590909091  C 12.828125 0.936316287878788  12.7916666666667 0.930397727272727  12.75 1  L 1.25 1  C 1.18229166666667 0.909090909090909  1.12369791666667 0.931581439393938  1.07421875 0.9765625  C 1.02473958333333 1.02154356060606  1 1.07481060606061  1 1.13636363636364  C 1 1.93181818181818  1.3828125 2.60416666666667  2.1484375 3.15340909090909  C 3.15364583333333 3.87310606060606  4.19791666666667 4.62357954545455  5.28125 5.40482954545455  C 5.3125 5.42850378787879  5.40364583333333 5.4983428030303  5.5546875 5.61434659090909  C 5.70572916666667 5.73035037878788  5.82552083333333 5.81912878787879  5.9140625 5.88068181818182  C 6.00260416666667 5.94223484848485  6.11848958333333 6.01680871212121  6.26171875 6.10440340909091  C 6.40494791666667 6.19199810606061  6.53645833333333 6.25710227272727  6.65625 6.29971590909091  C 6.77604166666667 6.34232954545455  6.88802083333333 6.36363636363636  6.9921875 6.36363636363636  L 7 6.36363636363636  L 7.0078125 6.36363636363636  C 7.11197916666667 6.36363636363636  7.22395833333333 6.34232954545455  7.34375 6.29971590909091  C 7.46354166666667 6.25710227272727  7.59505208333333 6.19199810606061  7.73828125 6.10440340909091  C 7.88151041666667 6.01680871212121  7.99739583333333 5.94223484848485  8.0859375 5.88068181818182  C 8.17447916666667 5.81912878787879  8.29427083333333 5.73035037878788  8.4453125 5.61434659090909  C 8.59635416666667 5.4983428030303  8.6875 5.42850378787879  8.71875 5.40482954545455  C 9.80208333333333 4.62357954545455  10.8463541666667 3.87310606060606  11.8515625 3.15340909090909  C 12.1328125 2.94981060606061  12.39453125 2.67637310606061  12.63671875 2.33309659090909  Z M 13.6328125 0.333806818181818  C 13.8776041666667 0.556344696969696  14 0.823863636363636  14 1.13636363636364  L 14 8.86363636363636  C 14 9.17613636363636  13.8776041666667 9.4436553030303  13.6328125 9.66619318181818  C 13.3880208333333 9.88873106060606  13.09375 10  12.75 10  L 1.25 10  C 0.90625 10  0.611979166666667 9.88873106060606  0.3671875 9.66619318181818  C 0.122395833333333 9.4436553030303  0 9.17613636363636  0 8.86363636363636  L 0 1.13636363636364  C 0 0.823863636363636  0.122395833333333 0.556344696969696  0.3671875 0.333806818181818  C 0.611979166666667 0.111268939393938  0.90625 0  1.25 0  L 12.75 0  C 13.09375 0  13.3880208333333 0.111268939393938  13.6328125 0.333806818181818  Z " fill-rule="nonzero" fill="#036eb7" stroke="none" transform="matrix(1 0 0 1 7 15 )" />
  </g>
</svg>