<?xml version="1.0" encoding="utf-8"?>
<svg version="1.1" xmlns:xlink="http://www.w3.org/1999/xlink" width="14px" height="11px" xmlns="http://www.w3.org/2000/svg">
  <g transform="matrix(1 0 0 1 -10 -22 )">
    <path d="M 14 2.75  C 14 1.99375  13.37 1.375  12.6 1.375  L 7 1.375  L 5.6 0  L 1.4 0  C 0.63 0  0.00699999999999985 0.61875  0.00699999999999985 1.375  L 0 9.625  C 0 10.38125  0.63 11  1.4 11  L 12.6 11  C 13.37 11  14 10.38125  14 9.625  L 14 2.75  Z M 8.4 6.875  L 8.4 8.25  L 2.8 8.25  L 2.8 6.875  L 8.4 6.875  Z M 11.2 4.125  L 11.2 5.5  L 2.8 5.5  L 2.8 4.125  L 11.2 4.125  Z " fill-rule="nonzero" fill="#c988c1" stroke="none" transform="matrix(1 0 0 1 10 22 )" />
  </g>
</svg>