<?xml version="1.0" encoding="utf-8"?>
<svg version="1.1" xmlns:xlink="http://www.w3.org/1999/xlink" width="1074px" height="365px" xmlns="http://www.w3.org/2000/svg">
  <g transform="matrix(1 0 0 1 -156 -485 )">
    <path d="M 157 490  A 4 4 0 0 1 161 486 L 1225 486  A 4 4 0 0 1 1229 490 L 1229 845  A 4 4 0 0 1 1225 849 L 161 849  A 4 4 0 0 1 157 845 L 157 490  Z " fill-rule="nonzero" fill="#f2f2f2" stroke="none" fill-opacity="0" />
    <path d="M 156.5 490  A 4.5 4.5 0 0 1 161 485.5 L 1225 485.5  A 4.5 4.5 0 0 1 1229.5 490 L 1229.5 845  A 4.5 4.5 0 0 1 1225 849.5 L 161 849.5  A 4.5 4.5 0 0 1 156.5 845 L 156.5 490  Z " stroke-width="1" stroke="#aaaaaa" fill="none" stroke-opacity="0.501960784313725" />
  </g>
</svg>