<?xml version="1.0" encoding="utf-8"?>
<svg version="1.1" xmlns:xlink="http://www.w3.org/1999/xlink" width="1057px" height="378px" xmlns="http://www.w3.org/2000/svg">
  <defs>
    <filter x="169px" y="483px" width="1057px" height="378px" filterUnits="userSpaceOnUse" id="filter25">
      <feOffset dx="3" dy="3" in="SourceAlpha" result="shadowOffsetInner" />
      <feGaussianBlur stdDeviation="2.5" in="shadowOffsetInner" result="shadowGaussian" />
      <feComposite in2="shadowGaussian" operator="atop" in="SourceAlpha" result="shadowComposite" />
      <feColorMatrix type="matrix" values="0 0 0 0 0  0 0 0 0 0  0 0 0 0 0  0 0 0 0.101960784313725 0  " in="shadowComposite" />
    </filter>
    <g id="widget26">
      <path d="M 172 490  A 4 4 0 0 1 176 486 L 1213 486  A 4 4 0 0 1 1217 490 L 1217 848  A 4 4 0 0 1 1213 852 L 176 852  A 4 4 0 0 1 172 848 L 172 490  Z " fill-rule="nonzero" fill="#ffffff" stroke="none" />
      <path d="M 171.5 490  A 4.5 4.5 0 0 1 176 485.5 L 1213 485.5  A 4.5 4.5 0 0 1 1217.5 490 L 1217.5 848  A 4.5 4.5 0 0 1 1213 852.5 L 176 852.5  A 4.5 4.5 0 0 1 171.5 848 L 171.5 490  Z " stroke-width="1" stroke="#aaaaaa" fill="none" stroke-opacity="0.501960784313725" />
    </g>
  </defs>
  <g transform="matrix(1 0 0 1 -169 -483 )">
    <use xlink:href="#widget26" filter="url(#filter25)" />
    <use xlink:href="#widget26" />
  </g>
</svg>