<?xml version="1.0" encoding="utf-8"?>
<svg version="1.1" xmlns:xlink="http://www.w3.org/1999/xlink" width="15px" height="15px" xmlns="http://www.w3.org/2000/svg">
  <g transform="matrix(1 0 0 1 -171 -464 )">
    <path d="M 14.9074074074074 7.5  C 14.9074074074074 3.41111111111111  11.5888888888889 0.0925925925925925  7.5 0.0925925925925925  C 3.41111111111111 0.0925925925925925  0.0925925925925925 3.41111111111111  0.0925925925925925 7.5  C 0.0925925925925925 11.5888888888889  3.41111111111111 14.9074074074074  7.5 14.9074074074074  C 11.5888888888889 14.9074074074074  14.9074074074074 11.5888888888889  14.9074074074074 7.5  Z M 8.24074074074074 6.75925925925926  L 8.24074074074074 11.2037037037037  L 6.75925925925926 11.2037037037037  L 6.75925925925926 6.75925925925926  L 8.24074074074074 6.75925925925926  Z M 8.24074074074074 3.7962962962963  L 8.24074074074074 5.27777777777778  L 6.75925925925926 5.27777777777778  L 6.75925925925926 3.7962962962963  L 8.24074074074074 3.7962962962963  Z " fill-rule="nonzero" fill="#3e3a39" stroke="none" transform="matrix(1 0 0 1 171 464 )" />
  </g>
</svg>