<?xml version="1.0" encoding="utf-8"?>
<svg version="1.1" xmlns:xlink="http://www.w3.org/1999/xlink" width="18px" height="18px" xmlns="http://www.w3.org/2000/svg">
  <g transform="matrix(1 0 0 1 -13 -95 )">
    <path d="M 4 0  L 4 2  L 6 2  L 6 0  L 4 0  Z M 4 8  L 4 10  L 6 10  L 6 8  L 4 8  Z M 4 16  L 4 18  L 6 18  L 6 16  L 4 16  Z M 8 12  L 8 14  L 10 14  L 10 12  L 8 12  Z M 8 16  L 8 18  L 10 18  L 10 16  L 8 16  Z M 0 16  L 0 18  L 2 18  L 2 16  L 0 16  Z M 0 12  L 0 14  L 2 14  L 2 12  L 0 12  Z M 0 8  L 0 10  L 2 10  L 2 8  L 0 8  Z M 0 4  L 0 6  L 2 6  L 2 4  L 0 4  Z M 0 0  L 0 2  L 2 2  L 2 0  L 0 0  Z M 8 8  L 8 10  L 10 10  L 10 8  L 8 8  Z M 16 12  L 16 14  L 18 14  L 18 12  L 16 12  Z M 16 8  L 16 10  L 18 10  L 18 8  L 16 8  Z M 16 16  L 16 18  L 18 18  L 18 16  L 16 16  Z M 16 4  L 16 6  L 18 6  L 18 4  L 16 4  Z M 8 4  L 8 6  L 10 6  L 10 4  L 8 4  Z M 18 0  L 16 0  L 16 2  L 18 2  L 18 0  Z M 8 0  L 8 2  L 10 2  L 10 0  L 8 0  Z M 12 16  L 12 18  L 14 18  L 14 16  L 12 16  Z M 12 8  L 12 10  L 14 10  L 14 8  L 12 8  Z M 12 0  L 12 2  L 14 2  L 14 0  L 12 0  Z " fill-rule="nonzero" fill="#aaaaaa" stroke="none" transform="matrix(1 0 0 1 13 95 )" />
  </g>
</svg>