<?xml version="1.0" encoding="utf-8"?>
<svg version="1.1" xmlns:xlink="http://www.w3.org/1999/xlink" width="22px" height="15px" xmlns="http://www.w3.org/2000/svg">
  <g transform="matrix(1 0 0 1 -578 -13 )">
    <path d="M 13.0952380952381 5  C 13.0952380952381 6.38  14.2685714285714 7.5  15.7142857142857 7.5  C 17.16 7.5  18.3228571428571 6.38  18.3228571428571 5  C 18.3228571428571 3.62  17.16 2.5  15.7142857142857 2.5  C 14.2685714285714 2.5  13.0952380952381 3.62  13.0952380952381 5  Z M 4.71428571428571 3.5  C 4.71428571428571 5.16  6.11809523809524 6.5  7.85714285714286 6.5  C 9.59619047619048 6.5  10.9895238095238 5.16  10.9895238095238 3.5  C 10.9895238095238 1.84  9.59619047619048 0.5  7.85714285714286 0.5  C 6.11809523809524 0.5  4.71428571428571 1.84  4.71428571428571 3.5  Z M 21.4761904761905 12.25  C 21.4761904761905 10.42  17.6314285714286 9.5  15.7142857142857 9.5  C 13.7971428571429 9.5  9.95238095238095 10.42  9.95238095238095 12.25  L 9.95238095238095 14.5  L 21.4761904761905 14.5  L 21.4761904761905 12.25  Z M 10.34 8.78  C 9.42857142857143 8.6  8.54857142857143 8.5  7.85714285714286 8.5  C 5.41619047619048 8.5  0.523809523809524 9.67  0.523809523809524 12  L 0.523809523809524 14.5  L 7.85714285714286 14.5  L 7.85714285714286 12.25  C 7.85714285714286 11.4  8.20285714285714 9.91  10.34 8.78  Z " fill-rule="nonzero" fill="#aaaaaa" stroke="none" transform="matrix(1 0 0 1 578 13 )" />
  </g>
</svg>