<?xml version="1.0" encoding="utf-8"?>
<svg version="1.1" xmlns:xlink="http://www.w3.org/1999/xlink" width="12px" height="16px" xmlns="http://www.w3.org/2000/svg">
  <g transform="matrix(1 0 0 1 -492 -13 )">
    <path d="M 12 4.8  L 7.5 0  L 1.5 0  C 0.675 0  0.00749999999999984 0.72  0 1.6  L 0 14.4  C 0 15.28  0.6675 16  1.4925 16  L 10.5 16  C 11.325 16  12 15.28  12 14.4  L 12 4.8  Z M 9 11.2  L 9 12.8  L 3 12.8  L 3 11.2  L 9 11.2  Z M 9 8  L 9 9.6  L 3 9.6  L 3 8  L 9 8  Z M 10.875 5.6  L 6.75 5.6  L 6.75 1.2  L 10.875 5.6  Z " fill-rule="nonzero" fill="#aaaaaa" stroke="none" transform="matrix(1 0 0 1 492 13 )" />
  </g>
</svg>