<?xml version="1.0" encoding="utf-8"?>
<svg version="1.1" xmlns:xlink="http://www.w3.org/1999/xlink" width="12px" height="16px" xmlns="http://www.w3.org/2000/svg">
  <g transform="matrix(1 0 0 1 -889 -148 )">
    <path d="M 12 8  C 10.5771428571429 8  9.42857142857143 6.928  9.42857142857143 5.6  L 9.42857142857143 1.6  L 10.2857142857143 1.6  C 10.7571428571429 1.6  11.1428571428571 1.24  11.1428571428571 0.8  C 11.1428571428571 0.36  10.7571428571429 0  10.2857142857143 0  L 1.71428571428571 0  C 1.24285714285714 0  0.857142857142857 0.36  0.857142857142857 0.8  C 0.857142857142857 1.24  1.24285714285714 1.6  1.71428571428571 1.6  L 2.57142857142857 1.6  L 2.57142857142857 5.6  C 2.57142857142857 6.928  1.42285714285714 8  0 8  L 0 9.6  L 5.11714285714286 9.6  L 5.11714285714286 15.2  L 5.97428571428571 16  L 6.83142857142857 15.2  L 6.83142857142857 9.6  L 12 9.6  L 12 8  Z " fill-rule="nonzero" fill="#3e3a39" stroke="none" transform="matrix(1 0 0 1 889 148 )" />
  </g>
</svg>