<?xml version="1.0" encoding="utf-8"?>
<svg version="1.1" xmlns:xlink="http://www.w3.org/1999/xlink" width="61px" height="49px" xmlns="http://www.w3.org/2000/svg">
  <g transform="matrix(1 0 0 1 -1015 -325 )">
    <path d="M 18.5541666666667 9.953125  C 19.7402777777778 11.1440972222222  20.3333333333333 12.5902777777778  20.3333333333333 14.2916666666667  C 20.3333333333333 15.9930555555556  19.7402777777778 17.4392361111111  18.5541666666667 18.6302083333333  C 17.3680555555556 19.8211805555556  15.9277777777778 20.4166666666667  14.2333333333333 20.4166666666667  C 12.5388888888889 20.4166666666667  11.0986111111111 19.8211805555556  9.9125 18.6302083333333  C 8.72638888888889 17.4392361111111  8.13333333333333 15.9930555555556  8.13333333333333 14.2916666666667  C 8.13333333333333 12.5902777777778  8.72638888888889 11.1440972222222  9.9125 9.953125  C 11.0986111111111 8.76215277777777  12.5388888888889 8.16666666666666  14.2333333333333 8.16666666666666  C 15.9277777777778 8.16666666666666  17.3680555555556 8.76215277777777  18.5541666666667 9.953125  Z M 39.65 13.2708333333333  L 52 26.5416666666667  L 52 40  L 8.13333333333333 40  L 8.13333333333333 34.7083333333333  L 18.3 24.5  L 23.3833333333333 29.6041666666667  L 39.65 13.2708333333333  Z M 56.6315104166667 4.38639322916667  C 56.4302951388889 4.18435329861111  56.1920138888889 4.08333333333333  55.9166666666667 4  L 5.08333333333333 4  C 4.80798611111111 4.08333333333333  4.56970486111111 4.18435329861111  4.36848958333333 4.38639322916667  C 4.16727430555556 4.58843315972222  4.06666666666667 4.82769097222222  4 5.10416666666667  L 4 43.8958333333333  C 4.06666666666667 44.1723090277778  4.16727430555556 44.4115668402778  4.36848958333333 44.6136067708333  C 4.56970486111111 44.8156467013889  4.80798611111111 44.9166666666667  5.08333333333333 45  L 55.9166666666667 45  C 56.1920138888889 44.9166666666667  56.4302951388889 44.8156467013889  56.6315104166667 44.6136067708333  C 56.8327256944444 44.4115668402778  56.9333333333333 44.1723090277778  57 43.8958333333333  L 57 5.10416666666667  C 56.9333333333333 4.82769097222222  56.8327256944444 4.58843315972222  56.6315104166667 4.38639322916667  Z M 59.5067708333333 1.49934895833334  C 60.5022569444444 2.49891493055555  61 3.70052083333334  61 5.10416666666667  L 61 43.8958333333333  C 61 45.2994791666667  60.5022569444444 46.5010850694444  59.5067708333333 47.5006510416667  C 58.5112847222222 48.5002170138889  57.3145833333333 49  55.9166666666667 49  L 5.08333333333333 49  C 3.68541666666667 49  2.48871527777778 48.5002170138889  1.49322916666667 47.5006510416667  C 0.497743055555556 46.5010850694444  0 45.2994791666667  0 43.8958333333333  L 0 5.10416666666667  C 0 3.70052083333334  0.497743055555556 2.49891493055555  1.49322916666667 1.49934895833334  C 2.48871527777778 0.499782986111106  3.68541666666667 0  5.08333333333333 0  L 55.9166666666667 0  C 57.3145833333333 0  58.5112847222222 0.499782986111106  59.5067708333333 1.49934895833334  Z " fill-rule="nonzero" fill="#000000" stroke="none" fill-opacity="0.101960784313725" transform="matrix(1 0 0 1 1015 325 )" />
  </g>
</svg>