<?xml version="1.0" encoding="utf-8"?>
<svg version="1.1" xmlns:xlink="http://www.w3.org/1999/xlink" width="1040px" height="171px" xmlns="http://www.w3.org/2000/svg">
  <g transform="matrix(1 0 0 1 -175 -242 )">
    <path d="M 176 243  L 1211 243  A 3 3 0 0 1 1214 246 L 1214 409  A 3 3 0 0 1 1211 412 L 179 412  A 3 3 0 0 1 176 409 L 176 243  Z " fill-rule="nonzero" fill="#ffffff" stroke="none" />
    <path d="M 175.5 242.5  L 1211 242.5  A 3.5 3.5 0 0 1 1214.5 246 L 1214.5 409  A 3.5 3.5 0 0 1 1211 412.5 L 179 412.5  A 3.5 3.5 0 0 1 175.5 409 L 175.5 242.5  Z " stroke-width="1" stroke="#aaaaaa" fill="none" stroke-opacity="0.501960784313725" />
  </g>
</svg>