<?xml version="1.0" encoding="utf-8"?>
<svg version="1.1" xmlns:xlink="http://www.w3.org/1999/xlink" width="12px" height="12px" viewBox="171 463  12 12" xmlns="http://www.w3.org/2000/svg">
  <path d="M 171.5 465  A 1.5 1.5 0 0 1 173 463.5 L 181 463.5  A 1.5 1.5 0 0 1 182.5 465 L 182.5 473  A 1.5 1.5 0 0 1 181 474.5 L 173 474.5  A 1.5 1.5 0 0 1 171.5 473 L 171.5 465  Z " fill-rule="nonzero" fill="#ffffff" stroke="none" />
  <path d="M 171.5 465  A 1.5 1.5 0 0 1 173 463.5 L 181 463.5  A 1.5 1.5 0 0 1 182.5 465 L 182.5 473  A 1.5 1.5 0 0 1 181 474.5 L 173 474.5  A 1.5 1.5 0 0 1 171.5 473 L 171.5 465  Z " stroke-width="1" stroke="#797979" fill="none" />
</svg>