<?xml version="1.0" encoding="utf-8"?>
<svg version="1.1" xmlns:xlink="http://www.w3.org/1999/xlink" width="12px" height="12px" viewBox="850 169.5  12 12" xmlns="http://www.w3.org/2000/svg">
  <path d="M 856 169.5  C 859.36 169.5  862 172.14  862 175.5  C 862 178.86  859.36 181.5  856 181.5  C 852.64 181.5  850 178.86  850 175.5  C 850 172.14  852.64 169.5  856 169.5  Z " fill-rule="nonzero" fill="#ffffff" stroke="none" />
  <path d="M 856 170  C 859.08 170  861.5 172.42  861.5 175.5  C 861.5 178.58  859.08 181  856 181  C 852.92 181  850.5 178.58  850.5 175.5  C 850.5 172.42  852.92 170  856 170  Z " stroke-width="1" stroke="#333333" fill="none" />
  <path d="M 856 178.5  C 854.32 178.5  853 177.18  853 175.5  C 853 173.82  854.32 172.5  856 172.5  C 857.68 172.5  859 173.82  859 175.5  C 859 177.18  857.68 178.5  856 178.5  " fill-rule="nonzero" fill="#333333" stroke="none" />
</svg>