<?xml version="1.0" encoding="utf-8"?>
<svg version="1.1" xmlns:xlink="http://www.w3.org/1999/xlink" width="12px" height="12px" viewBox="790 169.5  12 12" xmlns="http://www.w3.org/2000/svg">
  <path d="M 796 169.5  C 799.36 169.5  802 172.14  802 175.5  C 802 178.86  799.36 181.5  796 181.5  C 792.64 181.5  790 178.86  790 175.5  C 790 172.14  792.64 169.5  796 169.5  Z " fill-rule="nonzero" fill="#ffffff" stroke="none" />
  <path d="M 796 170  C 799.08 170  801.5 172.42  801.5 175.5  C 801.5 178.58  799.08 181  796 181  C 792.92 181  790.5 178.58  790.5 175.5  C 790.5 172.42  792.92 170  796 170  Z " stroke-width="1" stroke="#333333" fill="none" />
  <path d="M 796 178.5  C 794.32 178.5  793 177.18  793 175.5  C 793 173.82  794.32 172.5  796 172.5  C 797.68 172.5  799 173.82  799 175.5  C 799 177.18  797.68 178.5  796 178.5  " fill-rule="nonzero" fill="#333333" stroke="none" />
</svg>