<?xml version="1.0" encoding="utf-8"?>
<svg version="1.1" xmlns:xlink="http://www.w3.org/1999/xlink" width="12px" height="12px" viewBox="700 448.5  12 12" xmlns="http://www.w3.org/2000/svg">
  <path d="M 706 448.5  C 709.36 448.5  712 451.14  712 454.5  C 712 457.86  709.36 460.5  706 460.5  C 702.64 460.5  700 457.86  700 454.5  C 700 451.14  702.64 448.5  706 448.5  Z " fill-rule="nonzero" fill="#ffffff" stroke="none" />
  <path d="M 706 449  C 709.08 449  711.5 451.42  711.5 454.5  C 711.5 457.58  709.08 460  706 460  C 702.92 460  700.5 457.58  700.5 454.5  C 700.5 451.42  702.92 449  706 449  Z " stroke-width="1" stroke="#333333" fill="none" />
  <path d="M 706 457.5  C 704.32 457.5  703 456.18  703 454.5  C 703 452.82  704.32 451.5  706 451.5  C 707.68 451.5  709 452.82  709 454.5  C 709 456.18  707.68 457.5  706 457.5  " fill-rule="nonzero" fill="#333333" stroke="none" />
</svg>