<?xml version="1.0" encoding="utf-8"?>
<svg version="1.1" xmlns:xlink="http://www.w3.org/1999/xlink" width="12px" height="12px" viewBox="775 448.5  12 12" xmlns="http://www.w3.org/2000/svg">
  <path d="M 781 448.5  C 784.36 448.5  787 451.14  787 454.5  C 787 457.86  784.36 460.5  781 460.5  C 777.64 460.5  775 457.86  775 454.5  C 775 451.14  777.64 448.5  781 448.5  Z " fill-rule="nonzero" fill="#ffffff" stroke="none" />
  <path d="M 781 449  C 784.08 449  786.5 451.42  786.5 454.5  C 786.5 457.58  784.08 460  781 460  C 777.92 460  775.5 457.58  775.5 454.5  C 775.5 451.42  777.92 449  781 449  Z " stroke-width="1" stroke="#333333" fill="none" />
  <path d="M 781 457.5  C 779.32 457.5  778 456.18  778 454.5  C 778 452.82  779.32 451.5  781 451.5  C 782.68 451.5  784 452.82  784 454.5  C 784 456.18  782.68 457.5  781 457.5  " fill-rule="nonzero" fill="#333333" stroke="none" />
</svg>