<?xml version="1.0" encoding="utf-8"?>
<svg version="1.1" xmlns:xlink="http://www.w3.org/1999/xlink" width="132px" height="18px" xmlns="http://www.w3.org/2000/svg">
  <g transform="matrix(1 0 0 1 -155 -447 )">
    <path d="M 1.5 17  L 1.5 4  C 0.5 2.04000000000002  2.03999999999999 0.5  4 0.5  L 35 0.5  L 127 0.5  C 128.96 0.5  130.5 2.04000000000002  130.5 4  L 130.5 17  L 1.5 17  Z " fill-rule="nonzero" fill="#cde2ff" stroke="none" fill-opacity="0.603921568627451" transform="matrix(1 0 0 1 155 447 )" />
    <path d="M 1.5 17  L 1.5 4  C 0.5 2.04000000000002  2.03999999999999 0.5  4 0.5  L 35 0.5  L 127 0.5  C 128.96 0.5  130.5 2.04000000000002  130.5 4  L 130.5 17  " stroke-width="1" stroke="#6a8ec3" fill="none" transform="matrix(1 0 0 1 155 447 )" />
  </g>
</svg>