<?xml version="1.0" encoding="utf-8"?>
<svg version="1.1" xmlns:xlink="http://www.w3.org/1999/xlink" width="18px" height="13px" xmlns="http://www.w3.org/2000/svg">
  <g transform="matrix(1 0 0 1 -765 -335 )">
    <path d="M 18 6.5  C 16.5845454545455 2.933125  13.0909090909091 0.40625  9 0.40625  C 4.90909090909091 0.40625  1.41545454545455 2.933125  0 6.5  C 1.41545454545455 10.066875  4.90909090909091 12.59375  9 12.59375  C 13.0909090909091 12.59375  16.5845454545455 10.066875  18 6.5  Z M 13.0909090909091 6.5  C 13.0909090909091 8.7425  11.2581818181818 10.5625  9 10.5625  C 6.74181818181818 10.5625  4.90909090909091 8.7425  4.90909090909091 6.5  C 4.90909090909091 4.2575  6.74181818181818 2.4375  9 2.4375  C 11.2581818181818 2.4375  13.0909090909091 4.2575  13.0909090909091 6.5  Z M 11.4545454545455 6.5  C 11.4545454545455 5.15125  10.3581818181818 4.0625  9 4.0625  C 7.64181818181818 4.0625  6.54545454545455 5.15125  6.54545454545455 6.5  C 6.54545454545455 7.84875  7.64181818181818 8.9375  9 8.9375  C 10.3581818181818 8.9375  11.4545454545455 7.84875  11.4545454545455 6.5  Z " fill-rule="nonzero" fill="#555555" stroke="none" transform="matrix(1 0 0 1 765 335 )" />
  </g>
</svg>