<?xml version="1.0" encoding="utf-8"?>
<svg version="1.1" xmlns:xlink="http://www.w3.org/1999/xlink" width="12px" height="12px" viewBox="264 172.5  12 12" xmlns="http://www.w3.org/2000/svg">
  <path d="M 270 172.5  C 273.36 172.5  276 175.14  276 178.5  C 276 181.86  273.36 184.5  270 184.5  C 266.64 184.5  264 181.86  264 178.5  C 264 175.14  266.64 172.5  270 172.5  Z " fill-rule="nonzero" fill="#ffffff" stroke="none" />
  <path d="M 270 173  C 273.08 173  275.5 175.42  275.5 178.5  C 275.5 181.58  273.08 184  270 184  C 266.92 184  264.5 181.58  264.5 178.5  C 264.5 175.42  266.92 173  270 173  Z " stroke-width="1" stroke="#333333" fill="none" />
  <path d="M 270 181.5  C 268.32 181.5  267 180.18  267 178.5  C 267 176.82  268.32 175.5  270 175.5  C 271.68 175.5  273 176.82  273 178.5  C 273 180.18  271.68 181.5  270 181.5  " fill-rule="nonzero" fill="#333333" stroke="none" />
</svg>