<?xml version="1.0" encoding="utf-8"?>
<svg version="1.1" xmlns:xlink="http://www.w3.org/1999/xlink" width="12px" height="12px" viewBox="322 172.5  12 12" xmlns="http://www.w3.org/2000/svg">
  <path d="M 328 172.5  C 331.36 172.5  334 175.14  334 178.5  C 334 181.86  331.36 184.5  328 184.5  C 324.64 184.5  322 181.86  322 178.5  C 322 175.14  324.64 172.5  328 172.5  Z " fill-rule="nonzero" fill="#ffffff" stroke="none" />
  <path d="M 328 173  C 331.08 173  333.5 175.42  333.5 178.5  C 333.5 181.58  331.08 184  328 184  C 324.92 184  322.5 181.58  322.5 178.5  C 322.5 175.42  324.92 173  328 173  Z " stroke-width="1" stroke="#333333" fill="none" />
  <path d="M 328 181.5  C 326.32 181.5  325 180.18  325 178.5  C 325 176.82  326.32 175.5  328 175.5  C 329.68 175.5  331 176.82  331 178.5  C 331 180.18  329.68 181.5  328 181.5  " fill-rule="nonzero" fill="#333333" stroke="none" />
</svg>