<?xml version="1.0" encoding="utf-8"?>
<svg version="1.1" xmlns:xlink="http://www.w3.org/1999/xlink" width="12px" height="12px" viewBox="172 403  12 12" xmlns="http://www.w3.org/2000/svg">
  <path d="M 178 403  C 181.36 403  184 405.64  184 409  C 184 412.36  181.36 415  178 415  C 174.64 415  172 412.36  172 409  C 172 405.64  174.64 403  178 403  Z " fill-rule="nonzero" fill="#ffffff" stroke="none" />
  <path d="M 178 403.5  C 181.08 403.5  183.5 405.92  183.5 409  C 183.5 412.08  181.08 414.5  178 414.5  C 174.92 414.5  172.5 412.08  172.5 409  C 172.5 405.92  174.92 403.5  178 403.5  Z " stroke-width="1" stroke="#333333" fill="none" />
  <path d="M 178 412  C 176.32 412  175 410.68  175 409  C 175 407.32  176.32 406  178 406  C 179.68 406  181 407.32  181 409  C 181 410.68  179.68 412  178 412  " fill-rule="nonzero" fill="#333333" stroke="none" />
</svg>