<?xml version="1.0" encoding="utf-8"?>
<svg version="1.1" xmlns:xlink="http://www.w3.org/1999/xlink" width="12px" height="12px" xmlns="http://www.w3.org/2000/svg">
  <g transform="matrix(1 0 0 1 -565 -501 )">
    <path d="M 12 8.91333333333333  C 12 8.55333333333333  11.7 8.25333333333333  11.34 8.25333333333333  C 10.52 8.25333333333333  9.72666666666667 8.12  8.98666666666667 7.88  C 8.75333333333333 7.8  8.49333333333333 7.86  8.31333333333333 8.04  L 7.26666666666667 9.35333333333333  C 5.38 8.45333333333333  3.61333333333333 6.75333333333333  2.67333333333333 4.8  L 3.97333333333333 3.69333333333333  C 4.15333333333333 3.50666666666667  4.20666666666667 3.24666666666667  4.13333333333333 3.01333333333333  C 3.88666666666667 2.27333333333333  3.76 1.48  3.76 0.660000000000001  C 3.76 0.300000000000001  3.46 0  3.1 0  L 0.793333333333334 0  C 0.433333333333333 0  0 0.16  0 0.66  C 0 6.85333333333333  5.15333333333333 12  11.34 12  C 11.8133333333333 12  12 11.58  12 11.2133333333333  L 12 8.91333333333333  Z " fill-rule="nonzero" fill="#aaaaaa" stroke="none" transform="matrix(1 0 0 1 565 501 )" />
  </g>
</svg>