<?xml version="1.0" encoding="utf-8"?>
<svg version="1.1" xmlns:xlink="http://www.w3.org/1999/xlink" width="18px" height="16px" xmlns="http://www.w3.org/2000/svg">
  <g transform="matrix(1 0 0 1 -765 -334 )">
    <path d="M 7.50272727272727 3.67157894736842  C 7.96909090909091 3.47789473684211  8.46818181818182 3.36842105263158  9 3.36842105263158  C 11.2581818181818 3.36842105263158  13.0909090909091 5.25473684210526  13.0909090909091 7.57894736842105  C 13.0909090909091 8.12631578947368  12.9845454545455 8.64  12.7963636363636 9.12  L 15.1854545454545 11.5789473684211  C 16.4209090909091 10.5178947368421  17.3945454545455 9.14526315789474  17.9918181818182 7.57894736842105  C 16.5763636363636 3.8821052631579  13.0827272727273 1.26315789473684  8.99181818181818 1.26315789473684  C 7.84636363636364 1.26315789473684  6.75 1.47368421052632  5.73545454545455 1.85263157894737  L 7.50272727272727 3.67157894736842  Z M 1.85727272727273 0  L 0.818181818181818 1.06947368421053  L 2.68363636363636 2.98947368421053  L 3.06 3.37684210526316  C 1.70181818181818 4.46315789473684  0.638181818181818 5.91157894736842  0 7.57894736842105  C 1.41545454545455 11.2757894736842  4.90909090909091 13.8947368421053  9 13.8947368421053  C 10.2681818181818 13.8947368421053  11.4790909090909 13.6421052631579  12.5836363636364 13.1873684210526  L 12.9272727272727 13.5410526315789  L 15.3245454545455 16  L 16.3636363636364 14.9305263157895  L 1.85727272727273 0  Z M 4.90909090909091 7.57894736842106  C 4.90909090909091 6.91368421052632  5.07272727272727 6.29052631578948  5.34272727272727 5.72631578947369  L 6.61090909090909 7.03157894736842  C 6.57 7.20842105263158  6.54545454545455 7.39368421052632  6.54545454545455 7.57894736842105  C 6.54545454545455 8.97684210526316  7.64181818181818 10.1052631578947  9 10.1052631578947  C 9.18 10.1052631578947  9.36 10.08  9.53181818181818 10.0378947368421  L 10.8 11.3431578947368  C 10.2518181818182 11.6210526315789  9.64636363636364 11.7894736842105  9 11.7894736842105  C 6.74181818181818 11.7894736842105  4.90909090909091 9.90315789473684  4.90909090909091 7.57894736842106  Z M 9.00818181818182 5.06105263157895  L 8.86909090909091 5.06947368421053  L 11.4463636363636 7.7221052631579  L 11.4627272727273 7.58736842105263  C 11.4627272727273 6.18947368421053  10.3663636363636 5.06105263157895  9.00818181818182 5.06105263157895  Z " fill-rule="nonzero" fill="#555555" stroke="none" transform="matrix(1 0 0 1 765 334 )" />
  </g>
</svg>