<?xml version="1.0" encoding="utf-8"?>
<svg version="1.1" xmlns:xlink="http://www.w3.org/1999/xlink" width="354px" height="354px" xmlns="http://www.w3.org/2000/svg">
  <g transform="matrix(1 0 0 1 -36 -270 )">
    <path d="M 213 270  C 312.12 270  390 347.88  390 447  C 390 546.12  312.12 624  213 624  C 113.88 624  36 546.12  36 447  C 36 347.88  113.88 270  213 270  Z " fill-rule="nonzero" fill="#ffffff" stroke="none" fill-opacity="0" />
    <path d="M 213 270.5  C 311.84 270.5  389.5 348.16  389.5 447  C 389.5 545.84  311.84 623.5  213 623.5  C 114.16 623.5  36.5 545.84  36.5 447  C 36.5 348.16  114.16 270.5  213 270.5  Z " stroke-width="1" stroke="#ffffff" fill="none" />
  </g>
</svg>