<?xml version="1.0" encoding="utf-8"?>
<svg version="1.1" xmlns:xlink="http://www.w3.org/1999/xlink" width="22px" height="22px" xmlns="http://www.w3.org/2000/svg">
  <g transform="matrix(1 0 0 1 -15 -14 )">
    <path d="M 21.435606717579 10.6105308695418  C 21.4342376535794 5.21162698727203  17.444785158858 0.749847412701962  12.2539790045216 0.00302300094130746  L 12.2512408765225 0.00370753294108809  C 12.1225488605637 0.00370753294108809  12.018499996597 0.106387332908181  12.012339208599 0.234394816867156  L 12.0191845285968 8.26190157829446  C 12.018499996597 8.26258611029424  12.0191845285968 8.26395517429381  12.0191845285968 8.26463970629359  C 12.0191845285968 8.28996739028547  12.0034402926019 8.31324147827801  11.9801662046093 8.3241939902745  L 9.67808508934711 9.6556087298478  C 9.64728114935698 9.66861483784363  9.6151081453673 9.676829221841  9.5795124813787 9.676829221841  C 9.45150499741973 9.676829221841  9.34950972945242 9.57620301787325  9.34266440945461 9.4509336619134  L 9.34266440945461 9.08128638203186  L 9.34540253745373 9.07923278603252  L 9.1770076655077 4.39429577953397  C 9.17495406950836 4.3580155835456  9.14620372551757 4.32994977155459  9.10855446552964 4.32994977155459  C 9.07158973754149 4.32994977155459  9.04147032955114 4.35870011554538  9.04010126555158 4.39634937553331  L 8.79298521363077 9.38590312193424  L 8.62459034168474 4.7112340954324  C 8.62390580968496 4.67563843144381  8.59378640169462 4.64688808745302  8.55682167370646 4.64688808745302  C 8.51848788171875 4.64688808745302  8.48768394172862 4.67837655944293  8.48768394172862 4.71534128743108  L 8.24125242180759 9.70489503383201  L 8.23851429380847 9.70557956583179  L 8.071488485862 5.03227960332951  C 8.06943488986266 4.99531487534135  8.04000001387209 4.96724906335035  8.00303528588394 4.96724906335035  C 7.96401696189645 4.96724906335035  7.9338975539061 4.99942206734004  7.9338975539061 5.03570226332841  L 7.68815056598486 10.02320241373  L 7.68746603398508 10.0238869457298  L 7.51975569403882 5.35332511122662  C 7.51975569403882 5.31636038323846  7.4889517540487 5.28555644324834  7.45061796206098 5.28555644324834  C 7.41365323407283 5.28555644324834  7.38421835808226 5.3149913192389  7.3828492940827 5.35195604722706  L 7.13984043416058 10.2840091056464  L 6.97418369021367 5.67094795912483  C 6.97349915821389 5.63192963513733  6.94269521822376 5.6011256951472  6.90504595823583 5.6011256951472  C 6.86808123024768 5.6011256951472  6.83933088625689 5.62919150713821  6.83796182225733 5.66615623512636  L 6.59084577033653 10.6563945135271  L 6.59084577033653 17.0985251634625  C 6.59016123833675 17.1005787594618  6.59016123833675 17.1046859514605  6.59016123833675 17.1046859514605  C 6.59016123833675 17.2381696914177  6.48268971437119 17.3449566833835  6.35057503841353 17.3449566833835  C 6.30060420242954 17.3449566833835  6.25610962244381 17.3285279153888  6.21777583045609 17.3025156993971  C 4.06697628714539 15.8540459878613  2.65067957959929 13.3965761086489  2.65067957959929 10.6084772735424  C 2.65067957959929 6.67104921080431  5.47095141869544 3.39282546385493  9.20096628550002 2.68570390808155  C 9.28174106147414 2.64942371209318  9.33855721745593 2.57070253211841  9.34266440945461 2.4789752441478  L 9.34266440945461 0.261776096858381  L 9.34197987745483 0.259037968859259  C 9.34197987745483 0.125554228902038  9.23382382148949 0.0180827049364811  9.10239367753161 0.0180827049364811  C 9.10239367753161 0.0180827049364811  9.08938756953578 0.0180827049364811  9.06885160954236 0.0187672369362617  C 3.93212348318861 0.812824356681779  0.000171676448735931 5.25132984325931  0.000171676448735931 10.609846337542  C 0.000171676448735931 15.9717854918236  3.93896880318641 20.4143981703998  9.0818577175382 21.2016099701475  L 9.10444727353096 21.2016099701475  C 9.23519288548905 21.2016099701475  9.34266440945461 21.0961920421813  9.34334894145439 20.9647618982234  L 9.34266440945461 13.08100685675  L 9.34266440945461 13.0782687287509  C 9.34266440945461 13.0522565127592  9.35909317744935 13.031036020766  9.3782600734432 13.0200835087695  L 11.6810257207052 11.6900378331958  C 11.7118296606953 11.6770317252  11.7446871966848 11.6681328092028  11.7802828606734 11.6681328092028  C 11.9110284726315 11.6681328092028  12.0150773365981 11.7728662051693  12.0191845285968 11.9022427531278  L 12.0191845285968 11.9125107331245  C 12.018499996597 11.9152488611236  12.018499996597 11.917302457123  12.018499996597 11.9193560531223  L 12.0191845285968 12.1185548650585  L 12.0150773365981 12.1212929930576  L 12.1834722085442 16.8062299995561  C 12.1848412725437 16.8418256635447  12.2149606805341 16.8705760075355  12.2519254085222 16.8705760075355  C 12.2888901365104 16.8705760075355  12.3196940765005 16.8404565995452  12.3203786085003 16.803491871557  L 12.5674946604211 11.8139381251561  L 12.7345204683676 16.4879226196581  C 12.7372585963667 16.5248873476463  12.767378004357 16.5522686276375  12.8029736683456 16.5522686276375  C 12.8413074603333 16.5522686276375  12.8714268683237 16.5221492196472  12.8714268683237 16.4844999596592  L 13.1185429202445 11.4963152772579  L 13.1212810482436 11.4942616812585  L 13.2889913881899 16.1675616437608  C 13.2910449841892 16.2038418397492  13.3211643921796 16.2339612477395  13.3567600561682 16.2339612477395  C 13.3944093161561 16.2339612477395  13.425897788146 16.2031573077494  13.425897788146 16.1648235157617  L 13.6730138400668 11.1766388333603  L 13.8393551160135 15.8472006678635  C 13.8400396480133 15.8841653958516  13.8715281200032 15.9149693358418  13.9084928479913 15.9149693358418  C 13.9454575759795 15.9149693358418  13.9769460479694 15.8855344598512  13.9769460479694 15.8485697318631  L 14.2213239718911 10.9165166734437  L 14.3862961838382 15.5295778199653  L 14.386980715838 15.5316314159646  C 14.386980715838 15.5685961439528  14.4171001238283 15.6007691479425  14.455433915816 15.6007691479425  C 14.4923986438042 15.6007691479425  14.5218335197948 15.5720188039517  14.5238871157941 15.5343695439638  L 14.7703186357151 10.5427622015635  L 14.7703186357151 4.05339884364322  C 14.7771639557129 3.92607589168403  14.8818973516794 3.82544968771628  15.0105893676381 3.82544968771628  C 15.057822075623 3.82544968771628  15.1023166556087 3.84050939171145  15.1392813835969 3.86241441570443  C 17.3345755068933 5.30403880724241  18.7857833464282 7.7875209024465  18.7857833464282 10.6112154015415  C 18.7857833464282 14.5534351882781  15.9538744633358 17.8378197232255  12.2135916165345 18.5380959590011  C 12.1020129005703 18.557262854995  12.0164464005977 18.6517282709647  12.0137082725986 18.7680987109274  L 12.0137082725986 18.7790512229239  C 12.0143928045984 18.7811048189232  12.0157618685979 18.7831584149226  12.0157618685979 18.7865810749215  L 12.0137082725986 18.7865810749215  L 12.0137082725986 20.9825597302177  C 12.0178154645973 21.1112517461764  12.1232333925635 21.2146160781433  12.252609940522 21.2146160781433  L 12.2676696445172 21.2146160781433  C 17.4516304788558 20.463684474384  21.435606717579 16.0032739638135  21.435606717579 10.6105308695418  Z " fill-rule="nonzero" fill="#e60012" stroke="none" transform="matrix(1 0 0 1 15 14 )" />
  </g>
</svg>