<?xml version="1.0" encoding="utf-8"?>
<svg version="1.1" xmlns:xlink="http://www.w3.org/1999/xlink" width="354px" height="354px" xmlns="http://www.w3.org/2000/svg">
  <g transform="matrix(1 0 0 1 -46 -287 )">
    <path d="M 223 287  C 322.12 287  400 364.88  400 464  C 400 563.12  322.12 641  223 641  C 123.88 641  46 563.12  46 464  C 46 364.88  123.88 287  223 287  Z " fill-rule="nonzero" fill="#ffffff" stroke="none" />
    <path d="M 223 287.5  C 321.84 287.5  399.5 365.16  399.5 464  C 399.5 562.84  321.84 640.5  223 640.5  C 124.16 640.5  46.5 562.84  46.5 464  C 46.5 365.16  124.16 287.5  223 287.5  Z " stroke-width="1" stroke="#ffffff" fill="none" />
  </g>
</svg>