<?xml version="1.0" encoding="utf-8"?>
<svg version="1.1" xmlns:xlink="http://www.w3.org/1999/xlink" width="102px" height="21px" xmlns="http://www.w3.org/2000/svg">
  <g transform="matrix(1 0 0 1 -43 -14 )">
    <path d="M 66.0739329909906 16.4367139314808  L 66.1363774713299 19.381402554293  L 66.0956151022195 19.381402554293  L 64.9950311362394 16.4367139314808  L 63.2639313757222 16.4367139314808  L 63.2639313757222 20.2719997606039  L 64.2881943101765 20.2719997606039  L 64.2266171142863 17.3247121187072  L 64.2673794833967 17.3247121187072  L 65.3532196137412 20.2719997606039  L 67.099063209894 20.2719997606039  L 67.099063209894 16.4367139314808  L 66.0739329909906 16.4367139314808  Z M 72.487501492506 19.4333829359843  L 72.487501492506 18.688330798409  L 74.1249345325143 18.688330798409  L 74.1249345325143 17.9753332295433  L 72.487501492506 17.9753332295433  L 72.487501492506 17.2761970957953  L 74.2342123731081 17.2761970957953  L 74.2342123731081 16.4375802711757  L 71.46497312695 16.4375802711757  L 71.46497312695 20.2728661002988  L 74.2706383199727 20.2728661002988  L 74.2706383199727 19.4333829359843  L 72.487501492506 19.4333829359843  Z M 63.1286350016537 11.18323002188  C 64.1823856073793 10.9553826821332  65.1285929414096 9.90971067044317  65.9429730391679 8.07566953643512  L 65.9499113147612 8.06180810131744  L 65.9499113147612 8.04448130742034  C 65.9499113147612 7.94052054403774  66.021028639592 7.71873758215485  66.3540658680683 7.2422507499846  C 66.479822113196 7.05858673467534  66.56828512701 6.84113547126673  66.6159857717137 6.59856035670733  C 66.6237913317561 6.54311461623661  66.628995038451 6.48593619637618  66.628995038451 6.42875777651575  C 66.628995038451 6.20784115432772  66.5639487047642 5.99472158939339  66.4390597440857 5.79026542140761  C 66.1068898000585 5.28345669991743  65.3046516845884 4.89187115784297  63.9803083307258 4.58778592494886  C 63.4000950342398 4.44224085621322  62.8571749690676 4.1884033256207  62.3662919708447 3.83493673011986  C 62.356751841904 3.82887235225587  62.2665542591917 3.79855046293595  62.1997733566066 3.77515929117486  C 62.2457394324119 3.62008448579581  62.2812980948274 3.46587602011162  62.2812980948274 3.31340023381714  C 62.2812980948274 3.16179078721752  62.2587486991493 3.01018134061789  62.2145171922423 2.86117091310283  C 62.1399307296148 2.62725919549198  62.002899786648 2.48604582523061  61.8077607855877 2.44272884048786  C 61.5545137264339 2.43060008475989  61.2943283916868 2.67664055809871  60.996849825626 3.19211267653744  C 60.3637321777414 3.91810534082594  59.6161329825682 4.55053331807009  58.7826726269283 5.05387668078085  C 58.5034070342998 5.20548612738048  58.3481631179007 5.40647693658684  58.3264810066718 5.6594481274845  C 58.2961260509513 5.94187486800724  58.4123421671383 6.15845979172099  58.6733947863346 6.3066038795412  C 58.8763393474373 6.41229732231351  59.1720833445998 6.37677739482445  59.5805743201527 6.19831141768432  C 59.808670130281 6.11081110850396  60.300420412953 5.70103243283754  61.0697017193552 4.95338127617767  C 61.3888623966449 4.95338127617767  61.6516495847394 4.96897539068506  61.8728071192744 4.99409924183586  C 61.6785354026633 5.23147631822613  61.0402140480838 5.81798829164297  59.2345278249391 7.22838931486692  C 58.1642988146795 7.94485224251201  57.9778326581107 8.1337142959904  57.9344684356529 8.21255120822221  C 57.8989097732374 8.27319498686206  57.8728912397627 8.34596752122988  57.8728912397627 8.42826979224111  C 57.8728912397627 8.53656225409798  57.9197246000172 8.65871615107254  58.0619592496789 8.78433540682651  C 58.2536291129426 8.94547459006955  58.4392279850622 9.02604418169106  58.6161540126902 9.02604418169106  C 59.2128457137102 8.98792523511744  60.5276489386321 7.90153525776926  62.6420884256766 5.70363145192211  C 62.6455575634733 5.70016609314269  62.9334960005934 5.33716976099844  63.0306318588989 5.21501586402388  C 63.3142338737732 5.29385277625569  63.5787556307661 5.37788772665663  63.8224625609792 5.46971973431126  C 63.2708696513154 6.31959897496402  61.9838195287665 7.54893500196328  59.9873307268073 9.13433664354794  C 59.4123211370163 9.44361991461117  59.051530806167 9.7416407696413  58.8928177519713 10.0353299261971  C 58.8659319340474 10.0951073651421  58.8442498228185 10.1652808804254  58.8442498228185 10.2380534147932  C 58.8442498228185 10.3550092735986  58.8954196053187 10.4849602278269  59.0541326595145 10.6088468041912  C 59.2631482117613 10.7691196477393  59.4617563506182 10.848822899666  59.6464879382886 10.848822899666  C 60.3307753686734 10.7907781401107  61.8190354834267 9.45834768942371  64.2049350030574 6.7744273147629  C 64.2075368564049 6.77269463537319  64.6307716675935 6.22863330700424  64.78861743734 6.02677615810303  C 64.8779477356032 6.12380620392679  64.9438613537391 6.23123232608881  64.9716144561121 6.36378229940162  C 65.0045712651801 6.49719861240929  65.0193151008158 6.6358129635861  65.0193151008158 6.77615999415261  C 65.0193151008158 7.33148373855467  64.7660680416619 7.93185714708919  64.2621757767018 8.5651514640282  C 63.926536694878 8.95153896793353  63.5770210618678 9.27121831533503  63.2231690066118 9.50772905203045  C 62.8363601422878 9.7684973001818  62.5995914876679 9.99114660175954  62.4989864915657 10.191271071271  C 62.4157271844467 10.370603388106  62.373230246438 10.5248118537902  62.373230246438 10.6530301286288  C 62.373230246438 10.7760503652982  62.4113907622009 10.8765457699014  62.4877117937267 10.9519173233537  C 62.6819835103379 11.1468437546961  62.8979373381779 11.2248143272331  63.1286350016537 11.18323002188  Z M 71.1865748187706 5.69583439466841  C 71.470176833645 5.8578399176063  71.8118869066128 5.85177553974231  72.1926247797927 5.66637884504334  L 72.20563404653 5.66118080687421  L 72.1978284864876 5.66291348626392  C 72.1978284864876 5.66291348626392  72.3235847316154 5.56588344044016  72.4510755456414 5.47058607400611  C 72.4744922257687 6.22256892914026  72.4892360614043 6.96415570793615  72.4892360614043 7.68408399436066  C 72.4892360614043 8.61366648694008  72.471023087972 9.51812512836871  72.4311280033108 10.3879301820031  C 72.4233224432684 10.4944899644703  72.4198533054718 10.5967180484632  72.4198533054718 10.6911490752024  C 72.4198533054718 11.1225862432402  72.4935724836501 11.42233977766  72.6410108400068 11.6051374532744  C 72.8309461343722 11.8009302243117  73.0104740153476 11.8953612510508  73.1856654740773 11.8936285716611  C 73.3313692615357 11.8927622319663  73.4666656356042 11.822588716683  73.5863508895878 11.6943704418445  C 73.791897304038 11.4639240830131  73.8925023001402 11.0922643539203  73.8925023001402 10.5646634797536  C 73.8925023001402 10.4234501094922  73.885564024547 10.2709743231977  73.8716874733605 10.1063697811753  C 73.8612800599706 9.81614598339883  73.8560763532756 9.4912685978282  73.8560763532756 9.12913860537881  C 73.8560763532756 8.11898652117787  73.8942368690386 6.83333841401304  73.9670887627677 5.29645179534025  C 73.9705579005643 5.23927337547982  73.9714251850135 5.18122861592454  73.9714251850135 5.12405019606411  C 73.9714251850135 4.7255339364308  73.8760238956062 4.40672092872416  73.7103725658173 4.14855169965737  C 73.7814898906481 4.02033342481883  74.2541599154386 3.1678551650815  74.2541599154386 3.1678551650815  C 74.4961322767534 2.63332357335596  74.6132156773896 2.24347071067121  74.6132156773896 1.96884102740217  C 74.6132156773896 1.87441000066297  74.5993391262031 1.79470674873631  74.5707187393809 1.72539957314791  C 74.3729778849732 1.33034867229403  74.0781011722598 1.36760127917279  73.9211226869624 1.42564603872808  C 73.8023047174279 1.47935909980909  73.647928085478 1.61277541281676  73.3972828796716 2.21748051982556  C 73.3530513727646 2.36649094734062  73.1795944829332 2.65844742450675  72.5785663596675 3.29087540175091  C 72.1570661173772 3.74916910032921  71.6791923858918 4.1112990927786  71.1596890008468 4.36686930276083  C 70.768543714277 4.57565716922089  70.7069665183868 4.85548489065905  70.7234449229208 5.05560936017056  C 70.7286486296158 5.24707043273352  70.8153770745315 5.51476939844371  71.1865748187706 5.69583439466841  Z M 69.9134012474083 18.8200144320269  L 69.9134012474083 18.9317722526632  C 69.9134012474083 19.381402554293  69.7095894018564 19.4134571230026  69.2846200217695 19.4134571230026  C 68.6705826317664 19.4134571230026  68.6445640982917 19.1934068405094  68.6445640982917 18.6198899625154  L 68.6445640982917 18.0212492333706  C 68.6445640982917 17.475455225612  68.7009375874869 17.2952565690821  69.2846200217695 17.2952565690821  C 69.6332683703306 17.2952565690821  69.8726388782979 17.3203804202329  69.9081975407133 17.6643172790903  L 69.9081975407133 17.8141940463003  L 70.9636827153373 17.8141940463003  L 70.9636827153373 17.6643172790903  C 70.9420006041084 16.5138181643229  70.4519848903347 16.4063920421609  69.3982342846091 16.4063920421609  C 68.2707645007051 16.4063920421609  67.590813492566 16.5891897177753  67.590813492566 17.857511031043  L 67.590813492566 18.8503363213469  C 67.590813492566 20.2503412682325  68.3522892389258 20.3023216499238  69.3982342846091 20.3023216499238  C 69.8431512070266 20.3023216499238  70.2672533026643 20.307519688093  70.6150343667762 20.020761249096  C 70.9645499997865 19.7296711116247  70.9680191375831 19.3519470046679  70.9680191375831 18.9309059129684  L 70.9680191375831 18.8200144320269  L 69.9134012474083 18.8200144320269  Z M 61.5640538553746 18.8650640961594  L 60.6117755302003 18.8650640961594  L 61.0783745638467 17.2042909011223  L 61.0879146927875 17.2042909011223  L 61.5640538553746 18.8650640961594  Z M 61.8476558702489 16.4367139314808  L 60.2908802840122 16.4367139314808  L 59.1382592510827 20.2719997606039  L 60.2032845546474 20.2719997606039  L 60.3932198490128 19.6109825734295  L 61.7704675542739 19.6109825734295  L 61.96994297758 20.2719997606039  L 63.014153454365 20.2719997606039  L 61.8476558702489 16.4367139314808  Z M 43.4785712371053 4.9143959899092  L 42.5124163607445 4.9143959899092  C 42.7335738952795 4.80437084866261  42.940854878628 4.70041008528001  42.9790153943909 4.68308329138291  C 43.1602778442647 4.75412314636102  43.3155217606638 4.83555907767739  43.4785712371053 4.9143959899092  Z M 41.8289962148088 2.98852284824651  C 41.7786937167578 2.95906729862144  41.7223202275625 2.96079997801115  41.6685485917148 2.94693854289347  C 42.0484191804456 2.89582450089703  42.443033604812 2.87156698944109  42.857595571509 2.8828294054742  C 43.2331297379939 2.8828294054742  43.5306083040547 2.88889378333819  43.7569695452847 2.89928985967645  C 43.6086639044789 3.00498330244876  43.3640896898166 3.18431561928375  42.940854878628 3.49359889034698  C 42.8671357004497 3.45547994377336  42.6260306235841 3.33592506588337  42.6260306235841 3.33592506588337  C 42.3589070132437 3.24149403914418  42.0909161184543 3.12453818033875  41.8289962148088 2.98852284824651  Z M 47.5582772859395 12.0720945488013  C 47.981512097128 12.2583575831951  48.3561789791638 12.2306347129597  48.6762069409027 11.9880595984003  C 49.0170497294214 11.7056328578776  49.324068424423 11.3495672432922  49.5911920347633 10.9224617737287  C 49.6978680220096 10.7422631171988  49.7178155643402 10.603648766022  49.6571056528992 10.5014206820291  C 49.5946611725599 10.3974599186465  49.4576302295931 10.3489448957347  49.2382072639564 10.3558756132935  C 48.8513983996324 10.364539010242  48.2000677783156 10.3480785560398  47.306764795684 10.3099596094662  C 45.3883315941488 10.2579792277749  44.2712692236347 10.2319890369292  43.9529758307941 10.2345880560138  L 43.9529758307941 9.67319993374775  C 44.1030160404983 9.67666529252717  45.4646526256747 9.70092280398311  45.4646526256747 9.70092280398311  C 45.9034985569481 9.70092280398311  46.1541437627544 9.59696204060051  46.2374030698735 9.38384247566618  C 46.262554318899 9.30500556343437  46.2738290167381 9.23309936876141  46.2738290167381 9.17418826951127  C 46.2738290167381 9.01997980382707  46.2096499675004 8.91948439922389  46.1446036338137 8.85364258241491  C 46.0379276465674 8.76094423506543  45.6953502891504 8.64225569687029  43.9850653554129 8.62492890297319  C 43.9859326398621 8.33383876550191  43.9980746221503 8.12071920056758  44.0171548800317 7.9777731509165  C 44.4117693043981 7.98990190664447  44.7274608438913 8.04014960894606  44.9373436805872 8.12591723873671  C 45.3302235360553 8.28619008228488  45.6372422310569 8.27319498686206  45.847992352202 8.08260025399396  C 46.0726190245337 7.88854016234643  46.2243938031361 7.66935621954812  46.2972456968653 7.42938012407328  C 46.3440790571198 7.20413180341098  46.2833691456788 7.02826484535541  46.118585100339 6.91217532624484  C 45.8913565746599 6.80301652469311  45.228751255504 6.76576391781435  44.0934759115576 6.79262044835485  C 44.057049964693 6.62108518877356  43.9954727688028 6.45648064675111  43.8966023415989 6.30400486045663  C 43.7959973454967 6.15412809324671  43.6745775226148 6.05276634894867  43.5340774418513 5.99905328786766  C 44.0284295778708 5.9964542687831  44.593031754272 5.99385524969853  45.2374240999955 5.99385524969853  C 46.5687057294514 5.99385524969853  46.6129372363584 5.98259283366542  46.638088485384 5.97652845580143  L 46.6554341743671 5.97306309702201  L 46.8028725307238 5.8578399176063  C 47.019693643013 5.56155174196588  46.9954096784366 5.2955854556454  46.7473663259778 5.06947079528824  C 46.6424249076298 4.98023780671817  46.3475481949164 4.86588096699731  45.0422850989352 4.90140089448637  C 44.9703004896552 4.76451922269928  44.7439392484253 4.53060750508842  43.9946054843537 4.0844425622381  C 44.1342382806679 3.98048179885549  44.4707446469408 3.7301096270424  44.4707446469408 3.7301096270424  C 44.6771583458402 3.53864855447944  44.7474083862219 3.35931623764445  44.7474083862219 3.20424143226541  C 44.7474083862219 3.11760746277991  44.7222571371963 3.04396858871723  44.6910348970267 2.97552775282369  C 44.8133220043578 2.98765650855166  44.9442819561805 3.00238428336419  44.9442819561805 3.00238428336419  C 45.4516433589373 3.07602315742687  45.7985571386001 3.04136956963267  46.0032362686011 2.89928985967644  C 46.4186655197473 2.62206115732284  46.6406903387315 2.37861970306859  46.6849218456384 2.15770308088056  C 46.7014002501724 2.08146518773332  46.6840545611893 2.01129167245006  46.638088485384 1.95411325258963  C 46.5409526270784 1.83542471439449  46.3154586702976 1.77997897392377  45.9269152370753 1.77997897392377  C 45.9269152370753 1.77997897392377  43.8185467411748 1.79210772965174  43.614734895623 1.79210772965174  C 43.6355497224027 1.72193421436849  43.6572318336316 1.64309730213668  43.6572318336316 1.64309730213668  C 43.714472607276 1.57205744715857  43.7448275629965 1.48542347767307  43.7448275629965 1.38839343184931  C 43.7448275629965 1.30955651961751  43.725747305115 1.222922550132  43.6841176515555 1.13802126003621  C 43.570503388716 0.933565092050432  43.3536822764267 0.807079496601601  43.034521599137 0.752500095825736  C 42.7630615665509 0.7204455271161  42.5349657564226 0.781955645450806  42.3502341687522 0.931832412660722  C 42.2652402927348 1.00373860733369  42.2227433547261 1.13455590125679  42.2227433547261 1.3346803707683  C 42.2227433547261 1.45856694713257  42.2435581815059 1.61450809220647  42.2747804216755 1.79384040904145  L 41.7387986320965 1.79384040904145  C 40.8220789693377 1.7331966304016  40.1958995970464 1.74445904643472  39.8316401284005 1.82329595866652  C 39.4170781617035 1.92898940143884  39.1100594667019 2.13084655034005  38.9123186122941 2.43146642445474  C 38.7683493937341 2.73208629856943  38.773553100429 3.00238428336419  38.9261951634806 3.24236037883903  C 39.1447508446682 3.52825247814118  39.5983406115772 3.53691587508973  40.3181867043775 3.27528128724352  C 40.5280695410735 3.19384535592715  40.7509616445068 3.13060255820273  40.9773228857367 3.07515681773201  C 40.9721191790418 3.07688949712172  40.9686500412452 3.07862217651143  40.9643136189994 3.08035485590114  C 40.7422888000152 3.21723652768823  40.6295418216248 3.38617276818496  40.6295418216248 3.58283187891705  C 40.6295418216248 3.59236161556045  40.6295418216248 3.60189135220386  40.630409106074 3.61228742854212  C 40.6425510883622 3.85572888279637  40.7830511691256 4.01080368817542  41.0371655127286 4.05758603169759  C 41.2574557628144 4.08877426071237  41.5054991152733 4.15548241721621  41.7717554411645 4.24471540578627  C 41.5271812265022 4.38679511574249  40.7379523777695 4.84595515401565  40.6971900086591 4.86934632577673  C 40.0007605959861 4.78444503568094  39.475186219797 4.79137575323978  39.1360780001766 4.89013847845325  C 38.8828309410228 4.96377735251593  38.6894265088608 5.10499072277729  38.5593338414873 5.30684787167851  C 38.4899510855547 5.41773935261995  38.4049572095373 5.70449779161696  38.4587288453851 6.91044264685513  C 38.4587288453851 8.17356592195373  38.3347071691556 9.00005399084541  38.0910002389425 9.36651568176908  C 37.6981203834744 9.73644273147216  37.1656077316921 10.1184985369032  36.5194808170702 10.484093888132  C 36.0667583346103 10.7543918729268  35.9175854093553 11.0732048806334  36.0719620413052 11.440532911252  C 36.1716997529583 11.6805090067268  36.3295455227048 11.8260540754624  36.5437647816466 11.8702373999001  C 36.9045551124959 11.9334801976245  37.4049782396594 11.7532815410946  38.0753891188577 11.3166463348877  C 38.8863000788194 10.6850846973384  39.3858559215338 9.8897848574615  39.5653838025093 8.94547459006954  C 39.663386945264 8.35376457848357  39.7136894433151 7.61304413938254  39.7136894433151 6.74410542544297  C 39.7136894433151 6.2217025894454  39.9469889601384 6.13853397873932  40.1213131344189 6.12380620392678  L 40.1360569700546 6.12293986423193  L 40.1508008056902 6.1177418260628  C 40.2262545527669 6.07962287948918  40.730146817727 6.02504347871331  42.9954937989249 6.00251864664708  C 42.7743362643899 6.08048921918403  42.5419040320158 6.26675225357786  42.5419040320158 6.71811523459732  C 42.5419040320158 6.74757078422239  42.5453731698125 6.77702633384746  42.5471077387108 6.80648188347253  L 41.7387986320965 6.80648188347253  C 41.7153819519693 6.75103614300181  41.6832924273505 6.69818942161566  41.6260516537061 6.66007047504204  C 41.3910175679846 6.44435189102314  41.1395050777291 6.30400486045663  40.8914617252702 6.25289081846018  C 40.707597422049 6.23296500547852  40.569699194633 6.26675225357786  40.4725633363274 6.35251988336851  C 40.3771620469202 6.4374211734643  40.3268595488691 6.5682384673874  40.3199212732758 6.74150640635841  C 40.3867021758609 7.12529489117917  40.343337953403 7.55153402104784  40.1915631748006 8.02282281504896  C 40.050195809588 8.24720479601641  40.1239149877663 8.40227960139545  40.2115107171312 8.49064625027067  C 40.3736929091235 8.6266615823629  40.5740356168788 8.57034950219733  40.8168752626427 8.32950706702763  C 41.0866007263305 8.12245187995729  41.7205856586642 7.99596628450846  42.6763331216352 7.96477805549368  C 42.6971479484149 8.09992704789106  42.708422646254 8.31997733038423  42.7101572151523 8.62406256327834  C 41.4621348928155 8.57208218158704  40.7327486710745 8.6517854335137  40.4942454475564 8.86837035722745  C 40.2826280419621 9.06936116643381  40.2305909750126 9.3006738649601  40.3424706689539 9.53891728104523  C 40.4907763097597 9.82134402156796  40.851566640609 9.90971067044317  41.4187706703576 9.80661624675542  C 41.7769591478594 9.75203684597956  42.2062649501921 9.71998227726992  42.6824041127793 9.7069871818471  L 42.6824041127793 10.2397860941829  C 42.5280274808293 10.2406524338778  40.9157456898466 10.2536475293006  40.9157456898466 10.2536475293006  C 39.9634673646723 10.2839694186205  39.2713743742451 10.4520393194224  38.8576796919972 10.7561245523165  C 38.6070344861909 10.980506533284  38.4821455255123 11.201423155472  38.4821455255123 11.4128100410166  C 38.4821455255123 11.5159044647044  38.5116331967836 11.6163998693075  38.5706085393263 11.7160289342159  C 38.7796240915731 12.0253122052791  39.176840369287 12.1024164381212  39.7501153901797 11.9447426136576  C 41.7379313476474 11.3253097318362  43.7838553632085 11.18323002188  45.8332485165663 11.5228351822632  C 46.3622920305521 11.607736472359  46.9425053270381 11.793133167058  47.5582772859395 12.0720945488013  Z M 57.9344684356529 17.7665453630832  C 57.935335720102 18.2005815502056  57.9500795557377 18.3643197525332  57.5103663400151 18.3643197525332  L 56.7176683534857 18.3643197525332  L 56.7176683534857 17.325578458402  L 57.5103663400151 17.325578458402  C 57.8477399907372 17.325578458402  57.9344684356529 17.4252075233104  57.9344684356529 17.7665453630832  Z M 58.2623019574342 18.7784301266739  C 58.9899536102768 18.610360225872  58.9899536102768 18.2378341570844  58.9899536102768 17.5967427828917  C 58.9899536102768 16.6403037597717  58.5545768168001 16.4523080459882  57.6682121097617 16.4367139314808  L 55.6925381345823 16.4367139314808  L 55.6925381345823 20.2719997606039  L 56.7176683534857 20.2719997606039  L 56.7176683534857 19.2549169588441  L 57.5103663400152 19.2549169588441  C 57.8173850350167 19.2549169588441  57.940539426797 19.4489770504917  57.9301320134071 19.7348691497938  L 57.9301320134071 20.2719997606039  L 58.9526603789631 20.2719997606039  L 58.9526603789631 19.4992247527932  C 58.9526603789631 19.0625895465863  58.681200346377 18.8338758671446  58.2623019574342 18.8200144320269  L 58.2623019574342 18.7784301266739  Z M 51.2719892972294 19.0417973939098  C 51.2702547283311 18.1667943021062  50.9892545668043 18.0212492333706  49.8522446539595 17.9398133020542  L 49.4272752738726 17.9077587333446  C 49.1575498101848 17.8886992600578  49.0101114538282 17.8783031837195  49.0101114538282 17.5716189317409  C 49.0101114538282 17.355900347722  49.0543429607352 17.2432761873908  49.6068031548481 17.2432761873908  C 50.0161614148502 17.2432761873908  50.1800781757409 17.2432761873908  50.1800781757409 17.6383270882447  L 51.1627114566356 17.6383270882447  L 51.1627114566356 17.4797869240862  C 51.1627114566356 16.4219861566683  50.4472017860812 16.4063920421609  49.6068031548481 16.4063920421609  C 48.6033550471736 16.4063920421609  47.9841139504755 16.477431897139  47.9841139504755 17.5776833096048  C 47.9841139504755 18.6770683823758  48.5374414290376 18.6710040045119  49.4836487630678 18.7385785007106  L 49.7100100042978 18.7524399358282  C 50.1913528735799 18.7827618251482  50.2477263627751 18.777563786979  50.2477263627751 19.1102382298034  C 50.2477263627751 19.4333829359843  50.0898805930285 19.4637048253042  49.6076704392973 19.4637048253042  C 49.1055127432354 19.4637048253042  48.9624108091245 19.4221205199512  48.9624108091245 19.0244706000127  L 47.9797775282297 19.0244706000127  C 47.9797775282297 20.2815294972473  48.6293735806483 20.301455310229  49.6076704392973 20.301455310229  C 51.297140546255 20.301455310229  51.2719892972294 19.6776907299334  51.2719892972294 19.0417973939098  Z M 55.3300132348347 11.7428854647564  C 56.1738810038643 11.207487533336  56.7601652914944 10.6166438614449  57.0715204087417 9.98508222389555  L 57.0741222620892 9.9842158842007  C 57.376804534845 9.33792647183886  57.5415885801848 8.52096813959059  57.5641379758629 7.55240036074269  C 57.8659529641695 7.43977620041154  58.0819067920096 7.30635988740387  58.2050611837898 7.14608704385569  C 58.2588328196376 7.06725013162389  58.2848513531123 6.98754687969723  58.2848513531123 6.90697728807571  C 58.2848513531123 6.81254626133651  58.2484254062477 6.72071425368188  58.1755735125185 6.62974858572211  C 58.0515518362891 6.50499566966299  57.8581474041271 6.45648064675111  57.5849528026426 6.47120842156364  C 57.5901565093376 6.3161336161846  57.6153077583631 5.5208337763077  57.6205114650581 5.38135308543604  C 57.9309992978563 5.44719490224502  58.1825117881118 5.4168730129251  58.3603051001889 5.26872892510489  C 58.576258928029 5.08159955101621  58.7210954310382 4.86068292882818  58.7896109025216 4.61550879518422  C 58.8347096938778 4.40325556994474  58.7713979290893 4.23518566914287  58.6048793148512 4.12429418820143  C 58.3559686779431 3.98741251641434  58.0333388628568 3.95795696678927  57.6508664207786 4.01600172634455  C 57.6508664207786 3.9978085927526  57.6499991363294 3.98134813855035  57.6499991363294 3.96142232556869  C 57.6499991363294 3.70065407741733  57.6820886609482 3.46587602011162  57.7462677101858 3.26921690937953  C 57.7974374926861 3.11414210400049  57.8234560261608 2.95300292075746  57.8234560261608 2.78320034056588  C 57.8234560261608 2.57441247410582  57.7835609414996 2.35782755039207  57.7037707721771 2.13171289003491  C 57.5736781048036 1.74359270673987  57.3776718192941 1.52787412272097  57.1218229067928 1.49581955401133  C 56.8009276606048 1.45510158835315  56.5494151703493 1.58678522197111  56.3742237116196 1.88220705791667  C 56.3534088848398 1.91339528693145  56.3178502224244 1.9662420083176  56.3178502224244 2.63418991305081  C 56.3178502224244 2.94867122228318  56.3256557824668 3.40523224147177  56.3473378936957 4.05585335230788  C 55.829569077549 4.05671969200274  55.5771893028444 4.06624942864614  55.4514330577166 4.08011086376382  C 55.4679114622506 3.9804817988555  55.4878590045812 3.8765210354729  55.4878590045812 3.80114948202051  C 55.4878590045812 3.72577792856812  55.4783188756405 3.66253513084371  55.4618404711065 3.6088220697627  C 55.3681737505975 3.4104302796409  55.2085934119527 3.24149403914417  54.983966739621 3.09508263071368  C 54.7289851115689 2.94087416502949  54.5121639992797 2.89582450089703  54.3404416783466 2.96166631770601  C 54.1773922019051 3.01624571848187  54.0022007431754 3.16525614599693  54.1097440148709 3.55770802776625  C 54.2172872865663 4.28803239052902  54.0976020325827 5.01575773420723  53.7524228218182 5.71056216948095  C 53.4783609358846 6.21303919249685  53.4297930067318 6.51885710478067  53.6067190343599 6.6704665513803  C 53.7480863995724 6.78828874988058  53.9649075118617 6.76403123842464  54.2675897846174 6.59682767731762  C 54.5598646439833 6.44261921163343  54.8261209698745 6.03543955505157  55.0811025979266 5.36142727245438  C 55.4228126708945 5.2877883983917  55.8599240332695 5.24620409303866  56.3785601338654 5.23407533731069  C 56.3811619872128 5.74088405880087  56.3941712539502 6.21477187188656  56.4184552185266 6.64620903992436  C 56.3152483690769 6.66960021168544  56.0151679496686 6.74323908574812  56.0151679496686 6.74323908574812  C 55.6543776188194 6.85153154760499  55.3655718972501 6.91044264685513  55.1600254827999 6.92170506288825  C 54.8191826942813 6.92950212014194  54.5130312837288 7.22319127669779  54.2276946999562 7.8123022691992  C 54.0637779390656 8.14584305171837  53.9839877697431 8.39968058231089  53.9839877697431 8.58680995639957  C 53.9839877697431 8.64485471595486  53.9917933297856 8.6959687579513  54.0074044498704 8.73928574269405  C 54.0351575522434 8.82158801370528  54.0906637569894 8.8848308114297  54.1687193574136 8.92121707861361  C 54.3716639185163 9.01997980382708  54.630114684365 8.95067262823868  54.93366424157 8.71676091062782  C 55.5026028402169 8.35029921970416  55.9778747183549 8.09299633033222  56.3612144448823 7.94485224251201  C 56.2918316889497 8.5824782579253  56.0975599723386 9.08582162063606  55.7723283039047 9.43668919705233  C 55.5216830980984 9.67839797191688  55.171300180639 9.9322355025094  54.7333215338147 10.1860730331019  C 54.1930033219899 10.4355788652202  53.8816482047426 10.7058768500149  53.7853796308862 11.0142937813833  C 53.7636975196573 11.0784029188026  53.7550246751657 11.1451110753064  53.7550246751657 11.2118192318102  C 53.7550246751657 11.3487009035973  53.7983888976236 11.4907806135536  53.8816482047426 11.6328603235098  C 54.0160772943619 11.8277867548522  54.1869323308458 11.9525396709113  54.3907441763977 12.001921033518  C 54.6760807601704 12.0435053388711  54.9900377307652 11.9568713693856  55.3300132348347 11.7428854647564  Z M 54.0594415168198 16.4375802711756  L 54.0594415168198 18.9283068938838  C 54.0594415168198 19.3779371955135  53.9111358760139 19.4134571230026  53.4766263669863 19.4134571230026  C 53.0464532802045 19.4134571230026  52.8010117810931 19.4082590848335  52.8010117810931 18.9733565580163  L 52.8010117810931 16.4375802711756  L 51.7767488466387 16.4375802711756  L 51.7767488466387 18.9950150503876  C 51.7767488466387 19.9133351269339  51.9415328919786 20.3023216499238  53.4766263669863 20.3023216499238  C 54.602361581992 20.3023216499238  55.0837044512741 20.0164295506217  55.0837044512741 18.9950150503876  L 55.0837044512741 16.4375802711756  L 54.0594415168198 16.4375802711756  Z M 75.842157741845 11.0480810294826  C 76.1751949703213 11.0472146897878  76.566340256891 10.7864464416364  77.0121244637577 10.263177265944  C 77.3486308300306 9.67753163222203  77.5411679777434 9.13953468171707  77.5906031913454 8.65091909381884  C 77.6192235781675 8.35376457848358  77.5567790978282 8.17703128073316  77.3919950524884 8.12245187995729  C 77.2506276872759 8.06787247918142  77.0754362285462 8.18829369676627  76.869889814096 8.48284919301697  C 76.4960902165093 8.86143963966861  76.0069417871848 9.22530231150771  75.4050463794699 9.57270452914457  C 74.8872775633232 9.89931459410491  74.7649904559921 10.2397860941829  75.0347159196799 10.6001834072426  C 75.2480678941725 10.890407205019  75.5186606423095 11.040283972229  75.842157741845 11.0480810294826  Z M 97.9917352888636 17.9190211493777  L 97.9917352888636 18.7212517068135  C 97.9917352888636 19.1258323443107  97.8529697769985 19.3779371955135  97.4713646193694 19.3779371955135  L 96.5737252144921 19.3779371955135  L 96.5737252144921 17.3186477408432  L 97.4713646193694 17.3186477408432  C 97.8312876657696 17.3186477408432  97.9917352888636 17.4217421645309  97.9917352888636 17.9190211493777  Z M 99.0506896012842 17.9190211493777  C 99.0506896012842 16.8265667941655  98.5728158697987 16.4280505345322  97.4982504372933 16.4280505345322  L 95.5485949955885 16.4280505345322  L 95.5485949955885 20.2702670812142  L 97.6370159491584 20.2702670812142  C 98.712448666113 20.2702670812142  99.0506896012842 19.7721217566726  99.0506896012842 18.7212517068135  L 99.0506896012842 17.9190211493777  Z M 92.2329665464616 16.4289168742271  L 92.2329665464616 17.3186477408432  L 93.2173343962547 17.3186477408432  L 93.2173343962547 20.2702670812142  L 94.2441991840566 20.2702670812142  L 94.2441991840566 17.3186477408432  L 95.2814713852482 17.3186477408432  L 95.2814713852482 16.4289168742271  L 92.2329665464616 16.4289168742271  Z M 99.7228350493808 19.3788035352084  L 99.7228350493808 20.2702670812142  L 100.553693551673 20.2702670812142  L 100.553693551673 19.3788035352084  L 99.7228350493808 19.3788035352084  Z M 97.9136796884395 7.10710175758722  C 97.9024049906004 7.10623541789236  97.9258216707277 7.21366154005439  97.866846328185 7.60957878060312  C 97.866846328185 7.60957878060312  97.8625099059392 7.61824217755167  97.8607753370409 7.6234402157208  C 97.7324172385657 7.62430655541566  97.2094447157241 7.63556897144877  97.2094447157241 7.63556897144877  C 97.2094447157241 7.63556897144877  97.1036360129269 7.62517289511051  97.0966977373337 7.62517289511051  C 97.0975650217828 7.61564315846711  97.0637409282657 7.55153402104784  97.0463952392826 7.35920660879003  C 97.0463952392826 7.36873634543343  97.0611390749183 7.13395828812773  97.0628736438165 7.07071549040331  C 97.1053705818252 7.06725013162389  97.2267904047072 7.04645797894737  97.2267904047072 7.04645797894737  C 97.7289481007691 7.00400733389947  97.8729173193291 7.07331450948787  97.9136796884395 7.10710175758722  Z M 94.01436880503 7.15475044080425  C 94.01436880503 7.15388410110939  94.01436880503 7.15734945988881  94.01436880503 7.16428017744765  L 94.01436880503 7.20239912402127  C 94.01436880503 7.26477558205083  94.009165098335 7.38952849810995  93.9736064359196 7.62170753633109  C 93.9736064359196 7.62170753633109  93.9684027292247 7.62950459358479  93.9658008758772 7.63470263175392  L 93.4124733973151 7.63470263175392  C 93.4124733973151 7.63470263175392  93.312735685662 7.62517289511051  93.3083992634162 7.62517289511051  C 93.3083992634162 7.61650949816196  93.2789115921449 7.55759839891182  93.2580967653651 7.38692947902539  C 93.2598313342635 7.39472653627908  93.27370788545 7.14175534538142  93.2754424543483 7.11749783392548  C 93.296257281128 7.11403247514606  93.4124733973151 7.10103737972323  93.4124733973151 7.10103737972323  C 93.8964181199446 7.10103737972323  93.9987576849451 7.14435436446599  94.01436880503 7.15475044080425  Z M 90.7438391472592 5.69843341375298  C 90.7438391472592 5.8846964481468  90.6918020803098 6.05883072681266  90.5842588086144 6.22863330700424  C 90.4038636431897 6.57083748647197  90.1696968419173 6.79868482621884  89.8644127158141 6.92950212014194  C 89.8245176311529 6.94596257434419  89.8011009510256 6.96588838732585  89.7664095730594 6.98321518122295  C 89.7620731508135 6.56737212769255  89.7490638840762 5.4341998068222  89.7464620307287 5.10585706247215  C 89.8375268978902 5.10585706247215  89.9424683162382 5.0703371349831  90.0656227080185 4.99756460061528  C 90.1870425309005 4.92479206624746  90.2876475270027 4.90573259296065  90.3735086874692 4.93605448228057  C 90.4983976481478 4.98110414641303  90.6111446265382 5.1491740472149  90.7056786314963 5.42120471139938  C 90.7308298805218 5.51390305874886  90.7438391472592 5.60920042518291  90.7438391472592 5.69843341375298  Z M 89.7429928929322 3.1756522223352  C 89.7429928929322 2.94520586350376  89.7854898309408 2.73901701612827  89.841863320136 2.54149156570133  C 90.1211289127645 2.53109548936307  90.3448883006471 2.55881835959843  90.499264932597 2.62985821457654  C 90.5972680753517 2.64285330999937  90.626755746623 2.66191278328618  90.6406322978096 2.67577421840386  C 90.6328267377671 2.86636895127196  90.532221741665 3.12193916125418  90.3258080427656 3.4450838674351  C 90.1688295574682 3.6685995087077  90.0161874944166 3.834070390425  89.8800238358989 3.93110043624876  C 89.814110217763 3.98308081794006  89.7941626754324 4.03679387902107  89.742125608483 4.08877426071237  L 89.742125608483 3.1756522223352  Z M 100.868517806717 10.1878057124916  C 100.796533197437 10.042260643756  100.625678160953 9.96255739182932  100.347279852774 9.94263157884766  C 99.872875259085 9.96775542999846  99.1747112775136 9.78409141468919  98.2579916147548 9.39683757108901  C 98.2302385123818 9.36391666268451  98.0541797692029 9.15686147561417  98.01601925344 9.11094547178685  C 98.0125501156434 9.05290071223157  98.0082136933976 8.98532621603288  98.0004081333552 8.88223179234513  C 98.1946798499663 8.91601904044448  98.4088991089081 8.90302394502165  98.6526060391212 8.81985533431557  C 98.8850382714953 8.73668672360949  99.0168655077671 8.52703251745458  99.0480877479367 8.19955611279939  C 99.1079303749286 7.61304413938255  99.1842514064544 7.19720108585214  99.2701125669209 6.96588838732585  C 99.3160786427262 6.82467501706449  99.3143440738279 6.65660511626262  99.2614397224294 6.44608457041285  C 99.215473646624 6.24596010090134  99.104461237132 6.09521699399657  98.9310043473006 6.00338498634194  C 98.9015166760292 5.99125623061397  98.1096859739489 5.96006800159919  98.1096859739489 5.96006800159919  C 98.1062168361523 5.96006800159919  96.4592436672034 5.93321147105869  96.4592436672034 5.93321147105869  C 96.2181385903377 5.93321147105869  96.0290705804215 6.02417713901846  95.893774206353 6.20697481463287  C 95.8200550281747 6.28494538716982  95.7480704188947 6.47467378034307  95.9067834730904 7.58445492945233  C 95.9336692910143 8.0470803265049  95.9700952378789 8.35203189909387  96.0195304514808 8.50017598691407  C 96.0516199760996 8.63879033809087  96.1288082920746 8.75921155567572  96.2484935460582 8.84411284577151  C 96.3586386711011 8.90648930380107  96.4991387518646 8.91255368166506  96.7029505974164 8.86750401753259  C 96.7081543041114 8.86490499844803  96.7497839576709 8.85884062058405  96.7870771889847 8.85104356333035  C 96.7792716289423 9.25735688021735  96.5693887922463 9.61775419327703  96.1296755765238 9.91404236891744  C 96.1279410076254 9.91404236891744  95.451459137283 10.2380534147932  95.451459137283 10.2380534147932  C 95.2936133675365 10.3376824797015  95.1964775092309 10.4624353957607  95.1505114334256 10.603648766022  C 95.0551101440183 10.4165193919333  94.8131377827035 10.0691171742965  94.1435941879544 9.30500556343437  C 94.1401250501578 9.30240654434981  94.0854861298609 9.26948563594532  94.0325817784623 9.23569838784598  C 94.0638040186319 9.14386638019134  94.1019645343949 9.05549973131613  94.1019645343949 8.95327164732324  C 94.1019645343949 8.92988047556216  94.0932916899033 8.90389028471651  94.091557121005 8.88049911295542  C 94.2892979754128 8.91688538013933  94.5069863721511 8.90562296410622  94.7567642935083 8.82072167401042  C 94.9883292414332 8.73755306330434  95.119289193256 8.52789885714943  95.1522460023239 8.20042245249424  C 95.2146904826632 7.63903433022819  95.2875423763924 7.24311708967946  95.3734035368589 7.02220046749143  C 95.4211041815625 6.8783880781455  95.4176350437659 6.71205085673334  95.3638634079182 6.50239665057842  C 95.318764616562 6.30140584137206  95.20775220707 6.14979639477244  95.0342953172386 6.05883072681266  C 95.0030730770689 6.04670197108469  94.2112423749887 6.0137810626802  94.2112423749887 6.0137810626802  C 94.2095078060903 6.0137810626802  92.6700779088368 5.9869245321397  92.6700779088368 5.9869245321397  C 92.428105547522 5.9869245321397  92.239904822055 6.07875653979433  92.1037411635374 6.26068787571388  C 92.102006594639 6.2641532344933  92.0985374568424 6.27021761235728  92.095935603495 6.27454931083156  C 92.1314942659104 6.10128137186056  92.1497072393427 5.919350035941  92.134963403707 5.71576020765008  C 92.1254232747663 5.25919918846149  91.880849060104 4.75758850514044  91.4081790353135 4.23605200883772  C 91.3431327016267 4.1710765317236  91.2000307675158 4.02899682176738  91.4931729113309 3.6703321880974  C 91.9736484961638 3.3411231040525  92.2416393909533 2.99718624519506  92.2797999067162 2.6480513481685  C 92.3075530090892 2.40374355421938  92.2199572797243 2.1646337984394  92.0161454341725 1.94111815716681  C 91.7698366506119 1.69421134413313  91.3864969240846 1.56599306929459  90.8704626768362 1.55559699295633  C 90.5643112662838 1.54779993570264  90.2642308468755 1.48282445858851  89.9762924097554 1.36413592039337  C 89.6155020789061 1.26364051579019  89.2677210147942 1.24371470280853  88.9234090884789 1.29916044327925  C 88.6389397891554 1.34074474863229  88.4125785479255 1.45336890896344  88.2547327781789 1.63096854640872  C 88.0804086038984 1.78864237087233  87.9910783056352 1.96017763045362  87.9910783056352 2.13950994728861  C 87.9910783056352 2.18282693203136  87.9971492967793 2.23047561524838  88.0092912790675 2.27552527938084  C 88.0413808036863 2.40807525269366  88.1523932131784 2.51376869546597  88.3128408362725 2.60906606190002  C 88.3718161788151 2.89669084059188  88.3995692811881 3.56463874532509  88.3995692811881 4.62850389060704  C 88.3995692811881 5.83791410462463  88.3614087654252 7.54980134165813  88.288556871696 9.74770514750528  C 88.2833531650011 9.81441330400912  88.2816185961028 9.8802551208181  88.2816185961028 9.94523059793223  C 88.2816185961028 10.322954704889  88.3527359209337 10.6564954874082  88.4932360016971 10.9380558882361  C 88.6597546159352 11.2845917661781  88.8670355992837 11.4665231020976  89.1038042539035 11.4777855181307  C 89.3301654951335 11.4777855181307  89.5105606605582 11.3409038463436  89.6441224657283 11.0740712203283  C 89.7629404352628 10.8254317279049  89.8227830622546 10.5386732889079  89.8227830622546 10.2129295636424  C 89.8227830622546 10.1895383918813  89.7880916842884 8.50104232660893  89.7759497020002 7.80883691041978  C 90.0179220633149 7.89287186082071  90.338817309503 7.83829246004485  90.4732463991223 7.81403494858891  C 91.0395831444218 7.67022255924298  91.4645525245087 7.38519679963568  91.7455526860355 6.96935374610527  C 91.8713089311633 6.84546716974101  91.9623737983247 6.68952602466711  92.0291547009099 6.51539174600125  C 92.0126762963759 6.7051201391745  92.0291547009099 7.02653216596571  92.1167504302747 7.61304413938255  C 92.1445035326477 8.05834274253802  92.1817967639614 8.35289823878872  92.2320992620126 8.50017598691407  C 92.2641887866314 8.63879033809087  92.3405098181572 8.75921155567572  92.46106235659 8.84411284577151  C 92.5503926548532 8.89522688776796  92.665741486591 8.89955858624223  92.8123125584986 8.87963277326057  C 92.7247168291337 9.23483204815112  92.5547290770989 9.53112022379153  92.2468430976482 9.74077442994644  C 92.2832690445128 9.72258129635449  92.0109417274776 9.86552734600556  92.0109417274776 9.86552734600556  C 91.7967224685358 9.9842158842007  91.5322007115429 10.0933746857524  91.2442622744229 10.1808749949328  C 90.9762713796334 10.3004298728228  90.8444441433615 10.5100840789777  90.8444441433615 10.7925108195004  C 90.8444441433615 10.9475856248795  90.9094904770483 11.1728339455418  91.2277838698889 11.350433582987  C 91.5963797607806 11.5748155639545  91.9606392294265 11.5886769990722  92.3058184401909 11.3911515486452  C 92.7940995850663 11.1078584684276  93.1618281915088 10.7578572317062  93.4263499485017 10.3593409720729  C 93.5737883048584 10.4260491285768  93.8660631642242 10.5819902736507  94.4696931408374 10.9553826821332  C 94.6006530926602 11.0558780867363  94.7584988624067 11.1130565065968  94.9241501921957 11.1130565065968  C 95.0481718684251 11.1130565065968  95.1184219088069 11.0593434455158  95.1531132867731 11.0168928004679  C 95.1583169934681 11.0125611019936  95.1591842779172 11.0047640447399  95.1626534157138 11.0012986859605  C 95.2103540604175 11.1225862432402  95.3083572031722 11.2482054989942  95.5139036176224 11.3409038463436  C 95.8625519661834 11.5254342013478  96.2033947547021 11.5150381250095  96.5208208630936 11.3045175791597  C 96.9535958032229 11.0515463882621  97.2866330316991 10.6824856782538  97.539880090853 10.2380534147932  C 97.8763864571258 10.3680043690215  98.258858899204 10.7093422087943  98.6916338393333 11.3079829379391  C 99.0524241701826 11.7359547471975  99.6421775956093 11.6423900601532  100.450486702224 11.0411503119238  C 100.455690408918 11.0376849531444  100.767045526166 10.6998124721509  100.767045526166 10.6998124721509  C 100.904943753582 10.4936236247754  100.937033278201 10.3272864033633  100.868517806717 10.1878057124916  Z M 101.221502577524 4.58345422647458  C 101.220635293075 4.57652350891574  101.220635293075 4.56699377227234  101.217166155278 4.55659769593408  C 101.207626026337 4.45003791346691  101.13303956371 4.3616712645917  100.995141336294 4.29842846686729  C 99.8347147433221 3.86612495913464  98.7193869417063 3.32812800862968  97.6656363359806 2.69570003138552  C 96.9319136919939 2.24953508853519  96.4028701780081 1.99223219916326  96.0247341581757 1.88653875639094  C 95.9275982998701 1.59891397769908  95.8347988638103 1.44383917232004  95.7229191698691 1.40138852727214  C 95.4748758174103 1.34594278680142  95.1773972513494 1.54693359600778  94.710798217703 2.07540080986934  C 94.1730818592256 2.53369450844763  93.3647727526114 2.96166631770601  92.3231641291739 3.33245970710395  C 92.0005343140876 3.43642047048655  91.7915187618408 3.63741127969292  91.7047903169251 3.92676873777449  C 91.6501513966282 4.14941803935222  91.6614260944672 4.46216666919488  92.0256855631131 4.74459340971761  C 92.1757257728173 4.88320776089442  92.4870808900646 4.89620285631724  93.0013805684147 4.77144994025812  C 93.091578151127 4.7506577875816  93.1956522850258 4.71167250131312  93.3083992634162 4.65969211962182  C 93.1011182800677 4.90140089448637  93.1384115113814 5.13011457392809  93.2155998273564 5.2877883983917  C 93.3647727526114 5.57974487555784  93.7229612301132 5.67330956260218  94.2771559931245 5.57108147860929  C 94.8044649382119 5.48358116942894  95.7506722722421 5.4515266007193  97.0897594617404 5.47838313125981  C 97.524268970768 5.47838313125981  97.7757814610235 5.36922432970808  97.8633771903884 5.14397600904577  C 97.9544420575499 4.85288587157449  97.8599080525917 4.67875159290863  97.7627721942862 4.58258788677973  C 97.5641640554292 4.40585458902931  97.1877626044951 4.33221571496663  96.6006110324159 4.34954250886373  L 96.6058147391108 4.34954250886373  L 94.5642271457954 4.33741375313576  C 94.202569530497 4.33134937527178  93.9241712223176 4.36253760428656  93.7073501100284 4.42837942109554  C 94.0308472095639 4.21525985616121  94.4133196516421 3.90684292479282  94.8634402807546 3.49533156973669  C 95.0906688064337 3.27008324907439  95.3517214256299 3.08468655437542  95.6387925783009 2.93134442838608  C 96.2580336749989 2.95300292075746  96.9848180433924 3.49359889034699  97.8009327100491 4.55659769593408  C 98.5884269898836 5.67850760077131  99.6707979824314 5.79546345957674  101.012487025277 4.90140089448637  C 101.07146236782 4.85635123035391  101.221502577524 4.74286073032791  101.221502577524 4.58345422647458  Z M 80.6495154435218 10.3186230064147  C 81.020713187761 10.7873127813313  81.391043647551 11.0151601210782  81.7657105295868 10.9909026096222  C 82.2184330120467 10.9986996668759  82.5705504984044 10.8557536172248  82.8159919975158 10.5568664224999  C 83.0067945763303 10.3368161400067  82.8871093223466 10.0552557391788  82.457803520014 9.71565057879565  C 81.717142600434 9.18804970462895  81.1334601661514 8.72715698696608  80.7067562171661 8.33123974641734  C 80.5081480783092 8.11725384178816  80.3086726550031 8.0722041776557  80.1005243872055 8.19695709371482  C 79.9600243064421 8.28705642197974  79.9418113330098 8.49930964721922  80.0432836135611 8.83025141065383  C 80.2661757169944 9.56664015128059  80.4665184247497 10.0613201170428  80.6495154435218 10.3186230064147  Z M 46.4542241821627 16.4367139314808  L 46.5149340936037 19.381402554293  L 46.4741717244933 19.381402554293  L 45.3735877585132 16.4367139314808  L 43.6433552824451 16.4367139314808  L 43.6433552824451 20.2719997606039  L 44.6667509324503 20.2719997606039  L 44.6069083054584 17.3247121187072  L 44.6476706745688 17.3247121187072  L 45.7335108049133 20.2719997606039  L 47.478487116617 20.2719997606039  L 47.478487116617 16.4367139314808  L 46.4542241821627 16.4367139314808  Z M 78.8507674959703 18.9257078747992  C 78.8507674959703 19.3779371955135  78.6460883659693 19.4082590848335  78.218517132535 19.4082590848335  C 77.6018778891844 19.4082590848335  77.577593924608 19.1882088023403  77.577593924608 18.6146919243463  L 77.577593924608 18.0143185158118  C 77.577593924608 17.4659254889685  77.633100129354 17.2865931721336  78.218517132535 17.2865931721336  C 78.5680327655452 17.2865931721336  78.8091378424108 17.3117170232843  78.8446965048262 17.6556538821418  L 78.8446965048262 17.8046643096568  L 79.9027835327977 17.8046643096568  L 79.9027835327977 17.6556538821418  C 79.8811014215688 16.5034220879846  79.3893511388968 16.3959959658226  78.3312641109254 16.3959959658226  C 77.2029270425722 16.3959959658226  76.5203741810857 16.5813926605216  76.5203741810857 17.8505803134842  L 76.5203741810857 18.843405603788  C 76.5203741810857 20.2494749285377  77.2844517807929 20.301455310229  78.3312641109254 20.301455310229  C 78.7796501711395 20.301455310229  79.2037522667772 20.3040543293135  79.5532678997875 20.0181622300114  C 79.9027835327977 19.7262057528453  79.9062526705943 19.3467489664988  79.9062526705943 18.9265742144941  L 79.9062526705943 18.8139500541629  L 78.8499002115212 18.8139500541629  L 78.8499002115212 18.9257078747992  Z M 84.4386812018884 19.3788035352084  L 84.4386812018884 20.2702670812142  L 85.271274273079 20.2702670812142  L 85.271274273079 19.3788035352084  L 84.4386812018884 19.3788035352084  Z M 79.4084313967783 3.92243703930021  L 78.0008287357966 3.9804817988555  C 77.5853994846504 4.05585335230788  77.4960691863873 4.01686806603941  77.489130910794 4.01426904695484  C 77.4527049639294 3.99607591336289  77.3919950524884 3.96055598587383  77.3312851410474 3.7725602720903  C 77.1543591134194 3.13580059637187  77.2037943270214 2.94607220319862  77.2341492827419 2.89409182150732  C 77.2376184205385 2.88542842455877  77.2766462207506 2.84471045890058  77.4769889285058 2.79706177568356  C 77.8334428371093 2.74248237490769  78.5411469476213 2.70263074894436  79.5636753131773 2.68617029474212  C 80.109197231697 2.72082388253632  80.2679102858928 2.78926471842986  80.3095399394523 2.81698758866522  C 80.3069380861048 2.81958660774979  80.4049412288596 2.96339899709572  80.2575028725029 3.71884721100928  C 80.2340861923757 3.79421876446167  80.186385547672 3.86006058127065  80.119604645087 3.90857560418253  C 80.1187373606378 3.90857560418253  80.0068576666965 3.9631550049584  79.4162369568207 3.92243703930021  L 79.4084313967783 3.92243703930021  Z M 74.4501662009482 7.72480196001884  C 74.6479070553559 7.93792152495317  75.0060955328577 8.11725384178816  75.6288057673524 7.80623789133521  C 76.4327784517208 7.37826608207684  77.2610351006657 7.17727527287048  78.0927608874072 7.20239912402127  C 78.0892917496106 7.45710299430864  78.0546003716443 10.3359498003118  78.0546003716443 10.3359498003118  C 78.0546003716443 11.153774472255  78.1300541187209 11.6363256822892  78.2861653195692 11.8572423044772  C 78.5194648363924 12.1829860297427  78.7917921534277 12.1517978007279  78.931424949742 12.1015500984263  C 79.1603880443194 12.0183814877203  79.3104282540235 11.7818707510248  79.3954221300409 11.3790227929173  C 79.4587338948294 11.0974623920894  79.4916907038973 10.73533239964  79.4916907038973 10.2952318346536  C 79.4916907038973 10.1522857850026  79.4882215661007 10.0006763384029  79.4812832905074 9.84213617424448  C 79.4812832905074 9.84213617424448  79.5099036773296 7.82269834553745  79.5211783751687 7.27603799808394  C 80.4084103666562 7.37566706299227  81.1612132685244 7.59051930731631  81.7327537205188 7.93705518525832  C 82.1265008604361 8.13977867385439  82.5046368802685 8.10512508606019  82.8290012642532 7.84175781882426  C 83.0701063411188 7.62950459358479  83.3103441335353 7.33408275763923  83.5445109348076 6.96155668885158  C 83.6390449397657 6.80388286438797  83.6581251976472 6.66873387199059  83.6034862773503 6.55524337196458  C 83.5453782192568 6.4374211734643  83.4204892585782 6.36551497879133  83.2210138352721 6.34212380703025  L 83.2184119819246 6.34212380703025  C 81.1993737842873 6.09261797491201  79.9851755554676 5.97479577641172  79.5099036773297 5.97999381458085  C 79.473477730465 5.71662654734493  79.4119005345749 5.49744260454662  79.3052245473286 5.34150145947271  C 79.2826751516505 5.31377858923735  79.2609930404216 5.29645179534025  79.2393109291927 5.27652598235859  C 79.2462492047859 5.2782586617483  79.2523201959301 5.27739232205344  79.2592584715233 5.27999134113801  C 79.2471164892351 5.27306062357917  79.2358417913961 5.26179820754605  79.224567093557 5.25226847090265  C 79.417971525719 5.27306062357917  79.5896938466521 5.30164983350938  79.7371322030088 5.34063511977786  C 80.1265429206802 5.43333346712734  80.4639165714023 5.4168730129251  80.7440494484799 5.28865473808656  C 81.1985064998382 5.06080739833969  81.4985869192465 4.49595391729423  81.6625036801371 3.55857436746111  C 81.6980623425526 3.28221200480236  81.7466302717053 3.08728557345999  81.805605614248 2.97206239404427  C 81.9842662107743 2.63592259244053  82.015488450944 2.37342166489946  81.9018741881044 2.16983183660853  C 81.4864449369583 1.5503989547872  80.0363453379679 1.33727938985287  77.4605105239718 1.50361661126503  C 77.4700506529125 1.50361661126503  77.2870536341404 1.5235424242467  77.2870536341404 1.5235424242467  L 77.3200104432084 1.51834438607757  L 76.6287847372303 1.56079503112546  C 76.1673894102789 1.60584469525792  75.8777164042605 1.74359270673987  75.7337471857004 1.97923710374043  C 75.6392131807423 2.155104061796  75.6643644297679 2.3976791763554  75.8118027861245 2.72082388253632  C 75.8447595951925 2.81178955049609  75.935824462354 3.1756522223352  76.1578492813382 4.34780982947402  C 76.2645252685844 4.89620285631724  76.4431858651108 5.23667435639526  76.7025039154087 5.39521452055373  C 76.914121321003 5.54769030684821  77.1881832069366 5.54769030684821  77.5099457375738 5.38568478391032  C 77.6842699118543 5.30598153198366  78.0147052869831 5.25660016937692  78.4795697517312 5.2358080167004  C 78.3728937644849 5.32764002435503  78.2766251906285 5.45412561980387  78.1898967457128 5.63345793663885  C 78.185560323467 5.64558669236682  78.1387269632126 5.85870625730115  78.1066374385938 5.99558792908825  C 77.6365692671507 6.01118204359564  77.1586955356652 6.04410295200013  76.6886273642222 6.11081110850396  C 76.6903619331205 6.11081110850396  75.2749537120964 6.24509376120649  75.2749537120964 6.24509376120649  C 74.9878825594255 6.23383134517337  74.747644767009 6.34558916580967  74.5698514549319 6.57690186433596  C 74.1648296171756 7.13915632629686  74.2810457333626 7.51254873477936  74.4501662009482 7.72480196001884  Z M 86.3120156120674 20.2702670812142  L 86.6285744360096 20.2702670812142  C 86.6285744360096 20.5249709515016  86.553120688933 20.6081395622077  86.2617131140163 20.6116049209871  L 86.2617131140163 20.9962597455027  C 86.9642135178333 21.0014577836718  87.1593525188936 20.7978679553809  87.144608683258 20.2702670812142  L 87.144608683258 19.4082590848335  L 86.3128828965165 19.4082590848335  L 86.3128828965165 20.2702670812142  Z M 90.5504347150972 19.3779371955135  L 90.5504347150972 16.4280505345322  L 89.5235699272955 16.4280505345322  L 89.5235699272955 20.2702670812142  L 92.1557782304867 20.2702670812142  L 92.1557782304867 19.3779371955135  L 90.5504347150972 19.3779371955135  Z M 82.7492110949307 17.9120904318189  L 82.7492110949307 18.777563786979  C 82.7492110949307 19.3519470046679  82.5592758005653 19.4082590848335  82.026763148783 19.4082590848335  C 81.4942504970007 19.4082590848335  81.3181917538218 19.3528133443628  81.3034479181861 18.777563786979  L 81.3034479181861 17.9120904318189  C 81.3181917538218 17.3420389126043  81.4933832125515 17.2865931721336  82.026763148783 17.2865931721336  C 82.5601430850145 17.2865931721336  82.7492110949307 17.3420389126043  82.7492110949307 17.9120904318189  Z M 83.8072981229022 17.8046643096569  C 83.8072981229022 16.6229769658746  83.0692390566696 16.3951296261278  82.026763148783 16.3951296261278  C 80.9842872408964 16.3951296261278  80.2453608902147 16.6221106261798  80.2453608902147 17.803797969962  L 80.2453608902147 18.8901879473102  C 80.2453608902147 20.074474310177  80.9842872408964 20.3005889705341  82.026763148783 20.3005889705341  C 83.0683717722205 20.3005889705341  83.8072981229022 20.074474310177  83.8072981229022 18.8901879473102  L 83.8072981229022 17.8046643096569  Z M 28.3548650127069 16.4367139314808  L 28.3548650127069 17.8791695234144  L 27.0183796765561 17.8791695234144  L 27.0183796765561 16.4367139314808  L 25.9949840265509 16.4367139314808  L 25.9949840265509 20.2719997606039  L 27.0183796765561 20.2719997606039  L 27.0183796765561 18.7689003900305  L 28.3548650127069 18.7689003900305  L 28.3548650127069 20.2719997606039  L 29.3817298005087 20.2719997606039  L 29.3817298005087 16.4367139314808  L 28.3548650127069 16.4367139314808  Z M 30.0235202928848 16.4375802711757  L 30.0235202928848 20.2728661002988  L 31.0512523651358 20.2728661002988  L 31.0512523651358 16.4375802711757  L 30.0235202928848 16.4375802711757  Z M 7.84705692794235 17.9198874890726  L 7.84705692794235 18.783628164843  C 7.84705692794235 19.357145042837  7.65798891802614 19.4125907833077  7.12547626624379 19.4125907833077  C 6.59209633001229 19.4125907833077  6.4186394401809 19.357145042837  6.40302832009608 18.783628164843  L 6.40302832009608 17.9198874890726  C 6.4186394401809 17.3507023095528  6.59296361446145 17.2952565690821  7.12547626624379 17.2952565690821  C 7.65798891802614 17.2952565690821  7.84705692794235 17.3507023095528  7.84705692794235 17.9198874890726  Z M 8.90167481811717 17.8141940463003  C 8.90254210256633 16.6290413437386  8.16535032078295 16.4063920421609  7.12547626624379 16.4063920421609  C 6.08646949615381 16.4063920421609  5.34841042992126 16.6290413437386  5.34841042992126 17.8141940463003  L 5.34841042992126 18.8962523251742  C 5.34841042992126 20.0779396689564  6.0864694961538 20.3023216499238  7.12547626624379 20.3023216499238  C 8.16535032078295 20.3023216499238  8.90167481811717 20.0779396689564  8.90167481811717 18.8962523251742  L 8.90167481811717 17.8141940463003  Z M 7.80889641217945 7.17467625378591  L 7.87914645256116 6.8264076964542  L 8.29977941040227 6.79175410866  L 9.16966571290666 6.75796686056065  L 9.37781398070432 6.96675472702071  L 9.34485717163635 7.24138441028975  L 9.13410705049122 7.59138564701117  L 8.12545523612173 7.59138564701117  L 7.87914645256116 7.52381115081248  L 7.80889641217945 7.17467625378591  Z M 6.27553750607001 7.24051807059489  L 6.1350374253066 7.55499937982726  C 6.1350374253066 7.55499937982726  5.89046321064434 7.59051930731631  5.71527175191465 7.62603923480537  C 5.54268214653242 7.65982648290471  5.08735781072503 7.62603923480537  5.08735781072503 7.62603923480537  L 4.56438528788341 7.59051930731631  L 4.5322957632646 7.138289986602  L 4.6710612751297 6.8264076964542  L 5.26341655390388 6.71984791398703  L 5.85663911712722 6.618486169689  L 6.13417014085744 6.8264076964542  L 6.27553750607001 7.24051807059489  Z M 4.49673710084916 4.9490495777034  L 4.95032686775823 4.80870254713688  L 5.40391663466731 4.87800972272528  L 6.10121333178947 4.94904957770339  L 6.2052874656883 5.33110538313445  L 6.06565466937404 5.57627951677842  L 5.57824080894785 5.57627951677842  L 4.95032686775823 5.61006676487777  L 4.53316304771375 5.47318509309068  L 4.49673710084916 4.9490495777034  Z M 9.48275539905231 10.830629766074  L 10.0412865843094 10.795109838585  L 10.3908022173196 10.341147838481  L 10.2875953678699 9.75030416658985  L 9.76115370723168 9.60995713602334  L 9.06472429455867 9.50946173142016  L 7.91297054607828 9.47047644515168  L 7.87914645256116 8.94893994884897  L 9.16966571290667 8.94893994884897  L 10.0074624907922 9.05290071223157  L 10.6700678099481 9.22703499089742  L 11.332673129104 9.43842187644205  L 12.029102541777 9.6818633306963  L 12.6570164829666 9.61082347571819  L 13.1799890058083 9.33359477336459  L 13.6335787727173 8.80859291828246  L 13.8053010936504 8.21861558608619  L 13.6665355817853 7.59138564701117  L 11.0854970610943 7.59138564701117  L 10.7377159969824 7.45277129583437  L 10.7377159969824 7.10536907819751  L 11.0187161585092 6.86279396363811  L 11.5408213969017 6.79262044835485  L 11.8886024610136 6.61935250938385  L 12.029102541777 6.3066038795412  L 12.1010871510571 5.95833532220948  L 12.029102541777 5.61179944426748  L 11.1930403327898 5.61179944426748  L 11.0863643455435 5.36662531062351  L 10.8443919842287 5.02008943268151  L 10.3196848924887 4.7757816387324  L 9.76115370723168 4.95164859678796  L 9.5191813459169 5.57887853586299  L 7.87914645256116 5.54249226867908  L 7.84532235904404 4.84682149371051  L 8.19397070760512 4.88060874180985  L 8.78545870193014 4.84682149371051  L 9.41510721201806 4.77664797842725  L 9.83053646316424 4.53407286386785  L 10.0065952063431 4.18407162714643  L 9.89991921909678 3.80201582171537  L 9.97016925947849 3.62441618427009  L 10.2156107585899 3.45374726438365  L 10.5278331602864 2.99978526427963  L 10.8782160777458 2.99978526427963  L 11.8192197050811 2.93047808869123  L 12.2034267160576 2.54668960387046  L 12.3786181747873 1.99049951977355  L 11.8547783674965 1.71500349680965  L 10.7385832814315 1.53913653875409  L 10.7750092282961 0.877253011884862  L 10.8079660373641 0.425023691170549  L 10.3196848924887 0.00311625977615984  L 9.66054871112947 0.00311625977615984  L 9.30929850922092 0.56190536295764  L 9.09941567252495 1.53913653875409  L 8.08902928925713 1.57465646624314  L 7.53136538844923 1.60931005403734  L 7.07604105264185 2.20102006562331  L 7.14715837747272 2.61772945884857  L 7.70482227828061 2.85943823371312  C 7.70482227828061 2.85943823371312  8.68051728358215 2.79446275659899  8.78545870193014 2.79446275659899  C 8.89126740472728 2.79446275659899  9.16966571290666 3.00065160397449  9.16966571290666 3.00065160397449  L 9.27460713125464 3.48666817278814  L 9.0317674854907 3.73270864612697  L 8.08902928925713 3.76649589422631  L 7.4272912545504 3.69892139802762  L 6.8696273537425 3.45461360407851  L 6.55306852980022 3.69892139802762  L 4.67192855957885 3.62528252396495  L 4.70575265309597 3.3835737491004  L 4.95032686775822 3.10547870705194  L 5.23045974483591 2.79446275659899  L 5.68404951174498 2.79446275659899  L 6.03096329140775 2.68790297413183  L 6.27640479051916 2.33703539771555  L 6.37874435551968 1.95757861136906  L 5.9615805354752 1.60931005403734  L 5.47243210615069 1.57465646624314  L 5.02057690813993 1.36326958069852  L 4.95032686775822 0.877253011884862  L 4.70575265309597 0.457944599575039  L 4.35710430453489 0.111408721633036  L 3.83326449724411 0.0750224544491252  L 3.45252662406422 0.457944599575039  L 3.41610067719964 1.32601697381975  L 3.03276095067229 1.3944578097133  C 3.03276095067229 1.3944578097133  2.50978842783067 1.43171041659207  2.40484700948267 1.4637649853017  C 2.29903830668553 1.50101759218047  1.95212452702276 1.81116720293856  1.95212452702276 1.81116720293856  L 1.74224169032679 2.16203477935484  L 1.81162444625934 2.64891768786335  L 2.29903830668553 2.92787906960666  L 2.85843677639174 2.92787906960666  L 3.45252662406423 2.85683921462855  L 3.59042485148019 3.03270617268412  L 3.93907320004127 3.30993487503772  L 4.25389745508523 3.45201458499394  C 4.25389745508523 3.45201458499394  4.18364741470352 3.69632237894305  4.07957328080469 3.72924328734755  C 3.97289729355839 3.76303053544689  3.76561631020988 4.04372459657991  3.76561631020988 4.04372459657991  L 3.83326449724413 4.77491529903754  L 3.41610067719964 4.73852903185363  L 2.96337819473973 4.95078225709311  L 2.75436264249291 5.54075958928937  L 2.19669874168501 5.71489386795522  L 1.77693306829306 6.72071425368189  L 2.22965555075297 6.9996756354252  L 3.10127642215568 6.9996756354252  L 2.99720228825685 7.55586571952211  L 1.95125724257361 7.65982648290472  L 1.04321042430631 7.86688166997506  C 1.04321042430631 7.86688166997506  0.485546523498404 8.07826855551968  0.275663686802434 8.53309689531856  C 0.0666481345556148 8.98532621603288  0.275663686802434 9.15686147561417  0.275663686802434 9.15686147561417  L 0.869753534474921 9.7511705062847  L 1.81075716181019 9.92617112464541  L 2.40397972503352 9.33359477336459  L 3.37967473033505 9.05463339162128  C 3.37967473033505 9.05463339162128  5.12378375758962 8.74188476177862  5.22959246038677 8.74188476177862  C 5.33279930983644 8.74188476177862  6.13417014085744 8.84584552516122  6.13417014085744 8.84584552516122  L 6.20442018123915 9.33359477336459  L 5.71440446746549 9.4392882161369  L 4.84365088051194 9.4392882161369  L 4.18278013025437 9.4392882161369  C 4.07870599635553 9.4392882161369  3.62424894499731 9.85859662844672  3.62424894499731 9.85859662844672  L 3.58955756703103 10.5161484568417  L 4.11339737432181 10.7647879492651  L 6.20442018123915 10.7647879492651  L 6.27553750607002 12.6074924802217  L 6.30936159958714 13.167147923098  L 6.37787707107053 13.5483373888342  L 6.76468593539452 13.6886844194007  L 7.21567384895611 13.6886844194007  L 7.5643221975172 13.2693760070909  L 7.70395499383147 12.8188793657663  L 7.73864637179774 12.121475911408  L 7.70395499383147 11.3547652814613  L 7.8080291277303 10.6590945064928  L 8.19310342315597 10.6227082393088  C 8.19310342315597 10.6227082393088  8.78459141748099 10.729268021776  8.92595878269357 10.729268021776  C 9.06385701010951 10.729268021776  9.48275539905231 10.830629766074  9.48275539905231 10.830629766074  Z M 11.6769850554193 16.4375802711756  L 11.6769850554193 18.9283068938838  C 11.6769850554193 19.3779371955135  11.5269448457152 19.4134571230026  11.0933026211367 19.4134571230026  C 10.6631295343549 19.4134571230026  10.4176880352435 19.4082590848335  10.4176880352435 18.9733565580163  L 10.4176880352435 16.4375802711756  L 9.39342510078914 16.4375802711756  L 9.39342510078914 18.9950150503876  C 9.39342510078914 19.9133351269339  9.55647457723064 20.3023216499238  11.0933026211367 20.3023216499238  C 12.2207724050407 20.3023216499238  12.7003807054245 20.0164295506217  12.7003807054245 18.9950150503876  L 12.7003807054245 16.4375802711756  L 11.6769850554193 16.4375802711756  Z M 18.7514243071923 16.4367139314808  L 18.7514243071923 17.8791695234144  L 17.4149389710415 17.8791695234144  L 17.4149389710415 16.4367139314808  L 16.3924106054855 16.4367139314808  L 16.3924106054855 20.2719997606039  L 17.4149389710415 20.2719997606039  L 17.4149389710415 18.7689003900305  L 18.7514243071923 18.7689003900305  L 18.7514243071923 20.2719997606039  L 19.7748199571975 20.2719997606039  L 19.7748199571975 16.4367139314808  L 18.7514243071923 16.4367139314808  Z M 24.4434121470092 18.9317722526632  C 24.4434121470092 19.381402554293  24.2387330170082 19.4134571230026  23.8137636369213 19.4134571230026  C 23.1997262469182 19.4134571230026  23.1737077134435 19.1934068405094  23.1737077134435 18.6198899625154  L 23.1737077134435 18.0212492333706  C 23.1737077134435 17.475455225612  23.2292139181895 17.2952565690821  23.8137636369213 17.2952565690821  C 24.1624119854824 17.2952565690821  24.4017824934497 17.3203804202329  24.4390757247634 17.6643172790903  L 24.4390757247634 17.8141940463003  L 25.4936936149382 17.8141940463003  L 25.4936936149382 17.6643172790903  C 25.4728787881585 16.5138181643229  24.9819957899357 16.4063920421609  23.9265106153117 16.4063920421609  C 22.800775400306 16.4063920421609  22.1199571077178 16.5891897177753  22.1199571077178 17.857511031043  L 22.1199571077178 18.8503363213469  C 22.1199571077178 20.2503412682325  22.8823001385267 20.3023216499238  23.9265106153117 20.3023216499238  C 24.3722948221783 20.3023216499238  24.7972642022652 20.307519688093  25.1450452663772 20.020761249096  C 25.4936936149382 19.7296711116247  25.4988973216332 19.3519470046679  25.4988973216332 18.9309059129684  L 25.4988973216332 18.8200144320269  L 24.4442794314584 18.8200144320269  L 24.4442794314584 18.9317722526632  Z M 41.990311122352 16.4375802711757  L 41.990311122352 20.2728661002988  L 43.0137067723572 20.2728661002988  L 43.0137067723572 16.4375802711757  L 41.990311122352 16.4375802711757  Z M 13.0221432360617 16.4375802711757  L 13.0221432360617 17.325578458402  L 14.0056438014057 17.325578458402  L 14.0056438014057 20.2728661002988  L 15.02990673586 20.2728661002988  L 15.02990673586 17.325578458402  L 16.0628425148059 17.325578458402  L 16.0628425148059 16.4375802711757  L 13.0221432360617 16.4375802711757  Z M 4.99716022801271 19.0417973939098  C 4.99629294356356 18.1667943021062  4.71442549758756 18.0212492333706  3.57741558474283 17.9398133020542  L 3.1533134891051 17.9077587333446  C 2.88185345651898 17.8886992600578  2.73354781571315 17.8783031837195  2.73354781571315 17.5716189317409  C 2.73354781571315 17.355900347722  2.77951389151846 17.2432761873908  3.33284137008058 17.2432761873908  C 3.74133234563349 17.2432761873908  3.9061163909733 17.2432761873908  3.9061163909733 17.6383270882447  L 4.8887496718681 17.6383270882447  L 4.8887496718681 17.4797869240862  C 4.8887496718681 16.4219861566683  4.17237271686448 16.4063920421609  3.33370865452974 16.4063920421609  C 2.32939326240602 16.4063920421609  1.71101945015714 16.477431897139  1.71101945015714 17.5776833096048  C 1.71101945015714 18.6770683823758  2.2634796442701 18.6710040045119  3.21055426274946 18.7385785007106  L 3.4351809350811 18.7524399358282  C 3.91739108881235 18.7827618251482  3.97376457800755 18.777563786979  3.97376457800755 19.1102382298034  C 3.97376457800755 19.4333829359843  3.81505152381183 19.4637048253042  3.33370865452974 19.4637048253042  C 2.83155095846788 19.4637048253042  2.68844902435699 19.4221205199512  2.68844902435699 19.0244706000127  L 1.7058157434622 19.0244706000127  C 1.7058157434622 20.2815294972473  2.35541179588073 20.301455310229  3.33370865452974 20.301455310229  C 5.02317876148742 20.301455310229  4.99716022801271 19.6776907299334  4.99716022801271 19.0417973939098  Z M 38.193339803943 18.8650640961594  L 37.2419287632179 18.8650640961594  L 37.706793227966 17.2042909011223  L 37.7180679258051 17.2042909011223  L 38.193339803943 18.8650640961594  Z M 38.475207249919 16.4367139314808  L 36.9192989481315 16.4367139314808  L 35.7675451996511 20.2719997606039  L 36.8325705032158 20.2719997606039  L 37.021638513132 19.6109825734295  L 38.3988862183932 19.6109825734295  L 38.5992289261485 20.2719997606039  L 39.6425721184843 20.2719997606039  L 38.475207249919 16.4367139314808  Z M 25.9047864438386 5.75561183361341  L 26.1857866053655 5.86130527638572  L 26.1476260896026 6.24336108181678  L 25.868360496974 6.69212504375167  L 25.5899621887947 6.97368544457955  L 25.2413138402336 7.00660635298404  L 24.7885913577737 6.93729917739564  L 24.5778412366285 6.38370811238329  L 24.4737671027297 5.82665168859152  L 24.8562395448079 5.79199810079732  L 25.2751379337507 5.75561183361341  L 25.9047864438386 5.75561183361341  Z M 26.4988762915111 8.15450644866692  L 27.1953057041841 8.26019989143924  L 27.9984111041034 8.29831883801285  L 28.5890318139793 8.22381362425532  L 29.0434888653375 8.01675843718498  L 29.0773129588546 8.49930964721922  L 28.9706369716083 9.13173762446337  L 28.4832231111821 8.88742983051426  L 26.2569039301963 8.817256315231  L 26.1857866053655 8.22381362425532  L 26.4988762915111 8.15450644866692  Z M 27.3314693627017 6.86885834150209  L 27.5439540527452 6.44954992919227  L 27.8917351168571 6.03370687566187  L 28.3791489772833 6.06749412376121  L 28.9697696871592 6.17318756653352  L 29.0426215808884 6.62628322694269  L 29.0087974873712 7.078512547657  L 28.6237231919456 7.11229979575635  L 27.7156763736783 7.04299262016795  L 27.3314693627017 6.86885834150209  Z M 24.4737671027297 8.85104356333035  C 24.4737671027297 8.85104356333035  23.9863532423035 8.95933602518723  23.884013677303 8.99225693359172  C 23.7808068278533 9.02604418169106  22.8770964318318 9.06156410918012  22.8770964318318 9.06156410918012  L 22.181534303608 9.09708403666917  L 22.0445033606412 8.8519099030252  L 22.0445033606412 8.36589333421155  L 22.0774601697091 8.12331821965214  L 22.9803032812815 8.19175905554569  L 24.4746343871789 8.19175905554569  L 24.4746343871789 8.85104356333035  Z M 22.043636076192 7.11143345606149  L 21.9048705643269 7.078512547657  L 21.8684446174623 6.65747145595747  L 21.9048705643269 6.41749536048263  L 21.9360928044965 6.13766763904447  L 22.5310499366182 6.03370687566187  L 22.9109205253489 6.27974734900069  L 23.2933929674271 6.79868482621884  L 22.9109205253489 6.86885834150209  L 22.4261085182702 6.90264558960144  L 22.043636076192 7.11143345606149  Z M 32.1839258557347 2.86463627188225  L 31.9740430190388 2.51463503516082  L 30.9957461603897 2.51463503516082  L 28.869164691057 2.44706053896213  L 26.4988762915111 2.34309977557953  L 26.4988762915111 1.54346823722836  C 26.4988762915111 1.54346823722836  25.9741691997712 0.950891885947536  25.5908294732438 0.91537195845848  C 25.2083570311656 0.879852030969425  24.5093257651451 0.91537195845848  24.5093257651451 0.91537195845848  L 24.2682206882795 1.26623953487476  L 24.2300601725166 2.24087169158664  C 24.2300601725166 2.24087169158664  20.1581596837249 1.96104397014847  19.7748199571975 2.10139100071499  C 19.3923475151193 2.24087169158664  18.7306094804126 2.93654246655521  18.7306094804126 2.93654246655521  L 18.8693749922777 3.63221324152378  L 19.1841992473216 4.01600172634455  L 19.7071717701632 4.36253760428656  L 20.1243355902077 4.15634875691106  C 20.1243355902077 4.15634875691106  20.6819994910156 3.77082759270058  20.8207650028807 3.80461484079993  C 20.9621323680933 3.84273378737355  22.1468429256417 3.66946584840255  22.1468429256417 3.66946584840255  L 23.0505533216632 3.49186621095727  L 24.0574705671344 3.49186621095727  L 24.5101930495943 3.66946584840255  L 24.6142671834931 4.36253760428655  L 24.3714275377292 4.64409800511443  L 23.9872205267527 4.57479082952603  C 23.9872205267527 4.57479082952603  23.8128963524721 4.43531013865438  23.7105567874716 4.39979021116532  C 23.6056153691236 4.36253760428655  23.3627757233597 4.32875035618721  23.3627757233597 4.32875035618721  L 22.7027722575513 4.71080616161827  L 22.2170929660234 4.89013847845325  L 21.6967222965292 4.71080616161827  L 21.1381911112722 4.64409800511443  L 20.5770580726676 4.89013847845325  L 20.263968386522 5.27392696327402  L 20.3012616178357 7.49435560118741  L 20.7522495313973 11.6753109685577  L 21.1017651644076 12.0218468464997  L 21.5891790248338 11.846846228139  L 21.9725187513611 11.6406573807635  L 22.0072101293274 10.0725825330759  L 24.4043843467971 10.108102460565  L 24.5448844275606 11.3261760715311  L 24.6142671834931 12.0954857205624  L 24.8232827357399 12.7885574764464  C 24.8232827357399 12.7885574764464  25.138974275233 12.7556365680419  25.2430484091319 12.7556365680419  C 25.3471225430307 12.7556365680419  25.7668882164227 12.6152895374754  25.7668882164227 12.6152895374754  L 25.9412123907032 12.0582331136836  L 26.0791106181191 11.362562338715  L 26.1484933740517 10.1072361208701  L 28.3800162617325 10.0379289452817  L 28.9029887845741 9.65240778107123  L 28.941149300337 10.3515439148192  C 28.941149300337 10.3515439148192  28.8336060286415 11.0472146897878  28.8700319755061 11.2196162890639  C 28.9029887845741 11.3954832471195  28.7650905571581 12.0209805068048  28.7650905571581 12.0209805068048  C 28.7650905571581 12.0209805068048  29.0105320562695 12.474076167214  29.1137389057192 12.474076167214  C 29.2186803240672 12.474076167214  30.0200511550882 12.1968474648604  30.0200511550882 12.1968474648604  L 30.2993167477167 11.3954832471195  L 30.5412891090315 10.2111968842527  L 30.9619220668726 5.68890367710957  L 30.4025235971664 5.09286196704933  L 29.6011527661454 5.05994105864484  L 28.1736025628331 5.05994105864484  L 27.4745712968126 4.67961793260349  L 26.918641964903 4.67961793260349  L 26.1164038494329 4.57392448983118  L 26.0799779025683 4.18926966531555  L 26.4294935355785 3.56290606593538  L 27.4051885408801 3.59322795525531  L 28.6965750856747 3.94669455075615  C 28.6965750856747 3.94669455075615  29.8127701717397 4.25857684090395  29.9853597771219 4.29323042869815  C 30.1614185203008 4.3270176767975  30.5794496247944 4.39892387147046  30.7529065146258 4.3616712645917  C 30.9289652578046 4.32788401649235  31.312304984332 4.0151353866497  31.312304984332 4.0151353866497  L 32.1839258557347 2.86463627188225  Z M 34.4917697749413 16.4367139314808  L 34.5542142552806 19.381402554293  L 34.5134518861702 19.381402554293  L 33.4128679201901 16.4367139314808  L 31.6817681596729 16.4367139314808  L 31.6817681596729 20.2719997606039  L 32.7060310941272 20.2719997606039  L 32.6435866137879 17.3247121187072  L 32.6860835517966 17.3247121187072  L 33.7701891132427 20.2719997606039  L 35.5160327093956 20.2719997606039  L 35.5160327093956 16.4367139314808  L 34.4917697749413 16.4367139314808  Z " fill-rule="nonzero" fill="#e60012" stroke="none" transform="matrix(1 0 0 1 43 14 )" />
  </g>
</svg>