<?xml version="1.0" encoding="utf-8"?>
<svg version="1.1" xmlns:xlink="http://www.w3.org/1999/xlink" width="5px" height="10px" xmlns="http://www.w3.org/2000/svg">
  <g transform="matrix(1 0 0 1 -269 -445 )">
    <path d="M 4.9072265625 6.04403409090909  C 4.96907552083333 6.13399621212121  5 6.2405303030303  5 6.36363636363636  C 5 6.48674242424242  4.96907552083333 6.59327651515151  4.9072265625 6.68323863636364  L 2.7197265625 9.86505681818182  C 2.65787760416667 9.95501893939394  2.58463541666667 10  2.5 10  C 2.41536458333333 10  2.34212239583333 9.95501893939394  2.2802734375 9.86505681818182  L 0.0927734375 6.68323863636364  C 0.0309244791666667 6.59327651515151  0 6.48674242424242  0 6.36363636363636  C 0 6.2405303030303  0.0309244791666667 6.13399621212121  0.0927734375 6.04403409090909  C 0.154622395833333 5.95407196969697  0.227864583333333 5.90909090909091  0.3125 5.90909090909091  L 4.6875 5.90909090909091  C 4.77213541666667 5.90909090909091  4.84537760416667 5.95407196969697  4.9072265625 6.04403409090909  Z M 4.9072265625 3.31676136363636  C 4.96907552083333 3.40672348484848  5 3.51325757575757  5 3.63636363636364  C 5 3.7594696969697  4.96907552083333 3.86600378787879  4.9072265625 3.95596590909091  C 4.84537760416667 4.04592803030303  4.77213541666667 4.09090909090909  4.6875 4.09090909090909  L 0.3125 4.09090909090909  C 0.227864583333333 4.09090909090909  0.154622395833333 4.04592803030303  0.0927734375 3.95596590909091  C 0.0309244791666667 3.86600378787879  0 3.7594696969697  0 3.63636363636364  C 0 3.51325757575757  0.0309244791666667 3.40672348484848  0.0927734375 3.31676136363636  L 2.2802734375 0.134943181818182  C 2.34212239583333 0.0449810606060597  2.41536458333333 0  2.5 0  C 2.58463541666667 0  2.65787760416667 0.0449810606060597  2.7197265625 0.134943181818182  L 4.9072265625 3.31676136363636  Z " fill-rule="nonzero" fill="#ffffff" stroke="none" transform="matrix(1 0 0 1 269 445 )" />
  </g>
</svg>