<?xml version="1.0" encoding="utf-8"?>
<svg version="1.1" xmlns:xlink="http://www.w3.org/1999/xlink" width="24px" height="20px" xmlns="http://www.w3.org/2000/svg">
  <defs>
    <mask fill="white" id="clip9">
      <path d="M 3.6 20  L 9.6 20  L 9.6 12.9411764705882  L 14.4 12.9411764705882  L 14.4 20  L 20.4 20  L 20.4 10.5882352941176  L 24 10.5882352941176  L 12 0  L 0 10.5882352941176  L 3.6 10.5882352941176  L 3.6 20  Z " fill-rule="evenodd" />
    </mask>
  </defs>
  <g transform="matrix(1 0 0 1 -905 -11 )">
    <path d="M 3.6 20  L 9.6 20  L 9.6 12.9411764705882  L 14.4 12.9411764705882  L 14.4 20  L 20.4 20  L 20.4 10.5882352941176  L 24 10.5882352941176  L 12 0  L 0 10.5882352941176  L 3.6 10.5882352941176  L 3.6 20  Z " fill-rule="nonzero" fill="#e60012" stroke="none" fill-opacity="0" transform="matrix(1 0 0 1 905 11 )" />
    <path d="M 3.6 20  L 9.6 20  L 9.6 12.9411764705882  L 14.4 12.9411764705882  L 14.4 20  L 20.4 20  L 20.4 10.5882352941176  L 24 10.5882352941176  L 12 0  L 0 10.5882352941176  L 3.6 10.5882352941176  L 3.6 20  Z " stroke-width="2" stroke="#ffffff" fill="none" transform="matrix(1 0 0 1 905 11 )" mask="url(#clip9)" />
  </g>
</svg>