<?xml version="1.0" encoding="utf-8"?>
<svg version="1.1" xmlns:xlink="http://www.w3.org/1999/xlink" width="13px" height="13px" xmlns="http://www.w3.org/2000/svg">
  <g transform="matrix(1 0 0 1 -1145 -532 )">
    <path d="M 5.77777777777783 0  L 0 0  L 0 5.77777777777783  L 5.77777777777783 5.77777777777783  L 5.77777777777783 0  Z M 5.77777777777783 7.22222222222217  L 0 7.22222222222217  L 0 13  L 5.77777777777783 13  L 5.77777777777783 7.22222222222217  Z M 13 0  L 7.22222222222217 0  L 7.22222222222217 5.77777777777783  L 13 5.77777777777783  L 13 0  Z M 13 7.22222222222217  L 7.22222222222217 7.22222222222217  L 7.22222222222217 13  L 13 13  L 13 7.22222222222217  Z M 1.44444444444434 4.33333333333337  C 2.40740740740739 4.33333333333337  4.33333333333326 4.33333333333337  4.33333333333326 4.33333333333337  C 4.33333333333326 4.33333333333337  2.40740740740739 4.33333333333337  1.44444444444434 4.33333333333337  Z M 4.33333333333326 8.66666666666663  L 1.44444444444434 8.66666666666663  L 4.33333333333326 8.66666666666663  Z M 8.66666666666674 4.33333333333337  L 11.5555555555557 4.33333333333337  L 8.66666666666674 4.33333333333337  Z M 11.5555555555557 8.66666666666663  L 8.66666666666674 8.66666666666663  L 11.5555555555557 8.66666666666663  Z " fill-rule="nonzero" fill="#027db4" stroke="none" transform="matrix(1 0 0 1 1145 532 )" />
  </g>
</svg>